  0
SECTION
  2
HEADER
  9
$ACADVER
  1
AC1014
  9
$HANDSEED
  5
FFFF
  9
$MEASUREMENT
 70
     1
  0
ENDSEC
  0
SECTION
  2
TABLES
  0
TABLE
  2
VPORT
  5
8
330
0
100
AcDbSymbolTable
 70
     4
  0
VPORT
  5
2E
330
8
100
AcDbSymbolTableRecord
100
AcDbViewportTableRecord
  2
*ACTIVE
 70
     0
 10
0.0
 20
0.0
 11
1.0
 21
1.0
 12
210.0
 22
148.5
 13
0.0
 23
0.0
 14
10.0
 24
10.0
 15
10.0
 25
10.0
 16
0.0
 26
0.0
 36
1.0
 17
0.0
 27
0.0
 37
0.0
 40
341.0
 41
1.24
 42
50.0
 43
0.0
 44
0.0
 50
0.0
 51
0.0
 71
     0
 72
   100
 73
     1
 74
     3
 75
     0
 76
     0
 77
     0
 78
     0
  0
ENDTAB
  0
TABLE
  2
LTYPE
  5
5
330
0
100
AcDbSymbolTable
 70
     1
  0
LTYPE
  5
14
330
5
100
AcDbSymbolTableRecord
100
AcDbLinetypeTableRecord
  2
BYBLOCK
 70
     0
  3

 72
    65
 73
     0
 40
0.0
  0
LTYPE
  5
15
330
5
100
AcDbSymbolTableRecord
100
AcDbLinetypeTableRecord
  2
BYLAYER
 70
     0
  3

 72
    65
 73
     0
 40
0.0
  0
LTYPE
  5
16
330
5
100
AcDbSymbolTableRecord
100
AcDbLinetypeTableRecord
  2
CONTINUOUS
 70
     0
  3
Solid line
 72
    65
 73
     0
 40
0.0
  0
ENDTAB
  0
TABLE
  2
LAYER
  5
2
100
AcDbSymbolTable
 70
2
  0
LAYER
  5
50
100
AcDbSymbolTableRecord
100
AcDbLayerTableRecord
  2
0
 70
0
  6
CONTINUOUS
  0
LAYER
  5
51
100
AcDbSymbolTableRecord
100
AcDbLayerTableRecord
  2
Layer_1
 70
0
  6
CONTINUOUS
  0
ENDTAB
  0
TABLE
  2
STYLE
  5
3
330
0
100
AcDbSymbolTable
 70
     1
  0
STYLE
  5
11
330
3
100
AcDbSymbolTableRecord
100
AcDbTextStyleTableRecord
  2
STANDARD
 70
     0
 40
0.0
 41
1.0
 50
0.0
 71
     0
 42
2.5
  3
txt
  4

  0
ENDTAB
  0
TABLE
  2
VIEW
  5
6
330
0
100
AcDbSymbolTable
 70
     0
  0
ENDTAB
  0
TABLE
  2
UCS
  5
7
330
0
100
AcDbSymbolTable
 70
     0
  0
ENDTAB
  0
TABLE
  2
APPID
  5
9
330
0
100
AcDbSymbolTable
 70
     2
  0
APPID
  5
12
330
9
100
AcDbSymbolTableRecord
100
AcDbRegAppTableRecord
  2
ACAD
 70
     0
  0
ENDTAB
  0
TABLE
  2
DIMSTYLE
  5
A
330
0
100
AcDbSymbolTable
 70
     1
  0
DIMSTYLE
105
27
330
A
100
AcDbSymbolTableRecord
100
AcDbDimStyleTableRecord
  2
ISO-25
 70
     0
  3

  4

  5

  6

  7

 40
1.0
 41
2.5
 42
0.625
 43
3.75
 44
1.25
 45
0.0
 46
0.0
 47
0.0
 48
0.0
140
2.5
141
2.5
142
0.0
143
0.03937007874016
144
1.0
145
0.0
146
1.0
147
0.625
 71
     0
 72
     0
 73
     0
 74
     0
 75
     0
 76
     0
 77
     1
 78
     8
170
     0
171
     3
172
     1
173
     0
174
     0
175
     0
176
     0
177
     0
178
     0
270
     2
271
     2
272
     2
273
     2
274
     3
340
11
275
     0
280
     0
281
     0
282
     0
283
     0
284
     8
285
     0
286
     0
287
     3
288
     0
  0
ENDTAB
  0
TABLE
  2
BLOCK_RECORD
  5
1
330
0
100
AcDbSymbolTable
 70
     1
  0
BLOCK_RECORD
  5
1F
330
1
100
AcDbSymbolTableRecord
100
AcDbBlockTableRecord
  2
*MODEL_SPACE
  0
BLOCK_RECORD
  5
1B
330
1
100
AcDbSymbolTableRecord
100
AcDbBlockTableRecord
  2
*PAPER_SPACE
  0
ENDTAB
  0
ENDSEC
  0
SECTION
  2
BLOCKS
  0
BLOCK
  5
20
330
1F
100
AcDbEntity
  8
0
100
AcDbBlockBegin
  2
*MODEL_SPACE
 70
     0
 10
0.0
 20
0.0
 30
0.0
  3
*MODEL_SPACE
  1

  0
ENDBLK
  5
21
330
1F
100
AcDbEntity
  8
0
100
AcDbBlockEnd
  0
BLOCK
  5
1C
330
1B
100
AcDbEntity
 67
     1
  8
0
100
AcDbBlockBegin
  2
*PAPER_SPACE
  1

  0
ENDBLK
  5
1D
330
1B
100
AcDbEntity
 67
     1
  8
0
100
AcDbBlockEnd
  0
ENDSEC
  0
SECTION
  2
ENTITIES
  0
SPLINE
  5
100
100
AcDbEntity
  8
Layer_1
 62
7
100
AcDbSpline
 70
8
 71
3
 72
8
 73
4
 74
0
 40
0
 40
0
 40
0
 40
0
 40
1
 40
1
 40
1
 40
1
 10
324.855568
 20
506.950796
 30
0.0
 10
328.380928
 20
504.201996
 30
0.0
 10
334.512128
 20
496.590268
 30
0.0
 10
323.878528
 20
481.068132
 30
0.0
  0
SPLINE
  5
101
100
AcDbEntity
  8
Layer_1
 62
7
100
AcDbSpline
 70
8
 71
3
 72
8
 73
4
 74
0
 40
0
 40
0
 40
0
 40
0
 40
1
 40
1
 40
1
 40
1
 10
323.878528
 20
481.068132
 30
0.0
 10
328.101408
 20
468.261732
 30
0.0
 10
304.920608
 20
465.064932
 30
0.0
 10
297.282208
 20
477.505468
 30
0.0
  0
SPLINE
  5
102
100
AcDbEntity
  8
Layer_1
 62
7
100
AcDbSpline
 70
8
 71
3
 72
8
 73
4
 74
0
 40
0
 40
0
 40
0
 40
0
 40
1
 40
1
 40
1
 40
1
 10
297.282208
 20
477.505468
 30
0.0
 10
302.566528
 20
463.465996
 30
0.0
 10
316.874768
 20
464.485732
 30
0.0
 10
324.682768
 20
470.149732
 30
0.0
  0
SPLINE
  5
103
100
AcDbEntity
  8
Layer_1
 62
7
100
AcDbSpline
 70
8
 71
3
 72
8
 73
4
 74
0
 40
0
 40
0
 40
0
 40
0
 40
1
 40
1
 40
1
 40
1
 10
324.682768
 20
470.149732
 30
0.0
 10
328.840608
 20
456.924132
 30
0.0
 10
321.755808
 20
420.731068
 30
0.0
 10
301.924368
 20
415.043604
 30
0.0
  0
SPLINE
  5
104
100
AcDbEntity
  8
Layer_1
 62
7
100
AcDbSpline
 70
8
 71
3
 72
8
 73
4
 74
0
 40
0
 40
0
 40
0
 40
0
 40
1
 40
1
 40
1
 40
1
 10
301.924368
 20
415.043604
 30
0.0
 10
301.568128
 20
396.600932
 30
0.0
 10
173.859328
 20
396.600932
 30
0.0
 10
173.505168
 20
415.043604
 30
0.0
  0
SPLINE
  5
105
100
AcDbEntity
  8
Layer_1
 62
7
100
AcDbSpline
 70
8
 71
3
 72
8
 73
4
 74
0
 40
0
 40
0
 40
0
 40
0
 40
1
 40
1
 40
1
 40
1
 10
173.505168
 20
415.043604
 30
0.0
 10
153.672688
 20
420.731068
 30
0.0
 10
146.586768
 20
456.924132
 30
0.0
 10
150.746768
 20
470.149732
 30
0.0
  0
SPLINE
  5
106
100
AcDbEntity
  8
Layer_1
 62
7
100
AcDbSpline
 70
8
 71
3
 72
8
 73
4
 74
0
 40
0
 40
0
 40
0
 40
0
 40
1
 40
1
 40
1
 40
1
 10
150.746768
 20
470.149732
 30
0.0
 10
158.555888
 20
464.485732
 30
0.0
 10
172.861968
 20
463.465996
 30
0.0
 10
178.147328
 20
477.505468
 30
0.0
  0
SPLINE
  5
107
100
AcDbEntity
  8
Layer_1
 62
7
100
AcDbSpline
 70
8
 71
3
 72
8
 73
4
 74
0
 40
0
 40
0
 40
0
 40
0
 40
1
 40
1
 40
1
 40
1
 10
178.147328
 20
477.505468
 30
0.0
 10
170.509968
 20
465.064932
 30
0.0
 10
147.328128
 20
468.261732
 30
0.0
 10
151.548928
 20
481.068132
 30
0.0
  0
SPLINE
  5
108
100
AcDbEntity
  8
Layer_1
 62
7
100
AcDbSpline
 70
8
 71
3
 72
8
 73
4
 74
0
 40
0
 40
0
 40
0
 40
0
 40
1
 40
1
 40
1
 40
1
 10
151.548928
 20
481.068132
 30
0.0
 10
140.918528
 20
496.590268
 30
0.0
 10
147.049728
 20
504.201996
 30
0.0
 10
150.573968
 20
506.950796
 30
0.0
  0
SPLINE
  5
109
100
AcDbEntity
  8
Layer_1
 62
7
100
AcDbSpline
 70
8
 71
3
 72
8
 73
4
 74
0
 40
0
 40
0
 40
0
 40
0
 40
1
 40
1
 40
1
 40
1
 10
150.573968
 20
506.950796
 30
0.0
 10
155.649168
 20
505.523596
 30
0.0
 10
161.449728
 20
506.453732
 30
0.0
 10
166.748928
 20
511.755068
 30
0.0
  0
SPLINE
  5
10a
100
AcDbEntity
  8
Layer_1
 62
7
100
AcDbSpline
 70
8
 71
3
 72
8
 73
4
 74
0
 40
0
 40
0
 40
0
 40
0
 40
1
 40
1
 40
1
 40
1
 10
166.748928
 20
511.755068
 30
0.0
 10
154.659328
 20
503.575868
 30
0.0
 10
134.861968
 20
516.052668
 30
0.0
 10
143.992688
 20
525.976932
 30
0.0
  0
SPLINE
  5
10b
100
AcDbEntity
  8
Layer_1
 62
7
100
AcDbSpline
 70
8
 71
3
 72
8
 73
4
 74
0
 40
0
 40
0
 40
0
 40
0
 40
1
 40
1
 40
1
 40
1
 10
143.992688
 20
525.976932
 30
0.0
 10
138.411888
 20
531.559868
 30
0.0
 10
149.332368
 20
540.658532
 30
0.0
 10
152.210288
 20
542.891068
 30
0.0
  0
SPLINE
  5
10c
100
AcDbEntity
  8
Layer_1
 62
7
100
AcDbSpline
 70
8
 71
3
 72
8
 73
4
 74
0
 40
0
 40
0
 40
0
 40
0
 40
1
 40
1
 40
1
 40
1
 10
152.210288
 20
542.891068
 30
0.0
 10
154.580368
 20
541.853196
 30
0.0
 10
157.045488
 20
541.399868
 30
0.0
 10
159.432688
 20
541.769996
 30
0.0
  0
SPLINE
  5
10d
100
AcDbEntity
  8
Layer_1
 62
7
100
AcDbSpline
 70
8
 71
3
 72
8
 73
4
 74
0
 40
0
 40
0
 40
0
 40
0
 40
1
 40
1
 40
1
 40
1
 10
159.432688
 20
541.769996
 30
0.0
 10
163.607568
 20
541.698556
 30
0.0
 10
168.844928
 20
544.438796
 30
0.0
 10
173.148928
 20
548.020668
 30
0.0
  0
SPLINE
  5
10e
100
AcDbEntity
  8
Layer_1
 62
7
100
AcDbSpline
 70
8
 71
3
 72
8
 73
4
 74
0
 40
0
 40
0
 40
0
 40
0
 40
1
 40
1
 40
1
 40
1
 10
173.148928
 20
548.020668
 30
0.0
 10
179.944688
 20
553.677196
 30
0.0
 10
184.387328
 20
561.415868
 30
0.0
 10
190.374528
 20
562.745996
 30
0.0
  0
SPLINE
  5
10f
100
AcDbEntity
  8
Layer_1
 62
7
100
AcDbSpline
 70
8
 71
3
 72
8
 73
4
 74
0
 40
0
 40
0
 40
0
 40
0
 40
1
 40
1
 40
1
 40
1
 10
190.374528
 20
562.745996
 30
0.0
 10
198.105728
 20
550.003596
 30
0.0
 10
223.199088
 20
558.376932
 30
0.0
 10
233.447568
 20
562.478268
 30
0.0
  0
SPLINE
  5
110
100
AcDbEntity
  8
Layer_1
 62
7
100
AcDbSpline
 70
8
 71
3
 72
8
 73
4
 74
0
 40
0
 40
0
 40
0
 40
0
 40
1
 40
1
 40
1
 40
1
 10
233.447568
 20
562.478268
 30
0.0
 10
236.575648
 20
563.972140
 30
0.0
 10
237.883488
 20
564.022204
 30
0.0
 10
241.263248
 20
562.681772
 30
0.0
  0
SPLINE
  5
111
100
AcDbEntity
  8
Layer_1
 62
7
100
AcDbSpline
 70
8
 71
3
 72
8
 73
4
 74
0
 40
0
 40
0
 40
0
 40
0
 40
1
 40
1
 40
1
 40
1
 10
241.263248
 20
562.681772
 30
0.0
 10
250.892048
 20
558.739372
 30
0.0
 10
277.099808
 20
549.635596
 30
0.0
 10
285.055008
 20
562.746012
 30
0.0
  0
SPLINE
  5
112
100
AcDbEntity
  8
Layer_1
 62
7
100
AcDbSpline
 70
8
 71
3
 72
8
 73
4
 74
0
 40
0
 40
0
 40
0
 40
0
 40
1
 40
1
 40
1
 40
1
 10
285.055008
 20
562.746012
 30
0.0
 10
291.043328
 20
561.415876
 30
0.0
 10
295.484928
 20
553.677212
 30
0.0
 10
302.278528
 20
548.020676
 30
0.0
  0
SPLINE
  5
113
100
AcDbEntity
  8
Layer_1
 62
7
100
AcDbSpline
 70
8
 71
3
 72
8
 73
4
 74
0
 40
0
 40
0
 40
0
 40
0
 40
1
 40
1
 40
1
 40
1
 10
302.278528
 20
548.020676
 30
0.0
 10
306.582528
 20
544.438812
 30
0.0
 10
311.819808
 20
541.698548
 30
0.0
 10
315.994768
 20
541.770012
 30
0.0
  0
SPLINE
  5
114
100
AcDbEntity
  8
Layer_1
 62
7
100
AcDbSpline
 70
8
 71
3
 72
8
 73
4
 74
0
 40
0
 40
0
 40
0
 40
0
 40
1
 40
1
 40
1
 40
1
 10
315.994768
 20
541.770012
 30
0.0
 10
318.383008
 20
541.399876
 30
0.0
 10
320.847008
 20
541.853212
 30
0.0
 10
323.218208
 20
542.891076
 30
0.0
  0
SPLINE
  5
115
100
AcDbEntity
  8
Layer_1
 62
7
100
AcDbSpline
 70
8
 71
3
 72
8
 73
4
 74
0
 40
0
 40
0
 40
0
 40
0
 40
1
 40
1
 40
1
 40
1
 10
323.218208
 20
542.891076
 30
0.0
 10
326.097168
 20
540.658548
 30
0.0
 10
337.017728
 20
531.559876
 30
0.0
 10
331.434768
 20
525.976948
 30
0.0
  0
SPLINE
  5
116
100
AcDbEntity
  8
Layer_1
 62
7
100
AcDbSpline
 70
8
 71
3
 72
8
 73
4
 74
0
 40
0
 40
0
 40
0
 40
0
 40
1
 40
1
 40
1
 40
1
 10
331.434768
 20
525.976948
 30
0.0
 10
340.566528
 20
516.052676
 30
0.0
 10
320.768128
 20
503.575876
 30
0.0
 10
308.678528
 20
511.755076
 30
0.0
  0
SPLINE
  5
117
100
AcDbEntity
  8
Layer_1
 62
7
100
AcDbSpline
 70
8
 71
3
 72
8
 73
4
 74
0
 40
0
 40
0
 40
0
 40
0
 40
1
 40
1
 40
1
 40
1
 10
308.678528
 20
511.755076
 30
0.0
 10
313.980928
 20
506.453748
 30
0.0
 10
319.778208
 20
505.523612
 30
0.0
 10
324.855568
 20
506.950812
 30
0.0
  0
SPLINE
  5
118
100
AcDbEntity
  8
Layer_1
 62
7
100
AcDbSpline
 70
8
 71
3
 72
8
 73
4
 74
0
 40
0
 40
0
 40
0
 40
0
 40
1
 40
1
 40
1
 40
1
 10
142.597488
 20
565.607852
 30
0.0
 10
142.953728
 20
566.368388
 30
0.0
 10
143.576688
 20
567.558788
 30
0.0
 10
144.505728
 20
568.928388
 30
0.0
  0
SPLINE
  5
119
100
AcDbEntity
  8
Layer_1
 62
7
100
AcDbSpline
 70
8
 71
3
 72
8
 73
4
 74
0
 40
0
 40
0
 40
0
 40
0
 40
1
 40
1
 40
1
 40
1
 10
144.505728
 20
568.928388
 30
0.0
 10
144.572128
 20
568.952948
 30
0.0
 10
144.636928
 20
568.979588
 30
0.0
 10
144.705168
 20
568.997748
 30
0.0
  0
SPLINE
  5
11a
100
AcDbEntity
  8
Layer_1
 62
7
100
AcDbSpline
 70
8
 71
3
 72
8
 73
4
 74
0
 40
0
 40
0
 40
0
 40
0
 40
1
 40
1
 40
1
 40
1
 10
144.705168
 20
568.997748
 30
0.0
 10
144.686768
 20
569.037188
 30
0.0
 10
144.661168
 20
569.083084
 30
0.0
 10
144.641168
 20
569.125748
 30
0.0
  0
SPLINE
  5
11b
100
AcDbEntity
  8
Layer_1
 62
7
100
AcDbSpline
 70
8
 71
3
 72
8
 73
4
 74
0
 40
0
 40
0
 40
0
 40
0
 40
1
 40
1
 40
1
 40
1
 10
144.641168
 20
569.125748
 30
0.0
 10
147.251328
 20
572.892148
 30
0.0
 10
152.169728
 20
577.876684
 30
0.0
 10
160.348928
 20
578.952948
 30
0.0
  0
SPLINE
  5
11c
100
AcDbEntity
  8
Layer_1
 62
7
100
AcDbSpline
 70
8
 71
3
 72
8
 73
4
 74
0
 40
0
 40
0
 40
0
 40
0
 40
1
 40
1
 40
1
 40
1
 10
160.348928
 20
578.952948
 30
0.0
 10
153.649168
 20
582.973220
 30
0.0
 10
145.943568
 20
577.098020
 30
0.0
 10
142.551568
 20
573.958820
 30
0.0
  0
SPLINE
  5
11d
100
AcDbEntity
  8
Layer_1
 62
7
100
AcDbSpline
 70
8
 71
3
 72
8
 73
4
 74
0
 40
0
 40
0
 40
0
 40
0
 40
1
 40
1
 40
1
 40
1
 10
142.551568
 20
573.958820
 30
0.0
 10
141.535088
 20
578.104948
 30
0.0
 10
142.274288
 20
584.304420
 30
0.0
 10
151.815568
 20
591.752948
 30
0.0
  0
SPLINE
  5
11e
100
AcDbEntity
  8
Layer_1
 62
7
100
AcDbSpline
 70
8
 71
3
 72
8
 73
4
 74
0
 40
0
 40
0
 40
0
 40
0
 40
1
 40
1
 40
1
 40
1
 10
151.815568
 20
591.752948
 30
0.0
 10
146.385168
 20
594.959348
 30
0.0
 10
154.661488
 20
601.708148
 30
0.0
 10
154.661488
 20
601.708148
 30
0.0
  0
SPLINE
  5
11f
100
AcDbEntity
  8
Layer_1
 62
7
100
AcDbSpline
 70
8
 71
3
 72
8
 73
4
 74
0
 40
0
 40
0
 40
0
 40
0
 40
1
 40
1
 40
1
 40
1
 10
154.661488
 20
601.708148
 30
0.0
 10
154.661488
 20
601.708148
 30
0.0
 10
154.205968
 20
606.514548
 30
0.0
 10
158.582528
 20
608.545484
 30
0.0
  0
SPLINE
  5
120
100
AcDbEntity
  8
Layer_1
 62
7
100
AcDbSpline
 70
8
 71
3
 72
8
 73
4
 74
0
 40
0
 40
0
 40
0
 40
0
 40
1
 40
1
 40
1
 40
1
 10
158.582528
 20
608.545484
 30
0.0
 10
164.976128
 20
600.974284
 30
0.0
 10
177.767568
 20
593.524684
 30
0.0
 10
183.441168
 20
584.346020
 30
0.0
  0
SPLINE
  5
121
100
AcDbEntity
  8
Layer_1
 62
7
100
AcDbSpline
 70
8
 71
3
 72
8
 73
4
 74
0
 40
0
 40
0
 40
0
 40
0
 40
1
 40
1
 40
1
 40
1
 10
183.441168
 20
584.346020
 30
0.0
 10
184.520688
 20
586.043084
 30
0.0
 10
173.788928
 20
599.893748
 30
0.0
 10
170.641168
 20
603.494820
 30
0.0
  0
SPLINE
  5
122
100
AcDbEntity
  8
Layer_1
 62
7
100
AcDbSpline
 70
8
 71
3
 72
8
 73
4
 74
0
 40
0
 40
0
 40
0
 40
0
 40
1
 40
1
 40
1
 40
1
 10
170.641168
 20
603.494820
 30
0.0
 10
167.784688
 20
606.763084
 30
0.0
 10
164.416128
 20
609.852148
 30
0.0
 10
161.674768
 20
612.513484
 30
0.0
  0
SPLINE
  5
123
100
AcDbEntity
  8
Layer_1
 62
7
100
AcDbSpline
 70
8
 71
3
 72
8
 73
4
 74
0
 40
0
 40
0
 40
0
 40
0
 40
1
 40
1
 40
1
 40
1
 10
161.674768
 20
612.513484
 30
0.0
 10
156.872688
 20
616.999884
 30
0.0
 10
156.339328
 20
619.843620
 30
0.0
 10
161.061488
 20
627.664420
 30
0.0
  0
SPLINE
  5
124
100
AcDbEntity
  8
Layer_1
 62
7
100
AcDbSpline
 70
8
 71
3
 72
8
 73
4
 74
0
 40
0
 40
0
 40
0
 40
0
 40
1
 40
1
 40
1
 40
1
 10
161.061488
 20
627.664420
 30
0.0
 10
160.289168
 20
629.583348
 30
0.0
 10
161.851888
 20
633.706020
 30
0.0
 10
161.851888
 20
633.706020
 30
0.0
  0
SPLINE
  5
125
100
AcDbEntity
  8
Layer_1
 62
7
100
AcDbSpline
 70
8
 71
3
 72
8
 73
4
 74
0
 40
0
 40
0
 40
0
 40
0
 40
1
 40
1
 40
1
 40
1
 10
161.851888
 20
633.706020
 30
0.0
 10
161.851888
 20
633.706020
 30
0.0
 10
188.230528
 20
608.354548
 30
0.0
 10
193.397488
 20
613.768948
 30
0.0
  0
SPLINE
  5
126
100
AcDbEntity
  8
Layer_1
 62
7
100
AcDbSpline
 70
8
 71
3
 72
8
 73
4
 74
0
 40
0
 40
0
 40
0
 40
0
 40
1
 40
1
 40
1
 40
1
 10
193.397488
 20
613.768948
 30
0.0
 10
198.599568
 20
619.219620
 30
0.0
 10
180.888688
 20
617.857484
 30
0.0
 10
164.774528
 20
634.390820
 30
0.0
  0
SPLINE
  5
127
100
AcDbEntity
  8
Layer_1
 62
7
100
AcDbSpline
 70
8
 71
3
 72
8
 73
4
 74
0
 40
0
 40
0
 40
0
 40
0
 40
1
 40
1
 40
1
 40
1
 10
164.774528
 20
634.390820
 30
0.0
 10
158.553728
 20
640.772684
 30
0.0
 10
168.151568
 20
680.107076
 30
0.0
 10
168.151568
 20
680.107076
 30
0.0
  0
SPLINE
  5
128
100
AcDbEntity
  8
Layer_1
 62
7
100
AcDbSpline
 70
8
 71
3
 72
8
 73
4
 74
0
 40
0
 40
0
 40
0
 40
0
 40
1
 40
1
 40
1
 40
1
 10
168.151568
 20
680.107076
 30
0.0
 10
168.151568
 20
680.107076
 30
0.0
 10
167.618288
 20
687.724140
 30
0.0
 10
172.951568
 20
695.724140
 30
0.0
  0
SPLINE
  5
129
100
AcDbEntity
  8
Layer_1
 62
7
100
AcDbSpline
 70
8
 71
3
 72
8
 73
4
 74
0
 40
0
 40
0
 40
0
 40
0
 40
1
 40
1
 40
1
 40
1
 10
172.951568
 20
695.724140
 30
0.0
 10
178.284928
 20
703.724140
 30
0.0
 10
198.567568
 20
710.506012
 30
0.0
 10
203.707888
 20
717.959876
 30
0.0
  0
SPLINE
  5
12a
100
AcDbEntity
  8
Layer_1
 62
7
100
AcDbSpline
 70
8
 71
3
 72
8
 73
4
 74
0
 40
0
 40
0
 40
0
 40
0
 40
1
 40
1
 40
1
 40
1
 10
203.707888
 20
717.959876
 30
0.0
 10
206.066288
 20
721.378540
 30
0.0
 10
224.882288
 20
723.855340
 30
0.0
 10
237.714288
 20
724.016412
 30
0.0
  0
SPLINE
  5
12b
100
AcDbEntity
  8
Layer_1
 62
7
100
AcDbSpline
 70
8
 71
3
 72
8
 73
4
 74
0
 40
0
 40
0
 40
0
 40
0
 40
1
 40
1
 40
1
 40
1
 10
237.714288
 20
724.016412
 30
0.0
 10
250.547328
 20
723.855340
 30
0.0
 10
269.364368
 20
721.378540
 30
0.0
 10
271.720688
 20
717.959876
 30
0.0
  0
SPLINE
  5
12c
100
AcDbEntity
  8
Layer_1
 62
7
100
AcDbSpline
 70
8
 71
3
 72
8
 73
4
 74
0
 40
0
 40
0
 40
0
 40
0
 40
1
 40
1
 40
1
 40
1
 10
271.720688
 20
717.959876
 30
0.0
 10
276.861968
 20
710.506012
 30
0.0
 10
297.144608
 20
703.724140
 30
0.0
 10
302.477968
 20
695.724140
 30
0.0
  0
SPLINE
  5
12d
100
AcDbEntity
  8
Layer_1
 62
7
100
AcDbSpline
 70
8
 71
3
 72
8
 73
4
 74
0
 40
0
 40
0
 40
0
 40
0
 40
1
 40
1
 40
1
 40
1
 10
302.477968
 20
695.724140
 30
0.0
 10
307.811328
 20
687.724140
 30
0.0
 10
307.277968
 20
680.107076
 30
0.0
 10
307.277968
 20
680.107076
 30
0.0
  0
SPLINE
  5
12e
100
AcDbEntity
  8
Layer_1
 62
7
100
AcDbSpline
 70
8
 71
3
 72
8
 73
4
 74
0
 40
0
 40
0
 40
0
 40
0
 40
1
 40
1
 40
1
 40
1
 10
307.277968
 20
680.107076
 30
0.0
 10
307.277968
 20
680.107076
 30
0.0
 10
316.876928
 20
640.772684
 30
0.0
 10
310.655008
 20
634.390820
 30
0.0
  0
SPLINE
  5
12f
100
AcDbEntity
  8
Layer_1
 62
7
100
AcDbSpline
 70
8
 71
3
 72
8
 73
4
 74
0
 40
0
 40
0
 40
0
 40
0
 40
1
 40
1
 40
1
 40
1
 10
310.655008
 20
634.390820
 30
0.0
 10
294.540928
 20
617.857484
 30
0.0
 10
276.831008
 20
619.219620
 30
0.0
 10
282.033168
 20
613.768948
 30
0.0
  0
SPLINE
  5
130
100
AcDbEntity
  8
Layer_1
 62
7
100
AcDbSpline
 70
8
 71
3
 72
8
 73
4
 74
0
 40
0
 40
0
 40
0
 40
0
 40
1
 40
1
 40
1
 40
1
 10
282.033168
 20
613.768948
 30
0.0
 10
287.199008
 20
608.354548
 30
0.0
 10
313.578768
 20
633.706020
 30
0.0
 10
313.578768
 20
633.706020
 30
0.0
  0
SPLINE
  5
131
100
AcDbEntity
  8
Layer_1
 62
7
100
AcDbSpline
 70
8
 71
3
 72
8
 73
4
 74
0
 40
0
 40
0
 40
0
 40
0
 40
1
 40
1
 40
1
 40
1
 10
313.578768
 20
633.706020
 30
0.0
 10
313.578768
 20
633.706020
 30
0.0
 10
315.141408
 20
629.583348
 30
0.0
 10
314.368128
 20
627.664420
 30
0.0
  0
SPLINE
  5
132
100
AcDbEntity
  8
Layer_1
 62
7
100
AcDbSpline
 70
8
 71
3
 72
8
 73
4
 74
0
 40
0
 40
0
 40
0
 40
0
 40
1
 40
1
 40
1
 40
1
 10
314.368128
 20
627.664420
 30
0.0
 10
319.089168
 20
619.843620
 30
0.0
 10
318.555808
 20
616.999884
 30
0.0
 10
313.753728
 20
612.513484
 30
0.0
  0
SPLINE
  5
133
100
AcDbEntity
  8
Layer_1
 62
7
100
AcDbSpline
 70
8
 71
3
 72
8
 73
4
 74
0
 40
0
 40
0
 40
0
 40
0
 40
1
 40
1
 40
1
 40
1
 10
313.753728
 20
612.513484
 30
0.0
 10
311.013408
 20
609.852148
 30
0.0
 10
307.644928
 20
606.763084
 30
0.0
 10
304.789408
 20
603.494820
 30
0.0
  0
SPLINE
  5
134
100
AcDbEntity
  8
Layer_1
 62
7
100
AcDbSpline
 70
8
 71
3
 72
8
 73
4
 74
0
 40
0
 40
0
 40
0
 40
0
 40
1
 40
1
 40
1
 40
1
 10
304.789408
 20
603.494820
 30
0.0
 10
301.640608
 20
599.893748
 30
0.0
 10
290.907808
 20
586.043084
 30
0.0
 10
291.989408
 20
584.346020
 30
0.0
  0
SPLINE
  5
135
100
AcDbEntity
  8
Layer_1
 62
7
100
AcDbSpline
 70
8
 71
3
 72
8
 73
4
 74
0
 40
0
 40
0
 40
0
 40
0
 40
1
 40
1
 40
1
 40
1
 10
291.989408
 20
584.346020
 30
0.0
 10
297.661968
 20
593.524684
 30
0.0
 10
310.453408
 20
600.974284
 30
0.0
 10
316.847008
 20
608.545484
 30
0.0
  0
SPLINE
  5
136
100
AcDbEntity
  8
Layer_1
 62
7
100
AcDbSpline
 70
8
 71
3
 72
8
 73
4
 74
0
 40
0
 40
0
 40
0
 40
0
 40
1
 40
1
 40
1
 40
1
 10
316.847008
 20
608.545484
 30
0.0
 10
321.222528
 20
606.514548
 30
0.0
 10
320.768128
 20
601.708148
 30
0.0
 10
320.768128
 20
601.708148
 30
0.0
  0
SPLINE
  5
137
100
AcDbEntity
  8
Layer_1
 62
7
100
AcDbSpline
 70
8
 71
3
 72
8
 73
4
 74
0
 40
0
 40
0
 40
0
 40
0
 40
1
 40
1
 40
1
 40
1
 10
320.768128
 20
601.708148
 30
0.0
 10
320.768128
 20
601.708148
 30
0.0
 10
329.045408
 20
594.959348
 30
0.0
 10
323.611808
 20
591.752948
 30
0.0
  0
SPLINE
  5
138
100
AcDbEntity
  8
Layer_1
 62
7
100
AcDbSpline
 70
8
 71
3
 72
8
 73
4
 74
0
 40
0
 40
0
 40
0
 40
0
 40
1
 40
1
 40
1
 40
1
 10
323.611808
 20
591.752948
 30
0.0
 10
333.153168
 20
584.304420
 30
0.0
 10
333.893408
 20
578.104948
 30
0.0
 10
332.876928
 20
573.958820
 30
0.0
  0
SPLINE
  5
139
100
AcDbEntity
  8
Layer_1
 62
7
100
AcDbSpline
 70
8
 71
3
 72
8
 73
4
 74
0
 40
0
 40
0
 40
0
 40
0
 40
1
 40
1
 40
1
 40
1
 10
332.876928
 20
573.958820
 30
0.0
 10
329.487008
 20
577.098020
 30
0.0
 10
321.778208
 20
582.973220
 30
0.0
 10
315.078528
 20
578.952948
 30
0.0
  0
SPLINE
  5
13a
100
AcDbEntity
  8
Layer_1
 62
7
100
AcDbSpline
 70
8
 71
3
 72
8
 73
4
 74
0
 40
0
 40
0
 40
0
 40
0
 40
1
 40
1
 40
1
 40
1
 10
315.078528
 20
578.952948
 30
0.0
 10
323.259808
 20
577.876684
 30
0.0
 10
328.176128
 20
572.892148
 30
0.0
 10
330.787328
 20
569.125748
 30
0.0
  0
SPLINE
  5
13b
100
AcDbEntity
  8
Layer_1
 62
7
100
AcDbSpline
 70
8
 71
3
 72
8
 73
4
 74
0
 40
0
 40
0
 40
0
 40
0
 40
1
 40
1
 40
1
 40
1
 10
330.787328
 20
569.125748
 30
0.0
 10
330.765728
 20
569.083108
 30
0.0
 10
330.743328
 20
569.037220
 30
0.0
 10
330.724128
 20
568.997748
 30
0.0
  0
SPLINE
  5
13c
100
AcDbEntity
  8
Layer_1
 62
7
100
AcDbSpline
 70
8
 71
3
 72
8
 73
4
 74
0
 40
0
 40
0
 40
0
 40
0
 40
1
 40
1
 40
1
 40
1
 10
330.724128
 20
568.997748
 30
0.0
 10
330.792128
 20
568.979588
 30
0.0
 10
330.857488
 20
568.952948
 30
0.0
 10
330.921488
 20
568.928388
 30
0.0
  0
SPLINE
  5
13d
100
AcDbEntity
  8
Layer_1
 62
7
100
AcDbSpline
 70
8
 71
3
 72
8
 73
4
 74
0
 40
0
 40
0
 40
0
 40
0
 40
1
 40
1
 40
1
 40
1
 10
330.921488
 20
568.928388
 30
0.0
 10
331.853728
 20
567.558788
 30
0.0
 10
332.474528
 20
566.368388
 30
0.0
 10
332.832928
 20
565.607852
 30
0.0
  0
SPLINE
  5
13e
100
AcDbEntity
  8
Layer_1
 62
7
100
AcDbSpline
 70
8
 71
3
 72
8
 73
4
 74
0
 40
0
 40
0
 40
0
 40
0
 40
1
 40
1
 40
1
 40
1
 10
332.832928
 20
565.607852
 30
0.0
 10
333.674528
 20
558.598788
 30
0.0
 10
327.294768
 20
543.500124
 30
0.0
 10
315.215888
 20
544.660652
 30
0.0
  0
SPLINE
  5
13f
100
AcDbEntity
  8
Layer_1
 62
7
100
AcDbSpline
 70
8
 71
3
 72
8
 73
4
 74
0
 40
0
 40
0
 40
0
 40
0
 40
1
 40
1
 40
1
 40
1
 10
315.215888
 20
544.660652
 30
0.0
 10
304.865968
 20
547.009452
 30
0.0
 10
288.832928
 20
559.836124
 30
0.0
 10
287.988128
 20
572.079316
 30
0.0
  0
SPLINE
  5
140
100
AcDbEntity
  8
Layer_1
 62
7
100
AcDbSpline
 70
8
 71
3
 72
8
 73
4
 74
0
 40
0
 40
0
 40
0
 40
0
 40
1
 40
1
 40
1
 40
1
 10
287.988128
 20
572.079316
 30
0.0
 10
283.630768
 20
563.177988
 30
0.0
 10
272.920368
 20
551.522524
 30
0.0
 10
241.588128
 20
569.915052
 30
0.0
  0
SPLINE
  5
141
100
AcDbEntity
  8
Layer_1
 62
7
100
AcDbSpline
 70
8
 71
3
 72
8
 73
4
 74
0
 40
0
 40
0
 40
0
 40
0
 40
1
 40
1
 40
1
 40
1
 10
241.588128
 20
569.915052
 30
0.0
 10
240.763568
 20
571.697452
 30
0.0
 10
239.159328
 20
576.168916
 30
0.0
 10
239.159328
 20
584.044116
 30
0.0
  0
SPLINE
  5
142
100
AcDbEntity
  8
Layer_1
 62
7
100
AcDbSpline
 70
8
 71
3
 72
8
 73
4
 74
0
 40
0
 40
0
 40
0
 40
0
 40
1
 40
1
 40
1
 40
1
 10
239.159328
 20
584.044116
 30
0.0
 10
239.159328
 20
591.758252
 30
0.0
 10
240.697488
 20
595.824388
 30
0.0
 10
241.535888
 20
597.473452
 30
0.0
  0
SPLINE
  5
143
100
AcDbEntity
  8
Layer_1
 62
7
100
AcDbSpline
 70
8
 71
3
 72
8
 73
4
 74
0
 40
0
 40
0
 40
0
 40
0
 40
1
 40
1
 40
1
 40
1
 10
241.535888
 20
597.473452
 30
0.0
 10
248.461728
 20
598.807852
 30
0.0
 10
261.862288
 20
597.528892
 30
0.0
 10
263.727888
 20
593.331588
 30
0.0
  0
SPLINE
  5
144
100
AcDbEntity
  8
Layer_1
 62
7
100
AcDbSpline
 70
8
 71
3
 72
8
 73
4
 74
0
 40
0
 40
0
 40
0
 40
0
 40
1
 40
1
 40
1
 40
1
 10
263.727888
 20
593.331588
 30
0.0
 10
265.926288
 20
588.386516
 30
0.0
 10
273.036688
 20
571.812652
 30
0.0
 10
275.180688
 20
575.812652
 30
0.0
  0
SPLINE
  5
145
100
AcDbEntity
  8
Layer_1
 62
7
100
AcDbSpline
 70
8
 71
3
 72
8
 73
4
 74
0
 40
0
 40
0
 40
0
 40
0
 40
1
 40
1
 40
1
 40
1
 10
275.180688
 20
575.812652
 30
0.0
 10
277.321488
 20
579.812652
 30
0.0
 10
265.740688
 20
591.279316
 30
0.0
 10
265.530528
 20
596.612652
 30
0.0
  0
SPLINE
  5
146
100
AcDbEntity
  8
Layer_1
 62
7
100
AcDbSpline
 70
8
 71
3
 72
8
 73
4
 74
0
 40
0
 40
0
 40
0
 40
0
 40
1
 40
1
 40
1
 40
1
 10
265.530528
 20
596.612652
 30
0.0
 10
265.321488
 20
601.945988
 30
0.0
 10
277.303328
 20
603.279316
 30
0.0
 10
275.180688
 20
605.945988
 30
0.0
  0
SPLINE
  5
147
100
AcDbEntity
  8
Layer_1
 62
7
100
AcDbSpline
 70
8
 71
3
 72
8
 73
4
 74
0
 40
0
 40
0
 40
0
 40
0
 40
1
 40
1
 40
1
 40
1
 10
275.180688
 20
605.945988
 30
0.0
 10
273.054768
 20
608.612652
 30
0.0
 10
269.909168
 20
602.292652
 30
0.0
 10
259.668128
 20
599.812652
 30
0.0
  0
SPLINE
  5
148
100
AcDbEntity
  8
Layer_1
 62
7
100
AcDbSpline
 70
8
 71
3
 72
8
 73
4
 74
0
 40
0
 40
0
 40
0
 40
0
 40
1
 40
1
 40
1
 40
1
 10
259.668128
 20
599.812652
 30
0.0
 10
249.567888
 20
597.366788
 30
0.0
 10
244.387088
 20
601.150252
 30
0.0
 10
237.851568
 20
601.254788
 30
0.0
  0
SPLINE
  5
149
100
AcDbEntity
  8
Layer_1
 62
7
100
AcDbSpline
 70
8
 71
3
 72
8
 73
4
 74
0
 40
0
 40
0
 40
0
 40
0
 40
1
 40
1
 40
1
 40
1
 10
237.851568
 20
601.264388
 30
0.0
 10
237.805968
 20
601.264388
 30
0.0
 10
237.759888
 20
601.260388
 30
0.0
 10
237.713968
 20
601.260388
 30
0.0
  0
SPLINE
  5
14a
100
AcDbEntity
  8
Layer_1
 62
7
100
AcDbSpline
 70
8
 71
3
 72
8
 73
4
 74
0
 40
0
 40
0
 40
0
 40
0
 40
1
 40
1
 40
1
 40
1
 10
237.713968
 20
601.260388
 30
0.0
 10
237.668368
 20
601.260388
 30
0.0
 10
237.624368
 20
601.264388
 30
0.0
 10
237.578528
 20
601.264388
 30
0.0
  0
LWPOLYLINE
  5
14b
100
AcDbEntity
  8
Layer_1
 62
7
100
AcDbPolyline
 90
2
 70
0
 10
237.851568
 20
601.254788
 30
0.0
 10
237.851568
 20
601.264388
 30
0.0
  0
SPLINE
  5
14c
100
AcDbEntity
  8
Layer_1
 62
7
100
AcDbSpline
 70
8
 71
3
 72
8
 73
4
 74
0
 40
0
 40
0
 40
0
 40
0
 40
1
 40
1
 40
1
 40
1
 10
237.578528
 20
601.254788
 30
0.0
 10
231.043088
 20
601.150252
 30
0.0
 10
225.859088
 20
597.366788
 30
0.0
 10
215.759888
 20
599.812652
 30
0.0
  0
SPLINE
  5
14d
100
AcDbEntity
  8
Layer_1
 62
7
100
AcDbSpline
 70
8
 71
3
 72
8
 73
4
 74
0
 40
0
 40
0
 40
0
 40
0
 40
1
 40
1
 40
1
 40
1
 10
215.759888
 20
599.812652
 30
0.0
 10
205.517728
 20
602.292652
 30
0.0
 10
202.374288
 20
608.612652
 30
0.0
 10
200.249488
 20
605.945988
 30
0.0
  0
SPLINE
  5
14e
100
AcDbEntity
  8
Layer_1
 62
7
100
AcDbSpline
 70
8
 71
3
 72
8
 73
4
 74
0
 40
0
 40
0
 40
0
 40
0
 40
1
 40
1
 40
1
 40
1
 10
200.249488
 20
605.945988
 30
0.0
 10
198.123568
 20
603.279316
 30
0.0
 10
210.107568
 20
601.945988
 30
0.0
 10
209.897488
 20
596.612652
 30
0.0
  0
SPLINE
  5
14f
100
AcDbEntity
  8
Layer_1
 62
7
100
AcDbSpline
 70
8
 71
3
 72
8
 73
4
 74
0
 40
0
 40
0
 40
0
 40
0
 40
1
 40
1
 40
1
 40
1
 10
209.897488
 20
596.612652
 30
0.0
 10
209.688368
 20
591.279316
 30
0.0
 10
198.107568
 20
579.812652
 30
0.0
 10
200.249488
 20
575.812652
 30
0.0
  0
SPLINE
  5
150
100
AcDbEntity
  8
Layer_1
 62
7
100
AcDbSpline
 70
8
 71
3
 72
8
 73
4
 74
0
 40
0
 40
0
 40
0
 40
0
 40
1
 40
1
 40
1
 40
1
 10
200.249488
 20
575.812652
 30
0.0
 10
202.390288
 20
571.812652
 30
0.0
 10
209.502768
 20
588.386516
 30
0.0
 10
211.701168
 20
593.331588
 30
0.0
  0
SPLINE
  5
151
100
AcDbEntity
  8
Layer_1
 62
7
100
AcDbSpline
 70
8
 71
3
 72
8
 73
4
 74
0
 40
0
 40
0
 40
0
 40
0
 40
1
 40
1
 40
1
 40
1
 10
211.701168
 20
593.331588
 30
0.0
 10
213.507088
 20
597.398788
 30
0.0
 10
226.147088
 20
598.726788
 30
0.0
 10
233.231888
 20
597.591852
 30
0.0
  0
SPLINE
  5
152
100
AcDbEntity
  8
Layer_1
 62
7
100
AcDbSpline
 70
8
 71
3
 72
8
 73
4
 74
0
 40
0
 40
0
 40
0
 40
0
 40
1
 40
1
 40
1
 40
1
 10
233.231888
 20
597.591852
 30
0.0
 10
234.030768
 20
595.894788
 30
0.0
 10
235.732128
 20
591.435052
 30
0.0
 10
235.732128
 20
584.190252
 30
0.0
  0
SPLINE
  5
153
100
AcDbEntity
  8
Layer_1
 62
7
100
AcDbSpline
 70
8
 71
3
 72
8
 73
4
 74
0
 40
0
 40
0
 40
0
 40
0
 40
1
 40
1
 40
1
 40
1
 10
235.732128
 20
584.190252
 30
0.0
 10
235.732128
 20
576.252116
 30
0.0
 10
233.689488
 20
570.953988
 30
0.0
 10
233.030288
 20
569.449988
 30
0.0
  0
SPLINE
  5
154
100
AcDbEntity
  8
Layer_1
 62
7
100
AcDbSpline
 70
8
 71
3
 72
8
 73
4
 74
0
 40
0
 40
0
 40
0
 40
0
 40
1
 40
1
 40
1
 40
1
 10
233.030288
 20
569.449988
 30
0.0
 10
202.328368
 20
551.734788
 30
0.0
 10
191.759888
 20
563.255852
 30
0.0
 10
187.440928
 20
572.079316
 30
0.0
  0
SPLINE
  5
155
100
AcDbEntity
  8
Layer_1
 62
7
100
AcDbSpline
 70
8
 71
3
 72
8
 73
4
 74
0
 40
0
 40
0
 40
0
 40
0
 40
1
 40
1
 40
1
 40
1
 10
187.440928
 20
572.079316
 30
0.0
 10
186.595088
 20
559.836124
 30
0.0
 10
170.564128
 20
547.009452
 30
0.0
 10
160.211088
 20
544.660652
 30
0.0
  0
SPLINE
  5
156
100
AcDbEntity
  8
Layer_1
 62
7
100
AcDbSpline
 70
8
 71
3
 72
8
 73
4
 74
0
 40
0
 40
0
 40
0
 40
0
 40
1
 40
1
 40
1
 40
1
 10
160.211088
 20
544.660652
 30
0.0
 10
148.132128
 20
543.500124
 30
0.0
 10
141.755568
 20
558.598788
 30
0.0
 10
142.597168
 20
565.607852
 30
0.0
  0
SPLINE
  5
157
100
AcDbEntity
  8
Layer_1
 62
7
100
AcDbSpline
 70
8
 71
3
 72
8
 73
4
 74
0
 40
0
 40
0
 40
0
 40
0
 40
1
 40
1
 40
1
 40
1
 10
331.555088
 20
510.444124
 30
0.0
 10
337.832368
 20
515.442524
 30
0.0
 10
340.999328
 20
523.768924
 30
0.0
 10
336.586528
 20
528.257452
 30
0.0
  0
SPLINE
  5
158
100
AcDbEntity
  8
Layer_1
 62
7
100
AcDbSpline
 70
8
 71
3
 72
8
 73
4
 74
0
 40
0
 40
0
 40
0
 40
0
 40
1
 40
1
 40
1
 40
1
 10
336.586528
 20
528.257452
 30
0.0
 10
339.355568
 20
538.254252
 30
0.0
 10
330.934288
 20
544.457988
 30
0.0
 10
328.913968
 20
546.613724
 30
0.0
  0
SPLINE
  5
159
100
AcDbEntity
  8
Layer_1
 62
7
100
AcDbSpline
 70
8
 71
3
 72
8
 73
4
 74
0
 40
0
 40
0
 40
0
 40
0
 40
1
 40
1
 40
1
 40
1
 10
328.913968
 20
546.613724
 30
0.0
 10
335.784368
 20
552.711852
 30
0.0
 10
340.079888
 20
562.949724
 30
0.0
 10
335.722528
 20
568.798252
 30
0.0
  0
SPLINE
  5
15a
100
AcDbEntity
  8
Layer_1
 62
7
100
AcDbSpline
 70
8
 71
3
 72
8
 73
4
 74
0
 40
0
 40
0
 40
0
 40
0
 40
1
 40
1
 40
1
 40
1
 10
335.722528
 20
568.798252
 30
0.0
 10
334.655888
 20
574.131588
 30
0.0
 10
342.477728
 20
576.443052
 30
0.0
 10
329.499568
 20
591.376388
 30
0.0
  0
SPLINE
  5
15b
100
AcDbEntity
  8
Layer_1
 62
7
100
AcDbSpline
 70
8
 71
3
 72
8
 73
4
 74
0
 40
0
 40
0
 40
0
 40
0
 40
1
 40
1
 40
1
 40
1
 10
329.499568
 20
591.376388
 30
0.0
 10
330.032928
 20
597.598252
 30
0.0
 10
325.944368
 20
606.309716
 30
0.0
 10
321.499568
 20
613.323052
 30
0.0
  0
SPLINE
  5
15c
100
AcDbEntity
  8
Layer_1
 62
7
100
AcDbSpline
 70
8
 71
3
 72
8
 73
4
 74
0
 40
0
 40
0
 40
0
 40
0
 40
1
 40
1
 40
1
 40
1
 10
321.499568
 20
613.323052
 30
0.0
 10
326.378528
 20
620.733188
 30
0.0
 10
319.445168
 20
628.555052
 30
0.0
 10
315.720368
 20
640.030252
 30
0.0
  0
SPLINE
  5
15d
100
AcDbEntity
  8
Layer_1
 62
7
100
AcDbSpline
 70
8
 71
3
 72
8
 73
4
 74
0
 40
0
 40
0
 40
0
 40
0
 40
1
 40
1
 40
1
 40
1
 10
315.720368
 20
640.030252
 30
0.0
 10
317.047328
 20
652.391844
 30
0.0
 10
311.421728
 20
677.736916
 30
0.0
 10
311.421728
 20
677.736916
 30
0.0
  0
SPLINE
  5
15e
100
AcDbEntity
  8
Layer_1
 62
7
100
AcDbSpline
 70
8
 71
3
 72
8
 73
4
 74
0
 40
0
 40
0
 40
0
 40
0
 40
1
 40
1
 40
1
 40
1
 10
311.421728
 20
677.736916
 30
0.0
 10
311.421728
 20
677.736916
 30
0.0
 10
311.203088
 20
690.918780
 30
0.0
 10
306.936368
 20
697.496908
 30
0.0
  0
SPLINE
  5
15f
100
AcDbEntity
  8
Layer_1
 62
7
100
AcDbSpline
 70
8
 71
3
 72
8
 73
4
 74
0
 40
0
 40
0
 40
0
 40
0
 40
1
 40
1
 40
1
 40
1
 10
306.936368
 20
697.496908
 30
0.0
 10
302.669728
 20
704.073980
 30
0.0
 10
282.527888
 20
709.293180
 30
0.0
 10
275.443088
 20
717.959844
 30
0.0
  0
SPLINE
  5
160
100
AcDbEntity
  8
Layer_1
 62
7
100
AcDbSpline
 70
8
 71
3
 72
8
 73
4
 74
0
 40
0
 40
0
 40
0
 40
0
 40
1
 40
1
 40
1
 40
1
 10
275.443088
 20
717.959844
 30
0.0
 10
268.378528
 20
726.603044
 30
0.0
 10
249.668128
 20
727.538508
 30
0.0
 10
237.714048
 20
727.538508
 30
0.0
  0
SPLINE
  5
161
100
AcDbEntity
  8
Layer_1
 62
7
100
AcDbSpline
 70
8
 71
3
 72
8
 73
4
 74
0
 40
0
 40
0
 40
0
 40
0
 40
1
 40
1
 40
1
 40
1
 10
237.714048
 20
727.538508
 30
0.0
 10
225.762048
 20
727.538508
 30
0.0
 10
207.051648
 20
726.603044
 30
0.0
 10
199.984928
 20
717.959844
 30
0.0
  0
SPLINE
  5
162
100
AcDbEntity
  8
Layer_1
 62
7
100
AcDbSpline
 70
8
 71
3
 72
8
 73
4
 74
0
 40
0
 40
0
 40
0
 40
0
 40
1
 40
1
 40
1
 40
1
 10
199.984928
 20
717.959844
 30
0.0
 10
192.901248
 20
709.293180
 30
0.0
 10
172.759328
 20
704.073980
 30
0.0
 10
168.492688
 20
697.496908
 30
0.0
  0
SPLINE
  5
163
100
AcDbEntity
  8
Layer_1
 62
7
100
AcDbSpline
 70
8
 71
3
 72
8
 73
4
 74
0
 40
0
 40
0
 40
0
 40
0
 40
1
 40
1
 40
1
 40
1
 10
168.492688
 20
697.496908
 30
0.0
 10
164.226048
 20
690.918780
 30
0.0
 10
164.007328
 20
677.736916
 30
0.0
 10
164.007328
 20
677.736916
 30
0.0
  0
SPLINE
  5
164
100
AcDbEntity
  8
Layer_1
 62
7
100
AcDbSpline
 70
8
 71
3
 72
8
 73
4
 74
0
 40
0
 40
0
 40
0
 40
0
 40
1
 40
1
 40
1
 40
1
 10
164.007328
 20
677.736916
 30
0.0
 10
164.007328
 20
677.736916
 30
0.0
 10
158.380688
 20
652.391844
 30
0.0
 10
159.709728
 20
640.030252
 30
0.0
  0
SPLINE
  5
165
100
AcDbEntity
  8
Layer_1
 62
7
100
AcDbSpline
 70
8
 71
3
 72
8
 73
4
 74
0
 40
0
 40
0
 40
0
 40
0
 40
1
 40
1
 40
1
 40
1
 10
159.709728
 20
640.030252
 30
0.0
 10
155.984928
 20
628.555052
 30
0.0
 10
149.051648
 20
620.733188
 30
0.0
 10
153.930528
 20
613.323052
 30
0.0
  0
SPLINE
  5
166
100
AcDbEntity
  8
Layer_1
 62
7
100
AcDbSpline
 70
8
 71
3
 72
8
 73
4
 74
0
 40
0
 40
0
 40
0
 40
0
 40
1
 40
1
 40
1
 40
1
 10
153.930528
 20
613.323052
 30
0.0
 10
149.484688
 20
606.309716
 30
0.0
 10
145.397248
 20
597.598252
 30
0.0
 10
145.930528
 20
591.376388
 30
0.0
  0
SPLINE
  5
167
100
AcDbEntity
  8
Layer_1
 62
7
100
AcDbSpline
 70
8
 71
3
 72
8
 73
4
 74
0
 40
0
 40
0
 40
0
 40
0
 40
1
 40
1
 40
1
 40
1
 10
145.930528
 20
591.376388
 30
0.0
 10
132.951328
 20
576.443052
 30
0.0
 10
140.774288
 20
574.131588
 30
0.0
 10
139.707648
 20
568.798252
 30
0.0
  0
SPLINE
  5
168
100
AcDbEntity
  8
Layer_1
 62
7
100
AcDbSpline
 70
8
 71
3
 72
8
 73
4
 74
0
 40
0
 40
0
 40
0
 40
0
 40
1
 40
1
 40
1
 40
1
 10
139.707648
 20
568.798252
 30
0.0
 10
135.347088
 20
562.949724
 30
0.0
 10
139.642848
 20
552.711852
 30
0.0
 10
146.514048
 20
546.613724
 30
0.0
  0
SPLINE
  5
169
100
AcDbEntity
  8
Layer_1
 62
7
100
AcDbSpline
 70
8
 71
3
 72
8
 73
4
 74
0
 40
0
 40
0
 40
0
 40
0
 40
1
 40
1
 40
1
 40
1
 10
146.514048
 20
546.613724
 30
0.0
 10
144.492688
 20
544.457988
 30
0.0
 10
136.072448
 20
538.254252
 30
0.0
 10
138.842528
 20
528.257452
 30
0.0
  0
SPLINE
  5
16a
100
AcDbEntity
  8
Layer_1
 62
7
100
AcDbSpline
 70
8
 71
3
 72
8
 73
4
 74
0
 40
0
 40
0
 40
0
 40
0
 40
1
 40
1
 40
1
 40
1
 10
138.842528
 20
528.257452
 30
0.0
 10
134.428688
 20
523.768924
 30
0.0
 10
137.594528
 20
515.442524
 30
0.0
 10
143.871888
 20
510.444124
 30
0.0
  0
SPLINE
  5
16b
100
AcDbEntity
  8
Layer_1
 62
7
100
AcDbSpline
 70
8
 71
3
 72
8
 73
4
 74
0
 40
0
 40
0
 40
0
 40
0
 40
1
 40
1
 40
1
 40
1
 10
143.871888
 20
510.444124
 30
0.0
 10
141.943328
 20
507.847852
 30
0.0
 10
135.286288
 20
496.911324
 30
0.0
 10
145.915648
 20
481.020124
 30
0.0
  0
SPLINE
  5
16c
100
AcDbEntity
  8
Layer_1
 62
7
100
AcDbSpline
 70
8
 71
3
 72
8
 73
4
 74
0
 40
0
 40
0
 40
0
 40
0
 40
1
 40
1
 40
1
 40
1
 10
145.915648
 20
481.020124
 30
0.0
 10
145.019648
 20
478.577452
 30
0.0
 10
145.587088
 20
476.072924
 30
0.0
 10
147.095328
 20
473.831852
 30
0.0
  0
SPLINE
  5
16d
100
AcDbEntity
  8
Layer_1
 62
7
100
AcDbSpline
 70
8
 71
3
 72
8
 73
4
 74
0
 40
0
 40
0
 40
0
 40
0
 40
1
 40
1
 40
1
 40
1
 10
147.095328
 20
473.831852
 30
0.0
 10
144.805248
 20
459.911860
 30
0.0
 10
141.855888
 20
425.358260
 30
0.0
 10
166.055328
 20
413.264388
 30
0.0
  0
SPLINE
  5
16e
100
AcDbEntity
  8
Layer_1
 62
7
100
AcDbSpline
 70
8
 71
3
 72
8
 73
4
 74
0
 40
0
 40
0
 40
0
 40
0
 40
1
 40
1
 40
1
 40
1
 10
166.055328
 20
413.264388
 30
0.0
 10
169.061248
 20
403.154524
 30
0.0
 10
203.388688
 20
397.032924
 30
0.0
 10
237.714048
 20
397.032924
 30
0.0
  0
SPLINE
  5
16f
100
AcDbEntity
  8
Layer_1
 62
7
100
AcDbSpline
 70
8
 71
3
 72
8
 73
4
 74
0
 40
0
 40
0
 40
0
 40
0
 40
1
 40
1
 40
1
 40
1
 10
237.714048
 20
397.032924
 30
0.0
 10
272.038288
 20
397.032924
 30
0.0
 10
306.365728
 20
403.154524
 30
0.0
 10
309.373728
 20
413.264388
 30
0.0
  0
SPLINE
  5
170
100
AcDbEntity
  8
Layer_1
 62
7
100
AcDbSpline
 70
8
 71
3
 72
8
 73
4
 74
0
 40
0
 40
0
 40
0
 40
0
 40
1
 40
1
 40
1
 40
1
 10
309.373728
 20
413.264388
 30
0.0
 10
333.572128
 20
425.358260
 30
0.0
 10
330.623888
 20
459.911860
 30
0.0
 10
328.332688
 20
473.831852
 30
0.0
  0
SPLINE
  5
171
100
AcDbEntity
  8
Layer_1
 62
7
100
AcDbSpline
 70
8
 71
3
 72
8
 73
4
 74
0
 40
0
 40
0
 40
0
 40
0
 40
1
 40
1
 40
1
 40
1
 10
328.332688
 20
473.831852
 30
0.0
 10
329.840928
 20
476.072924
 30
0.0
 10
330.409488
 20
478.577452
 30
0.0
 10
329.511328
 20
481.020124
 30
0.0
  0
SPLINE
  5
172
100
AcDbEntity
  8
Layer_1
 62
7
100
AcDbSpline
 70
8
 71
3
 72
8
 73
4
 74
0
 40
0
 40
0
 40
0
 40
0
 40
1
 40
1
 40
1
 40
1
 10
329.511328
 20
481.020124
 30
0.0
 10
340.140688
 20
496.911324
 30
0.0
 10
333.484688
 20
507.847852
 30
0.0
 10
331.555088
 20
510.444124
 30
0.0
  0
LWPOLYLINE
  5
173
100
AcDbEntity
  8
Layer_1
 62
7
100
AcDbPolyline
 90
2
 70
0
 10
237.578528
 20
601.264388
 30
0.0
 10
237.578528
 20
601.254788
 30
0.0
  0
ENDSEC
  0
SECTION
  2
OBJECTS
  0
DICTIONARY
  5
C
330
0
100
AcDbDictionary
  3
ACAD_GROUP
350
D
  3
ACAD_MLINESTYLE
350
17
  0
DICTIONARY
  5
D
330
C
100
AcDbDictionary
  0
DICTIONARY
  5
1A
330
C
100
AcDbDictionary
  0
DICTIONARY
  5
17
330
C
100
AcDbDictionary
  3
STANDARD
350
18
  0
DICTIONARY
  5
19
330
C
100
AcDbDictionary
  0
ENDSEC
  0
EOF
