  0
SECTION
  2
HEADER
  9
$ACADVER
  1
AC1009
  9
$INSBASE
 10
0.0
 20
0.0
 30
0.0
  9
$EXTMIN
 10
0.0
 20
0.0
 30
0.0
  9
$EXTMAX
 10
0.0
 20
0.0
 30
0.0
  0
ENDSEC
  0
SECTION
  2
TABLES
  0
TABLE
  2
VPORT
 70
0
  0
ENDTAB
  0
TABLE
  2
LTYPE
 70
1
  0
LTYPE
  2
CONTINUOUS
 70
0
  3
Solid line
 72
65
 73
0
 40
0.0
  0
ENDTAB
  0
TABLE
  2
LAYER
 70
1
  0
LAYER
  2
0
 70
64
 62
7
  6
continuous
  0
ENDTAB
  0
TABLE
  2
STYLE
 70
1
  0
STYLE
  2
STANDARD
 70
0
 40
0
 41
1.0
 50
0.0
 71
0
 42
1
 3
ARIAL.TTF
 4

  0
ENDTAB
  0
TABLE
  2
VIEW
 70
0
  0
ENDTAB
  0
ENDSEC
  0
SECTION
  2
BLOCKS
  0
ENDSEC
  0
SECTION
  2
ENTITIES
  0
POLYLINE
  8
0
 62
0
 70
1
 66
1
 10
0.0
 20
0.0
 30
0.0
  0
VERTEX
  8
0
 10
43.8458380061
 20
-63.0764768779
 30
0.0
  0
VERTEX
  8
0
 10
45.2213982223
 20
-65.9794690959
 30
0.0
  0
VERTEX
  8
0
 10
45.7342855084
 20
-68.1854457883
 30
0.0
  0
VERTEX
  8
0
 10
46.8426951481
 20
-67.642083463
 30
0.0
  0
VERTEX
  8
0
 10
45.3766778008
 20
-63.6834225083
 30
0.0
  0
SEQEND
  8
0
  0
POLYLINE
  8
0
 62
0
 70
1
 66
1
 10
0.0
 20
0.0
 30
0.0
  0
VERTEX
  8
0
 10
25.0373251098
 20
-21.7566745476
 30
0.0
  0
VERTEX
  8
0
 10
20.7612507918
 20
-19.9854032047
 30
0.0
  0
VERTEX
  8
0
 10
18.9900180736
 20
-15.7090580627
 30
0.0
  0
VERTEX
  8
0
 10
20.7612507918
 20
-11.4325580283
 30
0.0
  0
VERTEX
  8
0
 10
25.0373251098
 20
-9.66113179308
 30
0.0
  0
VERTEX
  8
0
 10
29.313941551
 20
-11.4325580283
 30
0.0
  0
VERTEX
  8
0
 10
31.0852517154
 20
-15.7090580627
 30
0.0
  0
VERTEX
  8
0
 10
29.313941551
 20
-19.9854032047
 30
0.0
  0
SEQEND
  8
0
  0
POLYLINE
  8
0
 62
0
 70
1
 66
1
 10
0.0
 20
0.0
 30
0.0
  0
VERTEX
  8
0
 10
24.9442920304
 20
-13.0234651198
 30
0.0
 42
-0.0175531015022
  0
VERTEX
  8
0
 10
25.135337548
 20
-13.0256164025
 30
0.0
 42
-0.413957574407
  0
VERTEX
  8
0
 10
27.7291820838
 20
-15.8676802348
 30
0.0
 42
-0.414036861059
  0
VERTEX
  8
0
 10
24.8884791529
 20
-18.4637879199
 30
0.0
 42
-0.414039142649
  0
VERTEX
  8
0
 10
22.2978129222
 20
-15.6181013276
 30
0.0
 42
-0.393631538994
  0
SEQEND
  8
0
  0
POLYLINE
  8
0
 62
0
 70
1
 66
1
 10
0.0
 20
0.0
 30
0.0
  0
VERTEX
  8
0
 10
34.6297452173
 20
-3.02951369608
 30
0.0
  0
VERTEX
  8
0
 10
31.8681695514
 20
-4.96222157936
 30
0.0
  0
VERTEX
  8
0
 10
29.2599373097
 20
-7.70323513385
 30
0.0
  0
VERTEX
  8
0
 10
25.1673717005
 20
-5.47557351398
 30
0.0
  0
VERTEX
  8
0
 10
21.0748060914
 20
-7.70323513385
 30
0.0
  0
VERTEX
  8
0
 10
18.4665738497
 20
-4.96222157936
 30
0.0
  0
VERTEX
  8
0
 10
15.7049981838
 20
-3.02951369608
 30
0.0
  0
VERTEX
  8
0
 10
16.8336599979
 20
-4.72837287052
 30
0.0
  0
VERTEX
  8
0
 10
20.5968083066
 20
-8.48482187657
 30
0.0
  0
VERTEX
  8
0
 10
19.560578501
 20
-10.8057286845
 30
0.0
  0
VERTEX
  8
0
 10
21.9954087596
 20
-8.13220946678
 30
0.0
  0
VERTEX
  8
0
 10
25.3210249094
 20
-6.73608736897
 30
0.0
  0
VERTEX
  8
0
 10
28.6462538283
 20
-8.1321707437
 30
0.0
  0
VERTEX
  8
0
 10
31.0811615331
 20
-10.8054188999
 30
0.0
  0
VERTEX
  8
0
 10
30.0186000284
 20
-8.45291405473
 30
0.0
  0
VERTEX
  8
0
 10
33.5427881678
 20
-4.72020229963
 30
0.0
  0
SEQEND
  8
0
  0
POLYLINE
  8
0
 62
0
 70
1
 66
1
 10
0.0
 20
0.0
 30
0.0
  0
VERTEX
  8
0
 10
25.0373251098
 20
-8.97124131506
 30
0.0
  0
VERTEX
  8
0
 10
21.6366464073
 20
-9.89109528575
 30
0.0
  0
VERTEX
  8
0
 10
19.2194308507
 20
-12.308241867
 30
0.0
  0
VERTEX
  8
0
 10
18.2995079878
 20
-15.7090580627
 30
0.0
  0
VERTEX
  8
0
 10
19.2194308507
 20
-19.1097365763
 30
0.0
  0
VERTEX
  8
0
 10
21.6366464073
 20
-21.5269519986
 30
0.0
  0
VERTEX
  8
0
 10
25.0373251098
 20
-22.4468748103
 30
0.0
  0
VERTEX
  8
0
 10
28.4382791765
 20
-21.5269519986
 30
0.0
  0
VERTEX
  8
0
 10
30.855357051
 20
-19.1097365763
 30
0.0
  0
VERTEX
  8
0
 10
31.7751422317
 20
-15.7090580627
 30
0.0
  0
VERTEX
  8
0
 10
30.855357051
 20
-12.308241867
 30
0.0
  0
VERTEX
  8
0
 10
28.4382791765
 20
-9.89109528575
 30
0.0
  0
SEQEND
  8
0
  0
POLYLINE
  8
0
 62
0
 70
1
 66
1
 10
0.0
 20
0.0
 30
0.0
  0
VERTEX
  8
0
 10
17.3041988046
 20
-69.2385851302
 30
0.0
  0
VERTEX
  8
0
 10
19.5690347117
 20
-67.8343699077
 30
0.0
  0
VERTEX
  8
0
 10
22.335721825
 20
-67.3197788344
 30
0.0
  0
VERTEX
  8
0
 10
25.0777810552
 20
-67.3197788344
 30
0.0
  0
VERTEX
  8
0
 10
27.8198402853
 20
-67.3197788344
 30
0.0
  0
VERTEX
  8
0
 10
30.586217614
 20
-67.8343699077
 30
0.0
  0
VERTEX
  8
0
 10
32.8516730904
 20
-69.2385851302
 30
0.0
  0
VERTEX
  8
0
 10
30.6097225277
 20
-66.8945606407
 30
0.0
  0
VERTEX
  8
0
 10
27.4762890582
 20
-66.003813522
 30
0.0
  0
VERTEX
  8
0
 10
22.6795828368
 20
-66.003813522
 30
0.0
  0
VERTEX
  8
0
 10
19.545568521
 20
-66.8945606407
 30
0.0
  0
SEQEND
  8
0
  0
POLYLINE
  8
0
 62
0
 70
1
 66
1
 10
0.0
 20
0.0
 30
0.0
  0
VERTEX
  8
0
 10
25.010092883
 20
-11.0463201808
 30
0.0
  0
VERTEX
  8
0
 10
24.1070588543
 20
-12.0623451684
 30
0.0
  0
VERTEX
  8
0
 10
24.1742188874
 20
-12.6418275749
 30
0.0
  0
VERTEX
  8
0
 10
23.9432399701
 20
-12.1063647143
 30
0.0
  0
VERTEX
  8
0
 10
22.6513116898
 20
-11.6811636954
 30
0.0
  0
VERTEX
  8
0
 10
22.3803993729
 20
-13.0134788657
 30
0.0
  0
VERTEX
  8
0
 10
22.6218133019
 20
-13.3551886043
 30
0.0
  0
VERTEX
  8
0
 10
22.2796621201
 20
-13.1142191304
 30
0.0
  0
VERTEX
  8
0
 10
20.9473469498
 20
-13.385134459
 30
0.0
  0
VERTEX
  8
0
 10
21.3725436661
 20
-14.6770614486
 30
0.0
  0
VERTEX
  8
0
 10
21.9130030959
 20
-14.9103121203
 30
0.0
  0
VERTEX
  8
0
 10
21.3276132671
 20
-14.8413333929
 30
0.0
  0
VERTEX
  8
0
 10
20.3120473632
 20
-15.7448204818
 30
0.0
  0
VERTEX
  8
0
 10
21.3276132671
 20
-16.6483075706
 30
0.0
  0
VERTEX
  8
0
 10
21.9043807549
 20
-16.580240987
 30
0.0
  0
VERTEX
  8
0
 10
21.3716371156
 20
-16.8107681349
 30
0.0
  0
VERTEX
  8
0
 10
20.9459873391
 20
-18.1022433551
 30
0.0
  0
VERTEX
  8
0
 10
22.2782964858
 20
-18.3740622225
 30
0.0
  0
VERTEX
  8
0
 10
22.6209071816
 20
-18.133553123
 30
0.0
  0
VERTEX
  8
0
 10
22.379498846
 20
-18.4752499539
 30
0.0
  0
VERTEX
  8
0
 10
22.6508586297
 20
-19.8080211962
 30
0.0
  0
VERTEX
  8
0
 10
23.9418803595
 20
-19.3823684079
 30
0.0
  0
VERTEX
  8
0
 10
24.175578498
 20
-18.8414584996
 30
0.0
  0
VERTEX
  8
0
 10
24.1070588543
 20
-19.4268397232
 30
0.0
  0
VERTEX
  8
0
 10
25.010092883
 20
-20.4433250853
 30
0.0
  0
VERTEX
  8
0
 10
25.9135799719
 20
-19.4268397232
 30
0.0
  0
VERTEX
  8
0
 10
25.8459664484
 20
-18.8505326099
 30
0.0
  0
VERTEX
  8
0
 10
26.0760332219
 20
-19.3832805518
 30
0.0
  0
VERTEX
  8
0
 10
27.3679675257
 20
-19.8084772681
 30
0.0
  0
VERTEX
  8
0
 10
27.6388798426
 20
-18.4761577952
 30
0.0
  0
VERTEX
  8
0
 10
27.3983720339
 20
-18.1340048924
 30
0.0
  0
VERTEX
  8
0
 10
27.740523646
 20
-18.3754218331
 30
0.0
  0
VERTEX
  8
0
 10
29.0723853259
 20
-18.1040547351
 30
0.0
  0
VERTEX
  8
0
 10
28.6476421
 20
-16.8125795149
 30
0.0
  0
VERTEX
  8
0
 10
28.1080887905
 20
-16.5788813764
 30
0.0
  0
VERTEX
  8
0
 10
28.6921134152
 20
-16.6483075706
 30
0.0
  0
VERTEX
  8
0
 10
29.7085970563
 20
-15.7448204818
 30
0.0
  0
VERTEX
  8
0
 10
28.6921134152
 20
-14.8413333929
 30
0.0
  0
VERTEX
  8
0
 10
28.1144454005
 20
-14.9089482071
 30
0.0
  0
VERTEX
  8
0
 10
28.6485482202
 20
-14.6788728286
 30
0.0
  0
VERTEX
  8
0
 10
29.0741984269
 20
-13.3869501416
 30
0.0
  0
VERTEX
  8
0
 10
27.7414301965
 20
-13.1155873462
 30
0.0
  0
VERTEX
  8
0
 10
27.3988255243
 20
-13.3560878405
 30
0.0
  0
VERTEX
  8
0
 10
27.6406925134
 20
-13.0143910096
 30
0.0
  0
VERTEX
  8
0
 10
27.3693271364
 20
-11.6816197674
 30
0.0
  0
VERTEX
  8
0
 10
26.0773984258
 20
-12.1063647143
 30
0.0
  0
VERTEX
  8
0
 10
25.8446068378
 20
-12.6472703201
 30
0.0
  0
VERTEX
  8
0
 10
25.9135799719
 20
-12.0623451684
 30
0.0
  0
SEQEND
  8
0
  0
POLYLINE
  8
0
 62
0
 70
1
 66
1
 10
0.0
 20
0.0
 30
0.0
  0
VERTEX
  8
0
 10
9.44462225558
 20
-14.1938747567
 30
0.0
  0
VERTEX
  8
0
 10
9.94949386269
 20
-11.915098665
 30
0.0
  0
VERTEX
  8
0
 10
10.3739763414
 20
-8.97926927106
 30
0.0
  0
VERTEX
  8
0
 10
11.6764660926
 20
-4.65734705831
 30
0.0
  0
VERTEX
  8
0
 10
14.1490126378
 20
-1.38118047248
 30
0.0
  0
VERTEX
  8
0
 10
18.7793644779
 20
-1.85422167587
 30
0.0
  0
VERTEX
  8
0
 10
21.7970159176
 20
-2.12559305384
 30
0.0
  0
VERTEX
  8
0
 10
24.8093235712
 20
-2.24919714038
 30
0.0
  0
VERTEX
  8
0
 10
25.1553530758
 20
-2.24083295408
 30
0.0
  0
VERTEX
  8
0
 10
25.5020021498
 20
-2.24919714038
 30
0.0
  0
VERTEX
  8
0
 10
28.5142323573
 20
-2.12559305384
 30
0.0
  0
VERTEX
  8
0
 10
31.5313416737
 20
-1.85422167587
 30
0.0
  0
VERTEX
  8
0
 10
36.1616935138
 20
-1.38118047248
 30
0.0
  0
VERTEX
  8
0
 10
38.6343562283
 20
-4.65734705831
 30
0.0
  0
VERTEX
  8
0
 10
39.9367298102
 20
-8.97926927106
 30
0.0
  0
VERTEX
  8
0
 10
40.3612122889
 20
-11.915098665
 30
0.0
  0
VERTEX
  8
0
 10
40.866083896
 20
-14.1938747567
 30
0.0
  0
VERTEX
  8
0
 10
40.6056582289
 20
-16.653737203
 30
0.0
  0
VERTEX
  8
0
 10
38.943147031
 20
-20.236878892
 30
0.0
  0
VERTEX
  8
0
 10
35.0315989455
 20
-23.5905733961
 30
0.0
  0
VERTEX
  8
0
 10
31.6450326569
 20
-24.1577891416
 30
0.0
  0
VERTEX
  8
0
 10
31.8829473028
 20
-20.2167084674
 30
0.0
  0
VERTEX
  8
0
 10
34.7224338196
 20
-22.8678457422
 30
0.0
  0
VERTEX
  8
0
 10
33.7254692241
 20
-20.821408159
 30
0.0
  0
VERTEX
  8
0
 10
32.3414286518
 20
-18.4190279807
 30
0.0
  0
VERTEX
  8
0
 10
36.4776739029
 20
-20.28641002
 30
0.0
  0
VERTEX
  8
0
 10
34.7337796841
 20
-18.7208357033
 30
0.0
  0
VERTEX
  8
0
 10
31.412074566
 20
-16.0442186387
 30
0.0
  0
VERTEX
  8
0
 10
30.8501638519
 20
-21.5095560982
 30
0.0
  0
VERTEX
  8
0
 10
28.930699157
 20
-25.1336108774
 30
0.0
  0
VERTEX
  8
0
 10
25.1553530758
 20
-26.0570790027
 30
0.0
  0
VERTEX
  8
0
 10
21.3803167793
 20
-25.1336108774
 30
0.0
  0
VERTEX
  8
0
 10
19.4608133613
 20
-21.5095560982
 30
0.0
  0
VERTEX
  8
0
 10
18.8986315856
 20
-16.0442186387
 30
0.0
  0
VERTEX
  8
0
 10
15.5772362523
 20
-18.7208357033
 30
0.0
  0
VERTEX
  8
0
 10
13.8336518181
 20
-20.28641002
 30
0.0
  0
VERTEX
  8
0
 10
17.9698970692
 20
-18.4190279807
 30
0.0
  0
VERTEX
  8
0
 10
16.5858564969
 20
-20.821408159
 30
0.0
  0
VERTEX
  8
0
 10
15.5888919014
 20
-22.8678457422
 30
0.0
  0
VERTEX
  8
0
 10
18.4283784182
 20
-20.2167084674
 30
0.0
  0
VERTEX
  8
0
 10
18.6662930641
 20
-24.1577891416
 30
0.0
  0
VERTEX
  8
0
 10
15.2791072062
 20
-23.5905733961
 30
0.0
  0
VERTEX
  8
0
 10
11.3679033259
 20
-20.236878892
 30
0.0
  0
VERTEX
  8
0
 10
9.70532328691
 20
-16.653737203
 30
0.0
  0
SEQEND
  8
0
  0
POLYLINE
  8
0
 62
0
 70
1
 66
1
 10
0.0
 20
0.0
 30
0.0
  0
VERTEX
  8
0
 10
15.5888919014
 20
-24.1069844544
 30
0.0
  0
VERTEX
  8
0
 10
19.9258776351
 20
-24.8814461495
 30
0.0
  0
VERTEX
  8
0
 10
21.3310610128
 20
-26.1190359383
 30
0.0
  0
VERTEX
  8
0
 10
25.103309247
 20
-27.3975173046
 30
0.0
  0
VERTEX
  8
0
 10
28.8757510966
 20
-26.1190359383
 30
0.0
  0
VERTEX
  8
0
 10
30.2813604283
 20
-24.8814461495
 30
0.0
  0
VERTEX
  8
0
 10
34.618346162
 20
-24.1069844544
 30
0.0
  0
VERTEX
  8
0
 10
39.8297508288
 20
-21.2250346474
 30
0.0
  0
VERTEX
  8
0
 10
42.2402888042
 20
-17.8592700144
 30
0.0
  0
VERTEX
  8
0
 10
42.7706402025
 20
-15.1148646046
 30
0.0
  0
VERTEX
  8
0
 10
41.7018055577
 20
-12.3182059773
 30
0.0
  0
VERTEX
  8
0
 10
40.710571979
 20
-8.97926927106
 30
0.0
  0
VERTEX
  8
0
 10
39.3294743614
 20
-3.94526825272
 30
0.0
  0
VERTEX
  8
0
 10
36.6319466812
 20
-0.305298285608
 30
0.0
  0
VERTEX
  8
0
 10
33.9367811093
 20
-0.272925786752
 30
0.0
  0
VERTEX
  8
0
 10
31.4272540161
 20
-1.28607657632
 30
0.0
  0
VERTEX
  8
0
 10
28.5649983242
 20
-1.52790224062
 30
0.0
  0
VERTEX
  8
0
 10
25.0512654182
 20
-1.60360587132
 30
0.0
  0
VERTEX
  8
0
 10
21.5377648507
 20
-1.52790224062
 30
0.0
  0
VERTEX
  8
0
 10
18.6752768203
 20
-1.28607657632
 30
0.0
  0
VERTEX
  8
0
 10
16.1662918503
 20
-0.272925786752
 30
0.0
  0
VERTEX
  8
0
 10
13.4712037246
 20
-0.305298285608
 30
0.0
  0
VERTEX
  8
0
 10
10.7736760444
 20
-3.94526825272
 30
0.0
  0
VERTEX
  8
0
 10
9.39257842678
 20
-8.97926927106
 30
0.0
  0
VERTEX
  8
0
 10
8.40134484811
 20
-12.3182059773
 30
0.0
  0
VERTEX
  8
0
 10
7.33251020329
 20
-15.1148646046
 30
0.0
  0
VERTEX
  8
0
 10
7.93583310757
 20
-17.8592700144
 30
0.0
  0
VERTEX
  8
0
 10
10.3734944541
 20
-21.2250346474
 30
0.0
  0
SEQEND
  8
0
  0
POLYLINE
  8
0
 62
0
 70
1
 66
1
 10
0.0
 20
0.0
 30
0.0
  0
VERTEX
  8
0
 10
2.15619146253
 20
-43.2363456366
 30
0.0
  0
VERTEX
  8
0
 10
3.6248032566
 20
-41.2744792705
 30
0.0
  0
VERTEX
  8
0
 10
6.20166979796
 20
-38.9808335142
 30
0.0
  0
VERTEX
  8
0
 10
4.51833848699
 20
-38.9482673999
 30
0.0
  0
VERTEX
  8
0
 10
1.38172972438
 20
-42.2444150975
 30
0.0
  0
SEQEND
  8
0
  0
POLYLINE
  8
0
 62
0
 70
1
 66
1
 10
0.0
 20
0.0
 30
0.0
  0
VERTEX
  8
0
 10
2.49986919454
 20
-44.1047323975
 30
0.0
  0
VERTEX
  8
0
 10
3.28517339703
 20
-45.0570104978
 30
0.0
  0
VERTEX
  8
0
 10
4.66251487525
 20
-43.2591363957
 30
0.0
  0
VERTEX
  8
0
 10
7.11349266108
 20
-41.1822237447
 30
0.0
  0
VERTEX
  8
0
 10
5.46861337541
 20
-41.1035384365
 30
0.0
  0
SEQEND
  8
0
  0
POLYLINE
  8
0
 62
0
 70
1
 66
1
 10
0.0
 20
0.0
 30
0.0
  0
VERTEX
  8
0
 10
15.1006081311
 20
-66.3758044459
 30
0.0
  0
VERTEX
  8
0
 10
13.7087454953
 20
-66.9318292199
 30
0.0
  0
VERTEX
  8
0
 10
12.333611233
 20
-70.6753059926
 30
0.0
  0
VERTEX
  8
0
 10
10.2811714576
 20
-71.3060275971
 30
0.0
  0
VERTEX
  8
0
 10
7.23083773264
 20
-76.1420762061
 30
0.0
  0
VERTEX
  8
0
 10
6.24994321818
 20
-79.772326679
 30
0.0
  0
VERTEX
  8
0
 10
4.23583929885
 20
-83.2671238013
 30
0.0
  0
VERTEX
  8
0
 10
7.13221003029
 20
-80.8055360264
 30
0.0
  0
VERTEX
  8
0
 10
9.19239442304
 20
-76.9682719425
 30
0.0
  0
VERTEX
  8
0
 10
10.5660959311
 20
-72.4334114867
 30
0.0
  0
VERTEX
  8
0
 10
12.30108384
 20
-70.9946939956
 30
0.0
  0
VERTEX
  8
0
 10
12.2586433367
 20
-71.4562731659
 30
0.0
  0
VERTEX
  8
0
 10
13.3961727378
 20
-71.9943691517
 30
0.0
  0
VERTEX
  8
0
 10
13.8277415413
 20
-69.5819209714
 30
0.0
  0
SEQEND
  8
0
  0
POLYLINE
  8
0
 62
0
 70
1
 66
1
 10
0.0
 20
0.0
 30
0.0
  0
VERTEX
  8
0
 10
6.65656035103
 20
-19.3192325642
 30
0.0
  0
VERTEX
  8
0
 10
5.96417703597
 20
-16.6707526612
 30
0.0
  0
VERTEX
  8
0
 10
6.42503501441
 20
-12.1039989046
 30
0.0
  0
VERTEX
  8
0
 10
7.69123639282
 20
-7.37269139946
 30
0.0
  0
VERTEX
  8
0
 10
9.41488327765
 20
-4.23055025036
 30
0.0
  0
VERTEX
  8
0
 10
7.70184167825
 20
-6.30920059971
 30
0.0
  0
VERTEX
  8
0
 10
5.93205139499
 20
-11.0701699878
 30
0.0
  0
VERTEX
  8
0
 10
4.81292514104
 20
-16.2877426298
 30
0.0
  0
VERTEX
  8
0
 10
5.05187562958
 20
-19.7362027409
 30
0.0
  0
VERTEX
  8
0
 10
8.92189965823
 20
-22.9671794868
 30
0.0
  0
VERTEX
  8
0
 10
12.6434593717
 20
-24.0954927304
 30
0.0
  0
VERTEX
  8
0
 10
8.17640278908
 20
-21.3345755104
 30
0.0
  0
SEQEND
  8
0
  0
POLYLINE
  8
0
 62
0
 70
1
 66
1
 10
0.0
 20
0.0
 30
0.0
  0
VERTEX
  8
0
 10
4.85897135913
 20
-50.649089159
 30
0.0
  0
VERTEX
  8
0
 10
3.17587238669
 20
-50.616639214
 30
0.0
  0
VERTEX
  8
0
 10
0.0390312855484
 20
-53.9126707423
 30
0.0
  0
VERTEX
  8
0
 10
0.813493023704
 20
-54.9049110661
 30
0.0
  0
VERTEX
  8
0
 10
2.28222098703
 20
-52.9430059769
 30
0.0
  0
SEQEND
  8
0
  0
POLYLINE
  8
0
 62
0
 70
1
 66
1
 10
0.0
 20
0.0
 30
0.0
  0
VERTEX
  8
0
 10
1.15726228798
 20
-55.7732379457
 30
0.0
  0
VERTEX
  8
0
 10
1.94256649047
 20
-56.7252062614
 30
0.0
  0
VERTEX
  8
0
 10
3.31990796869
 20
-54.9274870515
 30
0.0
  0
VERTEX
  8
0
 10
5.77088575452
 20
-52.850729293
 30
0.0
  0
VERTEX
  8
0
 10
4.12600646885
 20
-52.772160154
 30
0.0
  0
SEQEND
  8
0
  0
POLYLINE
  8
0
 62
0
 70
1
 66
1
 10
0.0
 20
0.0
 30
0.0
  0
VERTEX
  8
0
 10
4.72585558111
 20
-61.4470996894
 30
0.0
  0
VERTEX
  8
0
 10
3.17921676693
 20
-62.1119750547
 30
0.0
  0
VERTEX
  8
0
 10
1.68253073486
 20
-66.4092306624
 30
0.0
  0
VERTEX
  8
0
 10
2.79682628371
 20
-66.9928649959
 30
0.0
  0
VERTEX
  8
0
 10
3.32500918914
 20
-64.5998558041
 30
0.0
  0
SEQEND
  8
0
  0
POLYLINE
  8
0
 62
0
 70
1
 66
1
 10
0.0
 20
0.0
 30
0.0
  0
VERTEX
  8
0
 10
3.46856596354
 20
-67.6421741973
 30
0.0
  0
VERTEX
  8
0
 10
4.57635603379
 20
-68.1855365226
 30
0.0
  0
VERTEX
  8
0
 10
5.08970799693
 20
-65.979443661
 30
0.0
  0
VERTEX
  8
0
 10
6.46480353611
 20
-63.0765676122
 30
0.0
  0
VERTEX
  8
0
 10
4.9345058646
 20
-63.6835132427
 30
0.0
  0
SEQEND
  8
0
  0
POLYLINE
  8
0
 62
0
 70
1
 66
1
 10
0.0
 20
0.0
 30
0.0
  0
VERTEX
  8
0
 10
48.154388206
 20
-43.2363456366
 30
0.0
  0
VERTEX
  8
0
 10
48.9294695135
 20
-42.2444150975
 30
0.0
  0
VERTEX
  8
0
 10
45.7925509662
 20
-38.9482673999
 30
0.0
  0
VERTEX
  8
0
 10
44.1089098705
 20
-38.9808335142
 30
0.0
  0
VERTEX
  8
0
 10
46.6862410889
 20
-41.2744792705
 30
0.0
  0
SEQEND
  8
0
  0
POLYLINE
  8
0
 62
0
 70
1
 66
1
 10
0.0
 20
0.0
 30
0.0
  0
VERTEX
  8
0
 10
47.0259673042
 20
-45.0569202233
 30
0.0
  0
VERTEX
  8
0
 10
47.8112715067
 20
-44.104642123
 30
0.0
  0
VERTEX
  8
0
 10
44.8422562642
 20
-41.1035643313
 30
0.0
  0
VERTEX
  8
0
 10
43.1973382554
 20
-41.1821334702
 30
0.0
  0
VERTEX
  8
0
 10
45.6481224258
 20
-43.2591622904
 30
0.0
  0
SEQEND
  8
0
  0
POLYLINE
  8
0
 62
0
 70
1
 66
1
 10
0.0
 20
0.0
 30
0.0
  0
VERTEX
  8
0
 10
37.9768764375
 20
-70.6752762329
 30
0.0
  0
VERTEX
  8
0
 10
36.6017421752
 20
-66.9317994602
 30
0.0
  0
VERTEX
  8
0
 10
35.2098795394
 20
-66.3757746862
 30
0.0
  0
VERTEX
  8
0
 10
36.4829784676
 20
-69.5818912117
 30
0.0
  0
VERTEX
  8
0
 10
36.9143149327
 20
-71.994339392
 30
0.0
  0
VERTEX
  8
0
 10
38.0518443337
 20
-71.4562434063
 30
0.0
  0
VERTEX
  8
0
 10
38.0100233999
 20
-70.994664236
 30
0.0
  0
VERTEX
  8
0
 10
39.7446240779
 20
-72.433381727
 30
0.0
  0
VERTEX
  8
0
 10
41.1184030321
 20
-76.9682421828
 30
0.0
  0
VERTEX
  8
0
 10
43.1787035941
 20
-80.8055062668
 30
0.0
  0
VERTEX
  8
0
 10
46.0749581563
 20
-83.2670940417
 30
0.0
  0
VERTEX
  8
0
 10
44.0610478524
 20
-79.7722969193
 30
0.0
  0
VERTEX
  8
0
 10
43.0805792919
 20
-76.1420464465
 30
0.0
  0
VERTEX
  8
0
 10
40.0297808899
 20
-71.3059978374
 30
0.0
  0
SEQEND
  8
0
  0
POLYLINE
  8
0
 62
0
 70
1
 66
1
 10
0.0
 20
0.0
 30
0.0
  0
VERTEX
  8
0
 10
33.4753325184
 20
-67.846077071
 30
0.0
  0
VERTEX
  8
0
 10
34.5679431386
 20
-71.2168441528
 30
0.0
  0
VERTEX
  8
0
 10
32.5357555376
 20
-72.3534441366
 30
0.0
  0
VERTEX
  8
0
 10
30.3592082687
 20
-70.3644716112
 30
0.0
  0
VERTEX
  8
0
 10
27.4763518946
 20
-69.6180454294
 30
0.0
  0
VERTEX
  8
0
 10
22.6793358885
 20
-69.6180454294
 30
0.0
  0
VERTEX
  8
0
 10
19.8451931577
 20
-70.3375590673
 30
0.0
  0
VERTEX
  8
0
 10
17.6843674621
 20
-72.2598891638
 30
0.0
  0
VERTEX
  8
0
 10
15.7432565616
 20
-71.2168441528
 30
0.0
  0
VERTEX
  8
0
 10
16.8358671817
 20
-67.846077071
 30
0.0
  0
VERTEX
  8
0
 10
15.5689252243
 20
-68.3954414744
 30
0.0
  0
VERTEX
  8
0
 10
14.466014263
 20
-71.6861679401
 30
0.0
  0
VERTEX
  8
0
 10
15.4145749999
 20
-72.093225007
 30
0.0
  0
VERTEX
  8
0
 10
15.7358217289
 20
-71.311018695
 30
0.0
  0
VERTEX
  8
0
 10
17.7150361469
 20
-75.5068198207
 30
0.0
  0
VERTEX
  8
0
 10
17.5957690392
 20
-77.8332253067
 30
0.0
  0
VERTEX
  8
0
 10
18.9776497237
 20
-78.7372458383
 30
0.0
  0
VERTEX
  8
0
 10
21.8194424155
 20
-81.3996042025
 30
0.0
  0
VERTEX
  8
0
 10
24.1653730717
 20
-85.7457455535
 30
0.0
  0
VERTEX
  8
0
 10
21.4415911386
 20
-79.0768171736
 30
0.0
  0
VERTEX
  8
0
 10
19.3376883807
 20
-77.6743057668
 30
0.0
  0
VERTEX
  8
0
 10
19.2171046881
 20
-75.7604947489
 30
0.0
  0
VERTEX
  8
0
 10
17.8302760535
 20
-72.4166402109
 30
0.0
  0
VERTEX
  8
0
 10
22.3357846614
 20
-70.9340107418
 30
0.0
  0
VERTEX
  8
0
 10
25.0778438915
 20
-70.9340107418
 30
0.0
  0
VERTEX
  8
0
 10
27.8199031217
 20
-70.9340107418
 30
0.0
  0
VERTEX
  8
0
 10
32.41648843
 20
-72.4900591796
 30
0.0
  0
VERTEX
  8
0
 10
31.0871248564
 20
-75.8015024957
 30
0.0
  0
VERTEX
  8
0
 10
30.97289175
 20
-77.6743057668
 30
0.0
  0
VERTEX
  8
0
 10
28.8690664383
 20
-79.0768171736
 30
0.0
  0
VERTEX
  8
0
 10
26.1458266285
 20
-85.7457455535
 30
0.0
  0
VERTEX
  8
0
 10
28.4913212914
 20
-81.3996042025
 30
0.0
  0
VERTEX
  8
0
 10
31.332953354
 20
-78.7372458383
 30
0.0
  0
VERTEX
  8
0
 10
32.7148110915
 20
-77.8332253067
 30
0.0
  0
VERTEX
  8
0
 10
32.5956601531
 20
-75.5068198207
 30
0.0
  0
VERTEX
  8
0
 10
34.5747584019
 20
-71.311018695
 30
0.0
  0
VERTEX
  8
0
 10
34.8966247002
 20
-72.093225007
 30
0.0
  0
VERTEX
  8
0
 10
35.8451854371
 20
-71.6861679401
 30
0.0
  0
VERTEX
  8
0
 10
34.7420421373
 20
-68.3954414744
 30
0.0
  0
SEQEND
  8
0
  0
POLYLINE
  8
0
 62
0
 70
1
 66
1
 10
0.0
 20
0.0
 30
0.0
  0
VERTEX
  8
0
 10
43.6546406079
 20
-19.3192325642
 30
0.0
  0
VERTEX
  8
0
 10
42.1344883852
 20
-21.3345755104
 30
0.0
  0
VERTEX
  8
0
 10
37.6671220179
 20
-24.0954927304
 30
0.0
  0
VERTEX
  8
0
 10
41.3892238545
 20
-22.9671794868
 30
0.0
  0
VERTEX
  8
0
 10
45.2593253294
 20
-19.7362027409
 30
0.0
  0
VERTEX
  8
0
 10
45.4981354467
 20
-16.2877426298
 30
0.0
  0
VERTEX
  8
0
 10
44.3789559485
 20
-11.0701699878
 30
0.0
  0
VERTEX
  8
0
 10
42.6090543364
 20
-6.30920059971
 30
0.0
  0
VERTEX
  8
0
 10
40.8956981119
 20
-4.23055025036
 30
0.0
  0
VERTEX
  8
0
 10
42.6197031853
 20
-7.37269139946
 30
0.0
  0
VERTEX
  8
0
 10
43.8860884983
 20
-12.1039989046
 30
0.0
  0
VERTEX
  8
0
 10
44.3470142422
 20
-16.6707526612
 30
0.0
  0
SEQEND
  8
0
  0
POLYLINE
  8
0
 62
0
 70
1
 66
1
 10
0.0
 20
0.0
 30
0.0
  0
VERTEX
  8
0
 10
10.640792053
 20
-66.0298048878
 30
0.0
  0
VERTEX
  8
0
 10
13.3963039703
 20
-65.2017547646
 30
0.0
  0
VERTEX
  8
0
 10
17.1890438885
 20
-64.0927158116
 30
0.0
  0
VERTEX
  8
0
 10
24.4327164708
 20
-63.9450755695
 30
0.0
  0
VERTEX
  8
0
 10
18.0497060864
 20
-63.3142590442
 30
0.0
  0
VERTEX
  8
0
 10
14.7872601991
 20
-64.046498092
 30
0.0
  0
VERTEX
  8
0
 10
11.9477736823
 20
-64.6271623089
 30
0.0
  0
VERTEX
  8
0
 10
8.95385949494
 20
-61.6859036774
 30
0.0
  0
VERTEX
  8
0
 10
8.96547642101
 20
-58.7446450459
 30
0.0
  0
VERTEX
  8
0
 10
7.97722452003
 20
-56.7662605961
 30
0.0
  0
VERTEX
  8
0
 10
8.488717775
 20
-51.1594262219
 30
0.0
  0
VERTEX
  8
0
 10
6.34005112866
 20
-55.4482157882
 30
0.0
  0
VERTEX
  8
0
 10
7.09861058579
 20
-59.1604291646
 30
0.0
  0
VERTEX
  8
0
 10
7.9719969033
 20
-60.7429668466
 30
0.0
  0
VERTEX
  8
0
 10
7.88761929693
 20
-63.514110678
 30
0.0
  0
SEQEND
  8
0
  0
POLYLINE
  8
0
 62
0
 70
1
 66
1
 10
0.0
 20
0.0
 30
0.0
  0
VERTEX
  8
0
 10
41.8219537053
 20
-51.1594535858
 30
0.0
  0
VERTEX
  8
0
 10
42.3334469603
 20
-56.76628796
 30
0.0
  0
VERTEX
  8
0
 10
41.3451950593
 20
-58.7446724098
 30
0.0
  0
VERTEX
  8
0
 10
41.3569281546
 20
-61.6859310413
 30
0.0
  0
VERTEX
  8
0
 10
38.362897798
 20
-64.6271896728
 30
0.0
  0
VERTEX
  8
0
 10
35.5233998077
 20
-64.0465254559
 30
0.0
  0
VERTEX
  8
0
 10
32.2610801289
 20
-63.3142864081
 30
0.0
  0
VERTEX
  8
0
 10
25.8776452249
 20
-63.9451029334
 30
0.0
  0
VERTEX
  8
0
 10
33.1216046449
 20
-64.0927431755
 30
0.0
  0
VERTEX
  8
0
 10
36.9144937186
 20
-65.2017821285
 30
0.0
  0
VERTEX
  8
0
 10
39.6698794273
 20
-66.0298322517
 30
0.0
  0
VERTEX
  8
0
 10
42.4235943066
 20
-63.5141380419
 30
0.0
  0
VERTEX
  8
0
 10
42.3392941464
 20
-60.7429942105
 30
0.0
  0
VERTEX
  8
0
 10
43.2125198348
 20
-59.1604565285
 30
0.0
  0
VERTEX
  8
0
 10
43.9707809808
 20
-55.4482431521
 30
0.0
  0
SEQEND
  8
0
  0
POLYLINE
  8
0
 62
0
 70
1
 66
1
 10
0.0
 20
0.0
 30
0.0
  0
VERTEX
  8
0
 10
49.4969951125
 20
-54.9050017746
 30
0.0
  0
VERTEX
  8
0
 10
50.2720764201
 20
-53.9127614508
 30
0.0
  0
VERTEX
  8
0
 10
47.1351578728
 20
-50.6167299225
 30
0.0
  0
VERTEX
  8
0
 10
45.4515167771
 20
-50.6491798676
 30
0.0
  0
VERTEX
  8
0
 10
48.0288479955
 20
-52.9430966854
 30
0.0
  0
SEQEND
  8
0
  0
POLYLINE
  8
0
 62
0
 70
1
 66
1
 10
0.0
 20
0.0
 30
0.0
  0
VERTEX
  8
0
 10
49.1539343684
 20
-55.7732379457
 30
0.0
  0
VERTEX
  8
0
 10
46.1848804028
 20
-52.772160154
 30
0.0
  0
VERTEX
  8
0
 10
44.5396913325
 20
-52.850729293
 30
0.0
  0
VERTEX
  8
0
 10
46.9907465645
 20
-54.9274870515
 30
0.0
  0
VERTEX
  8
0
 10
48.3686301659
 20
-56.7252062614
 30
0.0
  0
SEQEND
  8
0
  0
POLYLINE
  8
0
 62
0
 70
1
 66
1
 10
0.0
 20
0.0
 30
0.0
  0
VERTEX
  8
0
 10
45.5847499028
 20
-61.4470996894
 30
0.0
  0
VERTEX
  8
0
 10
46.9858286333
 20
-64.5998558041
 30
0.0
  0
VERTEX
  8
0
 10
47.5137792002
 20
-66.9928649959
 30
0.0
  0
VERTEX
  8
0
 10
48.6286943184
 20
-66.4092306624
 30
0.0
  0
VERTEX
  8
0
 10
47.1316985017
 20
-62.1119750547
 30
0.0
  0
SEQEND
  8
0
  0
ENDSEC
  0
EOF
