  0
SECTION
  2
HEADER
  9
$ACADVER
  1
AC1009
  9
$INSBASE
 10
0.0
 20
0.0
 30
0.0
  9
$EXTMIN
 10
0.0
 20
0.0
 30
0.0
  9
$EXTMAX
 10
0.0
 20
0.0
 30
0.0
  0
ENDSEC
  0
SECTION
  2
TABLES
  0
TABLE
  2
VPORT
 70
0
  0
ENDTAB
  0
TABLE
  2
LTYPE
 70
1
  0
LTYPE
  2
CONTINUOUS
 70
0
  3
Solid line
 72
65
 73
0
 40
0.0
  0
ENDTAB
  0
TABLE
  2
LAYER
 70
1
  0
LAYER
  2
0
 70
64
 62
7
  6
continuous
  0
ENDTAB
  0
TABLE
  2
STYLE
 70
1
  0
STYLE
  2
STANDARD
 70
0
 40
0
 41
1.0
 50
0.0
 71
0
 42
1
 3
ARIAL.TTF
 4

  0
ENDTAB
  0
TABLE
  2
VIEW
 70
0
  0
ENDTAB
  0
ENDSEC
  0
SECTION
  2
BLOCKS
  0
ENDSEC
  0
SECTION
  2
ENTITIES
  0
POLYLINE
  8
0
 62
0
 70
1
 66
1
 10
0.0
 20
0.0
 30
0.0
  0
VERTEX
  8
0
 10
46.3654180742
 20
-40.2901467819
 30
0.0
  0
VERTEX
  8
0
 10
42.4049950797
 20
-39.4905484903
 30
0.0
  0
VERTEX
  8
0
 10
39.1708414265
 20
-37.3099487777
 30
0.0
  0
VERTEX
  8
0
 10
36.9902987222
 20
-34.0756403876
 30
0.0
  0
VERTEX
  8
0
 10
36.1907085745
 20
-30.1149160636
 30
0.0
  0
VERTEX
  8
0
 10
36.9902987222
 20
-26.1541102993
 30
0.0
  0
VERTEX
  8
0
 10
39.1708414265
 20
-22.9196227403
 30
0.0
  0
VERTEX
  8
0
 10
42.4049950797
 20
-20.7388438588
 30
0.0
  0
VERTEX
  8
0
 10
46.3654180742
 20
-19.9391641267
 30
0.0
  0
VERTEX
  8
0
 10
50.3264437277
 20
-20.7388438588
 30
0.0
  0
VERTEX
  8
0
 10
53.5609068545
 20
-22.9196227403
 30
0.0
  0
VERTEX
  8
0
 10
55.7415635754
 20
-26.1541102993
 30
0.0
  0
VERTEX
  8
0
 10
56.5411700111
 20
-30.1149160636
 30
0.0
  0
VERTEX
  8
0
 10
55.7415635754
 20
-34.0756403876
 30
0.0
  0
VERTEX
  8
0
 10
53.5609068545
 20
-37.3099487777
 30
0.0
  0
VERTEX
  8
0
 10
50.3264437277
 20
-39.4905484903
 30
0.0
  0
SEQEND
  8
0
  0
POLYLINE
  8
0
 62
0
 70
1
 66
1
 10
0.0
 20
0.0
 30
0.0
  0
VERTEX
  8
0
 10
46.3654180742
 20
-18.7784101666
 30
0.0
  0
VERTEX
  8
0
 10
41.9527808822
 20
-19.6692298681
 30
0.0
  0
VERTEX
  8
0
 10
38.3493356629
 20
-22.0986381954
 30
0.0
  0
VERTEX
  8
0
 10
35.919805175
 20
-25.7020589826
 30
0.0
  0
VERTEX
  8
0
 10
35.0289121771
 20
-30.1149160636
 30
0.0
  0
VERTEX
  8
0
 10
35.919805175
 20
-34.5275532556
 30
0.0
  0
VERTEX
  8
0
 10
38.3493356629
 20
-38.1309984749
 30
0.0
  0
VERTEX
  8
0
 10
41.9527808822
 20
-40.5605289628
 30
0.0
  0
VERTEX
  8
0
 10
46.3654180742
 20
-41.4514219607
 30
0.0
  0
VERTEX
  8
0
 10
50.7784950443
 20
-40.5605289628
 30
0.0
  0
VERTEX
  8
0
 10
54.3818913994
 20
-38.1309984749
 30
0.0
  0
VERTEX
  8
0
 10
56.8111775661
 20
-34.5275532556
 30
0.0
  0
VERTEX
  8
0
 10
57.7019239712
 20
-30.1149160636
 30
0.0
  0
VERTEX
  8
0
 10
56.8111775661
 20
-25.7020589826
 30
0.0
  0
VERTEX
  8
0
 10
54.3818913994
 20
-22.0986381954
 30
0.0
  0
VERTEX
  8
0
 10
50.7784950443
 20
-19.6692298681
 30
0.0
  0
SEQEND
  8
0
  0
POLYLINE
  8
0
 62
0
 70
1
 66
1
 10
0.0
 20
0.0
 30
0.0
  0
VERTEX
  8
0
 10
46.3149834034
 20
-20.4561424103
 30
0.0
  0
VERTEX
  8
0
 10
44.6426967323
 20
-22.3376714385
 30
0.0
  0
VERTEX
  8
0
 10
44.7670709882
 20
-23.4107871646
 30
0.0
  0
VERTEX
  8
0
 10
44.3393400613
 20
-22.4191835386
 30
0.0
  0
VERTEX
  8
0
 10
41.9468770979
 20
-21.6317796631
 30
0.0
  0
VERTEX
  8
0
 10
41.4451850729
 20
-24.0990341196
 30
0.0
  0
VERTEX
  8
0
 10
41.8922517285
 20
-24.7318210075
 30
0.0
  0
VERTEX
  8
0
 10
41.2586301429
 20
-24.2855933522
 30
0.0
  0
VERTEX
  8
0
 10
38.7913799889
 20
-24.787276772
 30
0.0
  0
VERTEX
  8
0
 10
39.5787795619
 20
-27.1797397354
 30
0.0
  0
VERTEX
  8
0
 10
40.5796337033
 20
-27.6116828738
 30
0.0
  0
VERTEX
  8
0
 10
39.4955851587
 20
-27.4839483143
 30
0.0
  0
VERTEX
  8
0
 10
37.6148994334
 20
-29.1570696831
 30
0.0
  0
VERTEX
  8
0
 10
39.4955851587
 20
-30.8301953545
 30
0.0
  0
VERTEX
  8
0
 10
40.563671186
 20
-30.7041474007
 30
0.0
  0
VERTEX
  8
0
 10
39.5771015614
 20
-31.1310436299
 30
0.0
  0
VERTEX
  8
0
 10
38.7888629882
 20
-33.5226632905
 30
0.0
  0
VERTEX
  8
0
 10
41.2561088396
 20
-34.0260290134
 30
0.0
  0
VERTEX
  8
0
 10
41.8905694254
 20
-33.5806446609
 30
0.0
  0
VERTEX
  8
0
 10
41.443511375
 20
-34.2134272462
 30
0.0
  0
VERTEX
  8
0
 10
41.946033795
 20
-36.6815164004
 30
0.0
  0
VERTEX
  8
0
 10
44.3368144554
 20
-35.8932735246
 30
0.0
  0
VERTEX
  8
0
 10
44.769596594
 20
-34.8915846855
 30
0.0
  0
VERTEX
  8
0
 10
44.6426967323
 20
-35.975624625
 30
0.0
  0
VERTEX
  8
0
 10
46.3149834034
 20
-37.8579969559
 30
0.0
  0
VERTEX
  8
0
 10
47.9881133773
 20
-35.975624625
 30
0.0
  0
VERTEX
  8
0
 10
47.8629044237
 20
-34.9083905057
 30
0.0
  0
VERTEX
  8
0
 10
48.2889573502
 20
-35.8949558277
 30
0.0
  0
VERTEX
  8
0
 10
50.681416011
 20
-36.6823597032
 30
0.0
  0
VERTEX
  8
0
 10
51.1831080359
 20
-34.2151009441
 30
0.0
  0
VERTEX
  8
0
 10
50.7377236835
 20
-33.5814879637
 30
0.0
  0
VERTEX
  8
0
 10
51.3713409665
 20
-34.0285503166
 30
0.0
  0
VERTEX
  8
0
 10
53.8377564227
 20
-33.5260192915
 30
0.0
  0
VERTEX
  8
0
 10
53.0511915474
 20
-31.1344039334
 30
0.0
  0
VERTEX
  8
0
 10
52.052019709
 20
-30.7016303999
 30
0.0
  0
VERTEX
  8
0
 10
53.1335469504
 20
-30.8301953545
 30
0.0
  0
VERTEX
  8
0
 10
55.0159192813
 20
-29.1570696831
 30
0.0
  0
VERTEX
  8
0
 10
53.1335469504
 20
-27.4839483143
 30
0.0
  0
VERTEX
  8
0
 10
52.0637872252
 20
-27.6091572679
 30
0.0
  0
VERTEX
  8
0
 10
53.0528695479
 20
-27.1831000389
 30
0.0
  0
VERTEX
  8
0
 10
53.8411124237
 20
-24.7906456806
 30
0.0
  0
VERTEX
  8
0
 10
51.3730232695
 20
-24.2881146555
 30
0.0
  0
VERTEX
  8
0
 10
50.7385626837
 20
-24.7334947054
 30
0.0
  0
VERTEX
  8
0
 10
51.1864640369
 20
-24.1007207252
 30
0.0
  0
VERTEX
  8
0
 10
50.6839416169
 20
-21.6326229659
 30
0.0
  0
VERTEX
  8
0
 10
48.2914743509
 20
-22.4191835386
 30
0.0
  0
VERTEX
  8
0
 10
47.8603788179
 20
-23.4208723777
 30
0.0
  0
VERTEX
  8
0
 10
47.9881133773
 20
-22.3376714385
 30
0.0
  0
SEQEND
  8
0
  0
POLYLINE
  8
0
 62
0
 70
1
 66
1
 10
0.0
 20
0.0
 30
0.0
  0
VERTEX
  8
0
 10
64.1291613895
 20
-5.61020958748
 30
0.0
  0
VERTEX
  8
0
 10
61.2855081964
 20
-6.87902955018
 30
0.0
  0
VERTEX
  8
0
 10
57.7086740854
 20
-10.9961357608
 30
0.0
  0
VERTEX
  8
0
 10
55.0943571035
 20
-13.4738355401
 30
0.0
  0
VERTEX
  8
0
 10
52.4760803076
 20
-11.7610458646
 30
0.0
  0
VERTEX
  8
0
 10
48.2085373607
 20
-9.72575214211
 30
0.0
  0
VERTEX
  8
0
 10
43.9415807848
 20
-11.7610458646
 30
0.0
  0
VERTEX
  8
0
 10
41.3227176179
 20
-13.4738355401
 30
0.0
  0
VERTEX
  8
0
 10
38.708400636
 20
-10.9961357608
 30
0.0
  0
VERTEX
  8
0
 10
35.1315665251
 20
-6.87902955018
 30
0.0
  0
VERTEX
  8
0
 10
32.2879133319
 20
-5.61020958748
 30
0.0
  0
VERTEX
  8
0
 10
32.6939812784
 20
-7.32235497875
 30
0.0
  0
VERTEX
  8
0
 10
36.172343671
 20
-9.99944985281
 30
0.0
  0
VERTEX
  8
0
 10
40.5184772225
 20
-14.7888702241
 30
0.0
  0
VERTEX
  8
0
 10
38.7750007984
 20
-18.6938404394
 30
0.0
  0
VERTEX
  8
0
 10
41.3020040022
 20
-15.645000833
 30
0.0
  0
VERTEX
  8
0
 10
44.6078237133
 20
-12.9849903484
 30
0.0
  0
VERTEX
  8
0
 10
48.467061817
 20
-11.8465908775
 30
0.0
  0
VERTEX
  8
0
 10
52.3257014845
 20
-12.984971044
 30
0.0
  0
VERTEX
  8
0
 10
55.6315018913
 20
-15.6448463978
 30
0.0
  0
VERTEX
  8
0
 10
58.1586016171
 20
-18.6933192207
 30
0.0
  0
VERTEX
  8
0
 10
56.3708216066
 20
-14.735184702
 30
0.0
  0
VERTEX
  8
0
 10
60.3990117744
 20
-9.97624597016
 30
0.0
  0
VERTEX
  8
0
 10
63.7460270642
 20
-7.31515443945
 30
0.0
  0
SEQEND
  8
0
  0
POLYLINE
  8
0
 62
0
 70
1
 66
1
 10
0.0
 20
0.0
 30
0.0
  0
VERTEX
  8
0
 10
32.0448155702
 20
-128.219609157
 30
0.0
  0
VERTEX
  8
0
 10
35.8554452076
 20
-125.856990114
 30
0.0
  0
VERTEX
  8
0
 10
40.5104490773
 20
-124.991180765
 30
0.0
  0
VERTEX
  8
0
 10
49.7375830495
 20
-124.991180765
 30
0.0
  0
VERTEX
  8
0
 10
54.3920657006
 20
-125.856990114
 30
0.0
  0
VERTEX
  8
0
 10
58.2037377753
 20
-128.219609157
 30
0.0
  0
VERTEX
  8
0
 10
55.8940441447
 20
-125.359585837
 30
0.0
  0
VERTEX
  8
0
 10
52.8025225212
 20
-123.463585389
 30
0.0
  0
VERTEX
  8
0
 10
49.1595515534
 20
-122.777043889
 30
0.0
  0
VERTEX
  8
0
 10
41.089001792
 20
-122.777043889
 30
0.0
  0
VERTEX
  8
0
 10
37.4452200396
 20
-123.463585389
 30
0.0
  0
VERTEX
  8
0
 10
34.3535825898
 20
-125.359585837
 30
0.0
  0
SEQEND
  8
0
  0
POLYLINE
  8
0
 62
0
 70
1
 66
1
 10
0.0
 20
0.0
 30
0.0
  0
VERTEX
  8
0
 10
46.1931347533
 20
-24.1175222428
 30
0.0
 42
-0.0175529924514
  0
VERTEX
  8
0
 10
46.5469217925
 20
-24.1213945516
 30
0.0
 42
-0.413957319008
  0
VERTEX
  8
0
 10
51.3503358425
 20
-29.3844731684
 30
0.0
 42
-0.414036997166
  0
VERTEX
  8
0
 10
46.089778529
 20
-34.1920865222
 30
0.0
 42
-0.41404054625
  0
VERTEX
  8
0
 10
41.2922331781
 20
-28.9222872983
 30
0.0
 42
-0.393630841032
  0
SEQEND
  8
0
  0
POLYLINE
  8
0
 62
0
 70
1
 66
1
 10
0.0
 20
0.0
 30
0.0
  0
VERTEX
  8
0
 10
17.490037343
 20
-26.2849524344
 30
0.0
  0
VERTEX
  8
0
 10
18.3394934573
 20
-22.4508679572
 30
0.0
  0
VERTEX
  8
0
 10
19.0536933288
 20
-17.5112786981
 30
0.0
  0
VERTEX
  8
0
 10
20.1365540556
 20
-12.8068941862
 30
0.0
  0
VERTEX
  8
0
 10
22.5724984287
 20
-7.86772962376
 30
0.0
  0
VERTEX
  8
0
 10
25.4052639432
 20
-4.72734857681
 30
0.0
  0
VERTEX
  8
0
 10
29.1516533805
 20
-4.3436664893
 30
0.0
  0
VERTEX
  8
0
 10
33.1959192831
 20
-5.52324947359
 30
0.0
  0
VERTEX
  8
0
 10
36.3593883863
 20
-5.85816142047
 30
0.0
  0
VERTEX
  8
0
 10
40.1859634539
 20
-6.07388803333
 30
0.0
  0
VERTEX
  8
0
 10
43.3414405377
 20
-6.18780326755
 30
0.0
  0
VERTEX
  8
0
 10
43.923641783
 20
-6.17373036368
 30
0.0
  0
VERTEX
  8
0
 10
44.5068854657
 20
-6.18780326755
 30
0.0
  0
VERTEX
  8
0
 10
47.6623239407
 20
-6.07388803333
 30
0.0
  0
VERTEX
  8
0
 10
51.4886287467
 20
-5.85816142047
 30
0.0
  0
VERTEX
  8
0
 10
54.651364283
 20
-5.52324947359
 30
0.0
  0
VERTEX
  8
0
 10
58.6964120136
 20
-4.3436664893
 30
0.0
  0
VERTEX
  8
0
 10
62.4420196229
 20
-4.72734857681
 30
0.0
  0
VERTEX
  8
0
 10
65.2747851373
 20
-7.86772962376
 30
0.0
  0
VERTEX
  8
0
 10
67.7110769896
 20
-12.8068941862
 30
0.0
  0
VERTEX
  8
0
 10
68.7935902372
 20
-17.5112786981
 30
0.0
  0
VERTEX
  8
0
 10
69.5077901088
 20
-22.4508679572
 30
0.0
  0
VERTEX
  8
0
 10
70.357246223
 20
-26.2849524344
 30
0.0
  0
VERTEX
  8
0
 10
70.1941129259
 20
-29.1229391844
 30
0.0
  0
VERTEX
  8
0
 10
68.9044143552
 20
-33.3440773823
 30
0.0
  0
VERTEX
  8
0
 10
65.8869736488
 20
-37.9881845244
 30
0.0
  0
VERTEX
  8
0
 10
60.5406139442
 20
-42.0950781069
 30
0.0
  0
VERTEX
  8
0
 10
57.5477763873
 20
-43.2549850867
 30
0.0
  0
VERTEX
  8
0
 10
54.8426515319
 20
-43.0494294769
 30
0.0
  0
VERTEX
  8
0
 10
54.827405886
 20
-39.1739732684
 30
0.0
  0
VERTEX
  8
0
 10
55.2429474643
 20
-36.4184856597
 30
0.0
  0
VERTEX
  8
0
 10
57.403789732
 20
-39.1593139935
 30
0.0
  0
VERTEX
  8
0
 10
60.0204377196
 20
-40.8790749686
 30
0.0
  0
VERTEX
  8
0
 10
58.3430257608
 20
-37.4359044878
 30
0.0
  0
VERTEX
  8
0
 10
56.0143510839
 20
-33.3938537645
 30
0.0
  0
VERTEX
  8
0
 10
59.3653961662
 20
-35.3123293545
 30
0.0
  0
VERTEX
  8
0
 10
62.9736626581
 20
-36.5357598587
 30
0.0
  0
VERTEX
  8
0
 10
61.7243208298
 20
-34.8916817638
 30
0.0
  0
VERTEX
  8
0
 10
58.0597675485
 20
-32.7039146913
 30
0.0
  0
VERTEX
  8
0
 10
54.4506950981
 20
-29.3981915021
 30
0.0
  0
VERTEX
  8
0
 10
54.6152454585
 20
-34.2383990217
 30
0.0
  0
VERTEX
  8
0
 10
53.5052695977
 20
-38.593726593
 30
0.0
  0
VERTEX
  8
0
 10
51.8242661166
 20
-42.1745558088
 30
0.0
  0
VERTEX
  8
0
 10
50.275733616
 20
-44.691268262
 30
0.0
  0
VERTEX
  8
0
 10
47.4990063469
 20
-45.7216524043
 30
0.0
  0
VERTEX
  8
0
 10
43.923641783
 20
-46.2450210932
 30
0.0
  0
VERTEX
  8
0
 10
40.3481469145
 20
-45.7216524043
 30
0.0
  0
VERTEX
  8
0
 10
37.5720711687
 20
-44.691268262
 30
0.0
  0
VERTEX
  8
0
 10
36.0233839314
 20
-42.1745558088
 30
0.0
  0
VERTEX
  8
0
 10
34.3424700347
 20
-38.593726593
 30
0.0
  0
VERTEX
  8
0
 10
33.2324860299
 20
-34.2383990217
 30
0.0
  0
VERTEX
  8
0
 10
33.396588468
 20
-29.3981915021
 30
0.0
  0
VERTEX
  8
0
 10
29.7877862791
 20
-32.7039146913
 30
0.0
  0
VERTEX
  8
0
 10
26.1237349121
 20
-34.8916817638
 30
0.0
  0
VERTEX
  8
0
 10
24.8746633453
 20
-36.5357598587
 30
0.0
  0
VERTEX
  8
0
 10
28.4825389232
 20
-35.3123293545
 30
0.0
  0
VERTEX
  8
0
 10
31.8339749195
 20
-33.3938537645
 30
0.0
  0
VERTEX
  8
0
 10
29.5053002426
 20
-37.4359044878
 30
0.0
  0
VERTEX
  8
0
 10
27.8278882838
 20
-40.8790749686
 30
0.0
  0
VERTEX
  8
0
 10
30.4445362714
 20
-39.1593139935
 30
0.0
  0
VERTEX
  8
0
 10
32.6053785391
 20
-36.4184856597
 30
0.0
  0
VERTEX
  8
0
 10
33.0207246604
 20
-39.1739732684
 30
0.0
  0
VERTEX
  8
0
 10
33.0056744715
 20
-43.0494294769
 30
0.0
  0
VERTEX
  8
0
 10
30.2996374834
 20
-43.2549850867
 30
0.0
  0
VERTEX
  8
0
 10
27.3066696219
 20
-42.0950781069
 30
0.0
  0
VERTEX
  8
0
 10
21.960822992
 20
-37.9881845244
 30
0.0
  0
VERTEX
  8
0
 10
18.9434555818
 20
-33.3440773823
 30
0.0
  0
VERTEX
  8
0
 10
17.6535371221
 20
-29.1229391844
 30
0.0
  0
SEQEND
  8
0
  0
POLYLINE
  8
0
 62
0
 70
1
 66
1
 10
0.0
 20
0.0
 30
0.0
  0
VERTEX
  8
0
 10
27.8278882838
 20
-42.9639496163
 30
0.0
  0
VERTEX
  8
0
 10
32.8485270449
 20
-44.8480247745
 30
0.0
  0
VERTEX
  8
0
 10
35.1249495509
 20
-44.2669962711
 30
0.0
  0
VERTEX
  8
0
 10
37.4891974015
 20
-46.3492648256
 30
0.0
  0
VERTEX
  8
0
 10
43.8360770478
 20
-48.5003342434
 30
0.0
  0
VERTEX
  8
0
 10
50.1832824559
 20
-46.3492648256
 30
0.0
  0
VERTEX
  8
0
 10
52.5482469821
 20
-44.2669962711
 30
0.0
  0
VERTEX
  8
0
 10
54.8246694881
 20
-44.8480247745
 30
0.0
  0
VERTEX
  8
0
 10
59.8453082491
 20
-42.9639496163
 30
0.0
  0
VERTEX
  8
0
 10
65.758529799
 20
-40.2564021365
 30
0.0
  0
VERTEX
  8
0
 10
69.7521822423
 20
-36.9880400555
 30
0.0
  0
VERTEX
  8
0
 10
72.1608629413
 20
-33.5605103044
 30
0.0
  0
VERTEX
  8
0
 10
73.3191692586
 20
-30.3754598143
 30
0.0
  0
VERTEX
  8
0
 10
73.5616985566
 20
-27.8345355163
 30
0.0
  0
VERTEX
  8
0
 10
72.5857069599
 20
-24.6563757686
 30
0.0
  0
VERTEX
  8
0
 10
70.9555280294
 20
-21.5004546838
 30
0.0
  0
VERTEX
  8
0
 10
70.0955944547
 20
-17.5112786981
 30
0.0
  0
VERTEX
  8
0
 10
69.4386471956
 20
-13.4718340681
 30
0.0
  0
VERTEX
  8
0
 10
67.7718713552
 20
-9.04147544164
 30
0.0
  0
VERTEX
  8
0
 10
65.5513658388
 20
-5.19748780988
 30
0.0
  0
VERTEX
  8
0
 10
63.2332295517
 20
-2.91715616391
 30
0.0
  0
VERTEX
  8
0
 10
58.6985620406
 20
-2.86268881374
 30
0.0
  0
VERTEX
  8
0
 10
54.4762348126
 20
-4.5673344476
 30
0.0
  0
VERTEX
  8
0
 10
51.6656693523
 20
-4.89788360124
 30
0.0
  0
VERTEX
  8
0
 10
47.5334091916
 20
-5.01948198463
 30
0.0
  0
VERTEX
  8
0
 10
43.7485123126
 20
-5.10158357608
 30
0.0
  0
VERTEX
  8
0
 10
39.9639629127
 20
-5.01948198463
 30
0.0
  0
VERTEX
  8
0
 10
35.8317027521
 20
-4.89788360124
 30
0.0
  0
VERTEX
  8
0
 10
33.0207898127
 20
-4.5673344476
 30
0.0
  0
VERTEX
  8
0
 10
28.7993747174
 20
-2.86268881374
 30
0.0
  0
VERTEX
  8
0
 10
24.2648375109
 20
-2.91715616391
 30
0.0
  0
VERTEX
  8
0
 10
21.9467012238
 20
-5.19748780988
 30
0.0
  0
VERTEX
  8
0
 10
19.7261957074
 20
-9.04147544164
 30
0.0
  0
VERTEX
  8
0
 10
18.059419867
 20
-13.4718340681
 30
0.0
  0
VERTEX
  8
0
 10
17.4024726078
 20
-17.5112786981
 30
0.0
  0
VERTEX
  8
0
 10
16.5425390332
 20
-21.5004546838
 30
0.0
  0
VERTEX
  8
0
 10
14.9123601026
 20
-24.6563757686
 30
0.0
  0
VERTEX
  8
0
 10
13.936368506
 20
-27.8345355163
 30
0.0
  0
VERTEX
  8
0
 10
14.2639606896
 20
-30.3754598143
 30
0.0
  0
VERTEX
  8
0
 10
15.4740552932
 20
-33.5605103044
 30
0.0
  0
VERTEX
  8
0
 10
17.9095057827
 20
-36.9880400555
 30
0.0
  0
VERTEX
  8
0
 10
21.9131656242
 20
-40.2564021365
 30
0.0
  0
SEQEND
  8
0
  0
POLYLINE
  8
0
 62
0
 70
1
 66
1
 10
0.0
 20
0.0
 30
0.0
  0
VERTEX
  8
0
 10
3.99295057561
 20
-80.06730567
 30
0.0
  0
VERTEX
  8
0
 10
5.63855371771
 20
-78.3109725188
 30
0.0
  0
VERTEX
  8
0
 10
7.49646659477
 20
-75.1598582283
 30
0.0
  0
VERTEX
  8
0
 10
10.7995450818
 20
-72.907324911
 30
0.0
  0
VERTEX
  8
0
 10
9.39906914599
 20
-72.2992171677
 30
0.0
  0
VERTEX
  8
0
 10
6.26386167687
 20
-74.0281380781
 30
0.0
  0
VERTEX
  8
0
 10
2.68990392078
 20
-78.3983635145
 30
0.0
  0
SEQEND
  8
0
  0
POLYLINE
  8
0
 62
0
 70
1
 66
1
 10
0.0
 20
0.0
 30
0.0
  0
VERTEX
  8
0
 10
4.62938603892
 20
-81.6754324869
 30
0.0
  0
VERTEX
  8
0
 10
5.95067534692
 20
-83.2776586537
 30
0.0
  0
VERTEX
  8
0
 10
8.26807867021
 20
-80.2527009968
 30
0.0
  0
VERTEX
  8
0
 10
12.3918955711
 20
-76.7582556302
 30
0.0
  0
VERTEX
  8
0
 10
11.006708716
 20
-76.1481209255
 30
0.0
  0
VERTEX
  8
0
 10
7.99450885113
 20
-77.6793841366
 30
0.0
  0
SEQEND
  8
0
  0
POLYLINE
  8
0
 62
0
 70
1
 66
1
 10
0.0
 20
0.0
 30
0.0
  0
VERTEX
  8
0
 10
27.9640905106
 20
-122.918158541
 30
0.0
  0
VERTEX
  8
0
 10
25.6222550625
 20
-123.853680887
 30
0.0
  0
VERTEX
  8
0
 10
23.3085654222
 20
-130.15215235
 30
0.0
  0
VERTEX
  8
0
 10
21.2506397097
 20
-130.362049036
 30
0.0
  0
VERTEX
  8
0
 10
18.2734001039
 20
-132.850829538
 30
0.0
  0
VERTEX
  8
0
 10
14.7230516228
 20
-139.350098077
 30
0.0
  0
VERTEX
  8
0
 10
13.1213659791
 20
-143.534248451
 30
0.0
  0
VERTEX
  8
0
 10
12.830834836
 20
-147.356557248
 30
0.0
  0
VERTEX
  8
0
 10
9.68390959921
 20
-151.338127302
 30
0.0
  0
VERTEX
  8
0
 10
13.8844301001
 20
-149.353577594
 30
0.0
  0
VERTEX
  8
0
 10
15.0734649988
 20
-144.782161755
 30
0.0
  0
VERTEX
  8
0
 10
18.0234081902
 20
-140.740188249
 30
0.0
  0
VERTEX
  8
0
 10
19.3533844759
 20
-134.926766251
 30
0.0
  0
VERTEX
  8
0
 10
21.3835311641
 20
-131.872444196
 30
0.0
  0
VERTEX
  8
0
 10
23.2538374627
 20
-130.689528791
 30
0.0
  0
VERTEX
  8
0
 10
23.182430506
 20
-131.466144597
 30
0.0
  0
VERTEX
  8
0
 10
25.0963454326
 20
-132.371501413
 30
0.0
  0
VERTEX
  8
0
 10
25.7783310952
 20
-130.063101177
 30
0.0
  0
VERTEX
  8
0
 10
26.0238829981
 20
-126.41354741
 30
0.0
  0
SEQEND
  8
0
  0
POLYLINE
  8
0
 62
0
 70
1
 66
1
 10
0.0
 20
0.0
 30
0.0
  0
VERTEX
  8
0
 10
12.3269593798
 20
-35.7763556144
 30
0.0
  0
VERTEX
  8
0
 10
11.3058268688
 20
-33.3099368409
 30
0.0
  0
VERTEX
  8
0
 10
11.2337901062
 20
-28.9719232004
 30
0.0
  0
VERTEX
  8
0
 10
11.9374135824
 20
-23.636586607
 30
0.0
  0
VERTEX
  8
0
 10
13.2432617875
 20
-18.1781989744
 30
0.0
  0
VERTEX
  8
0
 10
14.9778992119
 20
-13.4710322166
 30
0.0
  0
VERTEX
  8
0
 10
16.9678903457
 20
-10.3893582476
 30
0.0
  0
VERTEX
  8
0
 10
15.1157929176
 20
-12.0345584104
 30
0.0
  0
VERTEX
  8
0
 10
13.0449284344
 20
-16.2403465981
 30
0.0
  0
VERTEX
  8
0
 10
11.1079592342
 20
-21.8971496274
 30
0.0
  0
VERTEX
  8
0
 10
9.65754765493
 20
-27.8953943152
 30
0.0
  0
VERTEX
  8
0
 10
9.04635603453
 20
-33.1255074782
 30
0.0
  0
VERTEX
  8
0
 10
9.62704671101
 20
-36.4779159334
 30
0.0
  0
VERTEX
  8
0
 10
12.3974949241
 20
-39.4368579891
 30
0.0
  0
VERTEX
  8
0
 10
16.1384359976
 20
-41.9140962727
 30
0.0
  0
VERTEX
  8
0
 10
19.8169285601
 20
-43.5068916393
 30
0.0
  0
VERTEX
  8
0
 10
22.4000312404
 20
-43.8125049441
 30
0.0
  0
VERTEX
  8
0
 10
16.1595381142
 20
-40.4349307972
 30
0.0
  0
VERTEX
  8
0
 10
14.1596800216
 20
-38.0388693039
 30
0.0
  0
SEQEND
  8
0
  0
POLYLINE
  8
0
 62
0
 70
1
 66
1
 10
0.0
 20
0.0
 30
0.0
  0
VERTEX
  8
0
 10
8.99809470359
 20
-93.7946101446
 30
0.0
  0
VERTEX
  8
0
 10
7.59796624688
 20
-93.186734054
 30
0.0
  0
VERTEX
  8
0
 10
4.46275877776
 20
-94.9155391381
 30
0.0
  0
VERTEX
  8
0
 10
0.888453542559
 20
-99.2856487481
 30
0.0
  0
VERTEX
  8
0
 10
2.19150019739
 20
-100.955112122
 30
0.0
  0
VERTEX
  8
0
 10
3.83733499223
 20
-99.1987596667
 30
0.0
  0
VERTEX
  8
0
 10
5.69513204292
 20
-96.0475102454
 30
0.0
  0
SEQEND
  8
0
  0
POLYLINE
  8
0
 62
0
 70
1
 66
1
 10
0.0
 20
0.0
 30
0.0
  0
VERTEX
  8
0
 10
2.14307552058
 20
-103.283775991
 30
0.0
  0
VERTEX
  8
0
 10
3.46436482859
 20
-104.885480939
 30
0.0
  0
VERTEX
  8
0
 10
5.78176815188
 20
-101.860783891
 30
0.0
  0
VERTEX
  8
0
 10
9.90558505277
 20
-98.3665991339
 30
0.0
  0
VERTEX
  8
0
 10
8.52039819769
 20
-97.7566960819
 30
0.0
  0
VERTEX
  8
0
 10
5.5081983328
 20
-99.2878434667
 30
0.0
  0
SEQEND
  8
0
  0
POLYLINE
  8
0
 62
0
 70
1
 66
1
 10
0.0
 20
0.0
 30
0.0
  0
VERTEX
  8
0
 10
8.75158782826
 20
-113.790924491
 30
0.0
  0
VERTEX
  8
0
 10
7.22518932459
 20
-113.814746114
 30
0.0
  0
VERTEX
  8
0
 10
5.08282618888
 20
-116.68349502
 30
0.0
  0
VERTEX
  8
0
 10
3.63113569342
 20
-122.139805018
 30
0.0
  0
VERTEX
  8
0
 10
5.5059592204
 20
-123.121780977
 30
0.0
  0
VERTEX
  8
0
 10
6.2802391949
 20
-120.843051595
 30
0.0
  0
VERTEX
  8
0
 10
6.67217632428
 20
-117.205910555
 30
0.0
  0
SEQEND
  8
0
  0
POLYLINE
  8
0
 62
0
 70
1
 66
1
 10
0.0
 20
0.0
 30
0.0
  0
VERTEX
  8
0
 10
6.42326750877
 20
-125.263284681
 30
0.0
  0
VERTEX
  8
0
 10
8.28714544385
 20
-126.177502214
 30
0.0
  0
VERTEX
  8
0
 10
9.15086991901
 20
-122.465708665
 30
0.0
  0
VERTEX
  8
0
 10
11.464494407
 20
-117.581564041
 30
0.0
  0
VERTEX
  8
0
 10
9.95168619733
 20
-117.59723921
 30
0.0
  0
VERTEX
  8
0
 10
7.83982400554
 20
-120.234875901
 30
0.0
  0
SEQEND
  8
0
  0
POLYLINE
  8
0
 62
0
 70
1
 66
1
 10
0.0
 20
0.0
 30
0.0
  0
VERTEX
  8
0
 10
89.1747943017
 20
-80.06730567
 30
0.0
  0
VERTEX
  8
0
 10
90.4788833939
 20
-78.3983635145
 30
0.0
  0
VERTEX
  8
0
 10
86.9046553763
 20
-74.0281380781
 30
0.0
  0
VERTEX
  8
0
 10
83.7689459929
 20
-72.2992171677
 30
0.0
  0
VERTEX
  8
0
 10
82.3681997955
 20
-72.907324911
 30
0.0
  0
VERTEX
  8
0
 10
85.6719732408
 20
-75.1598582283
 30
0.0
  0
VERTEX
  8
0
 10
87.5298861179
 20
-78.3109725188
 30
0.0
  0
SEQEND
  8
0
  0
POLYLINE
  8
0
 62
0
 70
1
 66
1
 10
0.0
 20
0.0
 30
0.0
  0
VERTEX
  8
0
 10
87.0851243733
 20
-83.438735625
 30
0.0
  0
VERTEX
  8
0
 10
88.4064136813
 20
-81.8365094582
 30
0.0
  0
VERTEX
  8
0
 10
85.041039912
 20
-77.8405769343
 30
0.0
  0
VERTEX
  8
0
 10
82.0284732636
 20
-76.3094295495
 30
0.0
  0
VERTEX
  8
0
 10
80.6433829305
 20
-76.9193326015
 30
0.0
  0
VERTEX
  8
0
 10
84.7668740697
 20
-80.4139734251
 30
0.0
  0
SEQEND
  8
0
  0
POLYLINE
  8
0
 62
0
 70
1
 66
1
 10
0.0
 20
0.0
 30
0.0
  0
VERTEX
  8
0
 10
70.3275531701
 20
-130.880143453
 30
0.0
  0
VERTEX
  8
0
 10
68.0138635298
 20
-124.58167199
 30
0.0
  0
VERTEX
  8
0
 10
65.6720280817
 20
-123.646149644
 30
0.0
  0
VERTEX
  8
0
 10
67.6126988997
 20
-127.141538513
 30
0.0
  0
VERTEX
  8
0
 10
67.8580191499
 20
-130.791092279
 30
0.0
  0
VERTEX
  8
0
 10
68.5397731597
 20
-133.099492515
 30
0.0
  0
VERTEX
  8
0
 10
70.4536880863
 20
-132.1941357
 30
0.0
  0
VERTEX
  8
0
 10
70.383323567
 20
-131.417519893
 30
0.0
  0
VERTEX
  8
0
 10
72.2530314293
 20
-132.600435299
 30
0.0
  0
VERTEX
  8
0
 10
74.2831588131
 20
-135.654757353
 30
0.0
  0
VERTEX
  8
0
 10
75.6132316208
 20
-141.468179351
 30
0.0
  0
VERTEX
  8
0
 10
78.5634064649
 20
-145.510152857
 30
0.0
  0
VERTEX
  8
0
 10
79.7523255372
 20
-150.081568697
 30
0.0
  0
VERTEX
  8
0
 10
83.9527302118
 20
-152.066118405
 30
0.0
  0
VERTEX
  8
0
 10
80.8058435837
 20
-148.08454835
 30
0.0
  0
VERTEX
  8
0
 10
80.5159301813
 20
-144.262239554
 30
0.0
  0
VERTEX
  8
0
 10
78.9146306255
 20
-140.07808918
 30
0.0
  0
VERTEX
  8
0
 10
75.363529273
 20
-133.57882064
 30
0.0
  0
VERTEX
  8
0
 10
72.386231754
 20
-131.090040138
 30
0.0
  0
SEQEND
  8
0
  0
POLYLINE
  8
0
 62
0
 70
1
 66
1
 10
0.0
 20
0.0
 30
0.0
  0
VERTEX
  8
0
 10
61.9913629653
 20
-125.640877814
 30
0.0
  0
VERTEX
  8
0
 10
63.643886733
 20
-128.447835766
 30
0.0
  0
VERTEX
  8
0
 10
63.8297011859
 20
-131.312258075
 30
0.0
  0
VERTEX
  8
0
 10
60.4105067637
 20
-133.224609345
 30
0.0
  0
VERTEX
  8
0
 10
58.1298855518
 20
-130.792525851
 30
0.0
  0
VERTEX
  8
0
 10
55.234921277
 20
-129.196013785
 30
0.0
  0
VERTEX
  8
0
 10
51.8979635769
 20
-128.62224856
 30
0.0
  0
VERTEX
  8
0
 10
43.8268925969
 20
-128.62224856
 30
0.0
  0
VERTEX
  8
0
 10
39.0583933635
 20
-129.832844055
 30
0.0
  0
VERTEX
  8
0
 10
35.4227628919
 20
-133.067201309
 30
0.0
  0
VERTEX
  8
0
 10
32.1568067562
 20
-131.312258075
 30
0.0
  0
VERTEX
  8
0
 10
32.3426212092
 20
-128.447835766
 30
0.0
  0
VERTEX
  8
0
 10
33.9951449768
 20
-125.640877814
 30
0.0
  0
VERTEX
  8
0
 10
31.8634909542
 20
-126.565193959
 30
0.0
  0
VERTEX
  8
0
 10
30.007822213
 20
-132.101904347
 30
0.0
  0
VERTEX
  8
0
 10
31.6037937559
 20
-132.786785669
 30
0.0
  0
VERTEX
  8
0
 10
32.1442975083
 20
-131.470708548
 30
0.0
  0
VERTEX
  8
0
 10
35.047910152
 20
-136.179629592
 30
0.0
  0
VERTEX
  8
0
 10
35.5085130139
 20
-140.531342114
 30
0.0
  0
VERTEX
  8
0
 10
35.2736943545
 20
-142.444446256
 30
0.0
  0
VERTEX
  8
0
 10
36.6586537797
 20
-143.302966689
 30
0.0
  0
VERTEX
  8
0
 10
39.8880431687
 20
-145.843247998
 30
0.0
  0
VERTEX
  8
0
 10
43.5736291914
 20
-150.012370203
 30
0.0
  0
VERTEX
  8
0
 10
46.3271785182
 20
-155.757413319
 30
0.0
  0
VERTEX
  8
0
 10
44.4713468962
 20
-148.651256531
 30
0.0
  0
VERTEX
  8
0
 10
41.7443634331
 20
-144.536813422
 30
0.0
  0
VERTEX
  8
0
 10
39.2781196057
 20
-142.637582203
 30
0.0
  0
VERTEX
  8
0
 10
38.2045068906
 20
-142.177061083
 30
0.0
  0
VERTEX
  8
0
 10
38.0016225264
 20
-138.957037342
 30
0.0
  0
VERTEX
  8
0
 10
35.6682568816
 20
-133.330937952
 30
0.0
  0
VERTEX
  8
0
 10
39.1571643
 20
-131.499049813
 30
0.0
  0
VERTEX
  8
0
 10
43.2488611008
 20
-130.836385436
 30
0.0
  0
VERTEX
  8
0
 10
52.475995073
 20
-130.836385436
 30
0.0
  0
VERTEX
  8
0
 10
56.662683975
 20
-131.533841158
 30
0.0
  0
VERTEX
  8
0
 10
60.2098375788
 20
-133.454466775
 30
0.0
  0
VERTEX
  8
0
 10
57.9731579958
 20
-139.026033662
 30
0.0
  0
VERTEX
  8
0
 10
57.7809586142
 20
-142.177061083
 30
0.0
  0
VERTEX
  8
0
 10
56.7073621872
 20
-142.637582203
 30
0.0
  0
VERTEX
  8
0
 10
54.2412323763
 20
-144.536813422
 30
0.0
  0
VERTEX
  8
0
 10
51.5145583868
 20
-148.651256531
 30
0.0
  0
VERTEX
  8
0
 10
49.6593294239
 20
-155.757413319
 30
0.0
  0
VERTEX
  8
0
 10
52.4122760916
 20
-150.012370203
 30
0.0
  0
VERTEX
  8
0
 10
56.0975526408
 20
-145.843247998
 30
0.0
  0
VERTEX
  8
0
 10
59.3268280132
 20
-143.302966689
 30
0.0
  0
VERTEX
  8
0
 10
60.7117711503
 20
-142.444446256
 30
0.0
  0
VERTEX
  8
0
 10
60.4770683172
 20
-140.531342114
 30
0.0
  0
VERTEX
  8
0
 10
60.9377870056
 20
-136.179629592
 30
0.0
  0
VERTEX
  8
0
 10
63.8411679965
 20
-131.470708548
 30
0.0
  0
VERTEX
  8
0
 10
64.3827141863
 20
-132.786785669
 30
0.0
  0
VERTEX
  8
0
 10
65.9786857291
 20
-132.101904347
 30
0.0
  0
VERTEX
  8
0
 10
64.122626074
 20
-126.565193959
 30
0.0
  0
SEQEND
  8
0
  0
POLYLINE
  8
0
 62
0
 70
1
 66
1
 10
0.0
 20
0.0
 30
0.0
  0
VERTEX
  8
0
 10
91.6611048201
 20
-101.675933143
 30
0.0
  0
VERTEX
  8
0
 10
92.9651939122
 20
-100.006469769
 30
0.0
  0
VERTEX
  8
0
 10
89.3909658946
 20
-95.6363601588
 30
0.0
  0
VERTEX
  8
0
 10
86.2552565112
 20
-93.9075550747
 30
0.0
  0
VERTEX
  8
0
 10
84.8545103139
 20
-94.5154311653
 30
0.0
  0
VERTEX
  8
0
 10
88.1582837591
 20
-96.7683312662
 30
0.0
  0
VERTEX
  8
0
 10
90.0161966362
 20
-99.9195806874
 30
0.0
  0
SEQEND
  8
0
  0
POLYLINE
  8
0
 62
0
 70
1
 66
1
 10
0.0
 20
0.0
 30
0.0
  0
VERTEX
  8
0
 10
91.0258181417
 20
-103.283775991
 30
0.0
  0
VERTEX
  8
0
 10
87.660425068
 20
-99.2878434667
 30
0.0
  0
VERTEX
  8
0
 10
84.6477232888
 20
-97.7566960819
 30
0.0
  0
VERTEX
  8
0
 10
83.2622661722
 20
-98.3665991339
 30
0.0
  0
VERTEX
  8
0
 10
87.3862133778
 20
-101.860783891
 30
0.0
  0
VERTEX
  8
0
 10
89.7045288337
 20
-104.885480939
 30
0.0
  0
SEQEND
  8
0
  0
POLYLINE
  8
0
 62
0
 70
1
 66
1
 10
0.0
 20
0.0
 30
0.0
  0
VERTEX
  8
0
 10
84.416217285
 20
-113.790924491
 30
0.0
  0
VERTEX
  8
0
 10
86.4958604417
 20
-117.205910555
 30
0.0
  0
VERTEX
  8
0
 10
86.8880292239
 20
-120.843051595
 30
0.0
  0
VERTEX
  8
0
 10
87.6618458929
 20
-123.121780977
 30
0.0
  0
VERTEX
  8
0
 10
89.5377118572
 20
-122.139805018
 30
0.0
  0
VERTEX
  8
0
 10
88.0855194475
 20
-116.68349502
 30
0.0
  0
VERTEX
  8
0
 10
85.943117703
 20
-113.814746114
 30
0.0
  0
SEQEND
  8
0
  0
POLYLINE
  8
0
 62
0
 70
1
 66
1
 10
0.0
 20
0.0
 30
0.0
  0
VERTEX
  8
0
 10
80.8419299799
 20
-35.7763556144
 30
0.0
  0
VERTEX
  8
0
 10
79.0089390767
 20
-38.0388693039
 30
0.0
  0
VERTEX
  8
0
 10
77.0085790697
 20
-40.4349307972
 30
0.0
  0
VERTEX
  8
0
 10
70.767815682
 20
-43.8125049441
 30
0.0
  0
VERTEX
  8
0
 10
73.3515210214
 20
-43.5068916393
 30
0.0
  0
VERTEX
  8
0
 10
77.0303230575
 20
-41.9140962727
 30
0.0
  0
VERTEX
  8
0
 10
80.7713781476
 20
-39.4368579891
 30
0.0
  0
VERTEX
  8
0
 10
83.5418426487
 20
-36.4779159334
 30
0.0
  0
VERTEX
  8
0
 10
84.1223475204
 20
-33.1255074782
 30
0.0
  0
VERTEX
  8
0
 10
83.5110714433
 20
-27.8953943152
 30
0.0
  0
VERTEX
  8
0
 10
82.0606043638
 20
-21.8971496274
 30
0.0
  0
VERTEX
  8
0
 10
80.1235362286
 20
-16.2403465981
 30
0.0
  0
VERTEX
  8
0
 10
78.0524569841
 20
-12.0345584104
 30
0.0
  0
VERTEX
  8
0
 10
76.1999565767
 20
-10.3893582476
 30
0.0
  0
VERTEX
  8
0
 10
78.1903868855
 20
-13.4710322166
 30
0.0
  0
VERTEX
  8
0
 10
79.9253187019
 20
-18.1781989744
 30
0.0
  0
VERTEX
  8
0
 10
81.2313454727
 20
-23.636586607
 30
0.0
  0
VERTEX
  8
0
 10
81.9350606448
 20
-28.9719232004
 30
0.0
  0
VERTEX
  8
0
 10
81.8630576649
 20
-33.3099368409
 30
0.0
  0
SEQEND
  8
0
  0
POLYLINE
  8
0
 62
0
 70
1
 66
1
 10
0.0
 20
0.0
 30
0.0
  0
VERTEX
  8
0
 10
81.196005291
 20
-116.808283437
 30
0.0
  0
VERTEX
  8
0
 10
83.510411607
 20
-121.692623518
 30
0.0
  0
VERTEX
  8
0
 10
84.3733542542
 20
-125.40422161
 30
0.0
  0
VERTEX
  8
0
 10
86.2382746266
 20
-124.490004077
 30
0.0
  0
VERTEX
  8
0
 10
84.821679521
 20
-119.461595297
 30
0.0
  0
VERTEX
  8
0
 10
82.7095470677
 20
-116.823958606
 30
0.0
  0
SEQEND
  8
0
  0
ENDSEC
  0
EOF
