  0
SECTION
  2
HEADER
  9
$ACADVER
  1
AC1009
  9
$INSBASE
 10
0.0
 20
0.0
 30
0.0
  9
$EXTMIN
 10
0.0
 20
0.0
 30
0.0
  9
$EXTMAX
 10
0.0
 20
0.0
 30
0.0
  0
ENDSEC
  0
SECTION
  2
TABLES
  0
TABLE
  2
VPORT
 70
0
  0
ENDTAB
  0
TABLE
  2
LTYPE
 70
1
  0
LTYPE
  2
CONTINUOUS
 70
0
  3
Solid line
 72
65
 73
0
 40
0.0
  0
ENDTAB
  0
TABLE
  2
LAYER
 70
1
  0
LAYER
  2
0
 70
64
 62
7
  6
continuous
  0
ENDTAB
  0
TABLE
  2
STYLE
 70
1
  0
STYLE
  2
STANDARD
 70
0
 40
0
 41
1.0
 50
0.0
 71
0
 42
1
 3
ARIAL.TTF
 4

  0
ENDTAB
  0
TABLE
  2
VIEW
 70
0
  0
ENDTAB
  0
ENDSEC
  0
SECTION
  2
BLOCKS
  0
ENDSEC
  0
SECTION
  2
ENTITIES
  0
POLYLINE
  8
Layer_1
 62
0
 70
0
 66
1
 10
0.0
 20
0.0
 30
0.0
  0
VERTEX
  8
Layer_1
 10
116.189848
 20
75.782048
 30
0.0
  0
VERTEX
  8
Layer_1
 10
115.68509425
 20
80.6405755396
 30
0.0
  0
VERTEX
  8
Layer_1
 10
113.269528
 20
84.90128
 30
0.0
  0
SEQEND
  8
Layer_1
  0
POLYLINE
  8
Layer_1
 62
0
 70
0
 66
1
 10
0.0
 20
0.0
 30
0.0
  0
VERTEX
  8
Layer_1
 10
113.269528
 20
84.90128
 30
0.0
  0
VERTEX
  8
Layer_1
 10
115.445811014
 20
88.8691660535
 30
0.0
  0
VERTEX
  8
Layer_1
 10
116.437483855
 20
93.2922108252
 30
0.0
  0
VERTEX
  8
Layer_1
 10
115.572376
 20
97.724768
 30
0.0
  0
SEQEND
  8
Layer_1
  0
POLYLINE
  8
Layer_1
 62
0
 70
0
 66
1
 10
0.0
 20
0.0
 30
0.0
  0
VERTEX
  8
Layer_1
 10
115.572376
 20
97.724768
 30
0.0
  0
VERTEX
  8
Layer_1
 10
116.158333268
 20
102.263918153
 30
0.0
  0
VERTEX
  8
Layer_1
 10
114.701002461
 20
106.617351002
 30
0.0
  0
VERTEX
  8
Layer_1
 10
112.12276
 20
110.446288
 30
0.0
  0
SEQEND
  8
Layer_1
  0
POLYLINE
  8
Layer_1
 62
0
 70
0
 66
1
 10
0.0
 20
0.0
 30
0.0
  0
VERTEX
  8
Layer_1
 10
112.12276
 20
110.446288
 30
0.0
  0
VERTEX
  8
Layer_1
 10
111.424873702
 20
114.174484207
 30
0.0
  0
VERTEX
  8
Layer_1
 10
110.061215472
 20
117.71857224
 30
0.0
  0
VERTEX
  8
Layer_1
 10
108.325192
 20
121.093072
 30
0.0
  0
SEQEND
  8
Layer_1
  0
POLYLINE
  8
Layer_1
 62
0
 70
0
 66
1
 10
0.0
 20
0.0
 30
0.0
  0
VERTEX
  8
Layer_1
 10
108.325192
 20
121.093072
 30
0.0
  0
VERTEX
  8
Layer_1
 10
108.662113752
 20
124.826472253
 30
0.0
  0
VERTEX
  8
Layer_1
 10
107.783764628
 20
128.469147087
 30
0.0
  0
VERTEX
  8
Layer_1
 10
106.339144
 20
131.927632
 30
0.0
  0
SEQEND
  8
Layer_1
  0
POLYLINE
  8
Layer_1
 62
0
 70
0
 66
1
 10
0.0
 20
0.0
 30
0.0
  0
VERTEX
  8
Layer_1
 10
106.339144
 20
131.927632
 30
0.0
  0
VERTEX
  8
Layer_1
 10
104.74188
 20
135.757456
 30
0.0
  0
SEQEND
  8
Layer_1
  0
POLYLINE
  8
Layer_1
 62
0
 70
0
 66
1
 10
0.0
 20
0.0
 30
0.0
  0
VERTEX
  8
Layer_1
 10
104.74188
 20
135.757456
 30
0.0
  0
VERTEX
  8
Layer_1
 10
104.644195508
 20
139.863981038
 30
0.0
  0
VERTEX
  8
Layer_1
 10
104.381937618
 20
143.957294546
 30
0.0
  0
VERTEX
  8
Layer_1
 10
103.854413537
 20
148.02730258
 30
0.0
  0
VERTEX
  8
Layer_1
 10
103.143805678
 20
152.072866623
 30
0.0
  0
VERTEX
  8
Layer_1
 10
102.353784
 20
156.100048
 30
0.0
  0
SEQEND
  8
Layer_1
  0
POLYLINE
  8
Layer_1
 62
0
 70
0
 66
1
 10
0.0
 20
0.0
 30
0.0
  0
VERTEX
  8
Layer_1
 10
102.353784
 20
156.100048
 30
0.0
  0
VERTEX
  8
Layer_1
 10
101.972677998
 20
160.37295453
 30
0.0
  0
VERTEX
  8
Layer_1
 10
101.015589884
 20
164.546301969
 30
0.0
  0
VERTEX
  8
Layer_1
 10
99.293496
 20
168.47656
 30
0.0
  0
SEQEND
  8
Layer_1
  0
POLYLINE
  8
Layer_1
 62
0
 70
0
 66
1
 10
0.0
 20
0.0
 30
0.0
  0
VERTEX
  8
Layer_1
 10
99.293496
 20
168.47656
 30
0.0
  0
VERTEX
  8
Layer_1
 10
96.3395695039
 20
171.403952609
 30
0.0
  0
VERTEX
  8
Layer_1
 10
92.7219249002
 20
173.50126022
 30
0.0
  0
VERTEX
  8
Layer_1
 10
89.006702691
 20
175.384057397
 30
0.0
  0
VERTEX
  8
Layer_1
 10
85.3100120868
 20
177.329866879
 30
0.0
  0
VERTEX
  8
Layer_1
 10
82.026744
 20
179.884208
 30
0.0
  0
SEQEND
  8
Layer_1
  0
POLYLINE
  8
Layer_1
 62
0
 70
0
 66
1
 10
0.0
 20
0.0
 30
0.0
  0
VERTEX
  8
Layer_1
 10
82.026744
 20
179.884208
 30
0.0
  0
VERTEX
  8
Layer_1
 10
78.3512185414
 20
182.64900775
 30
0.0
  0
VERTEX
  8
Layer_1
 10
74.3525789315
 20
184.715499627
 30
0.0
  0
VERTEX
  8
Layer_1
 10
69.9225596903
 20
185.783846565
 30
0.0
  0
VERTEX
  8
Layer_1
 10
65.3424030901
 20
186.277947561
 30
0.0
  0
VERTEX
  8
Layer_1
 10
60.7960771476
 20
186.508232448
 30
0.0
  0
VERTEX
  8
Layer_1
 10
56.2662751253
 20
186.508221041
 30
0.0
  0
VERTEX
  8
Layer_1
 10
51.7199466964
 20
186.27790761
 30
0.0
  0
VERTEX
  8
Layer_1
 10
47.1398043035
 20
185.783752951
 30
0.0
  0
VERTEX
  8
Layer_1
 10
42.7098133419
 20
184.715336597
 30
0.0
  0
VERTEX
  8
Layer_1
 10
38.7111456314
 20
182.648866718
 30
0.0
  0
VERTEX
  8
Layer_1
 10
35.03552
 20
179.884208
 30
0.0
  0
SEQEND
  8
Layer_1
  0
POLYLINE
  8
Layer_1
 62
0
 70
0
 66
1
 10
0.0
 20
0.0
 30
0.0
  0
VERTEX
  8
Layer_1
 10
35.03552
 20
179.884208
 30
0.0
  0
VERTEX
  8
Layer_1
 10
31.195748522
 20
177.012386375
 30
0.0
  0
VERTEX
  8
Layer_1
 10
26.915648
 20
174.808496
 30
0.0
  0
SEQEND
  8
Layer_1
  0
POLYLINE
  8
Layer_1
 62
0
 70
0
 66
1
 10
0.0
 20
0.0
 30
0.0
  0
VERTEX
  8
Layer_1
 10
26.915648
 20
174.808496
 30
0.0
  0
VERTEX
  8
Layer_1
 10
23.5843997129
 20
173.103887672
 30
0.0
  0
VERTEX
  8
Layer_1
 10
20.3830511192
 20
171.149119558
 30
0.0
  0
VERTEX
  8
Layer_1
 10
17.769344
 20
168.476528
 30
0.0
  0
SEQEND
  8
Layer_1
  0
POLYLINE
  8
Layer_1
 62
0
 70
0
 66
1
 10
0.0
 20
0.0
 30
0.0
  0
VERTEX
  8
Layer_1
 10
17.769344
 20
168.476528
 30
0.0
  0
VERTEX
  8
Layer_1
 10
16.0474784627
 20
164.546199186
 30
0.0
  0
VERTEX
  8
Layer_1
 10
15.0903322229
 20
160.372881344
 30
0.0
  0
VERTEX
  8
Layer_1
 10
14.709056
 20
156.100016
 30
0.0
  0
SEQEND
  8
Layer_1
  0
POLYLINE
  8
Layer_1
 62
0
 70
0
 66
1
 10
0.0
 20
0.0
 30
0.0
  0
VERTEX
  8
Layer_1
 10
14.709056
 20
156.100016
 30
0.0
  0
VERTEX
  8
Layer_1
 10
13.9194871144
 20
152.072756928
 30
0.0
  0
VERTEX
  8
Layer_1
 10
13.2089306814
 20
148.027191089
 30
0.0
  0
VERTEX
  8
Layer_1
 10
12.6811849724
 20
143.957228372
 30
0.0
  0
VERTEX
  8
Layer_1
 10
12.4187497999
 20
139.863942115
 30
0.0
  0
VERTEX
  8
Layer_1
 10
12.32096
 20
135.757424
 30
0.0
  0
SEQEND
  8
Layer_1
  0
POLYLINE
  8
Layer_1
 62
0
 70
0
 66
1
 10
0.0
 20
0.0
 30
0.0
  0
VERTEX
  8
Layer_1
 10
12.32096
 20
135.757424
 30
0.0
  0
VERTEX
  8
Layer_1
 10
10.712176
 20
131.899376
 30
0.0
  0
SEQEND
  8
Layer_1
  0
POLYLINE
  8
Layer_1
 62
0
 70
0
 66
1
 10
0.0
 20
0.0
 30
0.0
  0
VERTEX
  8
Layer_1
 10
10.712176
 20
131.899376
 30
0.0
  0
VERTEX
  8
Layer_1
 10
9.27198834312
 20
128.449956913
 30
0.0
  0
VERTEX
  8
Layer_1
 10
8.40017140358
 20
124.816367816
 30
0.0
  0
VERTEX
  8
Layer_1
 10
8.737664
 20
121.09304
 30
0.0
  0
SEQEND
  8
Layer_1
  0
POLYLINE
  8
Layer_1
 62
0
 70
0
 66
1
 10
0.0
 20
0.0
 30
0.0
  0
VERTEX
  8
Layer_1
 10
8.737664
 20
121.09304
 30
0.0
  0
VERTEX
  8
Layer_1
 10
7.00178791923
 20
117.718452669
 30
0.0
  0
VERTEX
  8
Layer_1
 10
5.63833335821
 20
114.174297639
 30
0.0
  0
VERTEX
  8
Layer_1
 10
4.93952
 20
110.446256
 30
0.0
  0
SEQEND
  8
Layer_1
  0
POLYLINE
  8
Layer_1
 62
0
 70
0
 66
1
 10
0.0
 20
0.0
 30
0.0
  0
VERTEX
  8
Layer_1
 10
4.93952
 20
110.446256
 30
0.0
  0
VERTEX
  8
Layer_1
 10
2.36470550199
 20
106.618202608
 30
0.0
  0
VERTEX
  8
Layer_1
 10
0.899318122491
 20
102.261440151
 30
0.0
  0
VERTEX
  8
Layer_1
 10
1.491568
 20
97.72416
 30
0.0
  0
SEQEND
  8
Layer_1
  0
POLYLINE
  8
Layer_1
 62
0
 70
0
 66
1
 10
0.0
 20
0.0
 30
0.0
  0
VERTEX
  8
Layer_1
 10
1.491568
 20
97.72416
 30
0.0
  0
VERTEX
  8
Layer_1
 10
0.626110142039
 20
93.2919194615
 30
0.0
  0
VERTEX
  8
Layer_1
 10
1.61727335743
 20
88.8690187452
 30
0.0
  0
VERTEX
  8
Layer_1
 10
3.793264
 20
84.901248
 30
0.0
  0
SEQEND
  8
Layer_1
  0
POLYLINE
  8
Layer_1
 62
0
 70
0
 66
1
 10
0.0
 20
0.0
 30
0.0
  0
VERTEX
  8
Layer_1
 10
3.793264
 20
84.901248
 30
0.0
  0
VERTEX
  8
Layer_1
 10
1.37861345298
 20
80.6403162658
 30
0.0
  0
VERTEX
  8
Layer_1
 10
0.874096
 20
75.782016
 30
0.0
  0
SEQEND
  8
Layer_1
  0
POLYLINE
  8
Layer_1
 62
0
 70
0
 66
1
 10
0.0
 20
0.0
 30
0.0
  0
VERTEX
  8
Layer_1
 10
0.874096
 20
75.782016
 30
0.0
  0
VERTEX
  8
Layer_1
 10
0.017008
 20
71.475248
 30
0.0
  0
SEQEND
  8
Layer_1
  0
POLYLINE
  8
Layer_1
 62
0
 70
0
 66
1
 10
0.0
 20
0.0
 30
0.0
  0
VERTEX
  8
Layer_1
 10
0.017008
 20
71.475248
 30
0.0
  0
VERTEX
  8
Layer_1
 10
0.920372205443
 20
67.806323131
 30
0.0
  0
VERTEX
  8
Layer_1
 10
2.888944
 20
64.57248
 30
0.0
  0
SEQEND
  8
Layer_1
  0
POLYLINE
  8
Layer_1
 62
0
 70
0
 66
1
 10
0.0
 20
0.0
 30
0.0
  0
VERTEX
  8
Layer_1
 10
2.888944
 20
64.57248
 30
0.0
  0
VERTEX
  8
Layer_1
 10
1.91774718087
 20
60.5254659711
 30
0.0
  0
VERTEX
  8
Layer_1
 10
1.9067516321
 20
56.3802120502
 30
0.0
  0
VERTEX
  8
Layer_1
 10
2.98902791788
 20
52.3611791405
 30
0.0
  0
VERTEX
  8
Layer_1
 10
4.71256
 20
48.578688
 30
0.0
  0
SEQEND
  8
Layer_1
  0
POLYLINE
  8
Layer_1
 62
0
 70
0
 66
1
 10
0.0
 20
0.0
 30
0.0
  0
VERTEX
  8
Layer_1
 10
4.71256
 20
48.578688
 30
0.0
  0
VERTEX
  8
Layer_1
 10
5.407792
 20
44.782832
 30
0.0
  0
SEQEND
  8
Layer_1
  0
POLYLINE
  8
Layer_1
 62
0
 70
0
 66
1
 10
0.0
 20
0.0
 30
0.0
  0
VERTEX
  8
Layer_1
 10
5.407792
 20
44.782832
 30
0.0
  0
VERTEX
  8
Layer_1
 10
5.01840968698
 20
39.9909644084
 30
0.0
  0
VERTEX
  8
Layer_1
 10
4.82427609338
 20
35.1518200284
 30
0.0
  0
VERTEX
  8
Layer_1
 10
5.02161524759
 20
30.2374887825
 30
0.0
  0
VERTEX
  8
Layer_1
 10
5.81564055442
 20
25.3983953914
 30
0.0
  0
VERTEX
  8
Layer_1
 10
7.41641148858
 20
20.8811028232
 30
0.0
  0
VERTEX
  8
Layer_1
 10
9.95811212089
 20
16.8726432219
 30
0.0
  0
VERTEX
  8
Layer_1
 10
13.2029391667
 20
13.2638031606
 30
0.0
  0
VERTEX
  8
Layer_1
 10
16.799344
 20
9.854784
 30
0.0
  0
SEQEND
  8
Layer_1
  0
POLYLINE
  8
Layer_1
 62
0
 70
0
 66
1
 10
0.0
 20
0.0
 30
0.0
  0
VERTEX
  8
Layer_1
 10
16.799344
 20
9.854784
 30
0.0
  0
VERTEX
  8
Layer_1
 10
20.9349353958
 20
7.19652623256
 30
0.0
  0
VERTEX
  8
Layer_1
 10
25.1642547995
 20
4.79824649124
 30
0.0
  0
VERTEX
  8
Layer_1
 10
29.5809560181
 20
2.91973399219
 30
0.0
  0
VERTEX
  8
Layer_1
 10
34.2345609105
 20
1.70830540659
 30
0.0
  0
VERTEX
  8
Layer_1
 10
39.0559772016
 20
1.00898317142
 30
0.0
  0
VERTEX
  8
Layer_1
 10
43.9563895174
 20
0.616524388728
 30
0.0
  0
VERTEX
  8
Layer_1
 10
48.8492964766
 20
0.331890070045
 30
0.0
  0
VERTEX
  8
Layer_1
 10
53.7011910093
 20
0.0981211419881
 30
0.0
  0
VERTEX
  8
Layer_1
 10
58.5314342615
 20
3.79778030653e-07
 30
0.0
  0
VERTEX
  8
Layer_1
 10
63.3616769145
 20
0.098133738121
 30
0.0
  0
VERTEX
  8
Layer_1
 10
68.2135726947
 20
0.331898389579
 30
0.0
  0
VERTEX
  8
Layer_1
 10
73.1064871656
 20
0.616506734333
 30
0.0
  0
VERTEX
  8
Layer_1
 10
78.0069127102
 20
1.00892179226
 30
0.0
  0
VERTEX
  8
Layer_1
 10
82.8283415977
 20
1.70819750542
 30
0.0
  0
VERTEX
  8
Layer_1
 10
87.4819517864
 20
2.91959237976
 30
0.0
  0
VERTEX
  8
Layer_1
 10
91.8986401825
 20
4.7981106314
 30
0.0
  0
VERTEX
  8
Layer_1
 10
96.1279253769
 20
7.19644579765
 30
0.0
  0
VERTEX
  8
Layer_1
 10
100.263472
 20
9.854784
 30
0.0
  0
SEQEND
  8
Layer_1
  0
POLYLINE
  8
Layer_1
 62
0
 70
0
 66
1
 10
0.0
 20
0.0
 30
0.0
  0
VERTEX
  8
Layer_1
 10
100.263472
 20
9.854784
 30
0.0
  0
VERTEX
  8
Layer_1
 10
103.860073058
 20
13.2637021094
 30
0.0
  0
VERTEX
  8
Layer_1
 10
107.105099121
 20
16.8724584242
 30
0.0
  0
VERTEX
  8
Layer_1
 10
109.647003612
 20
20.8808680342
 30
0.0
  0
VERTEX
  8
Layer_1
 10
111.247944651
 20
25.3981716955
 30
0.0
  0
VERTEX
  8
Layer_1
 10
112.042028682
 20
30.237325384
 30
0.0
  0
VERTEX
  8
Layer_1
 10
112.239249715
 20
35.1517300437
 30
0.0
  0
VERTEX
  8
Layer_1
 10
112.044810451
 20
39.9909269147
 30
0.0
  0
VERTEX
  8
Layer_1
 10
111.655024
 20
44.782832
 30
0.0
  0
SEQEND
  8
Layer_1
  0
POLYLINE
  8
Layer_1
 62
0
 70
0
 66
1
 10
0.0
 20
0.0
 30
0.0
  0
VERTEX
  8
Layer_1
 10
111.655024
 20
44.782832
 30
0.0
  0
VERTEX
  8
Layer_1
 10
112.351408
 20
48.578688
 30
0.0
  0
SEQEND
  8
Layer_1
  0
POLYLINE
  8
Layer_1
 62
0
 70
0
 66
1
 10
0.0
 20
0.0
 30
0.0
  0
VERTEX
  8
Layer_1
 10
112.351408
 20
48.578688
 30
0.0
  0
VERTEX
  8
Layer_1
 10
114.074459001
 20
52.3613231825
 30
0.0
  0
VERTEX
  8
Layer_1
 10
115.156463819
 20
56.3803949207
 30
0.0
  0
VERTEX
  8
Layer_1
 10
115.145307879
 20
60.5255725239
 30
0.0
  0
VERTEX
  8
Layer_1
 10
114.173872
 20
64.57248
 30
0.0
  0
SEQEND
  8
Layer_1
  0
POLYLINE
  8
Layer_1
 62
0
 70
0
 66
1
 10
0.0
 20
0.0
 30
0.0
  0
VERTEX
  8
Layer_1
 10
114.173872
 20
64.57248
 30
0.0
  0
VERTEX
  8
Layer_1
 10
116.218693305
 20
68.0064502209
 30
0.0
  0
VERTEX
  8
Layer_1
 10
117.062687206
 20
71.9073832936
 30
0.0
  0
VERTEX
  8
Layer_1
 10
116.189872
 20
75.782016
 30
0.0
  0
SEQEND
  8
Layer_1
  0
ENDSEC
  0
EOF
