<?xml version="1.0" encoding="UTF-8" standalone="no"?>
<svg
   xmlns:dc="http://purl.org/dc/elements/1.1/"
   xmlns:cc="http://creativecommons.org/ns#"
   xmlns:rdf="http://www.w3.org/1999/02/22-rdf-syntax-ns#"
   xmlns:svg="http://www.w3.org/2000/svg"
   xmlns="http://www.w3.org/2000/svg"
   version="1.1"
   id="svg5285"
   viewBox="0 0 146.32977 233.17051"
   height="65.805901mm"
   width="41.297512mm">
  <defs
     id="defs5287" />
  <metadata
     id="metadata5290">
    <rdf:RDF>
      <cc:Work
         rdf:about="">
        <dc:format>image/svg+xml</dc:format>
        <dc:type
           rdf:resource="http://purl.org/dc/dcmitype/StillImage" />
        <dc:title></dc:title>
      </cc:Work>
    </rdf:RDF>
  </metadata>
  <g
     transform="translate(128.16485,-415.77695)"
     id="layer1">
    <path
       d="m 17.072478,554.21992 c 0.44136,-4.01184 -0.7848,-7.84008 -3.6504,-11.39904 3.90384,-5.37768 5.01048,-11.49767 2.87856,-16.02935 0.008,-0.0273 0.018,-0.054 0.0267,-0.0799 1.16856,-3.5964 1.88424,-8.07768 -4.33872,-15.822 -0.25704,-3.79584 -1.85328,-8.26704 -4.7469605,-13.30848 1.45944,-4.76568 -0.62208,-9.40032 -2.48256,-13.5432 -0.69048,-1.53648 -1.40184,-3.12336 -1.99656,-4.78728 0.52056,-8.46648 -2.32703999,-22.36535 -2.98511999,-25.42823 -0.09,-2.54808 -0.62928,-10.54368 -3.82536001,-15.47064 -2.13768,-3.2976 -6.4447195,-5.43744 -11.4328795,-7.91568 -3.91896,-1.94688 -8.35992,-4.1544 -10.15056,-6.34392 -6.092668,-7.45341 -19.679068,-8.31525 -29.369548,-8.31525 -9.68904,0 -23.276159,0.86184 -29.369519,8.31528 -1.78848,2.18952 -6.23088,4.39704 -10.14984,6.34464 -4.98672,2.47752 -9.293761,4.61736 -11.432881,7.91496 -3.19536,4.92696 -3.73536,12.92256 -3.82536,15.47064 -0.65664,3.06288 -3.50568,16.96175 -2.98512,25.42823 -0.59472,1.66392 -1.30824,3.25224 -2.01096,4.82256 -1.8468,4.10976 -3.92616,8.74224 -2.46816,13.50792 -2.89368,5.04144 -4.48848,9.51264 -4.74768,13.30848 -6.22224,7.74432 -5.50656,12.2256 -4.33224,15.83352 0.007,0.0223 0.0137,0.0453 0.0223,0.0691 -2.13192,4.53096 -1.02672,10.65095 2.87712,16.02863 -2.86416,3.55896 -4.09032,7.3872 -3.64896,11.39904 -0.81864,1.6164 -1.18872,3.4668 -1.07136,5.38344 0.17424,2.87064 1.47168,5.97168 3.58992,8.62848 -2.44728,6.05592 -1.63296,13.26456 2.27952,19.99224 -0.0987,1.58472 0.198,3.2076 0.86904,4.7448 -1.45152,10.2096 -2.718,33.81912 14.23944,43.66007 7.529038,11.71944 44.722077,12.31848 52.164717,12.31848 7.44336,0 44.637841,-0.59904 52.1654405,-12.31848 16.9588805,-9.84095 15.6924005,-33.45119 14.2394405,-43.66007 0.67104,-1.5372 0.96912,-3.16008 0.87048,-4.7448 3.91104,-6.72768 4.72608,-13.93632 2.27808,-19.99224 2.11896,-2.6568 3.41712,-5.75784 3.59136,-8.62848 0.11666,-1.91664 -0.25272,-3.76704 -1.07136,-5.38344"
       style="fill:#cbcbcb;fill-opacity:1;fill-rule:nonzero;stroke:none"
       id="path3914" />
  </g>
</svg>
