  0
SECTION
  2
HEADER
  9
$ACADVER
  1
AC1009
  9
$INSBASE
 10
0.0
 20
0.0
 30
0.0
  9
$EXTMIN
 10
0.0
 20
0.0
 30
0.0
  9
$EXTMAX
 10
0.0
 20
0.0
 30
0.0
  0
ENDSEC
  0
SECTION
  2
TABLES
  0
TABLE
  2
VPORT
 70
0
  0
ENDTAB
  0
TABLE
  2
LTYPE
 70
1
  0
LTYPE
  2
CONTINUOUS
 70
0
  3
Solid line
 72
65
 73
0
 40
0.0
  0
ENDTAB
  0
TABLE
  2
LAYER
 70
1
  0
LAYER
  2
0
 70
64
 62
7
  6
continuous
  0
ENDTAB
  0
TABLE
  2
STYLE
 70
1
  0
STYLE
  2
STANDARD
 70
0
 40
0
 41
1.0
 50
0.0
 71
0
 42
1
 3
ARIAL.TTF
 4

  0
ENDTAB
  0
TABLE
  2
VIEW
 70
0
  0
ENDTAB
  0
ENDSEC
  0
SECTION
  2
BLOCKS
  0
ENDSEC
  0
SECTION
  2
ENTITIES
  0
POLYLINE
  8
Layer_1
 62
0
 70
0
 66
1
 10
0.0
 20
0.0
 30
0.0
  0
VERTEX
  8
Layer_1
 10
188.068312
 20
109.917857
 30
0.0
  0
VERTEX
  8
Layer_1
 10
191.215071477
 20
106.324532063
 30
0.0
  0
VERTEX
  8
Layer_1
 10
192.870978374
 20
101.921902267
 30
0.0
  0
VERTEX
  8
Layer_1
 10
192.858019864
 20
97.0605408347
 30
0.0
  0
VERTEX
  8
Layer_1
 10
191.615118742
 20
92.4693409309
 30
0.0
  0
VERTEX
  8
Layer_1
 10
189.556999822
 20
88.1774415887
 30
0.0
  0
VERTEX
  8
Layer_1
 10
187.091272
 20
84.035193
 30
0.0
  0
SEQEND
  8
Layer_1
  0
POLYLINE
  8
Layer_1
 62
0
 70
0
 66
1
 10
0.0
 20
0.0
 30
0.0
  0
VERTEX
  8
Layer_1
 10
187.091272
 20
84.035193
 30
0.0
  0
VERTEX
  8
Layer_1
 10
186.20186938
 20
79.2894145594
 30
0.0
  0
VERTEX
  8
Layer_1
 10
184.420794562
 20
75.3720049721
 30
0.0
  0
VERTEX
  8
Layer_1
 10
180.999061288
 20
73.0310518102
 30
0.0
  0
VERTEX
  8
Layer_1
 10
176.377585599
 20
72.3451550782
 30
0.0
  0
VERTEX
  8
Layer_1
 10
171.58858598
 20
73.0602201335
 30
0.0
  0
VERTEX
  8
Layer_1
 10
167.429623262
 20
74.8972236138
 30
0.0
  0
VERTEX
  8
Layer_1
 10
163.823962212
 20
77.4947464359
 30
0.0
  0
VERTEX
  8
Layer_1
 10
160.494952
 20
80.472529
 30
0.0
  0
SEQEND
  8
Layer_1
  0
POLYLINE
  8
Layer_1
 62
0
 70
0
 66
1
 10
0.0
 20
0.0
 30
0.0
  0
VERTEX
  8
Layer_1
 10
160.494952
 20
80.472529
 30
0.0
  0
VERTEX
  8
Layer_1
 10
163.039711504
 20
76.3174845969
 30
0.0
  0
VERTEX
  8
Layer_1
 10
166.018463363
 20
72.7266009957
 30
0.0
  0
VERTEX
  8
Layer_1
 10
169.853327262
 20
70.2575189567
 30
0.0
  0
VERTEX
  8
Layer_1
 10
174.492399917
 20
69.2075566123
 30
0.0
  0
VERTEX
  8
Layer_1
 10
179.261380272
 20
69.5314381515
 30
0.0
  0
VERTEX
  8
Layer_1
 10
183.686969531
 20
71.0198663749
 30
0.0
  0
VERTEX
  8
Layer_1
 10
187.895512
 20
73.116793
 30
0.0
  0
SEQEND
  8
Layer_1
  0
POLYLINE
  8
Layer_1
 62
0
 70
0
 66
1
 10
0.0
 20
0.0
 30
0.0
  0
VERTEX
  8
Layer_1
 10
187.895512
 20
73.116793
 30
0.0
  0
VERTEX
  8
Layer_1
 10
188.229815648
 20
68.2699849583
 30
0.0
  0
VERTEX
  8
Layer_1
 10
188.460360112
 20
63.4120463697
 30
0.0
  0
VERTEX
  8
Layer_1
 10
188.483386045
 20
58.5318461841
 30
0.0
  0
VERTEX
  8
Layer_1
 10
188.195153762
 20
53.6182880121
 30
0.0
  0
VERTEX
  8
Layer_1
 10
187.507410685
 20
48.6875856998
 30
0.0
  0
VERTEX
  8
Layer_1
 10
186.375167236
 20
43.8322437783
 30
0.0
  0
VERTEX
  8
Layer_1
 10
184.760929853
 20
39.1579853886
 30
0.0
  0
VERTEX
  8
Layer_1
 10
182.627204977
 20
34.7705336719
 30
0.0
  0
VERTEX
  8
Layer_1
 10
179.937201968
 20
30.7747420117
 30
0.0
  0
VERTEX
  8
Layer_1
 10
176.713359979
 20
27.202175712
 30
0.0
  0
VERTEX
  8
Layer_1
 10
173.081363245
 20
23.956649613
 30
0.0
  0
VERTEX
  8
Layer_1
 10
169.17726338
 20
20.9291504603
 30
0.0
  0
VERTEX
  8
Layer_1
 10
165.137112
 20
18.010665
 30
0.0
  0
SEQEND
  8
Layer_1
  0
POLYLINE
  8
Layer_1
 62
0
 70
0
 66
1
 10
0.0
 20
0.0
 30
0.0
  0
VERTEX
  8
Layer_1
 10
165.137112
 20
18.010665
 30
0.0
  0
VERTEX
  8
Layer_1
 10
160.601330129
 20
16.0787188243
 30
0.0
  0
VERTEX
  8
Layer_1
 10
156.056228384
 20
14.1738651793
 30
0.0
  0
VERTEX
  8
Layer_1
 10
151.492486839
 20
12.3231964881
 30
0.0
  0
VERTEX
  8
Layer_1
 10
146.900785566
 20
10.5538051738
 30
0.0
  0
VERTEX
  8
Layer_1
 10
142.271804639
 20
8.89278365947
 30
0.0
  0
VERTEX
  8
Layer_1
 10
137.59622413
 20
7.36722436825
 30
0.0
  0
VERTEX
  8
Layer_1
 10
132.864724114
 20
6.00421972323
 30
0.0
  0
VERTEX
  8
Layer_1
 10
128.069506789
 20
4.82880749133
 30
0.0
  0
VERTEX
  8
Layer_1
 10
123.215208092
 20
3.84924165268
 30
0.0
  0
VERTEX
  8
Layer_1
 10
118.312536471
 20
3.06557915018
 30
0.0
  0
VERTEX
  8
Layer_1
 10
113.372241518
 20
2.477821393
 30
0.0
  0
VERTEX
  8
Layer_1
 10
108.405072822
 20
2.0859697903
 30
0.0
  0
VERTEX
  8
Layer_1
 10
103.421779974
 20
1.89002575124
 30
0.0
  0
VERTEX
  8
Layer_1
 10
98.4331125636
 20
1.88999068498
 30
0.0
  0
VERTEX
  8
Layer_1
 10
93.4498201814
 20
2.08586600069
 30
0.0
  0
VERTEX
  8
Layer_1
 10
88.4826524176
 20
2.47765310754
 30
0.0
  0
VERTEX
  8
Layer_1
 10
83.5423588624
 20
3.06535341468
 30
0.0
  0
VERTEX
  8
Layer_1
 10
78.639689106
 20
3.84896833127
 30
0.0
  0
VERTEX
  8
Layer_1
 10
73.7853927388
 20
4.82849926649
 30
0.0
  0
VERTEX
  8
Layer_1
 10
68.9901783502
 20
6.00389227378
 30
0.0
  0
VERTEX
  8
Layer_1
 10
64.2586852338
 20
7.36689914196
 30
0.0
  0
VERTEX
  8
Layer_1
 10
59.5831164308
 20
8.89248125421
 30
0.0
  0
VERTEX
  8
Layer_1
 10
54.9541512236
 20
10.5535427398
 30
0.0
  0
VERTEX
  8
Layer_1
 10
50.3624688946
 20
12.3229877279
 30
0.0
  0
VERTEX
  8
Layer_1
 10
45.7987487261
 20
14.1737203478
 30
0.0
  0
VERTEX
  8
Layer_1
 10
41.2536700004
 20
16.0786447287
 30
0.0
  0
VERTEX
  8
Layer_1
 10
36.717912
 20
18.010665
 30
0.0
  0
SEQEND
  8
Layer_1
  0
POLYLINE
  8
Layer_1
 62
0
 70
0
 66
1
 10
0.0
 20
0.0
 30
0.0
  0
VERTEX
  8
Layer_1
 10
36.717912
 20
18.010665
 30
0.0
  0
VERTEX
  8
Layer_1
 10
32.6776170472
 20
20.929051325
 30
0.0
  0
VERTEX
  8
Layer_1
 10
28.7733678168
 20
23.9564572132
 30
0.0
  0
VERTEX
  8
Layer_1
 10
25.1412099462
 20
27.2019019265
 30
0.0
  0
VERTEX
  8
Layer_1
 10
21.9171890724
 20
30.7744047268
 30
0.0
  0
VERTEX
  8
Layer_1
 10
19.2269896042
 20
34.7701607482
 30
0.0
  0
VERTEX
  8
Layer_1
 10
17.093079954
 20
39.1576143321
 30
0.0
  0
VERTEX
  8
Layer_1
 10
15.4787009834
 20
43.8319036773
 30
0.0
  0
VERTEX
  8
Layer_1
 10
14.3463901294
 20
48.6872963514
 30
0.0
  0
VERTEX
  8
Layer_1
 10
13.6586848287
 20
53.6180599223
 30
0.0
  0
VERTEX
  8
Layer_1
 10
13.3706199673
 20
58.5316797521
 30
0.0
  0
VERTEX
  8
Layer_1
 10
13.3939238086
 20
63.4119376567
 30
0.0
  0
VERTEX
  8
Layer_1
 10
13.6248198771
 20
68.2699312879
 30
0.0
  0
VERTEX
  8
Layer_1
 10
13.959512
 20
73.116793
 30
0.0
  0
SEQEND
  8
Layer_1
  0
POLYLINE
  8
Layer_1
 62
0
 70
0
 66
1
 10
0.0
 20
0.0
 30
0.0
  0
VERTEX
  8
Layer_1
 10
13.959512
 20
73.116793
 30
0.0
  0
VERTEX
  8
Layer_1
 10
18.1680630962
 20
71.0198910429
 30
0.0
  0
VERTEX
  8
Layer_1
 10
22.5936396587
 20
69.53148193
 30
0.0
  0
VERTEX
  8
Layer_1
 10
27.362586271
 20
69.2076174637
 30
0.0
  0
VERTEX
  8
Layer_1
 10
32.0016336737
 20
70.2575995439
 30
0.0
  0
VERTEX
  8
Layer_1
 10
35.8364882462
 20
72.7266826702
 30
0.0
  0
VERTEX
  8
Layer_1
 10
38.8152663759
 20
76.3175341486
 30
0.0
  0
VERTEX
  8
Layer_1
 10
41.360072
 20
80.472529
 30
0.0
  0
SEQEND
  8
Layer_1
  0
POLYLINE
  8
Layer_1
 62
0
 70
0
 66
1
 10
0.0
 20
0.0
 30
0.0
  0
VERTEX
  8
Layer_1
 10
41.360072
 20
80.472529
 30
0.0
  0
VERTEX
  8
Layer_1
 10
38.0309528339
 20
77.494611168
 30
0.0
  0
VERTEX
  8
Layer_1
 10
34.4251819037
 20
74.897002972
 30
0.0
  0
VERTEX
  8
Layer_1
 10
30.2661074101
 20
73.0600134372
 30
0.0
  0
VERTEX
  8
Layer_1
 10
25.4770598458
 20
72.345079349
 30
0.0
  0
VERTEX
  8
Layer_1
 10
20.8555423853
 20
73.031142206
 30
0.0
  0
VERTEX
  8
Layer_1
 10
17.4335667202
 20
75.3721967061
 30
0.0
  0
VERTEX
  8
Layer_1
 10
15.651889765
 20
79.2895564914
 30
0.0
  0
VERTEX
  8
Layer_1
 10
14.761672
 20
84.035193
 30
0.0
  0
SEQEND
  8
Layer_1
  0
POLYLINE
  8
Layer_1
 62
0
 70
0
 66
1
 10
0.0
 20
0.0
 30
0.0
  0
VERTEX
  8
Layer_1
 10
14.761672
 20
84.035193
 30
0.0
  0
VERTEX
  8
Layer_1
 10
12.2967303165
 20
88.1776553952
 30
0.0
  0
VERTEX
  8
Layer_1
 10
10.2393511531
 20
92.4696764694
 30
0.0
  0
VERTEX
  8
Layer_1
 10
8.99709718993
 20
97.0608146939
 30
0.0
  0
VERTEX
  8
Layer_1
 10
8.98459737233
 20
101.921902375
 30
0.0
  0
VERTEX
  8
Layer_1
 10
10.6404820391
 20
106.324382379
 30
0.0
  0
VERTEX
  8
Layer_1
 10
13.786712
 20
109.917857
 30
0.0
  0
SEQEND
  8
Layer_1
  0
POLYLINE
  8
Layer_1
 62
0
 70
0
 66
1
 10
0.0
 20
0.0
 30
0.0
  0
VERTEX
  8
Layer_1
 10
13.786712
 20
109.917857
 30
0.0
  0
VERTEX
  8
Layer_1
 10
18.1741899924
 20
109.345960568
 30
0.0
  0
VERTEX
  8
Layer_1
 10
22.5444506849
 20
109.985306305
 30
0.0
  0
VERTEX
  8
Layer_1
 10
26.4900379641
 20
111.966045493
 30
0.0
  0
VERTEX
  8
Layer_1
 10
29.961672
 20
114.722129
 30
0.0
  0
SEQEND
  8
Layer_1
  0
POLYLINE
  8
Layer_1
 62
0
 70
0
 66
1
 10
0.0
 20
0.0
 30
0.0
  0
VERTEX
  8
Layer_1
 10
29.961672
 20
114.722129
 30
0.0
  0
VERTEX
  8
Layer_1
 10
25.7004150035
 20
113.383543867
 30
0.0
  0
VERTEX
  8
Layer_1
 10
21.3440882778
 20
112.505541239
 30
0.0
  0
VERTEX
  8
Layer_1
 10
16.7976223166
 20
112.548703545
 30
0.0
  0
VERTEX
  8
Layer_1
 10
12.1403782674
 20
113.873871022
 30
0.0
  0
VERTEX
  8
Layer_1
 10
8.21400560165
 20
116.405995442
 30
0.0
  0
VERTEX
  8
Layer_1
 10
6.06342634653
 20
119.950559549
 30
0.0
  0
VERTEX
  8
Layer_1
 10
6.05752158505
 20
124.253999024
 30
0.0
  0
VERTEX
  8
Layer_1
 10
7.205432
 20
128.943993
 30
0.0
  0
SEQEND
  8
Layer_1
  0
POLYLINE
  8
Layer_1
 62
0
 70
0
 66
1
 10
0.0
 20
0.0
 30
0.0
  0
VERTEX
  8
Layer_1
 10
7.205432
 20
128.943993
 30
0.0
  0
VERTEX
  8
Layer_1
 10
6.16656720881
 20
133.080093529
 30
0.0
  0
VERTEX
  8
Layer_1
 10
6.76050348274
 20
136.900785607
 30
0.0
  0
VERTEX
  8
Layer_1
 10
9.26641596038
 20
140.253417977
 30
0.0
  0
VERTEX
  8
Layer_1
 10
12.3737509398
 20
143.185458086
 30
0.0
  0
VERTEX
  8
Layer_1
 10
15.423032
 20
145.858129
 30
0.0
  0
SEQEND
  8
Layer_1
  0
POLYLINE
  8
Layer_1
 62
0
 70
0
 66
1
 10
0.0
 20
0.0
 30
0.0
  0
VERTEX
  8
Layer_1
 10
15.423032
 20
145.858129
 30
0.0
  0
VERTEX
  8
Layer_1
 10
18.955576939
 20
144.770477801
 30
0.0
  0
VERTEX
  8
Layer_1
 10
22.645432
 20
144.737057
 30
0.0
  0
SEQEND
  8
Layer_1
  0
POLYLINE
  8
Layer_1
 62
0
 70
0
 66
1
 10
0.0
 20
0.0
 30
0.0
  0
VERTEX
  8
Layer_1
 10
22.645432
 20
144.737057
 30
0.0
  0
VERTEX
  8
Layer_1
 10
26.4312845871
 20
145.349908473
 30
0.0
  0
VERTEX
  8
Layer_1
 10
29.9982853503
 20
146.71618611
 30
0.0
  0
VERTEX
  8
Layer_1
 10
33.2784566001
 20
148.721709383
 30
0.0
  0
VERTEX
  8
Layer_1
 10
36.361672
 20
150.987729
 30
0.0
  0
SEQEND
  8
Layer_1
  0
POLYLINE
  8
Layer_1
 62
0
 70
0
 66
1
 10
0.0
 20
0.0
 30
0.0
  0
VERTEX
  8
Layer_1
 10
36.361672
 20
150.987729
 30
0.0
  0
VERTEX
  8
Layer_1
 10
39.6768173156
 20
154.117268461
 30
0.0
  0
VERTEX
  8
Layer_1
 10
42.8647324157
 20
157.405210401
 30
0.0
  0
VERTEX
  8
Layer_1
 10
45.969013734
 20
160.790790266
 30
0.0
  0
VERTEX
  8
Layer_1
 10
49.5093631658
 20
163.602613816
 30
0.0
  0
VERTEX
  8
Layer_1
 10
53.587272
 20
165.713057
 30
0.0
  0
SEQEND
  8
Layer_1
  0
POLYLINE
  8
Layer_1
 62
0
 70
0
 66
1
 10
0.0
 20
0.0
 30
0.0
  0
VERTEX
  8
Layer_1
 10
53.587272
 20
165.713057
 30
0.0
  0
VERTEX
  8
Layer_1
 10
57.4737051256
 20
163.025424886
 30
0.0
  0
VERTEX
  8
Layer_1
 10
61.4493648918
 20
160.711085917
 30
0.0
  0
VERTEX
  8
Layer_1
 10
65.6034779577
 20
159.143333005
 30
0.0
  0
VERTEX
  8
Layer_1
 10
69.9977640582
 20
158.608014428
 30
0.0
  0
VERTEX
  8
Layer_1
 10
74.557186625
 20
158.956229545
 30
0.0
  0
VERTEX
  8
Layer_1
 10
79.1642899736
 20
159.904227152
 30
0.0
  0
VERTEX
  8
Layer_1
 10
83.7019577565
 20
161.16874954
 30
0.0
  0
VERTEX
  8
Layer_1
 10
88.1038250462
 20
162.543577086
 30
0.0
  0
VERTEX
  8
Layer_1
 10
92.4067933147
 20
163.979243333
 30
0.0
  0
VERTEX
  8
Layer_1
 10
96.660312
 20
165.445329
 30
0.0
  0
SEQEND
  8
Layer_1
  0
POLYLINE
  8
Layer_1
 62
0
 70
0
 66
1
 10
0.0
 20
0.0
 30
0.0
  0
VERTEX
  8
Layer_1
 10
96.660312
 20
165.445329
 30
0.0
  0
VERTEX
  8
Layer_1
 10
100.537774689
 20
166.595807221
 30
0.0
  0
VERTEX
  8
Layer_1
 10
104.475992
 20
165.648833
 30
0.0
  0
SEQEND
  8
Layer_1
  0
POLYLINE
  8
Layer_1
 62
0
 70
0
 66
1
 10
0.0
 20
0.0
 30
0.0
  0
VERTEX
  8
Layer_1
 10
104.475992
 20
165.648833
 30
0.0
  0
VERTEX
  8
Layer_1
 10
108.791547014
 20
164.13157054
 30
0.0
  0
VERTEX
  8
Layer_1
 10
113.158685556
 20
162.644043923
 30
0.0
  0
VERTEX
  8
Layer_1
 10
117.628990877
 20
161.215988834
 30
0.0
  0
VERTEX
  8
Layer_1
 10
122.237420974
 20
159.902657937
 30
0.0
  0
VERTEX
  8
Layer_1
 10
126.911894569
 20
158.923591221
 30
0.0
  0
VERTEX
  8
Layer_1
 10
131.537917981
 20
158.563424597
 30
0.0
  0
VERTEX
  8
Layer_1
 10
136.000936635
 20
159.106808284
 30
0.0
  0
VERTEX
  8
Layer_1
 10
140.231838503
 20
160.689008933
 30
0.0
  0
VERTEX
  8
Layer_1
 10
144.29238422
 20
163.015074705
 30
0.0
  0
VERTEX
  8
Layer_1
 10
148.267752
 20
165.713073
 30
0.0
  0
SEQEND
  8
Layer_1
  0
POLYLINE
  8
Layer_1
 62
0
 70
0
 66
1
 10
0.0
 20
0.0
 30
0.0
  0
VERTEX
  8
Layer_1
 10
148.267752
 20
165.713073
 30
0.0
  0
VERTEX
  8
Layer_1
 10
152.345543547
 20
163.602965735
 30
0.0
  0
VERTEX
  8
Layer_1
 10
155.885695187
 20
160.791390355
 30
0.0
  0
VERTEX
  8
Layer_1
 10
158.989536339
 20
157.405775098
 30
0.0
  0
VERTEX
  8
Layer_1
 10
162.176821371
 20
154.117587068
 30
0.0
  0
VERTEX
  8
Layer_1
 10
165.491272
 20
150.987737
 30
0.0
  0
SEQEND
  8
Layer_1
  0
POLYLINE
  8
Layer_1
 62
0
 70
0
 66
1
 10
0.0
 20
0.0
 30
0.0
  0
VERTEX
  8
Layer_1
 10
165.491272
 20
150.987737
 30
0.0
  0
VERTEX
  8
Layer_1
 10
168.57448436
 20
148.721712714
 30
0.0
  0
VERTEX
  8
Layer_1
 10
171.854653758
 20
146.7161823
 30
0.0
  0
VERTEX
  8
Layer_1
 10
175.421655157
 20
145.349906721
 30
0.0
  0
VERTEX
  8
Layer_1
 10
179.207512
 20
144.737073
 30
0.0
  0
SEQEND
  8
Layer_1
  0
POLYLINE
  8
Layer_1
 62
0
 70
0
 66
1
 10
0.0
 20
0.0
 30
0.0
  0
VERTEX
  8
Layer_1
 10
179.207512
 20
144.737073
 30
0.0
  0
VERTEX
  8
Layer_1
 10
182.89786677
 20
144.770510322
 30
0.0
  0
VERTEX
  8
Layer_1
 10
186.430952
 20
145.858137
 30
0.0
  0
SEQEND
  8
Layer_1
  0
POLYLINE
  8
Layer_1
 62
0
 70
0
 66
1
 10
0.0
 20
0.0
 30
0.0
  0
VERTEX
  8
Layer_1
 10
186.430952
 20
145.858137
 30
0.0
  0
VERTEX
  8
Layer_1
 10
189.480524205
 20
143.185666898
 30
0.0
  0
VERTEX
  8
Layer_1
 10
192.588104752
 20
140.25362772
 30
0.0
  0
VERTEX
  8
Layer_1
 10
195.094059145
 20
136.900820732
 30
0.0
  0
VERTEX
  8
Layer_1
 10
195.687436755
 20
133.080046933
 30
0.0
  0
VERTEX
  8
Layer_1
 10
194.647512
 20
128.944009
 30
0.0
  0
SEQEND
  8
Layer_1
  0
POLYLINE
  8
Layer_1
 62
0
 70
0
 66
1
 10
0.0
 20
0.0
 30
0.0
  0
VERTEX
  8
Layer_1
 10
194.647512
 20
128.944009
 30
0.0
  0
VERTEX
  8
Layer_1
 10
195.795679485
 20
124.253967262
 30
0.0
  0
VERTEX
  8
Layer_1
 10
195.789936023
 20
119.950498473
 30
0.0
  0
VERTEX
  8
Layer_1
 10
193.639352698
 20
116.405938461
 30
0.0
  0
VERTEX
  8
Layer_1
 10
189.71286994
 20
113.873841218
 30
0.0
  0
VERTEX
  8
Layer_1
 10
185.055496959
 20
112.548704269
 30
0.0
  0
VERTEX
  8
Layer_1
 10
180.50894396
 20
112.505557199
 30
0.0
  0
VERTEX
  8
Layer_1
 10
176.152564562
 20
113.383559727
 30
0.0
  0
VERTEX
  8
Layer_1
 10
171.891272
 20
114.722137
 30
0.0
  0
SEQEND
  8
Layer_1
  0
POLYLINE
  8
Layer_1
 62
0
 70
0
 66
1
 10
0.0
 20
0.0
 30
0.0
  0
VERTEX
  8
Layer_1
 10
171.891272
 20
114.722137
 30
0.0
  0
VERTEX
  8
Layer_1
 10
175.36363147
 20
111.966279748
 30
0.0
  0
VERTEX
  8
Layer_1
 10
179.309723244
 20
109.98547211
 30
0.0
  0
VERTEX
  8
Layer_1
 10
183.680371916
 20
109.345950052
 30
0.0
  0
VERTEX
  8
Layer_1
 10
188.068312
 20
109.917873
 30
0.0
  0
SEQEND
  8
Layer_1
  0
POLYLINE
  8
Layer_1
 62
0
 70
0
 66
1
 10
0.0
 20
0.0
 30
0.0
  0
VERTEX
  8
Layer_1
 10
5.810232
 20
168.574913
 30
0.0
  0
VERTEX
  8
Layer_1
 10
7.718472
 20
171.895449
 30
0.0
  0
SEQEND
  8
Layer_1
  0
POLYLINE
  8
Layer_1
 62
0
 70
0
 66
1
 10
0.0
 20
0.0
 30
0.0
  0
VERTEX
  8
Layer_1
 10
7.718472
 20
171.895449
 30
0.0
  0
VERTEX
  8
Layer_1
 10
7.917912
 20
171.964809
 30
0.0
  0
SEQEND
  8
Layer_1
  0
POLYLINE
  8
Layer_1
 62
0
 70
0
 66
1
 10
0.0
 20
0.0
 30
0.0
  0
VERTEX
  8
Layer_1
 10
7.917912
 20
171.964809
 30
0.0
  0
VERTEX
  8
Layer_1
 10
7.853912
 20
172.092809
 30
0.0
  0
SEQEND
  8
Layer_1
  0
POLYLINE
  8
Layer_1
 62
0
 70
0
 66
1
 10
0.0
 20
0.0
 30
0.0
  0
VERTEX
  8
Layer_1
 10
7.853912
 20
172.092809
 30
0.0
  0
VERTEX
  8
Layer_1
 10
10.9235041643
 20
175.728238823
 30
0.0
  0
VERTEX
  8
Layer_1
 10
14.6280465999
 20
178.737440906
 30
0.0
  0
VERTEX
  8
Layer_1
 10
18.9368966867
 20
180.713998012
 30
0.0
  0
VERTEX
  8
Layer_1
 10
23.561672
 20
181.920009
 30
0.0
  0
SEQEND
  8
Layer_1
  0
POLYLINE
  8
Layer_1
 62
0
 70
0
 66
1
 10
0.0
 20
0.0
 30
0.0
  0
VERTEX
  8
Layer_1
 10
23.561672
 20
181.920009
 30
0.0
  0
VERTEX
  8
Layer_1
 10
18.7088572155
 20
183.085302515
 30
0.0
  0
VERTEX
  8
Layer_1
 10
13.9633281661
 20
182.422735259
 30
0.0
  0
VERTEX
  8
Layer_1
 10
9.60475265875
 20
179.963740954
 30
0.0
  0
VERTEX
  8
Layer_1
 10
5.764312
 20
176.925881
 30
0.0
  0
SEQEND
  8
Layer_1
  0
POLYLINE
  8
Layer_1
 62
0
 70
0
 66
1
 10
0.0
 20
0.0
 30
0.0
  0
VERTEX
  8
Layer_1
 10
5.764312
 20
176.925881
 30
0.0
  0
VERTEX
  8
Layer_1
 10
5.53536853252
 20
181.157577043
 30
0.0
  0
VERTEX
  8
Layer_1
 10
6.67334107956
 20
185.204407551
 30
0.0
  0
VERTEX
  8
Layer_1
 10
8.98311368575
 20
188.812528531
 30
0.0
  0
VERTEX
  8
Layer_1
 10
11.8684731953
 20
191.90295998
 30
0.0
  0
VERTEX
  8
Layer_1
 10
15.028312
 20
194.720009
 30
0.0
  0
SEQEND
  8
Layer_1
  0
POLYLINE
  8
Layer_1
 62
0
 70
0
 66
1
 10
0.0
 20
0.0
 30
0.0
  0
VERTEX
  8
Layer_1
 10
15.028312
 20
194.720009
 30
0.0
  0
VERTEX
  8
Layer_1
 10
13.360820709
 20
198.438692245
 30
0.0
  0
VERTEX
  8
Layer_1
 10
14.9981202241
 20
202.004943905
 30
0.0
  0
VERTEX
  8
Layer_1
 10
17.9152488083
 20
204.888354753
 30
0.0
  0
VERTEX
  8
Layer_1
 10
18.8104666206
 20
208.803053368
 30
0.0
  0
VERTEX
  8
Layer_1
 10
21.795272
 20
211.512545
 30
0.0
  0
SEQEND
  8
Layer_1
  0
POLYLINE
  8
Layer_1
 62
0
 70
0
 66
1
 10
0.0
 20
0.0
 30
0.0
  0
VERTEX
  8
Layer_1
 10
21.795272
 20
211.512545
 30
0.0
  0
VERTEX
  8
Layer_1
 10
25.3391466035
 20
208.032545829
 30
0.0
  0
VERTEX
  8
Layer_1
 10
28.9767565377
 20
204.652573763
 30
0.0
  0
VERTEX
  8
Layer_1
 10
32.7761312572
 20
201.44581178
 30
0.0
  0
VERTEX
  8
Layer_1
 10
36.5987144522
 20
198.269720804
 30
0.0
  0
VERTEX
  8
Layer_1
 10
40.2085301992
 20
194.880000015
 30
0.0
  0
VERTEX
  8
Layer_1
 10
43.5129582969
 20
191.179721702
 30
0.0
  0
VERTEX
  8
Layer_1
 10
46.653912
 20
187.313081
 30
0.0
  0
SEQEND
  8
Layer_1
  0
POLYLINE
  8
Layer_1
 62
0
 70
0
 66
1
 10
0.0
 20
0.0
 30
0.0
  0
VERTEX
  8
Layer_1
 10
46.653912
 20
187.313081
 30
0.0
  0
VERTEX
  8
Layer_1
 10
44.8451664737
 20
191.580109187
 30
0.0
  0
VERTEX
  8
Layer_1
 10
42.4731511836
 20
195.536149576
 30
0.0
  0
VERTEX
  8
Layer_1
 10
39.6518978771
 20
199.231740488
 30
0.0
  0
VERTEX
  8
Layer_1
 10
36.740508939
 20
202.850049729
 30
0.0
  0
VERTEX
  8
Layer_1
 10
33.853912
 20
206.461881
 30
0.0
  0
SEQEND
  8
Layer_1
  0
POLYLINE
  8
Layer_1
 62
0
 70
0
 66
1
 10
0.0
 20
0.0
 30
0.0
  0
VERTEX
  8
Layer_1
 10
33.853912
 20
206.461881
 30
0.0
  0
VERTEX
  8
Layer_1
 10
30.9631930433
 20
209.564202719
 30
0.0
  0
VERTEX
  8
Layer_1
 10
27.9448523088
 20
212.542322459
 30
0.0
  0
VERTEX
  8
Layer_1
 10
24.887512
 20
215.480545
 30
0.0
  0
SEQEND
  8
Layer_1
  0
POLYLINE
  8
Layer_1
 62
0
 70
0
 66
1
 10
0.0
 20
0.0
 30
0.0
  0
VERTEX
  8
Layer_1
 10
24.887512
 20
215.480545
 30
0.0
  0
VERTEX
  8
Layer_1
 10
22.0264906756
 20
218.696738544
 30
0.0
  0
VERTEX
  8
Layer_1
 10
21.0878404914
 20
222.779742831
 30
0.0
  0
VERTEX
  8
Layer_1
 10
22.1607089157
 20
226.907349459
 30
0.0
  0
VERTEX
  8
Layer_1
 10
24.274232
 20
230.631481
 30
0.0
  0
SEQEND
  8
Layer_1
  0
POLYLINE
  8
Layer_1
 62
0
 70
0
 66
1
 10
0.0
 20
0.0
 30
0.0
  0
VERTEX
  8
Layer_1
 10
24.274232
 20
230.631481
 30
0.0
  0
VERTEX
  8
Layer_1
 10
24.5329660508
 20
234.98461024
 30
0.0
  0
VERTEX
  8
Layer_1
 10
26.4607334651
 20
237.128414901
 30
0.0
  0
VERTEX
  8
Layer_1
 10
29.9828991944
 20
233.22879493
 30
0.0
  0
VERTEX
  8
Layer_1
 10
33.803029555
 20
228.103499467
 30
0.0
  0
VERTEX
  8
Layer_1
 10
37.2803404912
 20
224.419058647
 30
0.0
  0
VERTEX
  8
Layer_1
 10
40.6243084428
 20
221.929220819
 30
0.0
  0
VERTEX
  8
Layer_1
 10
44.0890195244
 20
220.234912642
 30
0.0
  0
VERTEX
  8
Layer_1
 10
47.9214787518
 20
218.942047454
 30
0.0
  0
VERTEX
  8
Layer_1
 10
52.160908985
 20
217.80286377
 30
0.0
  0
VERTEX
  8
Layer_1
 10
56.610232
 20
216.736009
 30
0.0
  0
SEQEND
  8
Layer_1
  0
POLYLINE
  8
Layer_1
 62
0
 70
0
 66
1
 10
0.0
 20
0.0
 30
0.0
  0
VERTEX
  8
Layer_1
 10
56.610232
 20
216.736009
 30
0.0
  0
VERTEX
  8
Layer_1
 10
54.9965143092
 20
220.957247283
 30
0.0
  0
VERTEX
  8
Layer_1
 10
51.6267725766
 20
223.487839114
 30
0.0
  0
VERTEX
  8
Layer_1
 10
47.0652168349
 20
224.922856525
 30
0.0
  0
VERTEX
  8
Layer_1
 10
42.3909734378
 20
226.364313634
 30
0.0
  0
VERTEX
  8
Layer_1
 10
38.2556102499
 20
228.467763091
 30
0.0
  0
VERTEX
  8
Layer_1
 10
34.5783365662
 20
231.124020351
 30
0.0
  0
VERTEX
  8
Layer_1
 10
31.2064559589
 20
234.148816095
 30
0.0
  0
VERTEX
  8
Layer_1
 10
27.987272
 20
237.357881
 30
0.0
  0
SEQEND
  8
Layer_1
  0
POLYLINE
  8
Layer_1
 62
0
 70
0
 66
1
 10
0.0
 20
0.0
 30
0.0
  0
VERTEX
  8
Layer_1
 10
27.987272
 20
237.357881
 30
0.0
  0
VERTEX
  8
Layer_1
 10
27.1570478994
 20
242.118111202
 30
0.0
  0
VERTEX
  8
Layer_1
 10
26.4801841664
 20
246.882256857
 30
0.0
  0
VERTEX
  8
Layer_1
 10
26.110040928
 20
251.654232482
 30
0.0
  0
VERTEX
  8
Layer_1
 10
26.1718983124
 20
256.43539804
 30
0.0
  0
VERTEX
  8
Layer_1
 10
26.6471962324
 20
261.214027747
 30
0.0
  0
VERTEX
  8
Layer_1
 10
27.4714406395
 20
265.974217018
 30
0.0
  0
VERTEX
  8
Layer_1
 10
28.580117368
 20
270.700059433
 30
0.0
  0
VERTEX
  8
Layer_1
 10
29.8898979986
 20
275.379382602
 30
0.0
  0
VERTEX
  8
Layer_1
 10
31.020432737
 20
280.058963331
 30
0.0
  0
VERTEX
  8
Layer_1
 10
31.4036117878
 20
284.826867834
 30
0.0
  0
VERTEX
  8
Layer_1
 10
32.1159393126
 20
289.569680074
 30
0.0
  0
VERTEX
  8
Layer_1
 10
33.6601724081
 20
294.168281642
 30
0.0
  0
VERTEX
  8
Layer_1
 10
35.9477423382
 20
298.389007132
 30
0.0
  0
VERTEX
  8
Layer_1
 10
39.1424529024
 20
301.931223186
 30
0.0
  0
VERTEX
  8
Layer_1
 10
43.0053836934
 20
304.87200231
 30
0.0
  0
VERTEX
  8
Layer_1
 10
47.1722866593
 20
307.408738139
 30
0.0
  0
VERTEX
  8
Layer_1
 10
51.389175192
 20
309.754568962
 30
0.0
  0
VERTEX
  8
Layer_1
 10
55.5345833508
 20
312.141493337
 30
0.0
  0
VERTEX
  8
Layer_1
 10
59.4976436762
 20
314.797539819
 30
0.0
  0
VERTEX
  8
Layer_1
 10
63.2608368364
 20
317.777943053
 30
0.0
  0
VERTEX
  8
Layer_1
 10
66.920632
 20
320.926937
 30
0.0
  0
SEQEND
  8
Layer_1
  0
POLYLINE
  8
Layer_1
 62
0
 70
0
 66
1
 10
0.0
 20
0.0
 30
0.0
  0
VERTEX
  8
Layer_1
 10
66.920632
 20
320.926937
 30
0.0
  0
VERTEX
  8
Layer_1
 10
71.4456895649
 20
323.036557521
 30
0.0
  0
VERTEX
  8
Layer_1
 10
76.1357217702
 20
324.620360682
 30
0.0
  0
VERTEX
  8
Layer_1
 10
81.0277998046
 20
325.529726363
 30
0.0
  0
VERTEX
  8
Layer_1
 10
86.0182135176
 20
326.031215416
 30
0.0
  0
VERTEX
  8
Layer_1
 10
91.0071800643
 20
326.388691633
 30
0.0
  0
VERTEX
  8
Layer_1
 10
95.9729389902
 20
326.698045783
 30
0.0
  0
VERTEX
  8
Layer_1
 10
100.927032
 20
326.983473
 30
0.0
  0
SEQEND
  8
Layer_1
  0
POLYLINE
  8
Layer_1
 62
0
 70
0
 66
1
 10
0.0
 20
0.0
 30
0.0
  0
VERTEX
  8
Layer_1
 10
100.927032
 20
326.983473
 30
0.0
  0
VERTEX
  8
Layer_1
 10
105.88112703
 20
326.698040966
 30
0.0
  0
VERTEX
  8
Layer_1
 10
110.846896836
 20
326.38870662
 30
0.0
  0
VERTEX
  8
Layer_1
 10
115.835891855
 20
326.031300285
 30
0.0
  0
VERTEX
  8
Layer_1
 10
120.826358534
 20
325.529946855
 30
0.0
  0
VERTEX
  8
Layer_1
 10
125.718477434
 20
324.620690815
 30
0.0
  0
VERTEX
  8
Layer_1
 10
130.408484251
 20
323.036834303
 30
0.0
  0
VERTEX
  8
Layer_1
 10
134.933432
 20
320.926937
 30
0.0
  0
SEQEND
  8
Layer_1
  0
POLYLINE
  8
Layer_1
 62
0
 70
0
 66
1
 10
0.0
 20
0.0
 30
0.0
  0
VERTEX
  8
Layer_1
 10
134.933432
 20
320.926937
 30
0.0
  0
VERTEX
  8
Layer_1
 10
138.593384971
 20
317.778064365
 30
0.0
  0
VERTEX
  8
Layer_1
 10
142.356710115
 20
314.79775186
 30
0.0
  0
VERTEX
  8
Layer_1
 10
146.319856418
 20
312.141742728
 30
0.0
  0
VERTEX
  8
Layer_1
 10
150.465318169
 20
309.754826142
 30
0.0
  0
VERTEX
  8
Layer_1
 10
154.682247905
 20
307.40899609
 30
0.0
  0
VERTEX
  8
Layer_1
 10
158.84920207
 20
304.87227269
 30
0.0
  0
VERTEX
  8
Layer_1
 10
162.712218934
 20
301.931521383
 30
0.0
  0
VERTEX
  8
Layer_1
 10
165.907047161
 20
298.389343958
 30
0.0
  0
VERTEX
  8
Layer_1
 10
168.194728288
 20
294.16863598
 30
0.0
  0
VERTEX
  8
Layer_1
 10
169.739034317
 20
289.570010844
 30
0.0
  0
VERTEX
  8
Layer_1
 10
170.451416728
 20
284.827159434
 30
0.0
  0
VERTEX
  8
Layer_1
 10
170.834569816
 20
280.059214466
 30
0.0
  0
VERTEX
  8
Layer_1
 10
171.96521349
 20
275.379615256
 30
0.0
  0
VERTEX
  8
Layer_1
 10
173.275162061
 20
270.700275321
 30
0.0
  0
VERTEX
  8
Layer_1
 10
174.383981374
 20
265.974403234
 30
0.0
  0
VERTEX
  8
Layer_1
 10
175.208321952
 20
261.21417568
 30
0.0
  0
VERTEX
  8
Layer_1
 10
175.683656222
 20
256.435505284
 30
0.0
  0
VERTEX
  8
Layer_1
 10
175.745476721
 20
251.654302845
 30
0.0
  0
VERTEX
  8
Layer_1
 10
175.375216945
 20
246.882298537
 30
0.0
  0
VERTEX
  8
Layer_1
 10
174.698179038
 20
242.118130506
 30
0.0
  0
VERTEX
  8
Layer_1
 10
173.867752
 20
237.357881
 30
0.0
  0
SEQEND
  8
Layer_1
  0
POLYLINE
  8
Layer_1
 62
0
 70
0
 66
1
 10
0.0
 20
0.0
 30
0.0
  0
VERTEX
  8
Layer_1
 10
173.867752
 20
237.357881
 30
0.0
  0
VERTEX
  8
Layer_1
 10
170.648695628
 20
234.148856173
 30
0.0
  0
VERTEX
  8
Layer_1
 10
167.276938866
 20
231.124092071
 30
0.0
  0
VERTEX
  8
Layer_1
 10
163.599781418
 20
228.467849113
 30
0.0
  0
VERTEX
  8
Layer_1
 10
159.464522988
 20
226.364387718
 30
0.0
  0
VERTEX
  8
Layer_1
 10
154.790361779
 20
224.922897232
 30
0.0
  0
VERTEX
  8
Layer_1
 10
150.228887746
 20
223.487857924
 30
0.0
  0
VERTEX
  8
Layer_1
 10
146.859317036
 20
220.957254549
 30
0.0
  0
VERTEX
  8
Layer_1
 10
145.245912
 20
216.736009
 30
0.0
  0
SEQEND
  8
Layer_1
  0
POLYLINE
  8
Layer_1
 62
0
 70
0
 66
1
 10
0.0
 20
0.0
 30
0.0
  0
VERTEX
  8
Layer_1
 10
145.245912
 20
216.736009
 30
0.0
  0
VERTEX
  8
Layer_1
 10
149.695201214
 20
217.802925999
 30
0.0
  0
VERTEX
  8
Layer_1
 10
153.934585549
 20
218.942160235
 30
0.0
  0
VERTEX
  8
Layer_1
 10
157.766982562
 20
220.235058157
 30
0.0
  0
VERTEX
  8
Layer_1
 10
161.231652624
 20
221.929397732
 30
0.0
  0
VERTEX
  8
Layer_1
 10
164.575620063
 20
224.419263346
 30
0.0
  0
VERTEX
  8
Layer_1
 10
168.052985955
 20
228.103722798
 30
0.0
  0
VERTEX
  8
Layer_1
 10
171.873227339
 20
233.228991702
 30
0.0
  0
VERTEX
  8
Layer_1
 10
175.395448912
 20
237.12847722
 30
0.0
  0
VERTEX
  8
Layer_1
 10
177.32308798
 20
234.984606277
 30
0.0
  0
VERTEX
  8
Layer_1
 10
177.580872
 20
230.631481
 30
0.0
  0
SEQEND
  8
Layer_1
  0
POLYLINE
  8
Layer_1
 62
0
 70
0
 66
1
 10
0.0
 20
0.0
 30
0.0
  0
VERTEX
  8
Layer_1
 10
177.580872
 20
230.631481
 30
0.0
  0
VERTEX
  8
Layer_1
 10
179.693942528
 20
226.907184112
 30
0.0
  0
VERTEX
  8
Layer_1
 10
180.766377008
 20
222.779542188
 30
0.0
  0
VERTEX
  8
Layer_1
 10
179.827455282
 20
218.696662837
 30
0.0
  0
VERTEX
  8
Layer_1
 10
176.966472
 20
215.480545
 30
0.0
  0
SEQEND
  8
Layer_1
  0
POLYLINE
  8
Layer_1
 62
0
 70
0
 66
1
 10
0.0
 20
0.0
 30
0.0
  0
VERTEX
  8
Layer_1
 10
176.966472
 20
215.480545
 30
0.0
  0
VERTEX
  8
Layer_1
 10
173.909877666
 20
212.542251619
 30
0.0
  0
VERTEX
  8
Layer_1
 10
170.892154658
 20
209.564201898
 30
0.0
  0
VERTEX
  8
Layer_1
 10
168.002152
 20
206.461881
 30
0.0
  0
SEQEND
  8
Layer_1
  0
POLYLINE
  8
Layer_1
 62
0
 70
0
 66
1
 10
0.0
 20
0.0
 30
0.0
  0
VERTEX
  8
Layer_1
 10
168.002152
 20
206.461881
 30
0.0
  0
VERTEX
  8
Layer_1
 10
165.11520329
 20
202.850285909
 30
0.0
  0
VERTEX
  8
Layer_1
 10
162.203440998
 20
199.232177935
 30
0.0
  0
VERTEX
  8
Layer_1
 10
159.381895199
 20
195.536692525
 30
0.0
  0
VERTEX
  8
Layer_1
 10
157.010060842
 20
191.580525165
 30
0.0
  0
VERTEX
  8
Layer_1
 10
155.202152
 20
187.313081
 30
0.0
  0
SEQEND
  8
Layer_1
  0
POLYLINE
  8
Layer_1
 62
0
 70
0
 66
1
 10
0.0
 20
0.0
 30
0.0
  0
VERTEX
  8
Layer_1
 10
155.202152
 20
187.313081
 30
0.0
  0
VERTEX
  8
Layer_1
 10
158.342837628
 20
191.179814656
 30
0.0
  0
VERTEX
  8
Layer_1
 10
161.64703555
 20
194.880158821
 30
0.0
  0
VERTEX
  8
Layer_1
 10
165.256687887
 20
198.269896931
 30
0.0
  0
VERTEX
  8
Layer_1
 10
169.079155994
 20
201.445970052
 30
0.0
  0
VERTEX
  8
Layer_1
 10
172.878435855
 20
204.652693801
 30
0.0
  0
VERTEX
  8
Layer_1
 10
176.515959079
 20
208.032610992
 30
0.0
  0
VERTEX
  8
Layer_1
 10
180.059752
 20
211.512545
 30
0.0
  0
SEQEND
  8
Layer_1
  0
POLYLINE
  8
Layer_1
 62
0
 70
0
 66
1
 10
0.0
 20
0.0
 30
0.0
  0
VERTEX
  8
Layer_1
 10
180.059752
 20
211.512545
 30
0.0
  0
VERTEX
  8
Layer_1
 10
183.044346052
 20
208.802711144
 30
0.0
  0
VERTEX
  8
Layer_1
 10
183.939868018
 20
204.887964485
 30
0.0
  0
VERTEX
  8
Layer_1
 10
186.857409334
 20
202.004587785
 30
0.0
  0
VERTEX
  8
Layer_1
 10
188.493940281
 20
198.438074823
 30
0.0
  0
VERTEX
  8
Layer_1
 10
186.824552
 20
194.720009
 30
0.0
  0
SEQEND
  8
Layer_1
  0
POLYLINE
  8
Layer_1
 62
0
 70
0
 66
1
 10
0.0
 20
0.0
 30
0.0
  0
VERTEX
  8
Layer_1
 10
186.824552
 20
194.720009
 30
0.0
  0
VERTEX
  8
Layer_1
 10
189.984464673
 20
191.902949271
 30
0.0
  0
VERTEX
  8
Layer_1
 10
192.869978753
 20
188.812536797
 30
0.0
  0
VERTEX
  8
Layer_1
 10
195.180051836
 20
185.204482487
 30
0.0
  0
VERTEX
  8
Layer_1
 10
196.318371828
 20
181.157675494
 30
0.0
  0
VERTEX
  8
Layer_1
 10
196.089672
 20
176.925881
 30
0.0
  0
SEQEND
  8
Layer_1
  0
POLYLINE
  8
Layer_1
 62
0
 70
0
 66
1
 10
0.0
 20
0.0
 30
0.0
  0
VERTEX
  8
Layer_1
 10
196.089672
 20
176.925881
 30
0.0
  0
VERTEX
  8
Layer_1
 10
192.24920772
 20
179.964183414
 30
0.0
  0
VERTEX
  8
Layer_1
 10
187.890272481
 20
182.423006128
 30
0.0
  0
VERTEX
  8
Layer_1
 10
183.144346304
 20
183.085242175
 30
0.0
  0
VERTEX
  8
Layer_1
 10
178.291272
 20
181.920009
 30
0.0
  0
SEQEND
  8
Layer_1
  0
POLYLINE
  8
Layer_1
 62
0
 70
0
 66
1
 10
0.0
 20
0.0
 30
0.0
  0
VERTEX
  8
Layer_1
 10
178.291272
 20
181.920009
 30
0.0
  0
VERTEX
  8
Layer_1
 10
182.916367888
 20
180.71419293
 30
0.0
  0
VERTEX
  8
Layer_1
 10
187.22544322
 20
178.737646418
 30
0.0
  0
VERTEX
  8
Layer_1
 10
190.930175264
 20
175.72828475
 30
0.0
  0
VERTEX
  8
Layer_1
 10
194.000072
 20
172.092809
 30
0.0
  0
SEQEND
  8
Layer_1
  0
POLYLINE
  8
Layer_1
 62
0
 70
0
 66
1
 10
0.0
 20
0.0
 30
0.0
  0
VERTEX
  8
Layer_1
 10
194.000072
 20
172.092809
 30
0.0
  0
VERTEX
  8
Layer_1
 10
193.936872
 20
171.964809
 30
0.0
  0
SEQEND
  8
Layer_1
  0
POLYLINE
  8
Layer_1
 62
0
 70
0
 66
1
 10
0.0
 20
0.0
 30
0.0
  0
VERTEX
  8
Layer_1
 10
193.936872
 20
171.964809
 30
0.0
  0
VERTEX
  8
Layer_1
 10
194.134232
 20
171.895449
 30
0.0
  0
SEQEND
  8
Layer_1
  0
POLYLINE
  8
Layer_1
 62
0
 70
0
 66
1
 10
0.0
 20
0.0
 30
0.0
  0
VERTEX
  8
Layer_1
 10
194.134232
 20
171.895449
 30
0.0
  0
VERTEX
  8
Layer_1
 10
196.045672
 20
168.574913
 30
0.0
  0
SEQEND
  8
Layer_1
  0
POLYLINE
  8
Layer_1
 62
0
 70
0
 66
1
 10
0.0
 20
0.0
 30
0.0
  0
VERTEX
  8
Layer_1
 10
196.045672
 20
168.574913
 30
0.0
  0
VERTEX
  8
Layer_1
 10
195.557282781
 20
164.293203153
 30
0.0
  0
VERTEX
  8
Layer_1
 10
194.627453431
 20
160.058139835
 30
0.0
  0
VERTEX
  8
Layer_1
 10
192.881145892
 20
155.97704598
 30
0.0
  0
VERTEX
  8
Layer_1
 10
190.2696621
 20
152.455443533
 30
0.0
  0
VERTEX
  8
Layer_1
 10
186.84900375
 20
149.972492735
 30
0.0
  0
VERTEX
  8
Layer_1
 10
182.798050721
 20
148.532863953
 30
0.0
  0
VERTEX
  8
Layer_1
 10
178.428632
 20
147.627713
 30
0.0
  0
SEQEND
  8
Layer_1
  0
POLYLINE
  8
Layer_1
 62
0
 70
0
 66
1
 10
0.0
 20
0.0
 30
0.0
  0
VERTEX
  8
Layer_1
 10
178.428632
 20
147.627713
 30
0.0
  0
VERTEX
  8
Layer_1
 10
174.294470745
 20
149.354930138
 30
0.0
  0
VERTEX
  8
Layer_1
 10
170.232130576
 20
151.244951926
 30
0.0
  0
VERTEX
  8
Layer_1
 10
166.313491742
 20
153.460438795
 30
0.0
  0
VERTEX
  8
Layer_1
 10
162.63012194
 20
156.115816801
 30
0.0
  0
VERTEX
  8
Layer_1
 10
159.321713321
 20
159.20760675
 30
0.0
  0
VERTEX
  8
Layer_1
 10
156.535174423
 20
162.714649257
 30
0.0
  0
VERTEX
  8
Layer_1
 10
154.36832609
 20
166.601157601
 30
0.0
  0
VERTEX
  8
Layer_1
 10
152.667967957
 20
170.756544818
 30
0.0
  0
VERTEX
  8
Layer_1
 10
151.200872
 20
175.046377
 30
0.0
  0
SEQEND
  8
Layer_1
  0
POLYLINE
  8
Layer_1
 62
0
 70
0
 66
1
 10
0.0
 20
0.0
 30
0.0
  0
VERTEX
  8
Layer_1
 10
151.200872
 20
175.046377
 30
0.0
  0
VERTEX
  8
Layer_1
 10
148.492844422
 20
170.931852055
 30
0.0
  0
VERTEX
  8
Layer_1
 10
145.358782323
 20
167.372333278
 30
0.0
  0
VERTEX
  8
Layer_1
 10
141.416022866
 20
164.883997131
 30
0.0
  0
VERTEX
  8
Layer_1
 10
136.761995554
 20
163.55321099
 30
0.0
  0
VERTEX
  8
Layer_1
 10
131.792790583
 20
163.198962254
 30
0.0
  0
VERTEX
  8
Layer_1
 10
126.893295497
 20
163.638218494
 30
0.0
  0
VERTEX
  8
Layer_1
 10
122.209778412
 20
164.71850793
 30
0.0
  0
VERTEX
  8
Layer_1
 10
117.702949603
 20
166.311123681
 30
0.0
  0
VERTEX
  8
Layer_1
 10
113.328636986
 20
168.287984165
 30
0.0
  0
VERTEX
  8
Layer_1
 10
109.042668479
 20
170.521007799
 30
0.0
  0
VERTEX
  8
Layer_1
 10
104.800872
 20
172.882113
 30
0.0
  0
SEQEND
  8
Layer_1
  0
POLYLINE
  8
Layer_1
 62
0
 70
0
 66
1
 10
0.0
 20
0.0
 30
0.0
  0
VERTEX
  8
Layer_1
 10
104.800872
 20
172.882113
 30
0.0
  0
VERTEX
  8
Layer_1
 10
103.334541715
 20
177.33443
 30
0.0
  0
VERTEX
  8
Layer_1
 10
102.614941739
 20
181.979135543
 30
0.0
  0
VERTEX
  8
Layer_1
 10
102.373132926
 20
186.666508565
 30
0.0
  0
VERTEX
  8
Layer_1
 10
102.556305438
 20
191.355312021
 30
0.0
  0
VERTEX
  8
Layer_1
 10
103.230512976
 20
196.00854299
 30
0.0
  0
VERTEX
  8
Layer_1
 10
104.748632
 20
200.440513
 30
0.0
  0
SEQEND
  8
Layer_1
  0
POLYLINE
  8
Layer_1
 62
0
 70
0
 66
1
 10
0.0
 20
0.0
 30
0.0
  0
VERTEX
  8
Layer_1
 10
104.748632
 20
200.440513
 30
0.0
  0
VERTEX
  8
Layer_1
 10
109.365139339
 20
200.768761637
 30
0.0
  0
VERTEX
  8
Layer_1
 10
114.055638689
 20
200.889444615
 30
0.0
  0
VERTEX
  8
Layer_1
 10
118.755461494
 20
200.477683711
 30
0.0
  0
VERTEX
  8
Layer_1
 10
123.083681311
 20
198.945222534
 30
0.0
  0
VERTEX
  8
Layer_1
 10
126.940632
 20
196.298649
 30
0.0
  0
SEQEND
  8
Layer_1
  0
POLYLINE
  8
Layer_1
 62
0
 70
0
 66
1
 10
0.0
 20
0.0
 30
0.0
  0
VERTEX
  8
Layer_1
 10
126.940632
 20
196.298649
 30
0.0
  0
VERTEX
  8
Layer_1
 10
128.793182583
 20
192.466693893
 30
0.0
  0
VERTEX
  8
Layer_1
 10
130.506327697
 20
188.41846883
 30
0.0
  0
VERTEX
  8
Layer_1
 10
132.162046554
 20
184.201579462
 30
0.0
  0
VERTEX
  8
Layer_1
 10
134.583187615
 20
180.746701661
 30
0.0
  0
VERTEX
  8
Layer_1
 10
138.393432
 20
178.779713
 30
0.0
  0
SEQEND
  8
Layer_1
  0
POLYLINE
  8
Layer_1
 62
0
 70
0
 66
1
 10
0.0
 20
0.0
 30
0.0
  0
VERTEX
  8
Layer_1
 10
138.393432
 20
178.779713
 30
0.0
  0
VERTEX
  8
Layer_1
 10
137.411531199
 20
183.329465884
 30
0.0
  0
VERTEX
  8
Layer_1
 10
135.427333219
 20
187.43597264
 30
0.0
  0
VERTEX
  8
Layer_1
 10
132.752316898
 20
191.251799923
 30
0.0
  0
VERTEX
  8
Layer_1
 10
130.476347665
 20
195.281089688
 30
0.0
  0
VERTEX
  8
Layer_1
 10
128.743272
 20
199.579713
 30
0.0
  0
SEQEND
  8
Layer_1
  0
POLYLINE
  8
Layer_1
 62
0
 70
0
 66
1
 10
0.0
 20
0.0
 30
0.0
  0
VERTEX
  8
Layer_1
 10
128.743272
 20
199.579713
 30
0.0
  0
VERTEX
  8
Layer_1
 10
131.260451125
 20
203.482933506
 30
0.0
  0
VERTEX
  8
Layer_1
 10
135.397073628
 20
205.569057123
 30
0.0
  0
VERTEX
  8
Layer_1
 10
138.393432
 20
208.913049
 30
0.0
  0
SEQEND
  8
Layer_1
  0
POLYLINE
  8
Layer_1
 62
0
 70
0
 66
1
 10
0.0
 20
0.0
 30
0.0
  0
VERTEX
  8
Layer_1
 10
138.393432
 20
208.913049
 30
0.0
  0
VERTEX
  8
Layer_1
 10
133.773956533
 20
208.236010106
 30
0.0
  0
VERTEX
  8
Layer_1
 10
129.716397478
 20
205.22570646
 30
0.0
  0
VERTEX
  8
Layer_1
 10
125.204200289
 20
203.351997716
 30
0.0
  0
VERTEX
  8
Layer_1
 10
120.40113525
 20
202.320568628
 30
0.0
  0
VERTEX
  8
Layer_1
 10
115.522572682
 20
201.971820153
 30
0.0
  0
VERTEX
  8
Layer_1
 10
110.695621911
 20
202.576328379
 30
0.0
  0
VERTEX
  8
Layer_1
 10
105.894849186
 20
203.524769672
 30
0.0
  0
VERTEX
  8
Layer_1
 10
101.064312
 20
204.221849
 30
0.0
  0
SEQEND
  8
Layer_1
  0
POLYLINE
  8
Layer_1
 62
0
 70
0
 66
1
 10
0.0
 20
0.0
 30
0.0
  0
VERTEX
  8
Layer_1
 10
101.064312
 20
204.231449
 30
0.0
  0
VERTEX
  8
Layer_1
 10
100.791272
 20
204.231449
 30
0.0
  0
SEQEND
  8
Layer_1
  0
POLYLINE
  8
Layer_1
 62
0
 70
0
 66
1
 10
0.0
 20
0.0
 30
0.0
  0
VERTEX
  8
Layer_1
 10
100.791272
 20
204.221849
 30
0.0
  0
VERTEX
  8
Layer_1
 10
96.4316324077
 20
203.605700282
 30
0.0
  0
VERTEX
  8
Layer_1
 10
92.0915428707
 20
202.75868947
 30
0.0
  0
VERTEX
  8
Layer_1
 10
87.7526458172
 20
202.049986803
 30
0.0
  0
VERTEX
  8
Layer_1
 10
83.3756483856
 20
202.148993447
 30
0.0
  0
VERTEX
  8
Layer_1
 10
78.972632
 20
202.779713
 30
0.0
  0
SEQEND
  8
Layer_1
  0
POLYLINE
  8
Layer_1
 62
0
 70
0
 66
1
 10
0.0
 20
0.0
 30
0.0
  0
VERTEX
  8
Layer_1
 10
78.972632
 20
202.779713
 30
0.0
  0
VERTEX
  8
Layer_1
 10
74.8859296293
 20
203.998462005
 30
0.0
  0
VERTEX
  8
Layer_1
 10
71.0647266307
 20
205.926802008
 30
0.0
  0
VERTEX
  8
Layer_1
 10
67.5499629081
 20
208.548605686
 30
0.0
  0
VERTEX
  8
Layer_1
 10
63.462232
 20
208.913049
 30
0.0
  0
SEQEND
  8
Layer_1
  0
POLYLINE
  8
Layer_1
 62
0
 70
0
 66
1
 10
0.0
 20
0.0
 30
0.0
  0
VERTEX
  8
Layer_1
 10
63.462232
 20
208.913049
 30
0.0
  0
VERTEX
  8
Layer_1
 10
66.4570474292
 20
205.568597106
 30
0.0
  0
VERTEX
  8
Layer_1
 10
70.5935435093
 20
203.48279132
 30
0.0
  0
VERTEX
  8
Layer_1
 10
73.110232
 20
199.579713
 30
0.0
  0
SEQEND
  8
Layer_1
  0
POLYLINE
  8
Layer_1
 62
0
 70
0
 66
1
 10
0.0
 20
0.0
 30
0.0
  0
VERTEX
  8
Layer_1
 10
73.110232
 20
199.579713
 30
0.0
  0
VERTEX
  8
Layer_1
 10
71.3776595012
 20
195.281056819
 30
0.0
  0
VERTEX
  8
Layer_1
 10
69.1020396217
 20
191.251758377
 30
0.0
  0
VERTEX
  8
Layer_1
 10
66.4272601782
 20
187.435945407
 30
0.0
  0
VERTEX
  8
Layer_1
 10
64.4434716153
 20
183.32945509
 30
0.0
  0
VERTEX
  8
Layer_1
 10
63.462232
 20
178.779713
 30
0.0
  0
SEQEND
  8
Layer_1
  0
POLYLINE
  8
Layer_1
 62
0
 70
0
 66
1
 10
0.0
 20
0.0
 30
0.0
  0
VERTEX
  8
Layer_1
 10
63.462232
 20
178.779713
 30
0.0
  0
VERTEX
  8
Layer_1
 10
67.2716856192
 20
180.747541594
 30
0.0
  0
VERTEX
  8
Layer_1
 10
69.6923592977
 20
184.202627328
 30
0.0
  0
VERTEX
  8
Layer_1
 10
71.3480415007
 20
188.419151243
 30
0.0
  0
VERTEX
  8
Layer_1
 10
73.0612794265
 20
192.466981747
 30
0.0
  0
VERTEX
  8
Layer_1
 10
74.913912
 20
196.298649
 30
0.0
  0
SEQEND
  8
Layer_1
  0
POLYLINE
  8
Layer_1
 62
0
 70
0
 66
1
 10
0.0
 20
0.0
 30
0.0
  0
VERTEX
  8
Layer_1
 10
74.913912
 20
196.298649
 30
0.0
  0
VERTEX
  8
Layer_1
 10
78.6341482156
 20
198.909279442
 30
0.0
  0
VERTEX
  8
Layer_1
 10
82.8310736673
 20
200.419511643
 30
0.0
  0
VERTEX
  8
Layer_1
 10
87.397415272
 20
200.851292574
 30
0.0
  0
VERTEX
  8
Layer_1
 10
91.9550560383
 20
200.797179545
 30
0.0
  0
VERTEX
  8
Layer_1
 10
96.444632
 20
200.558913
 30
0.0
  0
SEQEND
  8
Layer_1
  0
POLYLINE
  8
Layer_1
 62
0
 70
0
 66
1
 10
0.0
 20
0.0
 30
0.0
  0
VERTEX
  8
Layer_1
 10
96.444632
 20
200.558913
 30
0.0
  0
VERTEX
  8
Layer_1
 10
97.9878497483
 20
196.021494187
 30
0.0
  0
VERTEX
  8
Layer_1
 10
98.7471365
 20
191.277717951
 30
0.0
  0
VERTEX
  8
Layer_1
 10
98.9397921406
 20
186.483106693
 30
0.0
  0
VERTEX
  8
Layer_1
 10
98.6088475148
 20
181.694334711
 30
0.0
  0
VERTEX
  8
Layer_1
 10
97.7552527878
 20
176.96708435
 30
0.0
  0
VERTEX
  8
Layer_1
 10
96.243032
 20
172.417049
 30
0.0
  0
SEQEND
  8
Layer_1
  0
POLYLINE
  8
Layer_1
 62
0
 70
0
 66
1
 10
0.0
 20
0.0
 30
0.0
  0
VERTEX
  8
Layer_1
 10
96.243032
 20
172.417049
 30
0.0
  0
VERTEX
  8
Layer_1
 10
92.0516109536
 20
170.133880492
 30
0.0
  0
VERTEX
  8
Layer_1
 10
87.8181936381
 20
167.978575373
 30
0.0
  0
VERTEX
  8
Layer_1
 10
83.5007838803
 20
166.078996887
 30
0.0
  0
VERTEX
  8
Layer_1
 10
79.0573855071
 20
164.563008276
 30
0.0
  0
VERTEX
  8
Layer_1
 10
74.4460023452
 20
163.558472785
 30
0.0
  0
VERTEX
  8
Layer_1
 10
69.6304179772
 20
163.193808897
 30
0.0
  0
VERTEX
  8
Layer_1
 10
64.7613679053
 20
163.615394963
 30
0.0
  0
VERTEX
  8
Layer_1
 10
60.2126236084
 20
164.991035673
 30
0.0
  0
VERTEX
  8
Layer_1
 10
56.3658399732
 20
167.485266145
 30
0.0
  0
VERTEX
  8
Layer_1
 10
53.3039282158
 20
171.001845848
 30
0.0
  0
VERTEX
  8
Layer_1
 10
50.653672
 20
175.046377
 30
0.0
  0
SEQEND
  8
Layer_1
  0
POLYLINE
  8
Layer_1
 62
0
 70
0
 66
1
 10
0.0
 20
0.0
 30
0.0
  0
VERTEX
  8
Layer_1
 10
50.653672
 20
175.046377
 30
0.0
  0
VERTEX
  8
Layer_1
 10
49.186400928
 20
170.756418867
 30
0.0
  0
VERTEX
  8
Layer_1
 10
47.4858592488
 20
166.600907475
 30
0.0
  0
VERTEX
  8
Layer_1
 10
45.3188108459
 20
162.714279052
 30
0.0
  0
VERTEX
  8
Layer_1
 10
42.5320668284
 20
159.20712521
 30
0.0
  0
VERTEX
  8
Layer_1
 10
39.223449542
 20
156.11526586
 30
0.0
  0
VERTEX
  8
Layer_1
 10
35.5398527121
 20
153.459903438
 30
0.0
  0
VERTEX
  8
Layer_1
 10
31.6209511
 20
151.244538734
 30
0.0
  0
VERTEX
  8
Layer_1
 10
27.5583114057
 20
149.354706574
 30
0.0
  0
VERTEX
  8
Layer_1
 10
23.423832
 20
147.627713
 30
0.0
  0
SEQEND
  8
Layer_1
  0
POLYLINE
  8
Layer_1
 62
0
 70
0
 66
1
 10
0.0
 20
0.0
 30
0.0
  0
VERTEX
  8
Layer_1
 10
23.423832
 20
147.627713
 30
0.0
  0
VERTEX
  8
Layer_1
 10
19.0546018564
 20
148.532848043
 30
0.0
  0
VERTEX
  8
Layer_1
 10
15.003936809
 20
149.972512918
 30
0.0
  0
VERTEX
  8
Layer_1
 10
11.583758052
 20
152.455595109
 30
0.0
  0
VERTEX
  8
Layer_1
 10
8.97290532409
 20
155.97735539
 30
0.0
  0
VERTEX
  8
Layer_1
 10
7.22722701569
 20
160.058496698
 30
0.0
  0
VERTEX
  8
Layer_1
 10
6.29789505657
 20
164.293429486
 30
0.0
  0
VERTEX
  8
Layer_1
 10
5.809912
 20
168.574913
 30
0.0
  0
SEQEND
  8
Layer_1
  0
POLYLINE
  8
Layer_1
 62
0
 70
0
 66
1
 10
0.0
 20
0.0
 30
0.0
  0
VERTEX
  8
Layer_1
 10
194.767832
 20
113.411185
 30
0.0
  0
VERTEX
  8
Layer_1
 10
197.597478423
 20
116.317340804
 30
0.0
  0
VERTEX
  8
Layer_1
 10
200.067262538
 20
119.6189843
 30
0.0
  0
VERTEX
  8
Layer_1
 10
201.672418797
 20
123.48679418
 30
0.0
  0
VERTEX
  8
Layer_1
 10
201.517652079
 20
127.438427418
 30
0.0
  0
VERTEX
  8
Layer_1
 10
199.799272
 20
131.224513
 30
0.0
  0
SEQEND
  8
Layer_1
  0
POLYLINE
  8
Layer_1
 62
0
 70
0
 66
1
 10
0.0
 20
0.0
 30
0.0
  0
VERTEX
  8
Layer_1
 10
199.799272
 20
131.224513
 30
0.0
  0
VERTEX
  8
Layer_1
 10
200.070751788
 20
135.512460498
 30
0.0
  0
VERTEX
  8
Layer_1
 10
199.589894081
 20
139.612218749
 30
0.0
  0
VERTEX
  8
Layer_1
 10
197.794488333
 20
143.352652764
 30
0.0
  0
VERTEX
  8
Layer_1
 10
195.105437981
 20
146.651334043
 30
0.0
  0
VERTEX
  8
Layer_1
 10
192.126712
 20
149.580785
 30
0.0
  0
SEQEND
  8
Layer_1
  0
POLYLINE
  8
Layer_1
 62
0
 70
0
 66
1
 10
0.0
 20
0.0
 30
0.0
  0
VERTEX
  8
Layer_1
 10
192.126712
 20
149.580785
 30
0.0
  0
VERTEX
  8
Layer_1
 10
194.877509892
 20
152.656731532
 30
0.0
  0
VERTEX
  8
Layer_1
 10
197.407679309
 20
155.961152638
 30
0.0
  0
VERTEX
  8
Layer_1
 10
199.467241113
 20
159.682714871
 30
0.0
  0
VERTEX
  8
Layer_1
 10
200.574494881
 20
163.695818778
 30
0.0
  0
VERTEX
  8
Layer_1
 10
200.242217907
 20
167.746205864
 30
0.0
  0
VERTEX
  8
Layer_1
 10
198.935272
 20
171.765313
 30
0.0
  0
SEQEND
  8
Layer_1
  0
POLYLINE
  8
Layer_1
 62
0
 70
0
 66
1
 10
0.0
 20
0.0
 30
0.0
  0
VERTEX
  8
Layer_1
 10
198.935272
 20
171.765313
 30
0.0
  0
VERTEX
  8
Layer_1
 10
199.728143473
 20
176.643308357
 30
0.0
  0
VERTEX
  8
Layer_1
 10
200.0217277
 20
181.62265615
 30
0.0
  0
VERTEX
  8
Layer_1
 10
198.811175274
 20
186.238830236
 30
0.0
  0
VERTEX
  8
Layer_1
 10
196.131232659
 20
190.404676977
 30
0.0
  0
VERTEX
  8
Layer_1
 10
192.712312
 20
194.343449
 30
0.0
  0
SEQEND
  8
Layer_1
  0
POLYLINE
  8
Layer_1
 62
0
 70
0
 66
1
 10
0.0
 20
0.0
 30
0.0
  0
VERTEX
  8
Layer_1
 10
192.712312
 20
194.343449
 30
0.0
  0
VERTEX
  8
Layer_1
 10
192.266025936
 20
199.0673597
 30
0.0
  0
VERTEX
  8
Layer_1
 10
191.164309016
 20
203.644706577
 30
0.0
  0
VERTEX
  8
Layer_1
 10
189.306975864
 20
208.014914668
 30
0.0
  0
VERTEX
  8
Layer_1
 10
187.081359475
 20
212.203590149
 30
0.0
  0
VERTEX
  8
Layer_1
 10
184.712312
 20
216.290113
 30
0.0
  0
SEQEND
  8
Layer_1
  0
POLYLINE
  8
Layer_1
 62
0
 70
0
 66
1
 10
0.0
 20
0.0
 30
0.0
  0
VERTEX
  8
Layer_1
 10
184.712312
 20
216.290113
 30
0.0
  0
VERTEX
  8
Layer_1
 10
185.989451791
 20
220.928036729
 30
0.0
  0
VERTEX
  8
Layer_1
 10
186.00308528
 20
225.482370829
 30
0.0
  0
VERTEX
  8
Layer_1
 10
184.436645233
 20
229.922898557
 30
0.0
  0
VERTEX
  8
Layer_1
 10
182.410313353
 20
234.300680558
 30
0.0
  0
VERTEX
  8
Layer_1
 10
180.603359252
 20
238.654522331
 30
0.0
  0
VERTEX
  8
Layer_1
 10
178.933112
 20
242.997313
 30
0.0
  0
SEQEND
  8
Layer_1
  0
POLYLINE
  8
Layer_1
 62
0
 70
0
 66
1
 10
0.0
 20
0.0
 30
0.0
  0
VERTEX
  8
Layer_1
 10
178.933112
 20
242.997313
 30
0.0
  0
VERTEX
  8
Layer_1
 10
178.865051537
 20
247.872812653
 30
0.0
  0
VERTEX
  8
Layer_1
 10
178.729627344
 20
252.743463869
 30
0.0
  0
VERTEX
  8
Layer_1
 10
178.459475711
 20
257.604418371
 30
0.0
  0
VERTEX
  8
Layer_1
 10
177.993665485
 20
262.450514267
 30
0.0
  0
VERTEX
  8
Layer_1
 10
177.31019355
 20
267.274691752
 30
0.0
  0
VERTEX
  8
Layer_1
 10
176.401625162
 20
272.069180746
 30
0.0
  0
VERTEX
  8
Layer_1
 10
175.303708189
 20
276.832201925
 30
0.0
  0
VERTEX
  8
Layer_1
 10
174.556599492
 20
281.63214377
 30
0.0
  0
VERTEX
  8
Layer_1
 10
174.25879072
 20
286.504866446
 30
0.0
  0
VERTEX
  8
Layer_1
 10
173.485190259
 20
291.319835379
 30
0.0
  0
VERTEX
  8
Layer_1
 10
172.034433767
 20
295.956901947
 30
0.0
  0
VERTEX
  8
Layer_1
 10
170.149112
 20
300.463969
 30
0.0
  0
SEQEND
  8
Layer_1
  0
POLYLINE
  8
Layer_1
 62
0
 70
0
 66
1
 10
0.0
 20
0.0
 30
0.0
  0
VERTEX
  8
Layer_1
 10
170.149112
 20
300.463969
 30
0.0
  0
VERTEX
  8
Layer_1
 10
166.463955992
 20
303.426769714
 30
0.0
  0
VERTEX
  8
Layer_1
 10
162.635958661
 20
306.159565969
 30
0.0
  0
VERTEX
  8
Layer_1
 10
158.547313053
 20
308.47266301
 30
0.0
  0
VERTEX
  8
Layer_1
 10
154.294094997
 20
310.520772737
 30
0.0
  0
VERTEX
  8
Layer_1
 10
150.080833586
 20
312.633244889
 30
0.0
  0
VERTEX
  8
Layer_1
 10
146.091591448
 20
315.106471878
 30
0.0
  0
VERTEX
  8
Layer_1
 10
142.319257213
 20
317.928997324
 30
0.0
  0
VERTEX
  8
Layer_1
 10
138.655832
 20
320.926905
 30
0.0
  0
SEQEND
  8
Layer_1
  0
POLYLINE
  8
Layer_1
 62
0
 70
0
 66
1
 10
0.0
 20
0.0
 30
0.0
  0
VERTEX
  8
Layer_1
 10
138.655832
 20
320.926905
 30
0.0
  0
VERTEX
  8
Layer_1
 10
134.549709278
 20
323.842516599
 30
0.0
  0
VERTEX
  8
Layer_1
 10
130.285627431
 20
326.380990408
 30
0.0
  0
VERTEX
  8
Layer_1
 10
125.715503039
 20
328.186036081
 30
0.0
  0
VERTEX
  8
Layer_1
 10
120.854116987
 20
329.245173208
 30
0.0
  0
VERTEX
  8
Layer_1
 10
115.849822794
 20
329.827896
 30
0.0
  0
VERTEX
  8
Layer_1
 10
110.844192518
 20
330.193573988
 30
0.0
  0
VERTEX
  8
Layer_1
 10
105.876011098
 20
330.424752928
 30
0.0
  0
VERTEX
  8
Layer_1
 10
100.926858151
 20
330.505568767
 30
0.0
  0
VERTEX
  8
Layer_1
 10
95.9776993386
 20
330.424735194
 30
0.0
  0
VERTEX
  8
Layer_1
 10
91.0095111134
 20
330.1935211
 30
0.0
  0
VERTEX
  8
Layer_1
 10
86.0038907011
 20
329.82777109
 30
0.0
  0
VERTEX
  8
Layer_1
 10
80.9996459667
 20
329.244907002
 30
0.0
  0
VERTEX
  8
Layer_1
 10
76.1383113196
 20
328.185624264
 30
0.0
  0
VERTEX
  8
Layer_1
 10
71.5681817064
 20
326.380531462
 30
0.0
  0
VERTEX
  8
Layer_1
 10
67.3039802056
 20
323.842225066
 30
0.0
  0
VERTEX
  8
Layer_1
 10
63.197672
 20
320.926905
 30
0.0
  0
SEQEND
  8
Layer_1
  0
POLYLINE
  8
Layer_1
 62
0
 70
0
 66
1
 10
0.0
 20
0.0
 30
0.0
  0
VERTEX
  8
Layer_1
 10
63.197672
 20
320.926905
 30
0.0
  0
VERTEX
  8
Layer_1
 10
59.5344441079
 20
317.928916074
 30
0.0
  0
VERTEX
  8
Layer_1
 10
55.7622901233
 20
315.106329532
 30
0.0
  0
VERTEX
  8
Layer_1
 10
51.7731947243
 20
312.633081291
 30
0.0
  0
VERTEX
  8
Layer_1
 10
47.5600529738
 20
310.520615854
 30
0.0
  0
VERTEX
  8
Layer_1
 10
43.3069414556
 20
308.472526795
 30
0.0
  0
VERTEX
  8
Layer_1
 10
39.2183986457
 20
306.1594588
 30
0.0
  0
VERTEX
  8
Layer_1
 10
35.3904975081
 20
303.426709667
 30
0.0
  0
VERTEX
  8
Layer_1
 10
31.705432
 20
300.463969
 30
0.0
  0
SEQEND
  8
Layer_1
  0
POLYLINE
  8
Layer_1
 62
0
 70
0
 66
1
 10
0.0
 20
0.0
 30
0.0
  0
VERTEX
  8
Layer_1
 10
31.705432
 20
300.463969
 30
0.0
  0
VERTEX
  8
Layer_1
 10
29.8201341177
 20
295.956894747
 30
0.0
  0
VERTEX
  8
Layer_1
 10
28.3693861621
 20
291.319825554
 30
0.0
  0
VERTEX
  8
Layer_1
 10
27.5957756803
 20
286.50486012
 30
0.0
  0
VERTEX
  8
Layer_1
 10
27.2979539041
 20
281.632138545
 30
0.0
  0
VERTEX
  8
Layer_1
 10
26.550747912
 20
276.832217787
 30
0.0
  0
VERTEX
  8
Layer_1
 10
25.4526919591
 20
272.069224003
 30
0.0
  0
VERTEX
  8
Layer_1
 10
24.5440473655
 20
267.274743397
 30
0.0
  0
VERTEX
  8
Layer_1
 10
23.8606003204
 20
262.450560339
 30
0.0
  0
VERTEX
  8
Layer_1
 10
23.3949475382
 20
257.604452701
 30
0.0
  0
VERTEX
  8
Layer_1
 10
23.1250975885
 20
252.743486198
 30
0.0
  0
VERTEX
  8
Layer_1
 10
22.9900773175
 20
247.872823546
 30
0.0
  0
VERTEX
  8
Layer_1
 10
22.922472
 20
242.997313
 30
0.0
  0
SEQEND
  8
Layer_1
  0
POLYLINE
  8
Layer_1
 62
0
 70
0
 66
1
 10
0.0
 20
0.0
 30
0.0
  0
VERTEX
  8
Layer_1
 10
22.922472
 20
242.997313
 30
0.0
  0
VERTEX
  8
Layer_1
 10
21.2522301199
 20
238.654522685
 30
0.0
  0
VERTEX
  8
Layer_1
 10
19.4452841103
 20
234.300681276
 30
0.0
  0
VERTEX
  8
Layer_1
 10
17.4189656373
 20
229.922899688
 30
0.0
  0
VERTEX
  8
Layer_1
 10
15.8525350799
 20
225.482372162
 30
0.0
  0
VERTEX
  8
Layer_1
 10
15.8661582913
 20
220.928037612
 30
0.0
  0
VERTEX
  8
Layer_1
 10
17.143272
 20
216.290113
 30
0.0
  0
SEQEND
  8
Layer_1
  0
POLYLINE
  8
Layer_1
 62
0
 70
0
 66
1
 10
0.0
 20
0.0
 30
0.0
  0
VERTEX
  8
Layer_1
 10
17.143272
 20
216.290113
 30
0.0
  0
VERTEX
  8
Layer_1
 10
14.7739657934
 20
212.203710184
 30
0.0
  0
VERTEX
  8
Layer_1
 10
12.5482443504
 20
208.015074002
 30
0.0
  0
VERTEX
  8
Layer_1
 10
10.6910099431
 20
203.644801165
 30
0.0
  0
VERTEX
  8
Layer_1
 10
9.58943899949
 20
199.067387278
 30
0.0
  0
VERTEX
  8
Layer_1
 10
9.143272
 20
194.343449
 30
0.0
  0
SEQEND
  8
Layer_1
  0
POLYLINE
  8
Layer_1
 62
0
 70
0
 66
1
 10
0.0
 20
0.0
 30
0.0
  0
VERTEX
  8
Layer_1
 10
9.143272
 20
194.343449
 30
0.0
  0
VERTEX
  8
Layer_1
 10
5.72409364654
 20
190.404731835
 30
0.0
  0
VERTEX
  8
Layer_1
 10
3.04398823737
 20
186.23891602
 30
0.0
  0
VERTEX
  8
Layer_1
 10
1.83346210868
 20
181.62272492
 30
0.0
  0
VERTEX
  8
Layer_1
 10
2.12726759091
 20
176.643324934
 30
0.0
  0
VERTEX
  8
Layer_1
 10
2.920392
 20
171.765313
 30
0.0
  0
SEQEND
  8
Layer_1
  0
POLYLINE
  8
Layer_1
 62
0
 70
0
 66
1
 10
0.0
 20
0.0
 30
0.0
  0
VERTEX
  8
Layer_1
 10
2.920392
 20
171.765313
 30
0.0
  0
VERTEX
  8
Layer_1
 10
1.61206388121
 20
167.746450407
 30
0.0
  0
VERTEX
  8
Layer_1
 10
1.2788170377
 20
163.696113046
 30
0.0
  0
VERTEX
  8
Layer_1
 10
2.38575642482
 20
159.682813065
 30
0.0
  0
VERTEX
  8
Layer_1
 10
4.44538781166
 20
155.961064018
 30
0.0
  0
VERTEX
  8
Layer_1
 10
6.97575023564
 20
152.656635469
 30
0.0
  0
VERTEX
  8
Layer_1
 10
9.726792
 20
149.580785
 30
0.0
  0
SEQEND
  8
Layer_1
  0
POLYLINE
  8
Layer_1
 62
0
 70
0
 66
1
 10
0.0
 20
0.0
 30
0.0
  0
VERTEX
  8
Layer_1
 10
9.726792
 20
149.580785
 30
0.0
  0
VERTEX
  8
Layer_1
 10
6.74786073279
 20
146.651544288
 30
0.0
  0
VERTEX
  8
Layer_1
 10
4.0588547924
 20
143.352828726
 30
0.0
  0
VERTEX
  8
Layer_1
 10
2.26372753884
 20
139.612240131
 30
0.0
  0
VERTEX
  8
Layer_1
 10
1.78329445917
 20
135.512432634
 30
0.0
  0
VERTEX
  8
Layer_1
 10
2.055272
 20
131.224513
 30
0.0
  0
SEQEND
  8
Layer_1
  0
POLYLINE
  8
Layer_1
 62
0
 70
0
 66
1
 10
0.0
 20
0.0
 30
0.0
  0
VERTEX
  8
Layer_1
 10
2.055272
 20
131.224513
 30
0.0
  0
VERTEX
  8
Layer_1
 10
0.336212995392
 20
127.43872357
 30
0.0
  0
VERTEX
  8
Layer_1
 10
0.180753353777
 20
123.487136783
 30
0.0
  0
VERTEX
  8
Layer_1
 10
1.78542010429
 20
119.619140577
 30
0.0
  0
VERTEX
  8
Layer_1
 10
4.25500907003
 20
116.317373082
 30
0.0
  0
VERTEX
  8
Layer_1
 10
7.084632
 20
113.411185
 30
0.0
  0
SEQEND
  8
Layer_1
  0
POLYLINE
  8
Layer_1
 62
0
 70
0
 66
1
 10
0.0
 20
0.0
 30
0.0
  0
VERTEX
  8
Layer_1
 10
7.084632
 20
113.411185
 30
0.0
  0
VERTEX
  8
Layer_1
 10
4.95064243265
 20
109.48651934
 30
0.0
  0
VERTEX
  8
Layer_1
 10
3.57870552907
 20
105.238847474
 30
0.0
  0
VERTEX
  8
Layer_1
 10
3.21669661874
 20
100.738904552
 30
0.0
  0
VERTEX
  8
Layer_1
 10
3.78783572754
 20
96.2998221967
 30
0.0
  0
VERTEX
  8
Layer_1
 10
5.13402820223
 20
92.0712110992
 30
0.0
  0
VERTEX
  8
Layer_1
 10
7.00101228511
 20
87.9918784744
 30
0.0
  0
VERTEX
  8
Layer_1
 10
9.128392
 20
83.987185
 30
0.0
  0
SEQEND
  8
Layer_1
  0
POLYLINE
  8
Layer_1
 62
0
 70
0
 66
1
 10
0.0
 20
0.0
 30
0.0
  0
VERTEX
  8
Layer_1
 10
9.128392
 20
83.987185
 30
0.0
  0
VERTEX
  8
Layer_1
 10
8.81328314981
 20
80.2547760833
 30
0.0
  0
VERTEX
  8
Layer_1
 10
10.308072
 20
76.798913
 30
0.0
  0
SEQEND
  8
Layer_1
  0
POLYLINE
  8
Layer_1
 62
0
 70
0
 66
1
 10
0.0
 20
0.0
 30
0.0
  0
VERTEX
  8
Layer_1
 10
10.308072
 20
76.798913
 30
0.0
  0
VERTEX
  8
Layer_1
 10
9.79331999356
 20
72.0620532093
 30
0.0
  0
VERTEX
  8
Layer_1
 10
9.33654451123
 20
67.3052689423
 30
0.0
  0
VERTEX
  8
Layer_1
 10
8.99572200322
 20
62.50863531
 30
0.0
  0
VERTEX
  8
Layer_1
 10
8.82882891974
 20
57.6522274233
 30
0.0
  0
VERTEX
  8
Layer_1
 10
8.89803268415
 20
52.7338564417
 30
0.0
  0
VERTEX
  8
Layer_1
 10
9.28284090574
 20
47.8247165721
 30
0.0
  0
VERTEX
  8
Layer_1
 10
10.067245232
 20
43.014978311
 30
0.0
  0
VERTEX
  8
Layer_1
 10
11.3352373168
 20
38.3948121812
 30
0.0
  0
VERTEX
  8
Layer_1
 10
13.1708067677
 20
34.0543871381
 30
0.0
  0
VERTEX
  8
Layer_1
 10
15.6182373171
 20
30.0534583869
 30
0.0
  0
VERTEX
  8
Layer_1
 10
18.580349511
 20
26.3434237165
 30
0.0
  0
VERTEX
  8
Layer_1
 10
21.9284729533
 20
22.8515596078
 30
0.0
  0
VERTEX
  8
Layer_1
 10
25.5339372483
 20
19.505142542
 30
0.0
  0
VERTEX
  8
Layer_1
 10
29.268072
 20
16.231449
 30
0.0
  0
SEQEND
  8
Layer_1
  0
POLYLINE
  8
Layer_1
 62
0
 70
0
 66
1
 10
0.0
 20
0.0
 30
0.0
  0
VERTEX
  8
Layer_1
 10
29.268072
 20
16.231449
 30
0.0
  0
VERTEX
  8
Layer_1
 10
33.0879585337
 20
13.143313248
 30
0.0
  0
VERTEX
  8
Layer_1
 10
36.9996713985
 20
10.2552801529
 30
0.0
  0
VERTEX
  8
Layer_1
 10
41.0950364691
 20
7.76745196306
 30
0.0
  0
VERTEX
  8
Layer_1
 10
45.448085938
 20
5.84304928158
 30
0.0
  0
VERTEX
  8
Layer_1
 10
50.0340728201
 20
4.4405493295
 30
0.0
  0
VERTEX
  8
Layer_1
 10
54.7941691948
 20
3.44778846924
 30
0.0
  0
VERTEX
  8
Layer_1
 10
59.6695150516
 20
2.75253654882
 30
0.0
  0
VERTEX
  8
Layer_1
 10
64.6012503799
 20
2.24256341626
 30
0.0
  0
VERTEX
  8
Layer_1
 10
69.5310176178
 20
1.80664979364
 30
0.0
  0
VERTEX
  8
Layer_1
 10
74.4255692735
 20
1.38409523062
 30
0.0
  0
VERTEX
  8
Layer_1
 10
79.2879293629
 20
0.987173745838
 30
0.0
  0
VERTEX
  8
Layer_1
 10
84.1239517159
 20
0.633852647175
 30
0.0
  0
VERTEX
  8
Layer_1
 10
88.9394901625
 20
0.342099242526
 30
0.0
  0
VERTEX
  8
Layer_1
 10
93.7403985326
 20
0.129880839786
 30
0.0
  0
VERTEX
  8
Layer_1
 10
98.5325306561
 20
0.0151647468482
 30
0.0
  0
VERTEX
  8
Layer_1
 10
103.321740293
 20
0.0151693582079
 30
0.0
  0
VERTEX
  8
Layer_1
 10
108.113879594
 20
0.12989384534
 30
0.0
  0
VERTEX
  8
Layer_1
 10
112.9147991
 20
0.342121370044
 30
0.0
  0
VERTEX
  8
Layer_1
 10
117.730349281
 20
0.633886823391
 30
0.0
  0
VERTEX
  8
Layer_1
 10
122.56638061
 20
0.987225096451
 30
0.0
  0
VERTEX
  8
Layer_1
 10
127.428743558
 20
1.3841710803
 30
0.0
  0
VERTEX
  8
Layer_1
 10
132.323288594
 20
1.80675966599
 30
0.0
  0
VERTEX
  8
Layer_1
 10
137.253033356
 20
2.24272571276
 30
0.0
  0
VERTEX
  8
Layer_1
 10
142.184724666
 20
2.75278482001
 30
0.0
  0
VERTEX
  8
Layer_1
 10
147.060019063
 20
3.4481369161
 30
0.0
  0
VERTEX
  8
Layer_1
 10
151.820071998
 20
4.44099017494
 30
0.0
  0
VERTEX
  8
Layer_1
 10
156.406038919
 20
5.84355277046
 30
0.0
  0
VERTEX
  8
Layer_1
 10
160.759107569
 20
7.76796593552
 30
0.0
  0
VERTEX
  8
Layer_1
 10
164.854558039
 20
10.2557014094
 30
0.0
  0
VERTEX
  8
Layer_1
 10
168.766413676
 20
13.1435475738
 30
0.0
  0
VERTEX
  8
Layer_1
 10
172.586472
 20
16.231449
 30
0.0
  0
SEQEND
  8
Layer_1
  0
POLYLINE
  8
Layer_1
 62
0
 70
0
 66
1
 10
0.0
 20
0.0
 30
0.0
  0
VERTEX
  8
Layer_1
 10
172.586472
 20
16.231449
 30
0.0
  0
VERTEX
  8
Layer_1
 10
176.320512458
 20
19.5051897683
 30
0.0
  0
VERTEX
  8
Layer_1
 10
179.925886771
 20
22.8516518469
 30
0.0
  0
VERTEX
  8
Layer_1
 10
183.273928947
 20
26.3435564994
 30
0.0
  0
VERTEX
  8
Layer_1
 10
186.235972993
 20
30.0536249896
 30
0.0
  0
VERTEX
  8
Layer_1
 10
188.683352918
 20
34.0545785812
 30
0.0
  0
VERTEX
  8
Layer_1
 10
190.51889523
 20
38.3950146112
 30
0.0
  0
VERTEX
  8
Layer_1
 10
191.786877099
 20
43.0151761994
 30
0.0
  0
VERTEX
  8
Layer_1
 10
192.571272612
 20
47.8248977821
 30
0.0
  0
VERTEX
  8
Layer_1
 10
192.956057894
 20
52.734012234
 30
0.0
  0
VERTEX
  8
Layer_1
 10
193.025209063
 20
57.6523524561
 30
0.0
  0
VERTEX
  8
Layer_1
 10
192.858222489
 20
62.5087284494
 30
0.0
  0
VERTEX
  8
Layer_1
 10
192.517272271
 20
67.3053307731
 30
0.0
  0
VERTEX
  8
Layer_1
 10
192.060346183
 20
72.0620840744
 30
0.0
  0
VERTEX
  8
Layer_1
 10
191.545432
 20
76.798913
 30
0.0
  0
SEQEND
  8
Layer_1
  0
POLYLINE
  8
Layer_1
 62
0
 70
0
 66
1
 10
0.0
 20
0.0
 30
0.0
  0
VERTEX
  8
Layer_1
 10
191.545432
 20
76.798913
 30
0.0
  0
VERTEX
  8
Layer_1
 10
193.040526942
 20
80.2548427765
 30
0.0
  0
VERTEX
  8
Layer_1
 10
192.724072
 20
83.987185
 30
0.0
  0
SEQEND
  8
Layer_1
  0
POLYLINE
  8
Layer_1
 62
0
 70
0
 66
1
 10
0.0
 20
0.0
 30
0.0
  0
VERTEX
  8
Layer_1
 10
192.724072
 20
83.987185
 30
0.0
  0
VERTEX
  8
Layer_1
 10
194.851483949
 20
87.9918670734
 30
0.0
  0
VERTEX
  8
Layer_1
 10
196.718521398
 20
92.071202732
 30
0.0
  0
VERTEX
  8
Layer_1
 10
198.064809657
 20
96.2998454162
 30
0.0
  0
VERTEX
  8
Layer_1
 10
198.636101441
 20
100.738997846
 30
0.0
  0
VERTEX
  8
Layer_1
 10
198.274205592
 20
105.239002741
 30
0.0
  0
VERTEX
  8
Layer_1
 10
196.902159502
 20
109.486644018
 30
0.0
  0
VERTEX
  8
Layer_1
 10
194.767832
 20
113.411185
 30
0.0
  0
SEQEND
  8
Layer_1
  0
ENDSEC
  0
EOF
