  0
SECTION
  2
HEADER
  9
$ACADVER
  1
AC1009
  9
$INSBASE
 10
0.0
 20
0.0
 30
0.0
  9
$EXTMIN
 10
0.0
 20
0.0
 30
0.0
  9
$EXTMAX
 10
0.0
 20
0.0
 30
0.0
  0
ENDSEC
  0
SECTION
  2
TABLES
  0
TABLE
  2
VPORT
 70
0
  0
ENDTAB
  0
TABLE
  2
LTYPE
 70
1
  0
LTYPE
  2
CONTINUOUS
 70
0
  3
Solid line
 72
65
 73
0
 40
0.0
  0
ENDTAB
  0
TABLE
  2
LAYER
 70
1
  0
LAYER
  2
0
 70
64
 62
7
  6
continuous
  0
ENDTAB
  0
TABLE
  2
STYLE
 70
1
  0
STYLE
  2
STANDARD
 70
0
 40
0
 41
1.0
 50
0.0
 71
0
 42
1
 3
ARIAL.TTF
 4

  0
ENDTAB
  0
TABLE
  2
VIEW
 70
0
  0
ENDTAB
  0
ENDSEC
  0
SECTION
  2
BLOCKS
  0
ENDSEC
  0
SECTION
  2
ENTITIES
  0
POLYLINE
  8
0
 62
0
 70
1
 66
1
 10
0.0
 20
0.0
 30
0.0
  0
VERTEX
  8
0
 10
62.4893089741
 20
-59.565992068
 30
0.0
  0
VERTEX
  8
0
 10
62.2375701802
 20
-57.0406658955
 30
0.0
  0
VERTEX
  8
0
 10
60.9187005319
 20
-54.6614806564
 30
0.0
  0
VERTEX
  8
0
 10
62.5118070881
 20
-51.076615506
 30
0.0
  0
VERTEX
  8
0
 10
62.1572197729
 20
-47.7647481249
 30
0.0
  0
VERTEX
  8
0
 10
62.4164321228
 20
-45.0302398319
 30
0.0
  0
VERTEX
  8
0
 10
60.290457155
 20
-40.9572292852
 30
0.0
  0
VERTEX
  8
0
 10
59.6946636989
 20
-38.2951718895
 30
0.0
  0
VERTEX
  8
0
 10
58.2480463956
 20
-35.2311688423
 30
0.0
  0
VERTEX
  8
0
 10
58.2496340422
 20
-32.2171573014
 30
0.0
  0
VERTEX
  8
0
 10
57.1799087411
 20
-29.4041185863
 30
0.0
  0
VERTEX
  8
0
 10
56.3208757608
 20
-27.3443600987
 30
0.0
  0
VERTEX
  8
0
 10
56.1503564933
 20
-23.1817382713
 30
0.0
  0
VERTEX
  8
0
 10
55.5451060276
 20
-19.0163637582
 30
0.0
  0
VERTEX
  8
0
 10
55.0365083881
 20
-16.4036980594
 30
0.0
  0
VERTEX
  8
0
 10
54.7147195277
 20
-13.4593493535
 30
0.0
  0
VERTEX
  8
0
 10
53.3906222588
 20
-9.74735415458
 30
0.0
  0
VERTEX
  8
0
 10
51.3910008342
 20
-7.91226702254
 30
0.0
  0
VERTEX
  8
0
 10
48.4715511813
 20
-6.34158113416
 30
0.0
  0
VERTEX
  8
0
 10
45.9444824698
 20
-5.01597366864
 30
0.0
  0
VERTEX
  8
0
 10
44.104206444
 20
-3.61206811953
 30
0.0
  0
VERTEX
  8
0
 10
40.5895528332
 20
-1.25923943943
 30
0.0
  0
VERTEX
  8
0
 10
36.0144082782
 20
-0.24928728785
 30
0.0
  0
VERTEX
  8
0
 10
31.4677665929
 20
-0.0343774968583
 30
0.0
  0
VERTEX
  8
0
 10
26.9214696707
 20
-0.249287765912
 30
0.0
  0
VERTEX
  8
0
 10
22.3462596051
 20
-1.25924326394
 30
0.0
  0
VERTEX
  8
0
 10
18.8313392193
 20
-3.61208102722
 30
0.0
  0
VERTEX
  8
0
 10
16.9915665936
 20
-5.01602529942
 30
0.0
  0
VERTEX
  8
0
 10
14.4643042667
 20
-6.34190382656
 30
0.0
  0
VERTEX
  8
0
 10
11.5453189682
 20
-7.91231865332
 30
0.0
  0
VERTEX
  8
0
 10
9.54523254383
 20
-9.74736706228
 30
0.0
  0
VERTEX
  8
0
 10
8.22125144799
 20
-13.4593622612
 30
0.0
  0
VERTEX
  8
0
 10
7.8993464189
 20
-16.4037109671
 30
0.0
  0
VERTEX
  8
0
 10
7.39102414245
 20
-19.0163766659
 30
0.0
  0
VERTEX
  8
0
 10
6.78563599252
 20
-23.181751179
 30
0.0
  0
VERTEX
  8
0
 10
6.61497904191
 20
-27.3443730064
 30
0.0
  0
VERTEX
  8
0
 10
5.74975036754
 20
-29.4193109444
 30
0.0
  0
VERTEX
  8
0
 10
4.68556246792
 20
-32.2194161482
 30
0.0
  0
VERTEX
  8
0
 10
4.68780840701
 20
-35.23118175
 30
0.0
  0
VERTEX
  8
0
 10
3.24138490747
 20
-38.2951847972
 30
0.0
  0
VERTEX
  8
0
 10
2.64508807805
 20
-40.9572421929
 30
0.0
  0
VERTEX
  8
0
 10
0.519693956574
 20
-45.030872309
 30
0.0
  0
VERTEX
  8
0
 10
0.781113522483
 20
-47.7697175878
 30
0.0
  0
VERTEX
  8
0
 10
0.426216422564
 20
-51.0813139074
 30
0.0
  0
VERTEX
  8
0
 10
2.01901319409
 20
-54.6661403346
 30
0.0
  0
VERTEX
  8
0
 10
0.70068566907
 20
-57.0453255737
 30
0.0
  0
VERTEX
  8
0
 10
0.449024321293
 20
-59.5706517462
 30
0.0
  0
VERTEX
  8
0
 10
-0.0119353161809
 20
-61.8869119676
 30
0.0
  0
VERTEX
  8
0
 10
1.532651211
 20
-65.5993718436
 30
0.0
  0
VERTEX
  8
0
 10
0.996917290934
 20
-69.7918818394
 30
0.0
  0
VERTEX
  8
0
 10
2.51342957944
 20
-74.2011636808
 30
0.0
  0
VERTEX
  8
0
 10
2.88733971548
 20
-76.2426448709
 30
0.0
  0
VERTEX
  8
0
 10
2.58426866695
 20
-79.4766261305
 30
0.0
  0
VERTEX
  8
0
 10
2.67284974396
 20
-83.5332119612
 30
0.0
  0
VERTEX
  8
0
 10
3.52562755156
 20
-87.8513101899
 30
0.0
  0
VERTEX
  8
0
 10
5.51514669484
 20
-91.8698286437
 30
0.0
  0
VERTEX
  8
0
 10
9.01395177887
 20
-95.0276751495
 30
0.0
  0
VERTEX
  8
0
 10
12.2846705957
 20
-97.5151546151
 30
0.0
  0
VERTEX
  8
0
 10
17.3914958394
 20
-99.0716145704
 30
0.0
  0
VERTEX
  8
0
 10
23.1073826946
 20
-99.9143454405
 30
0.0
  0
VERTEX
  8
0
 10
28.2052863454
 20
-100.260637651
 30
0.0
  0
VERTEX
  8
0
 10
31.4581619764
 20
-100.327781626
 30
0.0
  0
VERTEX
  8
0
 10
34.7112483556
 20
-100.260637651
 30
0.0
  0
VERTEX
  8
0
 10
39.8093629096
 20
-99.9143454405
 30
0.0
  0
VERTEX
  8
0
 10
45.5253864228
 20
-99.0716145704
 30
0.0
  0
VERTEX
  8
0
 10
50.6321996797
 20
-97.5151546151
 30
0.0
  0
VERTEX
  8
0
 10
53.9026834645
 20
-95.0276751495
 30
0.0
  0
VERTEX
  8
0
 10
57.4017860469
 20
-91.8697989043
 30
0.0
  0
VERTEX
  8
0
 10
59.3914539505
 20
-87.8512209719
 30
0.0
  0
VERTEX
  8
0
 10
60.2442317908
 20
-83.5330781342
 30
0.0
  0
VERTEX
  8
0
 10
60.3326641832
 20
-79.4765071732
 30
0.0
  0
VERTEX
  8
0
 10
60.029295743
 20
-76.2426448709
 30
0.0
  0
VERTEX
  8
0
 10
60.4038254485
 20
-74.2011636808
 30
0.0
  0
VERTEX
  8
0
 10
61.919911783
 20
-69.7918818394
 30
0.0
  0
VERTEX
  8
0
 10
61.3839842475
 20
-65.5993718436
 30
0.0
  0
VERTEX
  8
0
 10
62.9291903441
 20
-61.8869119676
 30
0.0
  0
SEQEND
  8
0
  0
ENDSEC
  0
EOF
