  0
SECTION
  2
HEADER
  9
$ACADVER
  1
AC1009
  9
$INSBASE
 10
0.0
 20
0.0
 30
0.0
  9
$EXTMIN
 10
0.0
 20
0.0
 30
0.0
  9
$EXTMAX
 10
0.0
 20
0.0
 30
0.0
  0
ENDSEC
  0
SECTION
  2
TABLES
  0
TABLE
  2
VPORT
 70
0
  0
ENDTAB
  0
TABLE
  2
LTYPE
 70
1
  0
LTYPE
  2
CONTINUOUS
 70
0
  3
Solid line
 72
65
 73
0
 40
0.0
  0
ENDTAB
  0
TABLE
  2
LAYER
 70
1
  0
LAYER
  2
0
 70
64
 62
7
  6
continuous
  0
ENDTAB
  0
TABLE
  2
STYLE
 70
1
  0
STYLE
  2
STANDARD
 70
0
 40
0
 41
1.0
 50
0.0
 71
0
 42
1
 3
ARIAL.TTF
 4

  0
ENDTAB
  0
TABLE
  2
VIEW
 70
0
  0
ENDTAB
  0
ENDSEC
  0
SECTION
  2
BLOCKS
  0
ENDSEC
  0
SECTION
  2
ENTITIES
  0
POLYLINE
  8
0
 62
0
 70
1
 66
1
 10
0.0
 20
0.0
 30
0.0
  0
VERTEX
  8
0
 10
219.693463757
 20
-230.486995265
 30
0.0
  0
VERTEX
  8
0
 10
219.227264671
 20
-225.810467112
 30
0.0
  0
VERTEX
  8
0
 10
216.784929606
 20
-221.404568166
 30
0.0
  0
VERTEX
  8
0
 10
219.139449512
 20
-216.991410353
 30
0.0
  0
VERTEX
  8
0
 10
219.930006049
 20
-212.596611109
 30
0.0
  0
VERTEX
  8
0
 10
219.078455071
 20
-208.632833296
 30
0.0
  0
VERTEX
  8
0
 10
219.697861935
 20
-205.462130137
 30
0.0
  0
VERTEX
  8
0
 10
218.928343348
 20
-201.400317895
 30
0.0
  0
VERTEX
  8
0
 10
215.621515946
 20
-196.026316934
 30
0.0
  0
VERTEX
  8
0
 10
215.062266914
 20
-192.825634297
 30
0.0
  0
VERTEX
  8
0
 10
213.799051267
 20
-189.284825266
 30
0.0
  0
VERTEX
  8
0
 10
211.839259858
 20
-185.42250274
 30
0.0
  0
VERTEX
  8
0
 10
212.172678393
 20
-181.67079391
 30
0.0
  0
VERTEX
  8
0
 10
211.291301076
 20
-178.052559261
 30
0.0
  0
VERTEX
  8
0
 10
209.861241508
 20
-174.63166894
 30
0.0
  0
VERTEX
  8
0
 10
208.27041101
 20
-170.817302807
 30
0.0
  0
VERTEX
  8
0
 10
208.232659957
 20
-166.354084595
 30
0.0
  0
VERTEX
  8
0
 10
207.763387076
 20
-161.474240448
 30
0.0
  0
VERTEX
  8
0
 10
207.07514391
 20
-156.799955798
 30
0.0
  0
VERTEX
  8
0
 10
206.380482004
 20
-152.95341608
 30
0.0
  0
VERTEX
  8
0
 10
205.891952906
 20
-150.556806726
 30
0.0
  0
VERTEX
  8
0
 10
205.635790915
 20
-147.331074235
 30
0.0
  0
VERTEX
  8
0
 10
204.750096691
 20
-142.719595411
 30
0.0
  0
VERTEX
  8
0
 10
202.844015639
 20
-138.230245382
 30
0.0
  0
VERTEX
  8
0
 10
200.608549309
 20
-135.866150038
 30
0.0
  0
VERTEX
  8
0
 10
197.484249477
 20
-133.852124793
 30
0.0
  0
VERTEX
  8
0
 10
193.734624362
 20
-131.923256877
 30
0.0
  0
VERTEX
  8
0
 10
189.054880042
 20
-129.468429314
 30
0.0
  0
VERTEX
  8
0
 10
185.64696327
 20
-126.868603149
 30
0.0
  0
VERTEX
  8
0
 10
182.764200689
 20
-124.315791434
 30
0.0
  0
VERTEX
  8
0
 10
179.138380299
 20
-122.511498202
 30
0.0
  0
VERTEX
  8
0
 10
175.021584619
 20
-121.328909402
 30
0.0
  0
VERTEX
  8
0
 10
170.665896171
 20
-120.641210987
 30
0.0
  0
VERTEX
  8
0
 10
166.323397477
 20
-120.321588908
 30
0.0
  0
VERTEX
  8
0
 10
162.246171056
 20
-120.243229114
 30
0.0
  0
VERTEX
  8
0
 10
158.169404771
 20
-120.321588908
 30
0.0
  0
VERTEX
  8
0
 10
153.827115229
 20
-120.641210987
 30
0.0
  0
VERTEX
  8
0
 10
149.471435147
 20
-121.328909402
 30
0.0
  0
VERTEX
  8
0
 10
145.354497244
 20
-122.511498202
 30
0.0
  0
VERTEX
  8
0
 10
141.728434236
 20
-124.315791434
 30
0.0
  0
VERTEX
  8
0
 10
138.845378842
 20
-126.868603149
 30
0.0
  0
VERTEX
  8
0
 10
135.438403257
 20
-129.468501382
 30
0.0
  0
VERTEX
  8
0
 10
130.758277083
 20
-131.923833421
 30
0.0
  0
VERTEX
  8
0
 10
127.009455115
 20
-133.852295621
 30
0.0
  0
VERTEX
  8
0
 10
123.885155282
 20
-135.866171391
 30
0.0
  0
VERTEX
  8
0
 10
121.648885806
 20
-138.230245382
 30
0.0
  0
VERTEX
  8
0
 10
119.743082031
 20
-142.719595411
 30
0.0
  0
VERTEX
  8
0
 10
118.85726351
 20
-147.331074235
 30
0.0
  0
VERTEX
  8
0
 10
118.60094854
 20
-150.556806726
 30
0.0
  0
VERTEX
  8
0
 10
118.112865531
 20
-152.95341608
 30
0.0
  0
VERTEX
  8
0
 10
117.418259387
 20
-156.799955798
 30
0.0
  0
VERTEX
  8
0
 10
116.729848937
 20
-161.474240448
 30
0.0
  0
VERTEX
  8
0
 10
116.260353011
 20
-166.354084595
 30
0.0
  0
VERTEX
  8
0
 10
116.222490436
 20
-170.817302807
 30
0.0
  0
VERTEX
  8
0
 10
114.620215114
 20
-174.659777599
 30
0.0
  0
VERTEX
  8
0
 10
113.198230027
 20
-178.061652653
 30
0.0
  0
VERTEX
  8
0
 10
112.320223053
 20
-181.672217422
 30
0.0
  0
VERTEX
  8
0
 10
112.653684613
 20
-185.42250274
 30
0.0
  0
VERTEX
  8
0
 10
110.694130642
 20
-189.284825266
 30
0.0
  0
VERTEX
  8
0
 10
109.431028137
 20
-192.825634297
 30
0.0
  0
VERTEX
  8
0
 10
108.870869191
 20
-196.026316934
 30
0.0
  0
VERTEX
  8
0
 10
105.564594749
 20
-201.400657798
 30
0.0
  0
VERTEX
  8
0
 10
104.796394022
 20
-205.464849358
 30
0.0
  0
VERTEX
  8
0
 10
105.419050119
 20
-208.642010668
 30
0.0
  0
VERTEX
  8
0
 10
104.567209116
 20
-212.605385792
 30
0.0
  0
VERTEX
  8
0
 10
105.357227036
 20
-217.000036678
 30
0.0
  0
VERTEX
  8
0
 10
107.711456917
 20
-221.413173296
 30
0.0
  0
VERTEX
  8
0
 10
105.270122199
 20
-225.819072243
 30
0.0
  0
VERTEX
  8
0
 10
104.804084459
 20
-230.495600396
 30
0.0
  0
VERTEX
  8
0
 10
103.950455502
 20
-234.784974042
 30
0.0
  0
VERTEX
  8
0
 10
104.799781894
 20
-238.286328549
 30
0.0
  0
VERTEX
  8
0
 10
106.81080092
 20
-241.659896865
 30
0.0
  0
VERTEX
  8
0
 10
105.833589514
 20
-245.430656768
 30
0.0
  0
VERTEX
  8
0
 10
105.818699276
 20
-249.423804977
 30
0.0
  0
VERTEX
  8
0
 10
106.753920335
 20
-253.517310522
 30
0.0
  0
VERTEX
  8
0
 10
108.627042815
 20
-257.589142432
 30
0.0
  0
VERTEX
  8
0
 10
109.319497676
 20
-261.369664586
 30
0.0
  0
VERTEX
  8
0
 10
108.920780882
 20
-264.878371975
 30
0.0
  0
VERTEX
  8
0
 10
108.704316216
 20
-269.134340975
 30
0.0
  0
VERTEX
  8
0
 10
108.838536506
 20
-273.883895023
 30
0.0
  0
VERTEX
  8
0
 10
109.491874577
 20
-278.873357558
 30
0.0
  0
VERTEX
  8
0
 10
110.832763258
 20
-283.849052019
 30
0.0
  0
VERTEX
  8
0
 10
113.029635375
 20
-288.557301843
 30
0.0
  0
VERTEX
  8
0
 10
116.250923754
 20
-292.74443047
 30
0.0
  0
VERTEX
  8
0
 10
120.665061222
 20
-296.156761337
 30
0.0
  0
VERTEX
  8
0
 10
123.475154862
 20
-298.952668988
 30
0.0
  0
VERTEX
  8
0
 10
127.646392482
 20
-301.161246197
 30
0.0
  0
VERTEX
  8
0
 10
132.789146871
 20
-302.851489857
 30
0.0
  0
VERTEX
  8
0
 10
138.513790816
 20
-304.092396862
 30
0.0
  0
VERTEX
  8
0
 10
144.430697105
 20
-304.952964104
 30
0.0
  0
VERTEX
  8
0
 10
150.150238526
 20
-305.502188479
 30
0.0
  0
VERTEX
  8
0
 10
155.282787868
 20
-305.809066878
 30
0.0
  0
VERTEX
  8
0
 10
159.438717917
 20
-305.942596196
 30
0.0
  0
VERTEX
  8
0
 10
162.228401461
 20
-305.971773325
 30
0.0
  0
VERTEX
  8
0
 10
165.018302554
 20
-305.942596196
 30
0.0
  0
VERTEX
  8
0
 10
169.174467857
 20
-305.809066878
 30
0.0
  0
VERTEX
  8
0
 10
174.307246433
 20
-305.502188479
 30
0.0
  0
VERTEX
  8
0
 10
180.026987342
 20
-304.952964104
 30
0.0
  0
VERTEX
  8
0
 10
185.944039647
 20
-304.092396862
 30
0.0
  0
VERTEX
  8
0
 10
191.668752409
 20
-302.851489857
 30
0.0
  0
VERTEX
  8
0
 10
196.811474691
 20
-301.161246197
 30
0.0
  0
VERTEX
  8
0
 10
200.982555554
 20
-298.952668988
 30
0.0
  0
VERTEX
  8
0
 10
203.792344059
 20
-296.156761337
 30
0.0
  0
VERTEX
  8
0
 10
208.206850355
 20
-292.744406999
 30
0.0
  0
VERTEX
  8
0
 10
211.428405208
 20
-288.557221372
 30
0.0
  0
VERTEX
  8
0
 10
213.625439931
 20
-283.848901135
 30
0.0
  0
VERTEX
  8
0
 10
214.966385839
 20
-278.873142968
 30
0.0
  0
VERTEX
  8
0
 10
215.619674247
 20
-273.88364355
 30
0.0
  0
VERTEX
  8
0
 10
215.753736467
 20
-269.134099561
 30
0.0
  0
VERTEX
  8
0
 10
215.537003816
 20
-264.87820768
 30
0.0
  0
VERTEX
  8
0
 10
215.137907605
 20
-261.369664586
 30
0.0
  0
VERTEX
  8
0
 10
215.831481133
 20
-257.589142432
 30
0.0
  0
VERTEX
  8
0
 10
217.704035541
 20
-253.517310522
 30
0.0
  0
VERTEX
  8
0
 10
218.639055589
 20
-249.423804977
 30
0.0
  0
VERTEX
  8
0
 10
218.624069216
 20
-245.430656768
 30
0.0
  0
VERTEX
  8
0
 10
217.646604361
 20
-241.659896865
 30
0.0
  0
VERTEX
  8
0
 10
219.658413984
 20
-238.286328549
 30
0.0
  0
VERTEX
  8
0
 10
220.508111473
 20
-234.784974042
 30
0.0
  0
SEQEND
  8
0
  0
ENDSEC
  0
EOF
