  0
SECTION
  2
HEADER
  9
$ACADVER
  1
AC1009
  9
$INSBASE
 10
0.0
 20
0.0
 30
0.0
  9
$EXTMIN
 10
0.0
 20
0.0
 30
0.0
  9
$EXTMAX
 10
0.0
 20
0.0
 30
0.0
  0
ENDSEC
  0
SECTION
  2
TABLES
  0
TABLE
  2
VPORT
 70
0
  0
ENDTAB
  0
TABLE
  2
LTYPE
 70
1
  0
LTYPE
  2
CONTINUOUS
 70
0
  3
Solid line
 72
65
 73
0
 40
0.0
  0
ENDTAB
  0
TABLE
  2
LAYER
 70
1
  0
LAYER
  2
0
 70
64
 62
7
  6
continuous
  0
ENDTAB
  0
TABLE
  2
STYLE
 70
1
  0
STYLE
  2
STANDARD
 70
0
 40
0
 41
1.0
 50
0.0
 71
0
 42
1
 3
ARIAL.TTF
 4

  0
ENDTAB
  0
TABLE
  2
VIEW
 70
0
  0
ENDTAB
  0
ENDSEC
  0
SECTION
  2
BLOCKS
  0
ENDSEC
  0
SECTION
  2
ENTITIES
  0
POLYLINE
  8
0
 62
0
 70
1
 66
1
 10
0.0
 20
0.0
 30
0.0
  0
VERTEX
  8
0
 10
94.9600057445
 20
-90.5177403746
 30
0.0
  0
VERTEX
  8
0
 10
94.5774598166
 20
-86.6802048707
 30
0.0
  0
VERTEX
  8
0
 10
92.5732780747
 20
-83.0647462786
 30
0.0
  0
VERTEX
  8
0
 10
94.5053960496
 20
-79.4433319799
 30
0.0
  0
VERTEX
  8
0
 10
95.1541323949
 20
-75.8369823967
 30
0.0
  0
VERTEX
  8
0
 10
94.4553578517
 20
-72.5843295028
 30
0.0
  0
VERTEX
  8
0
 10
94.9636313729
 20
-69.9824670307
 30
0.0
  0
VERTEX
  8
0
 10
94.3321553264
 20
-66.6493644507
 30
0.0
  0
VERTEX
  8
0
 10
91.6185818437
 20
-62.239486562
 30
0.0
  0
VERTEX
  8
0
 10
90.7132032304
 20
-58.1941678062
 30
0.0
  0
VERTEX
  8
0
 10
88.5148961926
 20
-53.5380471891
 30
0.0
  0
VERTEX
  8
0
 10
88.5173104696
 20
-48.9578958932
 30
0.0
  0
VERTEX
  8
0
 10
86.8917318922
 20
-44.6831439145
 30
0.0
  0
VERTEX
  8
0
 10
85.5863249524
 20
-41.5530964454
 30
0.0
  0
VERTEX
  8
0
 10
85.4854586349
 20
-36.9016170862
 30
0.0
  0
VERTEX
  8
0
 10
84.8994359871
 20
-31.9153855021
 30
0.0
  0
VERTEX
  8
0
 10
84.1689189417
 20
-27.5915946312
 30
0.0
  0
VERTEX
  8
0
 10
83.6345694317
 20
-24.9274374116
 30
0.0
  0
VERTEX
  8
0
 10
83.4243577203
 20
-22.280415054
 30
0.0
  0
VERTEX
  8
0
 10
82.6975637559
 20
-18.4962590884
 30
0.0
  0
VERTEX
  8
0
 10
81.1334494562
 20
-14.8123213438
 30
0.0
  0
VERTEX
  8
0
 10
78.0947927783
 20
-12.0236840507
 30
0.0
  0
VERTEX
  8
0
 10
73.6583358716
 20
-9.63683429558
 30
0.0
  0
VERTEX
  8
0
 10
69.8181591304
 20
-7.6224194397
 30
0.0
  0
VERTEX
  8
0
 10
67.0216373862
 20
-5.4890149871
 30
0.0
  0
VERTEX
  8
0
 10
64.1031504298
 20
-3.05226187156
 30
0.0
  0
VERTEX
  8
0
 10
60.3662005058
 20
-1.47003107663
 30
0.0
  0
VERTEX
  8
0
 10
56.1682384808
 20
-0.562501666916
 30
0.0
  0
VERTEX
  8
0
 10
51.8667152218
 20
-0.149852707037
 30
0.0
  0
VERTEX
  8
0
 10
47.8190815956
 20
-0.0522632616071
 30
0.0
  0
VERTEX
  8
0
 10
43.7718588127
 20
-0.149852707037
 30
0.0
  0
VERTEX
  8
0
 10
39.4704719278
 20
-0.562501666916
 30
0.0
  0
VERTEX
  8
0
 10
35.2724391343
 20
-1.47003107663
 30
0.0
  0
VERTEX
  8
0
 10
31.5352786255
 20
-3.05226187156
 30
0.0
  0
VERTEX
  8
0
 10
28.6165085947
 20
-5.4890149871
 30
0.0
  0
VERTEX
  8
0
 10
25.8207570097
 20
-7.62247913779
 30
0.0
  0
VERTEX
  8
0
 10
21.9802790889
 20
-9.63731188033
 30
0.0
  0
VERTEX
  8
0
 10
17.5445294164
 20
-12.0237437488
 30
0.0
  0
VERTEX
  8
0
 10
14.5051568991
 20
-14.8123213438
 30
0.0
  0
VERTEX
  8
0
 10
12.9412567716
 20
-18.4962590884
 30
0.0
  0
VERTEX
  8
0
 10
12.2143585895
 20
-22.280415054
 30
0.0
  0
VERTEX
  8
0
 10
12.0040369237
 20
-24.9274374116
 30
0.0
  0
VERTEX
  8
0
 10
11.4700903759
 20
-27.5915946312
 30
0.0
  0
VERTEX
  8
0
 10
10.7395285569
 20
-31.9153855021
 30
0.0
  0
VERTEX
  8
0
 10
10.1532820411
 20
-36.9016170862
 30
0.0
  0
VERTEX
  8
0
 10
10.052281403
 20
-41.5530964454
 30
0.0
  0
VERTEX
  8
0
 10
8.73746475273
 20
-44.70621427
 30
0.0
  0
VERTEX
  8
0
 10
7.12030414444
 20
-48.9613089032
 30
0.0
  0
VERTEX
  8
0
 10
7.12371446532
 20
-53.5380471891
 30
0.0
  0
VERTEX
  8
0
 10
4.92570215323
 20
-58.1941678062
 30
0.0
  0
VERTEX
  8
0
 10
4.01955983466
 20
-62.239486562
 30
0.0
  0
VERTEX
  8
0
 10
1.30645708449
 20
-66.64964348
 30
0.0
  0
VERTEX
  8
0
 10
0.676081857264
 20
-69.9846992654
 30
0.0
  0
VERTEX
  8
0
 10
1.18702615611
 20
-72.5918632948
 30
0.0
  0
VERTEX
  8
0
 10
0.488006207352
 20
-75.8441890344
 30
0.0
  0
VERTEX
  8
0
 10
1.13628679942
 20
-79.4504170302
 30
0.0
  0
VERTEX
  8
0
 10
3.06815936873
 20
-83.0718110909
 30
0.0
  0
VERTEX
  8
0
 10
1.06480210587
 20
-86.6872712965
 30
0.0
  0
VERTEX
  8
0
 10
0.682373960739
 20
-90.5248051869
 30
0.0
  0
VERTEX
  8
0
 10
-0.0181094976623
 20
-94.0446478687
 30
0.0
  0
VERTEX
  8
0
 10
0.678842630208
 20
-96.91784079
 30
0.0
  0
VERTEX
  8
0
 10
2.32907329379
 20
-99.6861715881
 30
0.0
  0
VERTEX
  8
0
 10
1.43586008457
 20
-103.857359245
 30
0.0
  0
VERTEX
  8
0
 10
1.94057809326
 20
-108.293634647
 30
0.0
  0
VERTEX
  8
0
 10
3.8194819396
 20
-112.757631956
 30
0.0
  0
VERTEX
  8
0
 10
4.38768732812
 20
-115.859910668
 30
0.0
  0
VERTEX
  8
0
 10
4.02274787253
 20
-119.205368957
 30
0.0
  0
VERTEX
  8
0
 10
3.87893734691
 20
-123.312899132
 30
0.0
  0
VERTEX
  8
0
 10
4.16256980715
 20
-127.871769668
 30
0.0
  0
VERTEX
  8
0
 10
5.07995930915
 20
-132.571249044
 30
0.0
  0
VERTEX
  8
0
 10
6.83741990878
 20
-137.100605738
 30
0.0
  0
VERTEX
  8
0
 10
9.64126566195
 20
-141.149108228
 30
0.0
  0
VERTEX
  8
0
 10
13.6978106245
 20
-144.40602499
 30
0.0
  0
VERTEX
  8
0
 10
16.3770911094
 20
-146.952072202
 30
0.0
  0
VERTEX
  8
0
 10
20.4194284394
 20
-148.897095838
 30
0.0
  0
VERTEX
  8
0
 10
25.3695876347
 20
-150.321710814
 30
0.0
  0
VERTEX
  8
0
 10
30.7723337154
 20
-151.306532045
 30
0.0
  0
VERTEX
  8
0
 10
36.1724317016
 20
-151.932174446
 30
0.0
  0
VERTEX
  8
0
 10
41.1146466134
 20
-152.279252932
 30
0.0
  0
VERTEX
  8
0
 10
45.1437434707
 20
-152.42838242
 30
0.0
  0
VERTEX
  8
0
 10
47.8044872938
 20
-152.460177823
 30
0.0
  0
VERTEX
  8
0
 10
50.4654259845
 20
-152.42838242
 30
0.0
  0
VERTEX
  8
0
 10
54.4947340961
 20
-152.279252932
 30
0.0
  0
VERTEX
  8
0
 10
59.4371490687
 20
-151.932174446
 30
0.0
  0
VERTEX
  8
0
 10
64.8374083423
 20
-151.306532045
 30
0.0
  0
VERTEX
  8
0
 10
70.2402493568
 20
-150.321710814
 30
0.0
  0
VERTEX
  8
0
 10
75.1904095521
 20
-148.897095838
 30
0.0
  0
VERTEX
  8
0
 10
79.2326263683
 20
-146.952072202
 30
0.0
  0
VERTEX
  8
0
 10
81.9116372453
 20
-144.40602499
 30
0.0
  0
VERTEX
  8
0
 10
85.968529938
 20
-141.149083616
 30
0.0
  0
VERTEX
  8
0
 10
88.7726075906
 20
-137.100523701
 30
0.0
  0
VERTEX
  8
0
 10
90.5301843344
 20
-132.571101377
 30
0.0
  0
VERTEX
  8
0
 10
91.4475743006
 20
-127.871572778
 30
0.0
  0
VERTEX
  8
0
 10
91.7310916201
 20
-123.312694038
 30
0.0
  0
VERTEX
  8
0
 10
91.5870504243
 20
-119.20522129
 30
0.0
  0
VERTEX
  8
0
 10
91.2217648443
 20
-115.859910668
 30
0.0
  0
VERTEX
  8
0
 10
91.7909081921
 20
-112.757631956
 30
0.0
  0
VERTEX
  8
0
 10
93.6692541391
 20
-108.293634647
 30
0.0
  0
VERTEX
  8
0
 10
94.1738330315
 20
-103.857359245
 30
0.0
  0
VERTEX
  8
0
 10
93.280374576
 20
-99.6861715881
 30
0.0
  0
VERTEX
  8
0
 10
94.9312543892
 20
-96.91784079
 30
0.0
  0
VERTEX
  8
0
 10
95.6285039319
 20
-94.0446478687
 30
0.0
  0
SEQEND
  8
0
  0
ENDSEC
  0
EOF
