  0
SECTION
  2
HEADER
  9
$ACADVER
  1
AC1009
  9
$INSBASE
 10
0.0
 20
0.0
 30
0.0
  9
$EXTMIN
 10
0.0
 20
0.0
 30
0.0
  9
$EXTMAX
 10
0.0
 20
0.0
 30
0.0
  0
ENDSEC
  0
SECTION
  2
TABLES
  0
TABLE
  2
VPORT
 70
0
  0
ENDTAB
  0
TABLE
  2
LTYPE
 70
1
  0
LTYPE
  2
CONTINUOUS
 70
0
  3
Solid line
 72
65
 73
0
 40
0.0
  0
ENDTAB
  0
TABLE
  2
LAYER
 70
1
  0
LAYER
  2
0
 70
64
 62
7
  6
continuous
  0
ENDTAB
  0
TABLE
  2
STYLE
 70
1
  0
STYLE
  2
STANDARD
 70
0
 40
0
 41
1.0
 50
0.0
 71
0
 42
1
 3
ARIAL.TTF
 4

  0
ENDTAB
  0
TABLE
  2
VIEW
 70
0
  0
ENDTAB
  0
ENDSEC
  0
SECTION
  2
BLOCKS
  0
ENDSEC
  0
SECTION
  2
ENTITIES
  0
POLYLINE
  8
0
 62
0
 70
1
 66
1
 10
0.0
 20
0.0
 30
0.0
  0
VERTEX
  8
0
 10
15.1042780656
 20
6.94552749247
 30
0.0
  0
VERTEX
  8
0
 10
10.5775555527
 20
5.72105804697
 30
0.0
  0
VERTEX
  8
0
 10
7.36003162363
 20
2.50357139425
 30
0.0
  0
VERTEX
  8
0
 10
6.13555685293
 20
-2.02304994003
 30
0.0
  0
VERTEX
  8
0
 10
7.36003162363
 20
-6.54974582701
 30
0.0
  0
VERTEX
  8
0
 10
10.5775555527
 20
-9.76737093474
 30
0.0
  0
VERTEX
  8
0
 10
15.1042780656
 20
-10.9919149329
 30
0.0
  0
VERTEX
  8
0
 10
19.6307609449
 20
-9.76737093474
 30
0.0
  0
VERTEX
  8
0
 10
22.8481410938
 20
-6.54974582701
 30
0.0
  0
VERTEX
  8
0
 10
24.0725679377
 20
-2.02304994003
 30
0.0
  0
VERTEX
  8
0
 10
22.8481410938
 20
2.50357139425
 30
0.0
  0
VERTEX
  8
0
 10
19.6307609449
 20
5.72105804697
 30
0.0
  0
SEQEND
  8
0
  0
POLYLINE
  8
0
 62
0
 70
1
 66
1
 10
0.0
 20
0.0
 30
0.0
  0
VERTEX
  8
0
 10
15.1042780656
 20
5.28788558568
 30
0.0
  0
VERTEX
  8
0
 10
17.9495444108
 20
4.71405881407
 30
0.0
  0
VERTEX
  8
0
 10
20.2738950973
 20
3.14656709165
 30
0.0
  0
VERTEX
  8
0
 10
21.8415305999
 20
0.822216405121
 30
0.0
  0
VERTEX
  8
0
 10
22.4150698112
 20
-2.02304994003
 30
0.0
  0
VERTEX
  8
0
 10
21.8415305999
 20
-4.86846006539
 30
0.0
  0
VERTEX
  8
0
 10
20.2738950973
 20
-7.19281075192
 30
0.0
  0
VERTEX
  8
0
 10
17.9495444108
 20
-8.76030247434
 30
0.0
  0
VERTEX
  8
0
 10
15.1042780656
 20
-9.33412924595
 30
0.0
  0
VERTEX
  8
0
 10
12.2588679403
 20
-8.76030247434
 30
0.0
  0
VERTEX
  8
0
 10
9.93451725375
 20
-7.19281075192
 30
0.0
  0
VERTEX
  8
0
 10
8.36702553133
 20
-4.86846006539
 30
0.0
  0
VERTEX
  8
0
 10
7.79319875971
 20
-2.02304994003
 30
0.0
  0
VERTEX
  8
0
 10
8.36702553133
 20
0.822216405121
 30
0.0
  0
VERTEX
  8
0
 10
9.93451725375
 20
3.14656709165
 30
0.0
  0
VERTEX
  8
0
 10
12.2588679403
 20
4.71405881407
 30
0.0
  0
SEQEND
  8
0
  0
POLYLINE
  8
0
 62
0
 70
1
 66
1
 10
0.0
 20
0.0
 30
0.0
  0
VERTEX
  8
0
 10
15.1104136826
 20
5.71951227365
 30
0.0
  0
VERTEX
  8
0
 10
13.4125672379
 20
3.57400618134
 30
0.0
  0
VERTEX
  8
0
 10
12.7092843702
 20
-1.60565749171
 30
0.0
  0
VERTEX
  8
0
 10
13.4125672379
 20
-6.78533913728
 30
0.0
  0
VERTEX
  8
0
 10
15.1104136826
 20
-8.93097103726
 30
0.0
  0
VERTEX
  8
0
 10
16.8082062098
 20
-6.78533913728
 30
0.0
  0
VERTEX
  8
0
 10
17.5115429951
 20
-1.60565749171
 30
0.0
  0
VERTEX
  8
0
 10
16.8082062098
 20
3.57400618134
 30
0.0
  0
SEQEND
  8
0
  0
POLYLINE
  8
0
 62
0
 70
1
 66
1
 10
0.0
 20
0.0
 30
0.0
  0
VERTEX
  8
0
 10
15.1104136826
 20
5.47566105725
 30
0.0
  0
VERTEX
  8
0
 10
15.8524632863
 20
4.99457251357
 30
0.0
  0
VERTEX
  8
0
 10
16.5765403652
 20
3.49810820913
 30
0.0
  0
VERTEX
  8
0
 10
17.0892605525
 20
1.16065555203
 30
0.0
  0
VERTEX
  8
0
 10
17.2676917787
 20
-1.60565749171
 30
0.0
  0
VERTEX
  8
0
 10
17.0892605525
 20
-4.37197053544
 30
0.0
  0
VERTEX
  8
0
 10
16.5765403652
 20
-6.70942319255
 30
0.0
  0
VERTEX
  8
0
 10
15.8524632863
 20
-8.20574371678
 30
0.0
  0
VERTEX
  8
0
 10
15.1104136826
 20
-8.68711982086
 30
0.0
  0
VERTEX
  8
0
 10
14.3685078592
 20
-8.20574371678
 30
0.0
  0
VERTEX
  8
0
 10
13.6441432199
 20
-6.70942319255
 30
0.0
  0
VERTEX
  8
0
 10
13.1314949226
 20
-4.37197053544
 30
0.0
  0
VERTEX
  8
0
 10
12.9531355866
 20
-1.60565749171
 30
0.0
  0
VERTEX
  8
0
 10
13.1314949226
 20
1.16065555203
 30
0.0
  0
VERTEX
  8
0
 10
13.6441432199
 20
3.49810820913
 30
0.0
  0
VERTEX
  8
0
 10
14.3685078592
 20
4.99457251357
 30
0.0
  0
SEQEND
  8
0
  0
POLYLINE
  8
0
 62
0
 70
1
 66
1
 10
0.0
 20
0.0
 30
0.0
  0
VERTEX
  8
0
 10
18.365526176
 20
4.31400798876
 30
0.0
  0
VERTEX
  8
0
 10
15.6719119951
 20
3.29793129954
 30
0.0
  0
VERTEX
  8
0
 10
12.2737029521
 20
0.559619449436
 30
0.0
  0
VERTEX
  8
0
 10
9.10847174804
 20
-3.60033708439
 30
0.0
  0
VERTEX
  8
0
 10
8.79192166885
 20
-6.31810633865
 30
0.0
  0
VERTEX
  8
0
 10
9.57782423303
 20
-6.59056981453
 30
0.0
  0
VERTEX
  8
0
 10
12.2712766613
 20
-5.57470879561
 30
0.0
  0
VERTEX
  8
0
 10
15.6696474569
 20
-2.8361812752
 30
0.0
  0
VERTEX
  8
0
 10
18.8346989357
 20
1.32370336852
 30
0.0
  0
VERTEX
  8
0
 10
19.15128496
 20
4.04140073269
 30
0.0
  0
SEQEND
  8
0
  0
POLYLINE
  8
0
 62
0
 70
1
 66
1
 10
0.0
 20
0.0
 30
0.0
  0
VERTEX
  8
0
 10
18.3658137364
 20
4.31400798876
 30
0.0
  0
VERTEX
  8
0
 10
18.3658137364
 20
4.07015677236
 30
0.0
  0
VERTEX
  8
0
 10
18.9788925022
 20
3.86900827487
 30
0.0
  0
VERTEX
  8
0
 10
19.1633624967
 20
3.00417038179
 30
0.0
  0
VERTEX
  8
0
 10
18.6171415231
 20
1.43380305541
 30
0.0
  0
VERTEX
  8
0
 10
17.3269478857
 20
-0.581581957395
 30
0.0
  0
VERTEX
  8
0
 10
15.4972549991
 20
-2.66393259758
 30
0.0
  0
VERTEX
  8
0
 10
12.1441569934
 20
-5.36685654637
 30
0.0
  0
VERTEX
  8
0
 10
9.57782423303
 20
-6.34686237832
 30
0.0
  0
VERTEX
  8
0
 10
8.96417034647
 20
-6.14571388083
 30
0.0
  0
VERTEX
  8
0
 10
8.77998791238
 20
-5.28087598775
 30
0.0
  0
VERTEX
  8
0
 10
9.32592132552
 20
-3.71036488117
 30
0.0
  0
VERTEX
  8
0
 10
10.6162587431
 20
-1.69512364857
 30
0.0
  0
VERTEX
  8
0
 10
12.4460954099
 20
0.387083211416
 30
0.0
  0
VERTEX
  8
0
 10
15.7990496355
 20
3.08986338001
 30
0.0
  0
VERTEX
  8
0
 10
18.365526176
 20
4.07015677236
 30
0.0
  0
SEQEND
  8
0
  0
POLYLINE
  8
0
 62
0
 70
1
 66
1
 10
0.0
 20
0.0
 30
0.0
  0
VERTEX
  8
0
 10
11.8554478992
 20
4.33199828851
 30
0.0
  0
VERTEX
  8
0
 10
11.069545335
 20
4.05939103244
 30
0.0
  0
VERTEX
  8
0
 10
11.3860954142
 20
1.34181947595
 30
0.0
  0
VERTEX
  8
0
 10
14.5513266182
 20
-2.81804719525
 30
0.0
  0
VERTEX
  8
0
 10
17.9496614689
 20
-5.55670052333
 30
0.0
  0
VERTEX
  8
0
 10
20.6428622817
 20
-6.57257951477
 30
0.0
  0
VERTEX
  8
0
 10
21.4287648459
 20
-6.2998284785
 30
0.0
  0
VERTEX
  8
0
 10
21.1123226019
 20
-3.58225692201
 30
0.0
  0
VERTEX
  8
0
 10
17.9469835627
 20
0.577609749189
 30
0.0
  0
VERTEX
  8
0
 10
14.5487565472
 20
3.31613726959
 30
0.0
  0
SEQEND
  8
0
  0
POLYLINE
  8
0
 62
0
 70
1
 66
1
 10
0.0
 20
0.0
 30
0.0
  0
VERTEX
  8
0
 10
11.8554478992
 20
4.08814707211
 30
0.0
  0
VERTEX
  8
0
 10
14.4217806595
 20
3.10814124016
 30
0.0
  0
VERTEX
  8
0
 10
17.7744473247
 20
0.405073511169
 30
0.0
  0
VERTEX
  8
0
 10
19.6045176343
 20
-1.67700754114
 30
0.0
  0
VERTEX
  8
0
 10
20.8947651893
 20
-3.69223080122
 30
0.0
  0
VERTEX
  8
0
 10
21.4408423826
 20
-5.2625981276
 30
0.0
  0
VERTEX
  8
0
 10
21.2563723881
 20
-6.12772358108
 30
0.0
  0
VERTEX
  8
0
 10
20.6428622817
 20
-6.32887207857
 30
0.0
  0
VERTEX
  8
0
 10
18.0766733016
 20
-5.34857868622
 30
0.0
  0
VERTEX
  8
0
 10
14.7235752959
 20
-2.64579851763
 30
0.0
  0
VERTEX
  8
0
 10
12.8938105191
 20
-0.563447877444
 30
0.0
  0
VERTEX
  8
0
 10
11.6035449917
 20
1.45193713536
 30
0.0
  0
VERTEX
  8
0
 10
11.0574677983
 20
3.02216068154
 30
0.0
  0
VERTEX
  8
0
 10
11.2417940126
 20
3.88699857462
 30
0.0
  0
SEQEND
  8
0
  0
POLYLINE
  8
0
 62
0
 70
1
 66
1
 10
0.0
 20
0.0
 30
0.0
  0
VERTEX
  8
0
 10
15.1104136826
 20
2.07166527531
 30
0.0
  0
VERTEX
  8
0
 10
9.93069609202
 20
1.36834646255
 30
0.0
  0
VERTEX
  8
0
 10
7.78524391729
 20
-0.329320256948
 30
0.0
  0
VERTEX
  8
0
 10
9.93069609202
 20
-2.02723859179
 30
0.0
  0
VERTEX
  8
0
 10
15.1104136826
 20
-2.7305933496
 30
0.0
  0
VERTEX
  8
0
 10
20.2900773557
 20
-2.02723859179
 30
0.0
  0
VERTEX
  8
0
 10
22.435583448
 20
-0.329320256948
 30
0.0
  0
VERTEX
  8
0
 10
20.2900773557
 20
1.36834646255
 30
0.0
  0
SEQEND
  8
0
  0
POLYLINE
  8
0
 62
0
 70
1
 66
1
 10
0.0
 20
0.0
 30
0.0
  0
VERTEX
  8
0
 10
15.1104136826
 20
1.8278140589
 30
0.0
  0
VERTEX
  8
0
 10
17.8766188912
 20
1.64938283275
 30
0.0
  0
VERTEX
  8
0
 10
20.2141793835
 20
1.13666264543
 30
0.0
  0
VERTEX
  8
0
 10
21.7106436879
 20
0.412298006144
 30
0.0
  0
VERTEX
  8
0
 10
22.1918760118
 20
-0.329320256948
 30
0.0
  0
VERTEX
  8
0
 10
21.7106436879
 20
-1.07136986063
 30
0.0
  0
VERTEX
  8
0
 10
20.2141793835
 20
-1.79573449992
 30
0.0
  0
VERTEX
  8
0
 10
17.8767267264
 20
-2.30832887957
 30
0.0
  0
VERTEX
  8
0
 10
15.1104136826
 20
-2.48674213319
 30
0.0
  0
VERTEX
  8
0
 10
12.3440467213
 20
-2.30832887957
 30
0.0
  0
VERTEX
  8
0
 10
10.0066479818
 20
-1.79573449992
 30
0.0
  0
VERTEX
  8
0
 10
8.51032745757
 20
-1.07136986063
 30
0.0
  0
VERTEX
  8
0
 10
8.02909513369
 20
-0.329320256948
 30
0.0
  0
VERTEX
  8
0
 10
8.51018367737
 20
0.412298006144
 30
0.0
  0
VERTEX
  8
0
 10
10.0066479818
 20
1.13666264543
 30
0.0
  0
VERTEX
  8
0
 10
12.3441006389
 20
1.64938283275
 30
0.0
  0
SEQEND
  8
0
  0
POLYLINE
  8
0
 62
0
 70
1
 66
1
 10
0.0
 20
0.0
 30
0.0
  0
VERTEX
  8
0
 10
13.4061635332
 20
0.193550812045
 30
0.0
  0
VERTEX
  8
0
 10
13.8966696799
 20
2.70280283366
 30
0.0
  0
VERTEX
  8
0
 10
15.7217436277
 20
5.16633275219
 30
0.0
  0
VERTEX
  8
0
 10
16.6278104926
 20
4.68082296741
 30
0.0
  0
VERTEX
  8
0
 10
18.0215079003
 20
0.185355340739
 30
0.0
  0
VERTEX
  8
0
 10
18.824861786
 20
-0.718590766289
 30
0.0
  0
VERTEX
  8
0
 10
19.2808786576
 20
-4.55996632562
 30
0.0
  0
VERTEX
  8
0
 10
18.1838357442
 20
-4.5353799117
 30
0.0
  0
VERTEX
  8
0
 10
17.9644271615
 20
-2.60987549539
 30
0.0
  0
VERTEX
  8
0
 10
16.2176415318
 20
-3.33294611289
 30
0.0
  0
VERTEX
  8
0
 10
16.0972975057
 20
-4.58412139894
 30
0.0
  0
VERTEX
  8
0
 10
15.3174337099
 20
-4.58412139894
 30
0.0
  0
VERTEX
  8
0
 10
15.1936389591
 20
-3.36544043772
 30
0.0
  0
VERTEX
  8
0
 10
13.438657858
 20
-2.58557664187
 30
0.0
  0
VERTEX
  8
0
 10
13.2172363526
 20
-4.58412139894
 30
0.0
  0
VERTEX
  8
0
 10
12.1647653007
 20
-4.58412139894
 30
0.0
  0
VERTEX
  8
0
 10
12.090736471
 20
-2.6767153151
 30
0.0
  0
SEQEND
  8
0
  0
POLYLINE
  8
0
 62
0
 70
1
 66
1
 10
0.0
 20
0.0
 30
0.0
  0
VERTEX
  8
0
 10
18.365526176
 20
4.31400798876
 30
0.0
  0
VERTEX
  8
0
 10
15.6719119951
 20
3.29793129954
 30
0.0
  0
VERTEX
  8
0
 10
12.2737029521
 20
0.559619449436
 30
0.0
  0
VERTEX
  8
0
 10
9.10847174804
 20
-3.60033708439
 30
0.0
  0
VERTEX
  8
0
 10
8.79192166885
 20
-6.31810633865
 30
0.0
  0
VERTEX
  8
0
 10
9.57782423303
 20
-6.59056981453
 30
0.0
  0
VERTEX
  8
0
 10
12.2712766613
 20
-5.57470879561
 30
0.0
  0
VERTEX
  8
0
 10
15.6696474569
 20
-2.8361812752
 30
0.0
  0
VERTEX
  8
0
 10
18.8346989357
 20
1.32370336852
 30
0.0
  0
VERTEX
  8
0
 10
19.15128496
 20
4.04140073269
 30
0.0
  0
SEQEND
  8
0
  0
POLYLINE
  8
0
 62
0
 70
1
 66
1
 10
0.0
 20
0.0
 30
0.0
  0
VERTEX
  8
0
 10
18.3658137364
 20
4.31400798876
 30
0.0
  0
VERTEX
  8
0
 10
18.3658137364
 20
4.07015677236
 30
0.0
  0
VERTEX
  8
0
 10
18.9788925022
 20
3.86900827487
 30
0.0
  0
VERTEX
  8
0
 10
19.1633624967
 20
3.00417038179
 30
0.0
  0
VERTEX
  8
0
 10
18.6171415231
 20
1.43380305541
 30
0.0
  0
VERTEX
  8
0
 10
17.3269478857
 20
-0.581581957395
 30
0.0
  0
VERTEX
  8
0
 10
15.4972549991
 20
-2.66393259758
 30
0.0
  0
VERTEX
  8
0
 10
12.1441569934
 20
-5.36685654637
 30
0.0
  0
VERTEX
  8
0
 10
9.57782423303
 20
-6.34686237832
 30
0.0
  0
VERTEX
  8
0
 10
8.96417034647
 20
-6.14571388083
 30
0.0
  0
VERTEX
  8
0
 10
8.77998791238
 20
-5.28087598775
 30
0.0
  0
VERTEX
  8
0
 10
9.32592132552
 20
-3.71036488117
 30
0.0
  0
VERTEX
  8
0
 10
10.6162587431
 20
-1.69512364857
 30
0.0
  0
VERTEX
  8
0
 10
12.4460954099
 20
0.387083211416
 30
0.0
  0
VERTEX
  8
0
 10
15.7990496355
 20
3.08986338001
 30
0.0
  0
VERTEX
  8
0
 10
18.365526176
 20
4.07015677236
 30
0.0
  0
SEQEND
  8
0
  0
ENDSEC
  0
EOF
