<?xml version="1.0" encoding="UTF-8" standalone="no"?>
<!-- Created with Inkscape (http://www.inkscape.org/) -->

<svg
   xmlns:dc="http://purl.org/dc/elements/1.1/"
   xmlns:cc="http://creativecommons.org/ns#"
   xmlns:rdf="http://www.w3.org/1999/02/22-rdf-syntax-ns#"
   xmlns:svg="http://www.w3.org/2000/svg"
   xmlns="http://www.w3.org/2000/svg"
   xmlns:sodipodi="http://sodipodi.sourceforge.net/DTD/sodipodi-0.dtd"
   xmlns:inkscape="http://www.inkscape.org/namespaces/inkscape"
   version="1.1"
   id="svg3790"
   xml:space="preserve"
   width="24.099522"
   height="24.100101"
   viewBox="0 0 24.099522 24.100102"
   sodipodi:docname="raketa-10.svg"
   inkscape:version="0.91 r13725"
   inkscape:export-filename="/home/miceuz/Xaltura/shd18-badge/logo-10.svg.png"
   inkscape:export-xdpi="600"
   inkscape:export-ydpi="600"><metadata
     id="metadata3796"><rdf:RDF><cc:Work
         rdf:about=""><dc:format>image/svg+xml</dc:format><dc:type
           rdf:resource="http://purl.org/dc/dcmitype/StillImage" /><dc:title></dc:title></cc:Work></rdf:RDF></metadata><defs
     id="defs3794"><clipPath
       clipPathUnits="userSpaceOnUse"
       id="clipPath3806"><path
         d="m 0,595.28 595.28,0 L 595.28,0 0,0 Z"
         id="path3804"
         inkscape:connector-curvature="0" /></clipPath><clipPath
       clipPathUnits="userSpaceOnUse"
       id="clipPath3996"><path
         d="m 0,595.28 595.28,0 L 595.28,0 0,0 Z"
         id="path3994-2"
         inkscape:connector-curvature="0" /></clipPath><clipPath
       clipPathUnits="userSpaceOnUse"
       id="clipPath7133"><path
         d="m 0,181.418 181.418,0 L 181.418,0 0,0 Z"
         id="path7131"
         inkscape:connector-curvature="0" /></clipPath><clipPath
       clipPathUnits="userSpaceOnUse"
       id="clipPath7149"><path
         d="m 19.1543,161.913 143.1067,0 0,-118.1288 -143.1067,0 z"
         id="path7147"
         inkscape:connector-curvature="0" /></clipPath><clipPath
       clipPathUnits="userSpaceOnUse"
       id="clipPath7153"><path
         d="m 19.1543,161.913 143.1067,0 0,-118.1288 -143.1067,0 z"
         id="path7151"
         inkscape:connector-curvature="0" /></clipPath><clipPath
       clipPathUnits="userSpaceOnUse"
       id="clipPath8202"><path
         d="m 0,794.96 792,0 L 792,0 0,0 Z"
         id="path8200"
         inkscape:connector-curvature="0" /></clipPath></defs><sodipodi:namedview
     pagecolor="#ffffff"
     bordercolor="#666666"
     borderopacity="1"
     objecttolerance="10"
     gridtolerance="10"
     guidetolerance="10"
     inkscape:pageopacity="0"
     inkscape:pageshadow="2"
     inkscape:window-width="1920"
     inkscape:window-height="1024"
     id="namedview3792"
     showgrid="false"
     inkscape:zoom="7.7073195"
     inkscape:cx="-13.132027"
     inkscape:cy="3.0615039"
     inkscape:window-x="0"
     inkscape:window-y="0"
     inkscape:window-maximized="1"
     inkscape:current-layer="g3798"
     inkscape:measure-start="0,0"
     inkscape:measure-end="0,0"
     fit-margin-top="0"
     fit-margin-left="0"
     fit-margin-right="0"
     fit-margin-bottom="0" /><g
     id="g3798"
     inkscape:groupmode="layer"
     inkscape:label="letunas"
     transform="matrix(1.3333333,0,0,-1.3333333,-541.41472,409.0936)"><g
       id="g7139"
       transform="translate(-14.86146,134.03184)"><path
         d="m 0,0 c -13.143,0 -25.499,5.118 -34.792,14.41 -9.293,9.292 -14.411,21.65 -14.411,34.792 0,13.142 5.118,25.498 14.411,34.791 9.293,9.293 21.649,14.411 34.792,14.411 13.142,0 25.497,-5.118 34.791,-14.411 C 44.084,74.7 49.2,62.344 49.2,49.202 49.2,36.06 44.084,23.702 34.791,14.41 25.497,5.118 13.142,0 0,0"
         style="fill:#ffffff;fill-opacity:1;fill-rule:nonzero;stroke:none"
         id="path7141"
         inkscape:connector-curvature="0" /></g><g
       id="g7145"
       transform="translate(-105.57096,80.43904)" /><g
       id="g10204"
       transform="matrix(0.35635028,0,0,0.35635028,266.96797,199.13626)"
       inkscape:export-xdpi="300"
       inkscape:export-ydpi="300"><g
         transform="matrix(0.40657586,0,0,0.40657586,415.68823,302.18566)"
         id="g9318"><path
           inkscape:connector-curvature="0"
           id="path9320"
           style="fill:#000000;fill-opacity:1;fill-rule:nonzero;stroke:none"
           d="m 0,0 c -34.451,0 -62.378,-27.927 -62.378,-62.377 0,-34.45 27.927,-62.379 62.378,-62.379 34.449,0 62.375,27.929 62.375,62.379 C 62.375,-27.927 34.449,0 0,0 m 0,-11.529 c 6.871,0 13.527,-1.343 19.789,-3.991 6.054,-2.56 11.493,-6.229 16.166,-10.902 4.672,-4.673 8.342,-10.112 10.903,-16.166 2.646,-6.262 3.989,-12.919 3.989,-19.789 0,-6.869 -1.343,-13.526 -3.989,-19.79 -2.561,-6.054 -6.231,-11.491 -10.903,-16.166 -4.673,-4.673 -10.112,-8.341 -16.166,-10.902 -6.262,-2.648 -12.918,-3.991 -19.789,-3.991 -6.87,0 -13.528,1.343 -19.79,3.991 -6.053,2.561 -11.493,6.229 -16.166,10.902 -4.673,4.675 -8.342,10.112 -10.902,16.166 -2.648,6.264 -3.991,12.921 -3.991,19.79 0,6.87 1.343,13.527 3.991,19.789 2.56,6.054 6.229,11.493 10.902,16.166 4.673,4.673 10.113,8.342 16.166,10.902 6.262,2.648 12.92,3.991 19.79,3.991" /></g><g
         style="fill:#000000;fill-opacity:1"
         id="g10187"><g
           style="fill:#000000;fill-opacity:1"
           id="g9326"
           transform="matrix(0.40657586,0,0,0.40657586,415.71165,297.50589)"><path
             d="m 0,0 c -9.223,0 -16.7,-22.81 -16.7,-50.947 0,-28.136 7.477,-50.948 16.7,-50.948 9.222,0 16.7,22.812 16.7,50.948 C 16.7,-22.81 9.222,0 0,0 m 0,-1.696 c 1.704,0 3.439,-1.126 5.161,-3.346 1.842,-2.379 3.584,-5.978 5.036,-10.408 3.1,-9.457 4.807,-22.063 4.807,-35.497 0,-13.433 -1.707,-26.041 -4.807,-35.497 -1.452,-4.43 -3.194,-8.029 -5.036,-10.407 -1.722,-2.223 -3.457,-3.348 -5.161,-3.348 -1.703,0 -3.439,1.125 -5.16,3.348 -1.843,2.378 -3.585,5.977 -5.038,10.407 -3.1,9.456 -4.806,22.064 -4.806,35.497 0,13.434 1.706,26.04 4.806,35.497 1.453,4.43 3.195,8.029 5.038,10.408 1.721,2.22 3.457,3.346 5.16,3.346"
             style="fill:#000000;fill-opacity:1;fill-rule:nonzero;stroke:none"
             id="path9328"
             inkscape:connector-curvature="0" /></g><g
           style="fill:#000000;fill-opacity:1"
           id="g9334"
           transform="matrix(0.40657586,0,0,0.40657586,428.1366,292.141)"><path
             d="m 0,0 c -9.44,-0.001 -26.395,-10.14 -42.369,-26.112 -19.896,-19.896 -30.737,-41.313 -24.216,-47.835 1.286,-1.284 3.148,-1.895 5.466,-1.895 9.439,0 26.393,10.137 42.369,26.112 C 1.144,-29.834 11.986,-8.418 5.465,-1.896 4.179,-0.611 2.316,0 0,0 m 0.002,0 0,-1.696 c 1.9,0 3.336,-0.471 4.264,-1.399 1.205,-1.204 1.635,-3.228 1.283,-6.015 -0.379,-2.985 -1.694,-6.762 -3.799,-10.922 -4.494,-8.879 -12.202,-19 -21.699,-28.5 -7.653,-7.649 -15.717,-14.15 -23.321,-18.799 -7.194,-4.393 -13.533,-6.816 -17.849,-6.816 -1.903,0 -3.339,0.472 -4.268,1.399 -1.203,1.206 -1.635,3.229 -1.281,6.015 0.378,2.985 1.691,6.762 3.797,10.923 4.496,8.878 12.202,18.999 21.701,28.498 7.65,7.651 15.715,14.151 23.32,18.798 7.194,4.396 13.534,6.818 17.85,6.818 L 0.002,0"
             style="fill:#000000;fill-opacity:1;fill-rule:nonzero;stroke:none"
             id="path9336"
             inkscape:connector-curvature="0" /></g><g
           style="fill:#000000;fill-opacity:1"
           id="g9342"
           transform="matrix(0.40657586,0,0,0.40657586,403.28726,292.20967)"><path
             d="m 0,0 c -2.317,0 -4.181,-0.611 -5.466,-1.896 -6.521,-6.521 4.32,-27.937 24.216,-47.833 15.976,-15.976 32.93,-26.113 42.367,-26.113 2.316,0 4.18,0.611 5.466,1.897 6.522,6.52 -4.319,27.938 -24.216,47.833 C 26.392,-10.137 9.438,0 0,0 m 0,-1.696 c 4.316,0 10.655,-2.42 17.849,-6.816 7.604,-4.648 15.668,-11.148 23.318,-18.8 9.5,-9.498 17.208,-19.619 21.702,-28.497 2.105,-4.16 3.42,-7.939 3.798,-10.922 0.353,-2.788 -0.078,-4.811 -1.283,-6.017 -0.927,-0.927 -2.365,-1.399 -4.267,-1.399 -4.315,0 -10.655,2.421 -17.848,6.818 -7.605,4.647 -15.669,11.147 -23.321,18.798 -9.498,9.5 -17.205,19.621 -21.7,28.5 -2.106,4.16 -3.419,7.936 -3.798,10.921 -0.353,2.787 0.078,4.811 1.282,6.015 0.929,0.929 2.365,1.399 4.268,1.399 l 0,0"
             style="fill:#000000;fill-opacity:1;fill-rule:nonzero;stroke:none"
             id="path9344"
             inkscape:connector-curvature="0" /></g><g
           style="fill:#000000;fill-opacity:1"
           id="g9346"
           transform="matrix(0.40657586,0,0,0.40657586,415.71165,283.58185)"><path
             d="m 0,0 c -28.138,0 -50.947,-7.478 -50.947,-16.699 0,-9.224 22.809,-16.7 50.947,-16.701 28.137,10e-4 50.947,7.477 50.947,16.701 C 50.947,-7.478 28.137,0 0,0 m 0,-1.696 c 13.432,0 26.04,-1.707 35.497,-4.807 4.43,-1.452 8.03,-3.194 10.408,-5.038 2.22,-1.719 3.347,-3.456 3.347,-5.158 0,-1.705 -1.127,-3.44 -3.347,-5.161 -2.378,-1.844 -5.978,-3.584 -10.408,-5.038 C 26.04,-29.997 13.434,-31.704 0,-31.704 c -13.434,0 -26.041,1.707 -35.497,4.806 -4.431,1.454 -8.029,3.194 -10.407,5.038 -2.221,1.721 -3.347,3.456 -3.347,5.161 0,1.703 1.126,3.439 3.346,5.158 2.379,1.844 5.977,3.586 10.408,5.038 9.457,3.1 22.063,4.807 35.497,4.807"
             style="fill:#000000;fill-opacity:1;fill-rule:nonzero;stroke:none"
             id="path9348"
             inkscape:connector-curvature="0" /></g><g
           style="fill:#000000;fill-opacity:1"
           id="g9350"
           transform="matrix(0.40657586,0,0,0.40657586,409.20643,276.41298)"><path
             d="m 0,0 c 0,0 3.729,35.01 16.105,34.586 0,0 11.473,2.543 15.995,-34.643 0,0 11.98,-5.764 8.759,-33.004 l -7.63,0.171 c 0,0 -0.507,11.584 -1.526,13.392 0,0 -1.977,-3.674 -12.149,-5.029 0,0 -0.497,-8.478 -0.837,-8.702 -0.338,-0.227 -5.424,0 -5.424,0 0,0 -0.973,8.025 -0.861,8.476 0.113,0.452 -8.138,0.566 -12.206,5.424 0,0 -1.993,-11.866 -1.54,-13.9 l -7.32,0 c 0,0 -4.251,24.3 8.634,33.229"
             style="fill:#000000;fill-opacity:1;fill-rule:nonzero;stroke:none"
             id="path9352"
             inkscape:connector-curvature="0" /></g><g
           style="fill:#000000;fill-opacity:1"
           id="g9354"
           transform="matrix(0.40657586,0,0,0.40657586,428.1366,292.141)"><path
             d="m 0,0 c -9.44,-0.001 -26.395,-10.14 -42.369,-26.112 -19.896,-19.896 -30.737,-41.313 -24.216,-47.835 1.286,-1.284 3.148,-1.895 5.466,-1.895 9.439,0 26.393,10.137 42.369,26.112 C 1.144,-29.834 11.986,-8.418 5.465,-1.896 4.179,-0.611 2.316,0 0,0 m 0.002,0 0,-1.696 c 1.9,0 3.336,-0.471 4.264,-1.399 1.205,-1.204 1.635,-3.228 1.283,-6.015 -0.379,-2.985 -1.694,-6.762 -3.799,-10.922 -4.494,-8.879 -12.202,-19 -21.699,-28.5 -7.653,-7.649 -15.717,-14.15 -23.321,-18.799 -7.194,-4.393 -13.533,-6.816 -17.849,-6.816 -1.903,0 -3.339,0.472 -4.268,1.399 -1.203,1.206 -1.635,3.229 -1.281,6.015 0.378,2.985 1.691,6.762 3.797,10.923 4.496,8.878 12.202,18.999 21.701,28.498 7.65,7.651 15.715,14.151 23.32,18.798 7.194,4.396 13.534,6.818 17.85,6.818 L 0.002,0"
             style="fill:#000000;fill-opacity:1;fill-rule:nonzero;stroke:none"
             id="path9356"
             inkscape:connector-curvature="0" /></g></g></g></g></svg>