  0
SECTION
  2
HEADER
  9
$ACADVER
  1
AC1009
  9
$INSBASE
 10
0.0
 20
0.0
 30
0.0
  9
$EXTMIN
 10
0.0
 20
0.0
 30
0.0
  9
$EXTMAX
 10
0.0
 20
0.0
 30
0.0
  0
ENDSEC
  0
SECTION
  2
TABLES
  0
TABLE
  2
VPORT
 70
0
  0
ENDTAB
  0
TABLE
  2
LTYPE
 70
1
  0
LTYPE
  2
CONTINUOUS
 70
0
  3
Solid line
 72
65
 73
0
 40
0.0
  0
ENDTAB
  0
TABLE
  2
LAYER
 70
1
  0
LAYER
  2
0
 70
64
 62
7
  6
continuous
  0
ENDTAB
  0
TABLE
  2
STYLE
 70
1
  0
STYLE
  2
STANDARD
 70
0
 40
0
 41
1.0
 50
0.0
 71
0
 42
1
 3
ARIAL.TTF
 4

  0
ENDTAB
  0
TABLE
  2
VIEW
 70
0
  0
ENDTAB
  0
ENDSEC
  0
SECTION
  2
BLOCKS
  0
ENDSEC
  0
SECTION
  2
ENTITIES
  0
POLYLINE
  8
0
 62
0
 70
1
 66
1
 10
0.0
 20
0.0
 30
0.0
  0
VERTEX
  8
0
 10
54.6193855367
 20
-64.0637694468
 30
0.0
  0
VERTEX
  8
0
 10
56.0195349545
 20
-66.4311054348
 30
0.0
  0
VERTEX
  8
0
 10
54.3356227475
 20
-71.5806952993
 30
0.0
  0
VERTEX
  8
0
 10
53.371113807
 20
-74.3048502018
 30
0.0
  0
VERTEX
  8
0
 10
49.8724971435
 20
-74.779417422
 30
0.0
  0
VERTEX
  8
0
 10
46.6114509277
 20
-72.615376212
 30
0.0
  0
VERTEX
  8
0
 10
50.3154691921
 20
-75.8293925203
 30
0.0
  0
VERTEX
  8
0
 10
54.5692004146
 20
-74.7516515337
 30
0.0
  0
VERTEX
  8
0
 10
54.8558190316
 20
-78.6404411809
 30
0.0
  0
VERTEX
  8
0
 10
53.8770639388
 20
-83.5746662718
 30
0.0
  0
VERTEX
  8
0
 10
51.5919854705
 20
-88.0984072678
 30
0.0
  0
VERTEX
  8
0
 10
47.9596339613
 20
-90.7557446304
 30
0.0
  0
VERTEX
  8
0
 10
46.3315870693
 20
-92.5132403855
 30
0.0
  0
VERTEX
  8
0
 10
42.1029605089
 20
-93.7685944962
 30
0.0
  0
VERTEX
  8
0
 10
36.1406238502
 20
-94.5218069627
 30
0.0
  0
VERTEX
  8
0
 10
29.3114466636
 20
-94.7728777849
 30
0.0
  0
VERTEX
  8
0
 10
22.4822985193
 20
-94.5218069627
 30
0.0
  0
VERTEX
  8
0
 10
16.5200489876
 20
-93.7685944962
 30
0.0
  0
VERTEX
  8
0
 10
12.2915676387
 20
-92.5132403855
 30
0.0
  0
VERTEX
  8
0
 10
10.663724043
 20
-90.7557446304
 30
0.0
  0
VERTEX
  8
0
 10
7.03115471641
 20
-88.0984072678
 30
0.0
  0
VERTEX
  8
0
 10
4.74594555775
 20
-83.5746662718
 30
0.0
  0
VERTEX
  8
0
 10
3.76723402841
 20
-78.6404411809
 30
0.0
  0
VERTEX
  8
0
 10
4.05415758971
 20
-74.7516515337
 30
0.0
  0
VERTEX
  8
0
 10
8.30788881216
 20
-75.8293925203
 30
0.0
  0
VERTEX
  8
0
 10
12.0119070766
 20
-72.615376212
 30
0.0
  0
VERTEX
  8
0
 10
8.75097559591
 20
-74.779417422
 30
0.0
  0
VERTEX
  8
0
 10
5.25212946219
 20
-74.3048502018
 30
0.0
  0
VERTEX
  8
0
 10
4.28711568743
 20
-71.5806952993
 30
0.0
  0
VERTEX
  8
0
 10
2.60397794219
 20
-66.4311054348
 30
0.0
  0
VERTEX
  8
0
 10
4.0039724676
 20
-64.0637694468
 30
0.0
  0
VERTEX
  8
0
 10
6.32836455097
 20
-64.0989300107
 30
0.0
  0
VERTEX
  8
0
 10
8.70154772529
 20
-62.6684991381
 30
0.0
  0
VERTEX
  8
0
 10
4.83834869394
 20
-63.2939085623
 30
0.0
  0
VERTEX
  8
0
 10
1.84722802602
 20
-61.4178409188
 30
0.0
  0
VERTEX
  8
0
 10
2.09260084138
 20
-58.5381396742
 30
0.0
  0
VERTEX
  8
0
 10
2.36466893534
 20
-55.7171239865
 30
0.0
  0
VERTEX
  8
0
 10
4.47918220417
 20
-53.6258836163
 30
0.0
  0
VERTEX
  8
0
 10
6.57673443774
 20
-53.9514673406
 30
0.0
  0
VERTEX
  8
0
 10
10.5602559518
 20
-52.1361289728
 30
0.0
  0
VERTEX
  8
0
 10
13.1496688498
 20
-49.5266575152
 30
0.0
  0
VERTEX
  8
0
 10
15.5629691433
 20
-47.8595511284
 30
0.0
  0
VERTEX
  8
0
 10
19.1426461379
 20
-49.7891541581
 30
0.0
  0
VERTEX
  8
0
 10
24.005313696
 20
-49.2689109044
 30
0.0
  0
VERTEX
  8
0
 10
28.0723852921
 20
-47.9373070892
 30
0.0
  0
VERTEX
  8
0
 10
30.3422466624
 20
-47.8782070517
 30
0.0
  0
VERTEX
  8
0
 10
34.3689825053
 20
-49.2283695841
 30
0.0
  0
VERTEX
  8
0
 10
39.3576878189
 20
-49.8110825808
 30
0.0
  0
VERTEX
  8
0
 10
43.060388861
 20
-47.8595769438
 30
0.0
  0
VERTEX
  8
0
 10
45.4737278776
 20
-49.5266833306
 30
0.0
  0
VERTEX
  8
0
 10
48.0624824831
 20
-52.1361547882
 30
0.0
  0
VERTEX
  8
0
 10
52.0460039972
 20
-53.951493156
 30
0.0
  0
VERTEX
  8
0
 10
54.1438660154
 20
-53.6259094317
 30
0.0
  0
VERTEX
  8
0
 10
56.258572577
 20
-55.7171498019
 30
0.0
  0
VERTEX
  8
0
 10
56.5301375935
 20
-58.5381654896
 30
0.0
  0
VERTEX
  8
0
 10
56.7756477085
 20
-61.4178657781
 30
0.0
  0
VERTEX
  8
0
 10
53.7844583908
 20
-63.2939324654
 30
0.0
  0
VERTEX
  8
0
 10
49.9211907096
 20
-62.6685249535
 30
0.0
  0
VERTEX
  8
0
 10
52.2947998379
 20
-64.0989558261
 30
0.0
  0
SEQEND
  8
0
  0
POLYLINE
  8
0
 62
0
 70
1
 66
1
 10
0.0
 20
0.0
 30
0.0
  0
VERTEX
  8
0
 10
1.68740244801
 20
-47.0284116742
 30
0.0
  0
VERTEX
  8
0
 10
2.2416072842
 20
-46.0640518893
 30
0.0
  0
VERTEX
  8
0
 10
3.91603233463
 20
-44.3440497643
 30
0.0
  0
VERTEX
  8
0
 10
6.80349684137
 20
-43.2100054076
 30
0.0
  0
VERTEX
  8
0
 10
3.85887705667
 20
-43.1554832996
 30
0.0
  0
VERTEX
  8
0
 10
1.63473904826
 20
-44.6604173936
 30
0.0
  0
VERTEX
  8
0
 10
1.83013575057
 20
-42.436163216
 30
0.0
  0
VERTEX
  8
0
 10
4.32521920607
 20
-39.4925889546
 30
0.0
  0
VERTEX
  8
0
 10
5.15172479744
 20
-36.6013683084
 30
0.0
  0
VERTEX
  8
0
 10
6.29049337086
 20
-34.6156483531
 30
0.0
  0
VERTEX
  8
0
 10
8.62132496036
 20
-36.8226349019
 30
0.0
  0
VERTEX
  8
0
 10
11.3185974347
 20
-39.1255170269
 30
0.0
  0
VERTEX
  8
0
 10
13.5100259072
 20
-41.6437339421
 30
0.0
  0
VERTEX
  8
0
 10
12.1116964745
 20
-39.0704685718
 30
0.0
  0
VERTEX
  8
0
 10
9.79260945423
 20
-36.0824789285
 30
0.0
  0
VERTEX
  8
0
 10
7.18855922895
 20
-33.4632492527
 30
0.0
  0
VERTEX
  8
0
 10
7.01043302391
 20
-29.0630673112
 30
0.0
  0
VERTEX
  8
0
 10
7.23998348988
 20
-27.3084467454
 30
0.0
  0
VERTEX
  8
0
 10
9.28174005613
 20
-29.159043202
 30
0.0
  0
VERTEX
  8
0
 10
13.3594016998
 20
-32.2963476387
 30
0.0
  0
VERTEX
  8
0
 10
16.4015563381
 20
-33.0986326556
 30
0.0
  0
VERTEX
  8
0
 10
15.9578528534
 20
-31.9093921224
 30
0.0
  0
VERTEX
  8
0
 10
12.6596554201
 20
-30.4445808843
 30
0.0
  0
VERTEX
  8
0
 10
8.08879357997
 20
-27.1095649652
 30
0.0
  0
VERTEX
  8
0
 10
7.54010750092
 20
-22.8436127043
 30
0.0
  0
VERTEX
  8
0
 10
8.41381510243
 20
-16.862830958
 30
0.0
  0
VERTEX
  8
0
 10
9.06957195414
 20
-13.8325066214
 30
0.0
  0
VERTEX
  8
0
 10
10.463603124
 20
-9.2969487641
 30
0.0
  0
VERTEX
  8
0
 10
13.1360584014
 20
-7.07115713641
 30
0.0
  0
VERTEX
  8
0
 10
16.7608607012
 20
-4.95922859785
 30
0.0
  0
VERTEX
  8
0
 10
19.395935291
 20
-2.83917681593
 30
0.0
  0
VERTEX
  8
0
 10
21.4327008815
 20
-1.95227468071
 30
0.0
  0
VERTEX
  8
0
 10
25.2075651868
 20
-1.33639974132
 30
0.0
  0
VERTEX
  8
0
 10
29.2721814523
 20
-1.08021926428
 30
0.0
  0
VERTEX
  8
0
 10
33.3370730821
 20
-1.33639018007
 30
0.0
  0
VERTEX
  8
0
 10
37.1120062284
 20
-1.95226990008
 30
0.0
  0
VERTEX
  8
0
 10
39.1484276137
 20
-2.83917681593
 30
0.0
  0
VERTEX
  8
0
 10
41.7837202001
 20
-4.95922859785
 30
0.0
  0
VERTEX
  8
0
 10
45.4086028145
 20
-7.07115713641
 30
0.0
  0
VERTEX
  8
0
 10
48.0810695654
 20
-9.2969487641
 30
0.0
  0
VERTEX
  8
0
 10
49.4751007352
 20
-13.8325066214
 30
0.0
  0
VERTEX
  8
0
 10
50.130926428
 20
-16.862830958
 30
0.0
  0
VERTEX
  8
0
 10
51.0047028705
 20
-22.8436127043
 30
0.0
  0
VERTEX
  8
0
 10
50.4558791094
 20
-27.1095649652
 30
0.0
  0
VERTEX
  8
0
 10
45.8850975839
 20
-30.4445808843
 30
0.0
  0
VERTEX
  8
0
 10
42.5870493062
 20
-31.9093921224
 30
0.0
  0
VERTEX
  8
0
 10
42.1434261359
 20
-33.0986326556
 30
0.0
  0
VERTEX
  8
0
 10
45.1854430922
 20
-32.2963476387
 30
0.0
  0
VERTEX
  8
0
 10
49.2631735769
 20
-29.159043202
 30
0.0
  0
VERTEX
  8
0
 10
51.3049989842
 20
-27.3084467454
 30
0.0
  0
VERTEX
  8
0
 10
51.5342396655
 20
-29.0630673112
 30
0.0
  0
VERTEX
  8
0
 10
51.3558036757
 20
-33.4632492527
 30
0.0
  0
VERTEX
  8
0
 10
48.7523730198
 20
-36.0824789285
 30
0.0
  0
VERTEX
  8
0
 10
46.4329374917
 20
-39.0704685718
 30
0.0
  0
VERTEX
  8
0
 10
45.0349565669
 20
-41.6437339421
 30
0.0
  0
VERTEX
  8
0
 10
47.2261670428
 20
-39.1255170269
 30
0.0
  0
VERTEX
  8
0
 10
49.9233592025
 20
-36.8226349019
 30
0.0
  0
VERTEX
  8
0
 10
52.2541793185
 20
-34.6156483531
 30
0.0
  0
VERTEX
  8
0
 10
53.3929478919
 20
-36.6013683084
 30
0.0
  0
VERTEX
  8
0
 10
54.2188339139
 20
-39.4925889546
 30
0.0
  0
VERTEX
  8
0
 10
56.7140722618
 20
-42.436163216
 30
0.0
  0
VERTEX
  8
0
 10
56.9096238564
 20
-44.6604173936
 30
0.0
  0
VERTEX
  8
0
 10
54.6855632942
 20
-43.1554832996
 30
0.0
  0
VERTEX
  8
0
 10
51.7405562786
 20
-43.2100054076
 30
0.0
  0
VERTEX
  8
0
 10
54.6282918469
 20
-44.3440497643
 30
0.0
  0
VERTEX
  8
0
 10
56.3027556205
 20
-46.0640518893
 30
0.0
  0
VERTEX
  8
0
 10
56.8578898108
 20
-47.0284116742
 30
0.0
  0
VERTEX
  8
0
 10
55.7068460184
 20
-50.9599280809
 30
0.0
  0
VERTEX
  8
0
 10
51.7414856327
 20
-53.1119636994
 30
0.0
  0
VERTEX
  8
0
 10
48.4099691334
 20
-51.53445967
 30
0.0
  0
VERTEX
  8
0
 10
45.3251100999
 20
-48.642160514
 30
0.0
  0
VERTEX
  8
0
 10
43.8339212679
 20
-45.1489478725
 30
0.0
  0
VERTEX
  8
0
 10
42.4741164675
 20
-47.0889358608
 30
0.0
  0
VERTEX
  8
0
 10
40.0339084682
 20
-48.4357635863
 30
0.0
  0
VERTEX
  8
0
 10
36.1247982082
 20
-48.2963217462
 30
0.0
  0
VERTEX
  8
0
 10
30.358286626
 20
-45.7775010377
 30
0.0
  0
VERTEX
  8
0
 10
29.6529068541
 20
-41.6740928431
 30
0.0
  0
VERTEX
  8
0
 10
30.3431071755
 20
-37.7739034146
 30
0.0
  0
VERTEX
  8
0
 10
34.1167495523
 20
-37.7728869335
 30
0.0
  0
VERTEX
  8
0
 10
36.7881779508
 20
-38.9767974218
 30
0.0
  0
VERTEX
  8
0
 10
38.4571817689
 20
-42.4949448636
 30
0.0
  0
VERTEX
  8
0
 10
40.114336322
 20
-44.064701407
 30
0.0
  0
VERTEX
  8
0
 10
38.9690622698
 20
-41.1895121192
 30
0.0
  0
VERTEX
  8
0
 10
37.3117141012
 20
-38.023899671
 30
0.0
  0
VERTEX
  8
0
 10
40.114336322
 20
-35.3132835074
 30
0.0
  0
VERTEX
  8
0
 10
38.7455526056
 20
-35.6433978331
 30
0.0
  0
VERTEX
  8
0
 10
35.6091373658
 20
-37.0945455578
 30
0.0
  0
VERTEX
  8
0
 10
32.0528864053
 20
-37.1628918082
 30
0.0
  0
VERTEX
  8
0
 10
29.2731108064
 20
-36.6757166374
 30
0.0
  0
VERTEX
  8
0
 10
26.4929092536
 20
-37.1628821274
 30
0.0
  0
VERTEX
  8
0
 10
22.9364646777
 20
-37.0945455578
 30
0.0
  0
VERTEX
  8
0
 10
19.8001268841
 20
-35.6433978331
 30
0.0
  0
VERTEX
  8
0
 10
18.4318852909
 20
-35.3132835074
 30
0.0
  0
VERTEX
  8
0
 10
21.2338879423
 20
-38.023899671
 30
0.0
  0
VERTEX
  8
0
 10
19.5768495584
 20
-41.1895121192
 30
0.0
  0
VERTEX
  8
0
 10
18.4318852909
 20
-44.064701407
 30
0.0
  0
VERTEX
  8
0
 10
20.0885364439
 20
-42.4949448636
 30
0.0
  0
VERTEX
  8
0
 10
21.7577338774
 20
-38.9767974218
 30
0.0
  0
VERTEX
  8
0
 10
24.3093143184
 20
-37.7915998658
 30
0.0
  0
VERTEX
  8
0
 10
28.010738136
 20
-37.7395173124
 30
0.0
  0
VERTEX
  8
0
 10
28.7368734831
 20
-41.6316523386
 30
0.0
  0
VERTEX
  8
0
 10
27.9521888268
 20
-45.9125671689
 30
0.0
  0
VERTEX
  8
0
 10
22.2981339327
 20
-48.3241152427
 30
0.0
  0
VERTEX
  8
0
 10
18.458759114
 20
-48.4210488128
 30
0.0
  0
VERTEX
  8
0
 10
16.056049585
 20
-47.0728367369
 30
0.0
  0
VERTEX
  8
0
 10
14.7119905603
 20
-45.1489478725
 30
0.0
  0
VERTEX
  8
0
 10
13.2207099403
 20
-48.642160514
 30
0.0
  0
VERTEX
  8
0
 10
10.1358279597
 20
-51.53445967
 30
0.0
  0
VERTEX
  8
0
 10
6.80380662607
 20
-53.1119636994
 30
0.0
  0
VERTEX
  8
0
 10
2.83891091739
 20
-50.9599280809
 30
0.0
  0
SEQEND
  8
0
  0
ENDSEC
  0
EOF
