<?xml version="1.0" encoding="UTF-8" standalone="no"?>
<svg
   xmlns:dc="http://purl.org/dc/elements/1.1/"
   xmlns:cc="http://creativecommons.org/ns#"
   xmlns:rdf="http://www.w3.org/1999/02/22-rdf-syntax-ns#"
   xmlns:svg="http://www.w3.org/2000/svg"
   xmlns="http://www.w3.org/2000/svg"
   version="1.1"
   id="svg4995"
   viewBox="0 0 252.31695 413.13197"
   height="116.59502mm"
   width="71.20945mm">
  <defs
     id="defs4997" />
  <metadata
     id="metadata5000">
    <rdf:RDF>
      <cc:Work
         rdf:about="">
        <dc:format>image/svg+xml</dc:format>
        <dc:type
           rdf:resource="http://purl.org/dc/dcmitype/StillImage" />
        <dc:title></dc:title>
      </cc:Work>
    </rdf:RDF>
  </metadata>
  <g
     transform="translate(-170.98407,-142.93907)"
     id="layer1">
    <path
       d="m 406.06946,418.67371 c 4.4067,3.436 12.0707,12.95066 -1.2213,32.35333 5.2786,16.008 -23.6974,20.004 -33.2454,4.45333 6.6054,17.54934 24.4907,16.27467 34.2507,9.19467 5.1973,16.532 -3.6587,61.77333 -28.448,68.88266 -0.4453,23.05334 -160.0813,23.05334 -160.524,0 -24.7906,-7.10933 -33.648,-52.35066 -28.448,-68.88266 9.7614,7.08 27.644,8.35467 34.2507,-9.19467 -9.5467,15.55067 -38.524,11.55467 -33.248,-4.45333 -13.288,-19.40267 -5.624,-28.91733 -1.2187,-32.35333 6.344,1.784 13.5947,0.62133 20.2187,-6.00534 -15.112,10.224 -39.8587,-5.372 -28.4453,-17.77733 -6.976,-6.97867 6.6746,-18.352 10.272,-21.14267 2.9626,1.29734 6.044,1.864 9.028,1.40134 5.2186,0.0893 11.7653,-3.336 17.1453,-7.81334 8.4947,-7.07066 14.048,-16.744 21.532,-18.40666 9.664,15.928 41.0307,5.46133 53.8413,0.33466 3.9101,-1.86734 5.5449,-1.92992 9.7696,-0.25438 12.036,4.928 44.7957,16.30772 54.7397,-0.0803 7.4854,1.66267 13.0374,11.336 21.5294,18.40667 5.38,4.47733 11.9266,7.90266 17.1453,7.81333 2.9853,0.46267 6.0653,-0.104 9.0293,-1.40133 3.5987,2.79066 17.2494,14.164 10.2707,21.14266 11.4147,12.40534 -13.3333,28.00134 -28.4453,17.77734 6.628,6.62666 13.8746,7.78933 20.2213,6.00533 m -227.8226,-73.3213 c 0.4453,-0.95067 1.224,-2.43867 2.3853,-4.15067 0.083,-0.0307 0.164,-0.064 0.2493,-0.0867 -0.023,-0.0493 -0.055,-0.10667 -0.08,-0.16 3.2627,-4.708 9.4107,-10.93867 19.6347,-12.284 -8.3747,-5.02534 -18.0067,2.31866 -22.2467,6.24266 -1.2706,-5.18266 -0.3466,-12.932 11.58,-22.24266 -6.788,-4.008 3.5574,-12.444 3.5574,-12.444 0,0 -0.5694,-6.008 4.9013,-8.54667 7.992,9.464 23.9813,18.776 31.0733,30.24933 1.3494,-2.12133 -12.0653,-19.43466 -16,-23.936 -3.5706,-4.08533 -7.7813,-7.94666 -11.208,-11.27333 -6.0026,-5.608 -6.6693,-9.16267 -0.7666,-18.93867 -0.9654,-2.39866 0.988,-7.552 0.988,-7.552 0,0 32.9733,31.68934 39.432,24.92134 6.5026,-6.81334 -15.636,-5.11067 -35.7787,-25.77734 -7.776,-7.97733 4.2213,-57.14532 4.2213,-57.14532 0,0 -0.6666,-9.52133 6,-19.52133 6.6667,-10 32.02,-18.47734 38.4454,-27.79467 2.948,-4.27333 26.468,-7.36933 42.508,-7.57067 16.0413,0.20134 39.5626,3.29734 42.508,7.57067 6.4266,9.31733 31.7799,17.79467 38.4466,27.79467 6.6667,10 6,19.52133 6,19.52133 0,0 11.9987,49.16799 4.2213,57.14532 -20.1426,20.66667 -42.28,18.964 -35.7773,25.77734 6.4573,6.768 39.432,-24.92134 39.432,-24.92134 0,0 1.9533,5.15334 0.9867,7.552 5.9013,9.776 5.2346,13.33067 -0.768,18.93867 -3.4254,3.32667 -7.636,7.188 -11.2054,11.27333 -3.936,4.50134 -17.352,21.81467 -16,23.936 7.0907,-11.47333 23.08,-20.78533 31.072,-30.24933 5.4694,2.53867 4.9014,8.54667 4.9014,8.54667 0,0 10.3466,8.436 3.5546,12.444 11.9267,9.31066 12.852,17.06 11.5814,22.24266 -4.2374,-3.924 -13.8734,-11.268 -22.248,-6.24266 10.2266,1.34533 16.372,7.576 19.636,12.284 -0.027,0.0533 -0.055,0.11066 -0.079,0.16 0.085,0.0227 0.1667,0.056 0.2467,0.0867 1.1653,1.712 1.9413,3.2 2.3893,4.15067 1.052,8.76133 -6.9227,27.63466 -22.0213,26.184 -12.9374,-2.936 -32.9787,-18.96934 -34.0347,-34.27333 -5.4467,11.12666 -18.8347,25.69599 -58,2.70533 -1.0307,-2.228 -3.036,-7.81733 -3.036,-17.66133 0,-9.64267 1.9227,-14.72534 2.9707,-16.78667 8.6573,-1.668 25.408,-0.0693 27.74,5.17733 2.748,6.18134 11.636,26.89867 14.316,21.89867 2.676,-5 -11.8,-19.33333 -12.0627,-26 -0.2613,-6.66667 14.716,-8.33333 12.0627,-11.66667 -2.6574,-3.33333 -6.5894,4.56667 -19.3907,7.66667 -12.6253,3.05733 -19.1013,-1.672 -27.2707,-1.80267 l 0,-0.012 c -0.057,0 -0.1146,0.005 -0.172,0.005 -0.057,0 -0.112,-0.005 -0.1693,-0.005 l 0,0.012 c -8.1693,0.13067 -14.6493,4.86 -27.2733,1.80267 -12.8027,-3.1 -16.732,-11 -19.388,-7.66667 -2.6574,3.33334 12.3226,5 12.06,11.66667 -0.2614,6.66667 -14.7374,21 -12.06,26 2.676,5 11.5666,-15.71733 14.3146,-21.89867 2.2574,-5.084 18.0574,-6.744 26.9134,-5.32533 0.9986,2.12133 3.1253,7.696 3.1253,16.752 0,9.92267 -2.5533,16.54533 -3.3773,18.42533 -38.3774,22.144 -51.588,7.74267 -56.9867,-3.28666 -1.0573,15.30399 -21.096,31.33733 -34.0373,34.27333 -15.0987,1.45066 -23.0694,-17.42267 -22.0174,-26.184 m 236.1974,68.95466 c 7.8466,-6.248 11.8053,-16.656 6.2893,-22.26666 3.4613,-12.496 -7.0653,-20.25067 -9.5907,-22.94534 8.588,-7.62266 13.9574,-20.42 8.5107,-27.73066 -1.3333,-6.66667 8.444,-9.556 -7.7787,-28.22267 0.6667,-7.77733 -4.444,-18.66666 -10,-27.43333 6.0987,-9.26267 -2.568,-19.04 -7.224,-33.384 1.6587,-15.45199 -5.3733,-47.13333 -5.3733,-47.13333 0,0 -0.2733,-16.47733 -5.6067,-24.69999 -5.3333,-8.22134 -30.5106,-14.74534 -39.3666,-25.57867 -8.8307,-10.804 -32.2187,-11.97333 -47.1613,-11.97333 -14.94,0 -38.328,1.16933 -47.1614,11.97333 -8.8546,10.83333 -34.032,17.35733 -39.3653,25.57867 -5.3333,8.22266 -5.6067,24.69999 -5.6067,24.69999 0,0 -7.0333,31.68134 -5.372,47.13333 -4.656,14.344 -13.3226,24.12133 -7.224,33.384 -5.5573,8.76667 -10.6666,19.656 -10,27.43333 -16.224,18.66667 -6.4453,21.556 -7.7786,28.22267 -5.4507,7.31066 -0.081,20.108 8.508,27.73066 -2.5267,2.69467 -13.052,10.44934 -9.5894,22.94534 -5.5173,5.61066 -1.56,16.01866 6.2867,22.26666 -2.4107,3.24534 -10.732,16.916 2.5547,36.78 -1.12,3.05334 -0.4107,6.184 1.4746,8.98534 -2.8626,17.39999 -6.5493,60.59199 23.7,75.70933 3.7574,12.63733 46.6667,20.28933 89.5734,20.28933 42.9053,0 85.8146,-7.652 89.5746,-20.28933 30.248,-15.11734 26.5627,-58.30934 23.6987,-75.70933 1.8853,-2.80134 2.596,-5.932 1.4733,-8.98534 13.2867,-19.864 4.9667,-33.53466 2.5547,-36.78"
       style="fill:#000000;fill-opacity:1;fill-rule:nonzero;stroke:none"
       id="path4006" />
  </g>
</svg>
