<?xml version="1.0" encoding="UTF-8" standalone="no"?>
<svg
   xmlns:dc="http://purl.org/dc/elements/1.1/"
   xmlns:cc="http://creativecommons.org/ns#"
   xmlns:rdf="http://www.w3.org/1999/02/22-rdf-syntax-ns#"
   xmlns:svg="http://www.w3.org/2000/svg"
   xmlns="http://www.w3.org/2000/svg"
   version="1.1"
   id="svg5893"
   viewBox="0 0 136.25116 223.09126"
   height="62.961311mm"
   width="38.453106mm">
  <defs
     id="defs5895" />
  <metadata
     id="metadata5898">
    <rdf:RDF>
      <cc:Work
         rdf:about="">
        <dc:format>image/svg+xml</dc:format>
        <dc:type
           rdf:resource="http://purl.org/dc/dcmitype/StillImage" />
        <dc:title></dc:title>
      </cc:Work>
    </rdf:RDF>
  </metadata>
  <g
     transform="translate(-97.588708,-226.53086)"
     id="layer1">
    <path
       d="m 224.5348,375.42754 c 2.3796,1.85544 6.51816,6.99336 -0.65952,17.4708 2.85048,8.64432 -12.79656,10.80216 -17.95248,2.4048 3.56688,9.47664 13.22496,8.78832 18.49536,4.96512 2.80656,8.92728 -1.97568,33.35759 -15.36192,37.19663 -0.24048,12.4488 -86.44392,12.4488 -86.68296,0 -13.38696,-3.83904 -18.16992,-28.26935 -15.36192,-37.19663 5.27112,3.8232 14.92776,4.51152 18.49536,-4.96512 -5.1552,8.39736 -20.80296,6.23952 -17.95392,-2.4048 -7.17552,-10.47744 -3.03696,-15.61536 -0.65808,-17.4708 3.42576,0.96336 7.34112,0.33552 10.91808,-3.24288 -8.16048,5.52096 -21.523682,-2.90088 -15.36048,-9.59976 -3.767042,-3.76848 3.60432,-9.91008 5.54688,-11.41704 1.59984,0.70056 3.26376,1.00656 4.87512,0.75672 2.81808,0.0483 6.35328,-1.80144 9.25848,-4.2192 4.58712,-3.81816 7.58592,-9.04176 11.62728,-9.9396 5.21856,8.60112 22.15656,2.94912 29.07432,0.18072 2.11142,-1.00836 2.99424,-1.04214 5.2756,-0.13736 6.49944,2.66112 24.18968,8.80616 29.55944,-0.0433 4.04208,0.89784 7.04016,6.12144 11.62584,9.9396 2.9052,2.41776 6.4404,4.26744 9.25848,4.2192 1.61208,0.24984 3.27528,-0.0561 4.87584,-0.75672 1.94328,1.50696 9.31464,7.64856 5.54616,11.41704 6.16392,6.69888 -7.2,15.12071 -15.36048,9.59976 3.57912,3.5784 7.49232,4.20624 10.91952,3.24288 M 101.51056,335.83405 c 0.24048,-0.51336 0.66096,-1.31688 1.28808,-2.24136 0.0447,-0.0165 0.0885,-0.0345 0.13464,-0.0468 -0.012,-0.0267 -0.0295,-0.0576 -0.0432,-0.0864 1.76184,-2.54232 5.08176,-5.90688 10.60272,-6.63336 -4.52232,-2.71368 -9.7236,1.25208 -12.0132,3.37104 -0.68616,-2.79864 -0.1872,-6.98328 6.2532,-12.01104 -3.66552,-2.16432 1.92096,-6.71976 1.92096,-6.71976 0,0 -0.30744,-3.24432 2.64672,-4.6152 4.31568,5.11056 12.94992,10.13904 16.7796,16.33464 0.72864,-1.14552 -6.51528,-10.49472 -8.64,-12.92544 -1.92816,-2.20608 -4.20192,-4.2912 -6.05232,-6.0876 -3.24144,-3.02832 -3.60144,-4.94784 -0.414,-10.22688 -0.52128,-1.29528 0.53352,-4.07808 0.53352,-4.07808 0,0 17.8056,17.11224 21.29328,13.45752 3.51144,-3.6792 -8.44344,-2.75976 -19.32048,-13.91976 -4.19904,-4.30776 2.27952,-30.85847 2.27952,-30.85847 0,0 -0.36,-5.14152 3.24,-10.54152 3.6,-5.4 17.2908,-9.97776 20.76048,-15.00912 1.59192,-2.3076 14.29272,-3.97944 22.95432,-4.08816 8.66232,0.10867 21.36384,1.78056 22.95432,4.08816 3.4704,5.03136 17.1612,9.60912 20.7612,15.00912 3.6,5.4 3.24,10.54152 3.24,10.54152 0,0 6.47928,26.55071 2.27952,30.85847 -10.87704,11.16 -22.8312,10.24056 -19.31976,13.91976 3.48696,3.65472 21.29328,-13.45752 21.29328,-13.45752 0,0 1.0548,2.7828 0.5328,4.07808 3.18672,5.27904 2.82672,7.19856 -0.41472,10.22688 -1.84968,1.7964 -4.12344,3.88152 -6.05088,6.0876 -2.12544,2.43072 -9.37008,11.77992 -8.64,12.92544 3.82896,-6.1956 12.4632,-11.22408 16.77888,-16.33464 2.95344,1.37088 2.64672,4.6152 2.64672,4.6152 0,0 5.5872,4.55544 1.91952,6.71976 6.4404,5.02776 6.94008,9.2124 6.25392,12.01104 -2.28816,-2.11896 -7.4916,-6.08472 -12.01392,-3.37104 5.5224,0.72648 8.84088,4.09104 10.60344,6.63336 -0.0144,0.0288 -0.0295,0.0597 -0.0425,0.0864 0.0461,0.012 0.09,0.0303 0.1332,0.0468 0.62928,0.92448 1.04832,1.728 1.29024,2.24136 0.56808,4.73112 -3.73824,14.92272 -11.89152,14.13936 -6.98616,-1.58544 -17.80848,-10.24344 -18.37872,-18.5076 -2.9412,6.0084 -10.17072,13.87584 -31.32,1.46088 -0.55656,-1.20312 -1.63944,-4.22136 -1.63944,-9.53712 0,-5.20704 1.03824,-7.95168 1.60416,-9.0648 4.67496,-0.90072 13.72032,-0.0375 14.9796,2.79576 1.48392,3.33792 6.28344,14.52528 7.73064,11.82528 1.44504,-2.7 -6.372,-10.44 -6.51384,-14.04 -0.14112,-3.6 7.94664,-4.5 6.51384,-6.3 -1.43496,-1.8 -3.55824,2.466 -10.47096,4.14 -6.81768,1.65096 -10.31472,-0.90288 -14.72616,-0.97344 l 0,-0.007 c -0.0309,0 -0.0619,0.003 -0.0929,0.003 -0.0309,0 -0.0605,-0.003 -0.0915,-0.003 l 0,0.007 c -4.41144,0.0705 -7.91064,2.6244 -14.7276,0.97344 -6.91344,-1.674 -9.03528,-5.94 -10.46952,-4.14 -1.43496,1.8 6.65424,2.7 6.5124,6.3 -0.14112,3.6 -7.95816,11.34 -6.5124,14.04 1.44504,2.7 6.246,-8.48736 7.72992,-11.82528 1.21896,-2.74536 9.75096,-3.64176 14.5332,-2.87568 0.53928,1.14552 1.68768,4.15584 1.68768,9.04608 0,5.35824 -1.3788,8.93448 -1.82376,9.94968 -20.72376,11.95776 -27.85752,4.18104 -30.7728,-1.7748 -0.57096,8.26416 -11.39184,16.92216 -18.38016,18.5076 -8.15328,0.78336 -12.45744,-9.40824 -11.88936,-14.13936 m 127.54652,37.23552 c 4.2372,-3.37392 6.37488,-8.99424 3.39624,-12.024 1.86912,-6.74784 -3.81528,-10.93536 -5.17896,-12.39048 4.63752,-4.11624 7.53696,-11.0268 4.59576,-14.97456 -0.72,-3.6 4.55976,-5.16024 -4.20048,-15.24024 0.36,-4.19976 -2.39976,-10.08 -5.4,-14.814 3.29328,-5.00184 -1.38672,-10.2816 -3.90096,-18.02736 0.89568,-8.34407 -2.9016,-25.45199 -2.9016,-25.45199 0,0 -0.1476,-8.89776 -3.0276,-13.338 -2.88,-4.43952 -16.47576,-7.96248 -21.258,-13.81248 -4.76856,-5.83416 -17.39808,-6.4656 -25.46712,-6.4656 -8.0676,0 -20.69712,0.63144 -25.46712,6.4656 -4.78152,5.85 -18.37728,9.37296 -21.25728,13.81248 -2.88,4.44024 -3.0276,13.338 -3.0276,13.338 0,0 -3.798,17.10792 -2.90088,25.45199 -2.51424,7.74576 -7.19424,13.02552 -3.90096,18.02736 -3.00096,4.734 -5.76,10.61424 -5.4,14.814 -8.760955,10.08 -3.48048,11.64024 -4.200475,15.24024 -2.94336,3.94776 -0.04387,10.85832 4.594315,14.97456 -1.3644,1.45512 -7.048075,5.64264 -5.178235,12.39048 -2.97936,3.02976 -0.8424,8.65008 3.394795,12.024 -1.30176,1.75248 -5.795275,9.13463 1.37952,19.86119 -0.6048,1.6488 -0.22176,3.33936 0.79632,4.85208 -1.54584,9.396 -3.53664,32.71968 12.798,40.88304 2.02896,6.82416 25.2,10.95624 48.3696,10.95624 23.16888,0 46.33992,-4.13208 48.37032,-10.95624 16.33392,-8.16336 14.34384,-31.48704 12.79728,-40.88304 1.01808,-1.51272 1.40184,-3.20328 0.7956,-4.85208 7.1748,-10.72656 2.682,-18.10871 1.37952,-19.86119"
       style="fill:#000000;fill-opacity:1;fill-rule:nonzero;stroke:none"
       id="path4006" />
  </g>
</svg>
