  0
SECTION
  2
HEADER
  9
$ACADVER
  1
AC1009
  9
$INSBASE
 10
0.0
 20
0.0
 30
0.0
  9
$EXTMIN
 10
0.0
 20
0.0
 30
0.0
  9
$EXTMAX
 10
0.0
 20
0.0
 30
0.0
  0
ENDSEC
  0
SECTION
  2
TABLES
  0
TABLE
  2
VPORT
 70
0
  0
ENDTAB
  0
TABLE
  2
LTYPE
 70
1
  0
LTYPE
  2
CONTINUOUS
 70
0
  3
Solid line
 72
65
 73
0
 40
0.0
  0
ENDTAB
  0
TABLE
  2
LAYER
 70
1
  0
LAYER
  2
0
 70
64
 62
7
  6
continuous
  0
ENDTAB
  0
TABLE
  2
STYLE
 70
1
  0
STYLE
  2
STANDARD
 70
0
 40
0
 41
1.0
 50
0.0
 71
0
 42
1
 3
ARIAL.TTF
 4

  0
ENDTAB
  0
TABLE
  2
VIEW
 70
0
  0
ENDTAB
  0
ENDSEC
  0
SECTION
  2
BLOCKS
  0
ENDSEC
  0
SECTION
  2
ENTITIES
  0
POLYLINE
  8
0
 62
0
 70
1
 66
1
 10
0.0
 20
0.0
 30
0.0
  0
VERTEX
  8
0
 10
101.147023493
 20
-118.636628631
 30
0.0
  0
VERTEX
  8
0
 10
102.669028395
 20
-120.26139338
 30
0.0
  0
VERTEX
  8
0
 10
103.739905294
 20
-123.020582841
 30
0.0
  0
VERTEX
  8
0
 10
103.382973219
 20
-127.06785305
 30
0.0
  0
VERTEX
  8
0
 10
100.621551197
 20
-132.55686004
 30
0.0
  0
VERTEX
  8
0
 10
99.9223856847
 20
-136.702820877
 30
0.0
  0
VERTEX
  8
0
 10
95.8617415571
 20
-138.606768599
 30
0.0
  0
VERTEX
  8
0
 10
90.6049896622
 20
-137.964780616
 30
0.0
  0
VERTEX
  8
0
 10
86.3175008479
 20
-134.47293434
 30
0.0
  0
VERTEX
  8
0
 10
89.228541216
 20
-138.704903121
 30
0.0
  0
VERTEX
  8
0
 10
93.1768117505
 20
-140.424818092
 30
0.0
  0
VERTEX
  8
0
 10
97.3795736427
 20
-140.157807883
 30
0.0
  0
VERTEX
  8
0
 10
101.054088084
 20
-138.429001123
 30
0.0
  0
VERTEX
  8
0
 10
101.639894011
 20
-142.149852796
 30
0.0
  0
VERTEX
  8
0
 10
101.471159694
 20
-146.880168922
 30
0.0
  0
VERTEX
  8
0
 10
100.533735589
 20
-152.116878038
 30
0.0
  0
VERTEX
  8
0
 10
98.8134721505
 20
-157.356908685
 30
0.0
  0
VERTEX
  8
0
 10
96.2962198353
 20
-162.097189402
 30
0.0
  0
VERTEX
  8
0
 10
92.9678290993
 20
-165.834648726
 30
0.0
  0
VERTEX
  8
0
 10
88.8141503982
 20
-168.066215198
 30
0.0
  0
VERTEX
  8
0
 10
87.9031825951
 20
-169.917733866
 30
0.0
  0
VERTEX
  8
0
 10
85.4092711973
 20
-171.504749867
 30
0.0
  0
VERTEX
  8
0
 10
81.5759482834
 20
-172.827263202
 30
0.0
  0
VERTEX
  8
0
 10
76.6467459319
 20
-173.885273869
 30
0.0
  0
VERTEX
  8
0
 10
70.8651962212
 20
-174.67878187
 30
0.0
  0
VERTEX
  8
0
 10
64.4748312298
 20
-175.207787204
 30
0.0
  0
VERTEX
  8
0
 10
57.7191830362
 20
-175.472289871
 30
0.0
  0
VERTEX
  8
0
 10
50.841783719
 20
-175.472289871
 30
0.0
  0
VERTEX
  8
0
 10
44.0861653565
 20
-175.207787204
 30
0.0
  0
VERTEX
  8
0
 10
37.6958600274
 20
-174.67878187
 30
0.0
  0
VERTEX
  8
0
 10
31.91439981
 20
-173.885273869
 30
0.0
  0
VERTEX
  8
0
 10
26.9853167829
 20
-172.827263202
 30
0.0
  0
VERTEX
  8
0
 10
23.1521430246
 20
-171.504749867
 30
0.0
  0
VERTEX
  8
0
 10
20.6584106136
 20
-169.917733866
 30
0.0
  0
VERTEX
  8
0
 10
19.7476516283
 20
-168.066215198
 30
0.0
  0
VERTEX
  8
0
 10
15.5937358471
 20
-165.834648726
 30
0.0
  0
VERTEX
  8
0
 10
12.2651343731
 20
-162.097189402
 30
0.0
  0
VERTEX
  8
0
 10
9.74772927305
 20
-157.356908685
 30
0.0
  0
VERTEX
  8
0
 10
8.02740261341
 20
-152.116878038
 30
0.0
  0
VERTEX
  8
0
 10
7.09003646078
 20
-146.880168922
 30
0.0
  0
VERTEX
  8
0
 10
6.92151288175
 20
-142.149852796
 30
0.0
  0
VERTEX
  8
0
 10
7.50771394291
 20
-138.429001123
 30
0.0
  0
VERTEX
  8
0
 10
11.1824038478
 20
-140.157807883
 30
0.0
  0
VERTEX
  8
0
 10
15.3850064106
 20
-140.424818092
 30
0.0
  0
VERTEX
  8
0
 10
19.3331095485
 20
-138.704903121
 30
0.0
  0
VERTEX
  8
0
 10
22.2443011786
 20
-134.47293434
 30
0.0
  0
VERTEX
  8
0
 10
17.957030854
 20
-137.964780616
 30
0.0
  0
VERTEX
  8
0
 10
12.7001303861
 20
-138.606768599
 30
0.0
  0
VERTEX
  8
0
 10
8.63902306045
 20
-136.702820877
 30
0.0
  0
VERTEX
  8
0
 10
7.93913216272
 20
-132.55686004
 30
0.0
  0
VERTEX
  8
0
 10
5.17869569698
 20
-127.06785305
 30
0.0
  0
VERTEX
  8
0
 10
4.82220866821
 20
-123.020582841
 30
0.0
  0
VERTEX
  8
0
 10
5.89309497927
 20
-120.26139338
 30
0.0
  0
VERTEX
  8
0
 10
7.41477853303
 20
-118.636628631
 30
0.0
  0
VERTEX
  8
0
 10
11.7192154208
 20
-118.701739889
 30
0.0
  0
VERTEX
  8
0
 10
16.1140061792
 20
-116.052791898
 30
0.0
  0
VERTEX
  8
0
 10
10.7680849636
 20
-117.464051257
 30
0.0
  0
VERTEX
  8
0
 10
5.71484575054
 20
-115.879542116
 30
0.0
  0
VERTEX
  8
0
 10
2.80149275366
 20
-112.469454799
 30
0.0
  0
VERTEX
  8
0
 10
3.87523018649
 20
-108.40397963
 30
0.0
  0
VERTEX
  8
0
 10
3.34310803618
 20
-104.977883396
 30
0.0
  0
VERTEX
  8
0
 10
5.79409780769
 20
-101.53202787
 30
0.0
  0
VERTEX
  8
0
 10
8.29482523374
 20
-99.3072078601
 30
0.0
  0
VERTEX
  8
0
 10
12.1791811612
 20
-99.9101435419
 30
0.0
  0
VERTEX
  8
0
 10
15.8415785026
 20
-98.9660832751
 30
0.0
  0
VERTEX
  8
0
 10
19.5560583967
 20
-96.5484030078
 30
0.0
  0
VERTEX
  8
0
 10
22.8667453287
 20
-93.3020604614
 30
0.0
  0
VERTEX
  8
0
 10
25.7995618561
 20
-90.3239417462
 30
0.0
  0
VERTEX
  8
0
 10
28.8203419401
 20
-88.6288173991
 30
0.0
  0
VERTEX
  8
0
 10
32.2970958954
 20
-91.4871478833
 30
0.0
  0
VERTEX
  8
0
 10
37.1834672997
 20
-92.2753177429
 30
0.0
  0
VERTEX
  8
0
 10
42.648018802
 20
-91.6487213253
 30
0.0
  0
VERTEX
  8
0
 10
47.8593130515
 20
-90.262752978
 30
0.0
  0
VERTEX
  8
0
 10
51.9859126972
 20
-88.7728070485
 30
0.0
  0
VERTEX
  8
0
 10
56.1893468652
 20
-88.6633583931
 30
0.0
  0
VERTEX
  8
0
 10
59.4349455459
 20
-89.8866723165
 30
0.0
  0
VERTEX
  8
0
 10
63.6462645632
 20
-91.1636590685
 30
0.0
  0
VERTEX
  8
0
 10
68.3029397214
 20
-92.0853423706
 30
0.0
  0
VERTEX
  8
0
 10
72.884606825
 20
-92.2427459444
 30
0.0
  0
VERTEX
  8
0
 10
76.8709016786
 20
-91.2268935117
 30
0.0
  0
VERTEX
  8
0
 10
79.7414600864
 20
-88.628808794
 30
0.0
  0
VERTEX
  8
0
 10
82.7624760147
 20
-90.3239352127
 30
0.0
  0
VERTEX
  8
0
 10
85.694878221
 20
-93.3020540872
 30
0.0
  0
VERTEX
  8
0
 10
89.0046249628
 20
-96.5483987053
 30
0.0
  0
VERTEX
  8
0
 10
92.7190887223
 20
-98.9660800482
 30
0.0
  0
VERTEX
  8
0
 10
96.3815021984
 20
-99.9101349368
 30
0.0
  0
VERTEX
  8
0
 10
100.266417459
 20
-99.3072035576
 30
0.0
  0
VERTEX
  8
0
 10
102.76750662
 20
-101.532021496
 30
0.0
  0
VERTEX
  8
0
 10
105.21836094
 20
-104.977876862
 30
0.0
  0
VERTEX
  8
0
 10
104.685453173
 20
-108.403971025
 30
0.0
  0
VERTEX
  8
0
 10
105.759426575
 20
-112.469448681
 30
0.0
  0
VERTEX
  8
0
 10
102.846047359
 20
-115.879537275
 30
0.0
  0
VERTEX
  8
0
 10
97.7926770522
 20
-117.464046887
 30
0.0
  0
VERTEX
  8
0
 10
92.4466771803
 20
-116.052787596
 30
0.0
  0
VERTEX
  8
0
 10
96.8422370223
 20
-118.701731822
 30
0.0
  0
SEQEND
  8
0
  0
POLYLINE
  8
0
 62
0
 70
1
 66
1
 10
0.0
 20
0.0
 30
0.0
  0
VERTEX
  8
0
 10
3.12486280308
 20
-87.0896521193
 30
0.0
  0
VERTEX
  8
0
 10
4.15115369737
 20
-85.3037992596
 30
0.0
  0
VERTEX
  8
0
 10
5.98773236743
 20
-83.161886336
 30
0.0
  0
VERTEX
  8
0
 10
8.76576968651
 20
-81.1959005257
 30
0.0
  0
VERTEX
  8
0
 10
12.5991115317
 20
-80.0185280797
 30
0.0
  0
VERTEX
  8
0
 10
8.92148111724
 20
-79.3787292934
 30
0.0
  0
VERTEX
  8
0
 10
5.51896628752
 20
-80.7772641119
 30
0.0
  0
VERTEX
  8
0
 10
3.02732364837
 20
-82.7044732917
 30
0.0
  0
VERTEX
  8
0
 10
2.93574593687
 20
-80.1225105649
 30
0.0
  0
VERTEX
  8
0
 10
4.31581765096
 20
-76.9004523343
 30
0.0
  0
VERTEX
  8
0
 10
8.00969423317
 20
-73.1344236447
 30
0.0
  0
VERTEX
  8
0
 10
7.67977352813
 20
-69.8106919722
 30
0.0
  0
VERTEX
  8
0
 10
9.54028880298
 20
-67.7803114204
 30
0.0
  0
VERTEX
  8
0
 10
11.6491051197
 20
-64.1030508672
 30
0.0
  0
VERTEX
  8
0
 10
14.7596514057
 20
-67.1603013444
 30
0.0
  0
VERTEX
  8
0
 10
18.4790617707
 20
-70.2863389495
 30
0.0
  0
VERTEX
  8
0
 10
22.1258663467
 20
-73.5744754323
 30
0.0
  0
VERTEX
  8
0
 10
25.0185952659
 20
-77.1180225427
 30
0.0
  0
VERTEX
  8
0
 10
23.8680733768
 20
-74.4727429467
 30
0.0
  0
VERTEX
  8
0
 10
20.8006917302
 20
-70.1473584622
 30
0.0
  0
VERTEX
  8
0
 10
18.1344908309
 20
-66.819402308
 30
0.0
  0
VERTEX
  8
0
 10
15.7001155347
 20
-64.2717834938
 30
0.0
  0
VERTEX
  8
0
 10
13.3121756742
 20
-61.9689784924
 30
0.0
  0
VERTEX
  8
0
 10
11.2263834599
 20
-58.5672262525
 30
0.0
  0
VERTEX
  8
0
 10
12.9823410205
 20
-53.8204921086
 30
0.0
  0
VERTEX
  8
0
 10
13.4074344693
 20
-50.5711948153
 30
0.0
  0
VERTEX
  8
0
 10
14.905111317
 20
-51.9658917252
 30
0.0
  0
VERTEX
  8
0
 10
18.5791000274
 20
-55.1841883128
 30
0.0
  0
VERTEX
  8
0
 10
23.2008378521
 20
-58.7773933657
 30
0.0
  0
VERTEX
  8
0
 10
27.5417620423
 20
-61.2968156712
 30
0.0
  0
VERTEX
  8
0
 10
30.3733098493
 20
-61.2937640165
 30
0.0
  0
VERTEX
  8
0
 10
30.6786684139
 20
-59.8682528915
 30
0.0
  0
VERTEX
  8
0
 10
28.6592187874
 20
-58.6842643749
 30
0.0
  0
VERTEX
  8
0
 10
24.9476879576
 20
-57.1039445419
 30
0.0
  0
VERTEX
  8
0
 10
20.1768029125
 20
-54.4894394679
 30
0.0
  0
VERTEX
  8
0
 10
14.9792906401
 20
-50.2028952281
 30
0.0
  0
VERTEX
  8
0
 10
13.9521344521
 20
-47.1898548415
 30
0.0
  0
VERTEX
  8
0
 10
13.9632016061
 20
-42.3029838162
 30
0.0
  0
VERTEX
  8
0
 10
14.6327835459
 20
-36.6222099008
 30
0.0
  0
VERTEX
  8
0
 10
15.5811717153
 20
-31.2274608438
 30
0.0
  0
VERTEX
  8
0
 10
16.4286575582
 20
-27.198664394
 30
0.0
  0
VERTEX
  8
0
 10
16.7955325183
 20
-25.6157483
 30
0.0
  0
VERTEX
  8
0
 10
17.0106715383
 20
-23.029620451
 30
0.0
  0
VERTEX
  8
0
 10
19.3770716814
 20
-17.2165686481
 30
0.0
  0
VERTEX
  8
0
 10
21.9334391167
 20
-14.7055132488
 30
0.0
  0
VERTEX
  8
0
 10
25.6425877021
 20
-12.3028959183
 30
0.0
  0
VERTEX
  8
0
 10
29.727690999
 20
-9.95992246862
 30
0.0
  0
VERTEX
  8
0
 10
33.4119225684
 20
-7.62779871175
 30
0.0
  0
VERTEX
  8
0
 10
35.9184559717
 20
-5.25773045964
 30
0.0
  0
VERTEX
  8
0
 10
38.3407733287
 20
-3.98528341952
 30
0.0
  0
VERTEX
  8
0
 10
42.9507837803
 20
-2.97206526476
 30
0.0
  0
VERTEX
  8
0
 10
48.6169664419
 20
-2.28734716177
 30
0.0
  0
VERTEX
  8
0
 10
54.2078004293
 20
-2.00040027697
 30
0.0
  0
VERTEX
  8
0
 10
59.799027698
 20
-2.28734716177
 30
0.0
  0
VERTEX
  8
0
 10
65.4654463285
 20
-2.97206526476
 30
0.0
  0
VERTEX
  8
0
 10
70.0753781238
 20
-3.98528341952
 30
0.0
  0
VERTEX
  8
0
 10
72.4971448869
 20
-5.25773045964
 30
0.0
  0
VERTEX
  8
0
 10
75.0039302484
 20
-7.62779871175
 30
0.0
  0
VERTEX
  8
0
 10
78.6883146449
 20
-9.95992246862
 30
0.0
  0
VERTEX
  8
0
 10
82.7734964206
 20
-12.3028959183
 30
0.0
  0
VERTEX
  8
0
 10
86.4826739193
 20
-14.7055132488
 30
0.0
  0
VERTEX
  8
0
 10
89.039045485
 20
-17.2165686481
 30
0.0
  0
VERTEX
  8
0
 10
91.4054617627
 20
-23.029620451
 30
0.0
  0
VERTEX
  8
0
 10
91.6205846481
 20
-25.6157483
 30
0.0
  0
VERTEX
  8
0
 10
91.9875014387
 20
-27.198664394
 30
0.0
  0
VERTEX
  8
0
 10
92.8350793086
 20
-31.2274608438
 30
0.0
  0
VERTEX
  8
0
 10
93.7835595051
 20
-36.6222099008
 30
0.0
  0
VERTEX
  8
0
 10
94.4531832754
 20
-42.3029838162
 30
0.0
  0
VERTEX
  8
0
 10
94.4641918668
 20
-47.1898548415
 30
0.0
  0
VERTEX
  8
0
 10
93.4368265263
 20
-50.2028952281
 30
0.0
  0
VERTEX
  8
0
 10
88.2393892906
 20
-54.4894394679
 30
0.0
  0
VERTEX
  8
0
 10
83.4686474349
 20
-57.1039445419
 30
0.0
  0
VERTEX
  8
0
 10
79.757282512
 20
-58.6842643749
 30
0.0
  0
VERTEX
  8
0
 10
77.7379760749
 20
-59.8682528915
 30
0.0
  0
VERTEX
  8
0
 10
78.0434096762
 20
-61.2937640165
 30
0.0
  0
VERTEX
  8
0
 10
80.8747261774
 20
-61.2968156712
 30
0.0
  0
VERTEX
  8
0
 10
85.2156214543
 20
-58.7773933657
 30
0.0
  0
VERTEX
  8
0
 10
89.8374460187
 20
-55.1841883128
 30
0.0
  0
VERTEX
  8
0
 10
93.5115503821
 20
-51.9658917252
 30
0.0
  0
VERTEX
  8
0
 10
95.0092850562
 20
-50.5711948153
 30
0.0
  0
VERTEX
  8
0
 10
95.4338191716
 20
-53.8204921086
 30
0.0
  0
VERTEX
  8
0
 10
97.1892496679
 20
-58.5672262525
 30
0.0
  0
VERTEX
  8
0
 10
95.1033821587
 20
-61.9689784924
 30
0.0
  0
VERTEX
  8
0
 10
92.7160177663
 20
-64.2717834938
 30
0.0
  0
VERTEX
  8
0
 10
90.282185669
 20
-66.819402308
 30
0.0
  0
VERTEX
  8
0
 10
87.6154875843
 20
-70.1473584622
 30
0.0
  0
VERTEX
  8
0
 10
84.5479816415
 20
-74.4727429467
 30
0.0
  0
VERTEX
  8
0
 10
83.398081234
 20
-77.1180225427
 30
0.0
  0
VERTEX
  8
0
 10
86.2904867885
 20
-73.5744754323
 30
0.0
  0
VERTEX
  8
0
 10
89.9371253124
 20
-70.2863389495
 30
0.0
  0
VERTEX
  8
0
 10
93.6564745003
 20
-67.1603013444
 30
0.0
  0
VERTEX
  8
0
 10
96.7670120467
 20
-64.1030508672
 30
0.0
  0
VERTEX
  8
0
 10
98.8758713891
 20
-67.7803114204
 30
0.0
  0
VERTEX
  8
0
 10
100.73642969
 20
-69.8106919722
 30
0.0
  0
VERTEX
  8
0
 10
100.405261241
 20
-73.1344236447
 30
0.0
  0
VERTEX
  8
0
 10
104.099313113
 20
-76.9004523343
 30
0.0
  0
VERTEX
  8
0
 10
105.47966529
 20
-80.1225105649
 30
0.0
  0
VERTEX
  8
0
 10
105.388234185
 20
-82.7044732917
 30
0.0
  0
VERTEX
  8
0
 10
102.896934157
 20
-80.7772641119
 30
0.0
  0
VERTEX
  8
0
 10
99.4938918647
 20
-79.3787292934
 30
0.0
  0
VERTEX
  8
0
 10
95.8158869677
 20
-80.0185280797
 30
0.0
  0
VERTEX
  8
0
 10
99.6497467143
 20
-81.1959005257
 30
0.0
  0
VERTEX
  8
0
 10
102.427680453
 20
-83.161886336
 30
0.0
  0
VERTEX
  8
0
 10
104.264404136
 20
-85.3037992596
 30
0.0
  0
VERTEX
  8
0
 10
105.292416056
 20
-87.0896521193
 30
0.0
  0
VERTEX
  8
0
 10
104.916468659
 20
-90.5280192569
 30
0.0
  0
VERTEX
  8
0
 10
103.160849925
 20
-94.3702363306
 30
0.0
  0
VERTEX
  8
0
 10
100.102312242
 20
-97.3886205257
 30
0.0
  0
VERTEX
  8
0
 10
95.8176079938
 20
-98.3554890271
 30
0.0
  0
VERTEX
  8
0
 10
92.2007879844
 20
-96.968915395
 30
0.0
  0
VERTEX
  8
0
 10
88.3892104649
 20
-94.5154430509
 30
0.0
  0
VERTEX
  8
0
 10
84.9216777675
 20
-91.2806251289
 30
0.0
  0
VERTEX
  8
0
 10
82.3369922244
 20
-87.5500147627
 30
0.0
  0
VERTEX
  8
0
 10
81.173956168
 20
-83.6091650862
 30
0.0
  0
VERTEX
  8
0
 10
79.6819560071
 20
-86.0445857066
 30
0.0
  0
VERTEX
  8
0
 10
77.4073216135
 20
-88.2368320307
 30
0.0
  0
VERTEX
  8
0
 10
74.1368847812
 20
-89.6958578891
 30
0.0
  0
VERTEX
  8
0
 10
69.6574773041
 20
-89.9316171125
 30
0.0
  0
VERTEX
  8
0
 10
63.7559309762
 20
-88.4540635316
 30
0.0
  0
VERTEX
  8
0
 10
56.2190775913
 20
-84.7731509769
 30
0.0
  0
VERTEX
  8
0
 10
55.399648657
 20
-82.2025123629
 30
0.0
  0
VERTEX
  8
0
 10
54.9128187747
 20
-77.1742484657
 30
0.0
  0
VERTEX
  8
0
 10
55.3828094922
 20
-72.3397409146
 30
0.0
  0
VERTEX
  8
0
 10
56.19098184
 20
-69.9516741284
 30
0.0
  0
VERTEX
  8
0
 10
60.7178478072
 20
-69.7085876364
 30
0.0
  0
VERTEX
  8
0
 10
65.4137663446
 20
-70.438964186
 30
0.0
  0
VERTEX
  8
0
 10
68.1262979042
 20
-72.1792541543
 30
0.0
  0
VERTEX
  8
0
 10
69.9924638814
 20
-76.2820970553
 30
0.0
  0
VERTEX
  8
0
 10
72.4391893327
 20
-80.705686636
 30
0.0
  0
VERTEX
  8
0
 10
74.2858503474
 20
-81.6012998585
 30
0.0
  0
VERTEX
  8
0
 10
73.4771162757
 20
-78.3823439368
 30
0.0
  0
VERTEX
  8
0
 10
70.7474589128
 20
-74.1116498375
 30
0.0
  0
VERTEX
  8
0
 10
69.0957949369
 20
-70.4146301517
 30
0.0
  0
VERTEX
  8
0
 10
72.076762747
 20
-67.3669795715
 30
0.0
  0
VERTEX
  8
0
 10
74.2858503474
 20
-65.3949692337
 30
0.0
  0
VERTEX
  8
0
 10
71.7510424213
 20
-66.0062933043
 30
0.0
  0
VERTEX
  8
0
 10
65.9428751057
 20
-68.693604043
 30
0.0
  0
VERTEX
  8
0
 10
61.2677060877
 20
-69.0896518298
 30
0.0
  0
VERTEX
  8
0
 10
57.606527408
 20
-68.4363842614
 30
0.0
  0
VERTEX
  8
0
 10
54.2094784297
 20
-67.9179935091
 30
0.0
  0
VERTEX
  8
0
 10
50.8120342529
 20
-68.4363842614
 30
0.0
  0
VERTEX
  8
0
 10
47.1501830982
 20
-69.0896518298
 30
0.0
  0
VERTEX
  8
0
 10
42.4749630868
 20
-68.693604043
 30
0.0
  0
VERTEX
  8
0
 10
36.6669248482
 20
-66.0062933043
 30
0.0
  0
VERTEX
  8
0
 10
34.1331495378
 20
-65.3949692337
 30
0.0
  0
VERTEX
  8
0
 10
36.3412045225
 20
-67.3669795715
 30
0.0
  0
VERTEX
  8
0
 10
39.3220432556
 20
-70.4146301517
 30
0.0
  0
VERTEX
  8
0
 10
37.6707951943
 20
-74.1116498375
 30
0.0
  0
VERTEX
  8
0
 10
34.941439011
 20
-78.3823439368
 30
0.0
  0
VERTEX
  8
0
 10
34.1331495378
 20
-81.6012998585
 30
0.0
  0
VERTEX
  8
0
 10
35.9788894848
 20
-80.705686636
 30
0.0
  0
VERTEX
  8
0
 10
38.4257073615
 20
-76.2820970553
 30
0.0
  0
VERTEX
  8
0
 10
40.2920996218
 20
-72.1792541543
 30
0.0
  0
VERTEX
  8
0
 10
42.8791620039
 20
-70.4773931055
 30
0.0
  0
VERTEX
  8
0
 10
47.3919761116
 20
-69.7246464035
 30
0.0
  0
VERTEX
  8
0
 10
51.8717656406
 20
-69.8879961624
 30
0.0
  0
VERTEX
  8
0
 10
52.7052263158
 20
-72.3729421974
 30
0.0
  0
VERTEX
  8
0
 10
53.216446365
 20
-77.0956535058
 30
0.0
  0
VERTEX
  8
0
 10
52.6228429473
 20
-82.3571169787
 30
0.0
  0
VERTEX
  8
0
 10
51.7633409957
 20
-85.0232720039
 30
0.0
  0
VERTEX
  8
0
 10
44.3750561856
 20
-88.5562625039
 30
0.0
  0
VERTEX
  8
0
 10
38.5840497312
 20
-89.9456833139
 30
0.0
  0
VERTEX
  8
0
 10
34.1829033269
 20
-89.6686092054
 30
0.0
  0
VERTEX
  8
0
 10
30.9641986671
 20
-88.2021149502
 30
0.0
  0
VERTEX
  8
0
 10
28.720517446
 20
-86.0232753199
 30
0.0
  0
VERTEX
  8
0
 10
27.244441358
 20
-83.6091650862
 30
0.0
  0
VERTEX
  8
0
 10
26.0812352642
 20
-87.5500147627
 30
0.0
  0
VERTEX
  8
0
 10
23.4965676198
 20
-91.2806251289
 30
0.0
  0
VERTEX
  8
0
 10
20.0290259731
 20
-94.5154430509
 30
0.0
  0
VERTEX
  8
0
 10
16.2171978721
 20
-96.968915395
 30
0.0
  0
VERTEX
  8
0
 10
12.5996708652
 20
-98.3554890271
 30
0.0
  0
VERTEX
  8
0
 10
8.31521065354
 20
-97.3886205257
 30
0.0
  0
VERTEX
  8
0
 10
5.25725179926
 20
-94.3702363306
 30
0.0
  0
VERTEX
  8
0
 10
3.50221996252
 20
-90.5280192569
 30
0.0
  0
SEQEND
  8
0
  0
ENDSEC
  0
EOF
