<?xml version="1.0" encoding="UTF-8" standalone="no"?>
<svg
   xmlns:dc="http://purl.org/dc/elements/1.1/"
   xmlns:cc="http://creativecommons.org/ns#"
   xmlns:rdf="http://www.w3.org/1999/02/22-rdf-syntax-ns#"
   xmlns:svg="http://www.w3.org/2000/svg"
   xmlns="http://www.w3.org/2000/svg"
   version="1.1"
   id="svg5663"
   viewBox="0 0 216.54219 369.0552"
   height="104.15558mm"
   width="61.113018mm">
  <defs
     id="defs5665" />
  <metadata
     id="metadata5668">
    <rdf:RDF>
      <cc:Work
         rdf:about="">
        <dc:format>image/svg+xml</dc:format>
        <dc:type
           rdf:resource="http://purl.org/dc/dcmitype/StillImage" />
        <dc:title></dc:title>
      </cc:Work>
    </rdf:RDF>
  </metadata>
  <g
     transform="translate(-60.300336,195.02254)"
     id="layer1">
    <g
       transform="matrix(1.3333333,0,0,-1.3333333,168.0626,-101.38039)"
       id="g3916"
       style="fill:#000000;fill-opacity:1">
      <path
         id="path3918"
         style="fill:#000000;fill-opacity:1;fill-rule:nonzero;stroke:none"
         d="m 0,0 c -10.781,0 -19.521,8.74 -19.521,19.522 0,10.782 8.74,19.523 19.521,19.523 10.783,0 19.523,-8.741 19.523,-19.523 C 19.523,8.74 10.783,0 0,0 m 0,41.272 c -12.012,0 -21.75,-9.737 -21.75,-21.75 0,-12.012 9.738,-21.75 21.75,-21.75 12.014,0 21.75,9.738 21.75,21.75 0,12.013 -9.736,21.75 -21.75,21.75" />
    </g>
    <path
       id="path3922"
       d="m 167.94538,-147.47848 c -2.148,0 -3.88672,1.09837 -3.88672,4.37304 0,0.8 0.10107,1.65681 0.28907,2.49413 -0.25467,-0.81865 -0.59148,-1.61268 -0.99413,-2.30468 -1.64267,-2.83333 -3.70055,-2.91008 -5.56055,-1.83008 -1.85334,1.07734 -2.80736,2.90238 -1.16603,5.73438 0.28935,0.5 0.64307,0.99604 1.03907,1.47072 -0.47867,-0.392 -0.97399,-0.74646 -1.47266,-1.03712 -2.83466,-1.64267 -4.65704,-0.69132 -5.73437,1.16601 -1.07867,1.85735 -1.00325,3.91655 1.83007,5.56055 0.69734,0.40668 1.50084,0.74524 2.32618,1.00392 -0.84534,-0.19068 -1.71154,-0.29688 -2.51954,-0.29688 -3.276,0 -4.37108,1.74066 -4.37108,3.88866 0,2.14667 1.09508,3.88867 4.37108,3.88867 0.8,0 1.64909,-0.10493 2.48244,-0.29296 -0.81335,0.25733 -1.60364,0.59219 -2.29298,0.99219 -2.83066,1.644 -2.9067,3.70125 -1.83202,5.55859 1.07865,1.85866 2.90369,2.81392 5.73436,1.16992 0.50268,-0.28933 0.99728,-0.64449 1.47461,-1.03516 -0.39467,0.47334 -0.7484,0.97071 -1.03905,1.47071 -1.644,2.83065 -0.68938,4.65632 1.16796,5.73632 1.85866,1.07733 3.91397,0.99997 5.55664,-1.83203 0.408,-0.7 0.74852,-1.50012 1.00587,-2.32812 -0.18935,0.84532 -0.29494,1.71152 -0.29494,2.51952 0,3.27468 1.73872,4.375 3.88672,4.375 2.148,0 3.88868,-1.10032 3.88868,-4.375 0,-0.796 -0.1044,-1.64846 -0.29101,-2.48046 0.256,0.81333 0.59289,1.60497 0.99023,2.29297 1.64533,2.832 3.70188,2.91008 5.56054,1.83008 1.85734,-1.076 2.80868,-2.90371 1.16603,-5.73439 -0.28935,-0.50132 -0.64316,-0.99798 -1.03516,-1.47264 0.47332,0.392 0.97132,0.74839 1.47265,1.03906 2.83067,1.644 4.65375,0.68802 5.73243,-1.16798 1.08267,-1.86 1.00787,-3.91458 -1.82813,-5.55858 -0.69734,-0.40667 -1.49694,-0.7472 -2.32227,-1.00585 0.844,0.19065 1.70435,0.29881 2.51368,0.29881 3.27467,0 4.375,-1.742 4.375,-3.88867 0,-2.148 -1.10033,-3.88866 -4.375,-3.88866 -0.79733,0 -1.65033,0.1044 -2.48633,0.29101 0.816,-0.25733 1.60816,-0.59024 2.29882,-0.99024 2.83334,-1.644 2.90936,-3.70321 1.83203,-5.56053 -1.07867,-1.85735 -2.90432,-2.81198 -5.73632,-1.16798 -0.5,0.29066 -0.99728,0.64315 -1.47461,1.03515 0.396,-0.476 0.74769,-0.97203 1.04101,-1.47069 1.64133,-2.83202 0.68936,-4.65634 -1.16796,-5.73634 -1.85733,-1.07733 -3.91656,-1.00254 -5.56056,1.82812 -0.404,0.69867 -0.74595,1.50146 -1.00195,2.32812 0.192,-0.84532 0.29688,-1.70957 0.29688,-2.51757 0,-3.27467 -1.74068,-4.37304 -3.88868,-4.37304 z m -0.2832,8.50976 a 11.715561,11.715561 0 0 1 0.82227,0.009 11.715561,11.715561 0 0 1 11.16407,12.23242 11.715561,11.715561 0 0 1 -12.22656,11.17383 l -0.0293,-10e-4 a 11.715561,11.715561 0 0 1 -11.15043,-12.24804 11.715561,11.715561 0 0 1 11.41993,-11.16602 z"
       style="fill:#000000;fill-opacity:1;fill-rule:nonzero;stroke:none;stroke-width:0.99999994" />
    <g
       transform="matrix(1.3333333,0,0,-1.3333333,209.349,-181.98332)"
       id="g3924"
       style="fill:#000000;fill-opacity:1">
      <path
         id="path3926"
         style="fill:#000000;fill-opacity:1;fill-rule:nonzero;stroke:none"
         d="m 0,0 c -3.668,3.168 -14.326,-14.776 -17.334,-15.087 -2.896,-0.3 -6.096,6.666 -13.211,7.191 l 0,0.051 c -0.144,0 -0.277,-0.021 -0.42,-0.026 -0.142,0.005 -0.275,0.026 -0.42,0.026 l 0,-0.051 c -7.113,-0.525 -10.314,-7.491 -13.211,-7.191 -3.008,0.311 -13.666,18.255 -17.334,15.087 -3.578,-3.093 8.03,-5.661 15.791,-17.61 -0.566,-2.068 -2.465,-5.55 -3.345,-7.492 3.957,5.498 10.804,13.137 18.595,13.137 7.789,0 14.637,-7.639 18.594,-13.136 -0.898,1.982 -2.912,5.757 -3.43,7.594 C -7.963,-5.634 3.568,-3.084 0,0" />
    </g>
    <g
       transform="matrix(1.3333333,0,0,-1.3333333,134.77873,102.98481)"
       id="g3928"
       style="fill:#000000;fill-opacity:1">
      <path
         id="path3930"
         style="fill:#000000;fill-opacity:1;fill-rule:nonzero;stroke:none"
         d="m 0,0 c 4.174,3.829 9.908,6.194 16.242,6.194 l 17.703,0 C 40.277,6.194 46.012,3.829 50.188,0 46.654,6.255 40.207,10.442 32.836,10.442 l -15.484,0 C 9.979,10.442 3.531,6.255 0,0" />
    </g>
    <g
       transform="matrix(1.3333333,0,0,-1.3333333,100.95059,-133.93119)"
       id="g3932"
       style="fill:#000000;fill-opacity:1">
      <path
         id="path3934"
         style="fill:#000000;fill-opacity:1;fill-rule:nonzero;stroke:none"
         d="m 0,0 c 0.512,4.672 2.834,9.333 3,16.833 0.168,7.5 6.982,21.528 12.186,24.527 5.203,2.999 8.982,-0.527 14.947,-1.527 4.58,-0.768 14.908,-1.143 19.465,-1.275 l 0,-0.059 c 0,0 0.41,0.009 1.117,0.027 0.707,-0.018 1.119,-0.027 1.119,-0.027 l 0,0.059 c 4.557,0.132 14.885,0.507 19.463,1.275 5.967,1 9.746,4.526 14.947,1.527 5.203,-2.999 12.02,-17.027 12.186,-24.527 0.166,-7.5 2.488,-12.161 3,-16.833 0.511,-4.672 -1.666,-21.333 -18.834,-30.333 -3.578,-2.842 -8.09,-2.482 -10.932,-1.831 0.672,3.185 -1.006,12.402 0.768,12.722 2.166,0.391 5.834,-11.561 9.166,-8.558 3.332,3.002 -9.352,9.827 -7.686,14.361 0.842,1.222 11.852,-9.028 13.352,-6.028 1.5,3 -11.061,5.912 -16.352,13.694 2.651,-12.755 -4.818,-24.511 -8.01,-29.341 -3.019,-1.468 -7.125,-2.81 -12.187,-2.981 -5.063,0.171 -9.168,1.513 -12.186,2.981 -3.193,4.83 -10.66,16.586 -8.011,29.341 -5.291,-7.782 -17.85,-10.694 -16.35,-13.694 1.5,-3 12.508,7.25 13.352,6.028 1.666,-4.534 -11.018,-11.359 -7.686,-14.361 3.332,-3.003 7,8.949 9.166,8.558 1.773,-0.32 0.096,-9.537 0.768,-12.722 -2.844,-0.651 -7.356,-1.011 -10.934,1.831 C 1.668,-21.333 -0.51,-4.672 0,0 m 19.834,-32 c 7.02,-6.306 14,-2.5 14,-2.5 0,0 6.525,-7.946 16.713,-8.122 l 0,-0.016 c 0.058,0 0.111,0.008 0.168,0.008 0.056,0 0.111,-0.008 0.168,-0.008 l 0,0.016 c 10.187,0.176 16.715,8.122 16.715,8.122 0,0 6.98,-3.806 14,2.5 22.334,7.333 26.648,22.36 26.316,29.027 -0.334,6.666 -6.65,10.806 -6.65,19.806 0,9 -7.5,25 -13.166,28 -5.666,3 -11.934,-1.666 -16.801,-3.166 -3.057,-0.943 -14.721,-0.797 -20.582,-1.025 -5.86,0.228 -17.524,0.082 -20.582,1.025 -4.865,1.5 -11.133,6.166 -16.799,3.166 -5.666,-3 -13.166,-19 -13.166,-28 0,-9 -6.316,-13.14 -6.65,-19.806 C -6.816,-9.64 -2.5,-24.667 19.834,-32" />
    </g>
    <g
       transform="matrix(1.3333333,0,0,-1.3333333,69.580731,-8.9305238)"
       id="g3936"
       style="fill:#000000;fill-opacity:1">
      <path
         id="path3938"
         style="fill:#000000;fill-opacity:1;fill-rule:nonzero;stroke:none"
         d="M 0,0 C 3.742,0.565 4.547,11.744 13.059,13.737 12.865,16.951 3.949,14.315 -2.5,3.202 -3.154,0.898 -1.104,0.485 0,0" />
    </g>
    <g
       transform="matrix(1.3333333,0,0,-1.3333333,71.059931,-5.1929238)"
       id="g3940"
       style="fill:#000000;fill-opacity:1">
      <path
         id="path3942"
         style="fill:#000000;fill-opacity:1;fill-rule:nonzero;stroke:none"
         d="M 0,0 C -0.572,-2.139 1.443,-2.585 2.535,-3.074 6.17,-2.65 6.637,7.809 14.893,9.434 14.611,12.452 5.98,10.238 0,0" />
    </g>
    <g
       transform="matrix(1.3333333,0,0,-1.3333333,125.29433,90.663206)"
       id="g3944"
       style="fill:#000000;fill-opacity:1">
      <path
         id="path3946"
         style="fill:#000000;fill-opacity:1;fill-rule:nonzero;stroke:none"
         d="m 0,0 c -1.506,2.596 -7.498,-2.756 -8.932,-13.879 -2.845,0.676 -9.332,-0.223 -16.472,-17.647 -6.996,-8.708 1.775,-14.875 -9.668,-23 14,-0.667 5.599,15.079 16,20.333 1.33,14.368 7.15,18.241 10.035,19.283 -0.049,-0.492 -0.106,-0.977 -0.137,-1.49 0.451,-2.351 2.469,-1.799 3.672,-1.737 C -2.412,-15.951 -6.711,-5.602 0,0" />
    </g>
    <g
       transform="matrix(1.3333333,0,0,-1.3333333,88.950591,-111.87132)"
       id="g3948"
       style="fill:#000000;fill-opacity:1">
      <path
         id="path3950"
         style="fill:#000000;fill-opacity:1;fill-rule:nonzero;stroke:none"
         d="M 0,0 C -5.961,4.755 1,41.119 8.904,48.707 2.668,48.726 -10.146,6.496 -5.18,-1.346 -0.215,-9.188 15,-16.626 19.326,-15.418 0.68,-7.454 5.961,-4.755 0,0" />
    </g>
    <g
       transform="matrix(1.3333333,0,0,-1.3333333,81.213661,22.974406)"
       id="g3956"
       style="fill:#000000;fill-opacity:1">
      <path
         id="path3958"
         style="fill:#000000;fill-opacity:1;fill-rule:nonzero;stroke:none"
         d="m 0,0 c -0.193,3.213 -9.109,0.578 -15.559,-10.535 -0.654,-2.305 1.397,-2.718 2.5,-3.203 C -9.316,-13.173 -8.512,-1.994 0,0" />
    </g>
    <g
       transform="matrix(1.3333333,0,0,-1.3333333,65.281261,45.029076)"
       id="g3960"
       style="fill:#000000;fill-opacity:1">
      <path
         id="path3962"
         style="fill:#000000;fill-opacity:1;fill-rule:nonzero;stroke:none"
         d="M 0,0 C -0.572,-2.14 1.443,-2.585 2.535,-3.073 6.17,-2.649 6.637,7.809 14.893,9.434 14.611,12.451 5.98,10.238 0,0" />
    </g>
    <g
       transform="matrix(1.3333333,0,0,-1.3333333,80.640731,69.449736)"
       id="g3964"
       style="fill:#000000;fill-opacity:1">
      <path
         id="path3966"
         style="fill:#000000;fill-opacity:1;fill-rule:nonzero;stroke:none"
         d="m 0,0 c -1.502,2.848 -8.537,-3.232 -9.824,-16.018 0.353,-2.369 2.392,-1.898 3.597,-1.884 C -3.051,-15.844 -6.932,-5.328 0,0" />
    </g>
    <g
       transform="matrix(1.3333333,0,0,-1.3333333,75.229261,96.113736)"
       id="g3968"
       style="fill:#000000;fill-opacity:1">
      <path
         id="path3970"
         style="fill:#000000;fill-opacity:1;fill-rule:nonzero;stroke:none"
         d="M 0,0 C 0.361,-2.186 2.381,-1.76 3.576,-1.754 6.715,0.133 2.824,9.852 9.672,14.738 8.172,17.371 1.223,11.793 0,0" />
    </g>
    <g
       transform="matrix(1.3333333,0,0,-1.3333333,267.55993,-8.9305238)"
       id="g3972"
       style="fill:#000000;fill-opacity:1">
      <path
         id="path3974"
         style="fill:#000000;fill-opacity:1;fill-rule:nonzero;stroke:none"
         d="M 0,0 C 1.104,0.485 3.156,0.898 2.502,3.202 -3.947,14.315 -12.865,16.951 -13.059,13.737 -4.545,11.744 -3.74,0.565 0,0" />
    </g>
    <g
       transform="matrix(1.3333333,0,0,-1.3333333,262.70313,-1.0946638)"
       id="g3976"
       style="fill:#000000;fill-opacity:1">
      <path
         id="path3978"
         style="fill:#000000;fill-opacity:1;fill-rule:nonzero;stroke:none"
         d="M 0,0 C 1.092,0.488 3.105,0.935 2.535,3.074 -3.445,13.312 -12.078,15.525 -12.359,12.508 -4.104,10.882 -3.637,0.424 0,0" />
    </g>
    <g
       transform="matrix(1.3333333,0,0,-1.3333333,223.75527,109.16841)"
       id="g3980"
       style="fill:#000000;fill-opacity:1">
      <path
         id="path3982"
         style="fill:#000000;fill-opacity:1;fill-rule:nonzero;stroke:none"
         d="m 0,0 c -1.434,11.123 -7.426,16.475 -8.932,13.879 6.713,-5.602 2.412,-15.951 5.502,-18.137 1.205,-0.062 3.223,-0.614 3.672,1.737 -0.031,0.513 -0.086,0.998 -0.135,1.49 2.883,-1.042 8.704,-4.915 10.034,-19.283 10.402,-5.254 2,-21 16,-20.333 -11.444,8.125 -2.67,14.292 -9.666,23 C 9.332,-0.223 2.848,0.676 0,0" />
    </g>
    <g
       transform="matrix(1.3333333,0,0,-1.3333333,204.38034,96.991336)"
       id="g3984"
       style="fill:#000000;fill-opacity:1">
      <path
         id="path3986"
         style="fill:#000000;fill-opacity:1;fill-rule:nonzero;stroke:none"
         d="m 0,0 c 3.947,-2.986 3.332,-7.748 3.527,-10.881 -2.81,-0.563 -4.94,-1.914 -6.56,-3.669 -3.676,5.348 -9.616,8.83 -16.332,8.83 l -15.485,0 c -6.589,0 -12.433,-3.351 -16.124,-8.528 -1.582,1.605 -3.622,2.837 -6.266,3.367 0.195,3.133 -0.42,7.895 3.527,10.881 -1.348,2.104 -7.008,-2.701 -7.65,-12.396 0.375,-1.777 2.058,-1.36 3.062,-1.314 0.699,0.449 0.94,1.362 1.037,2.525 9.032,-8.046 6.004,-21.054 6.004,-21.054 0,0 16.539,-8.875 21.207,-25.542 -2.668,22.667 -15.584,26.055 -15.584,26.055 0,0 0.584,10.817 -4.866,16.972 3.972,2.991 9.03,4.786 14.544,4.786 l 17.703,0 c 5.652,0 10.822,-1.894 14.838,-5.023 -5.23,-6.192 -4.66,-16.735 -4.66,-16.735 0,0 -12.916,-3.388 -15.582,-26.055 4.666,16.667 21.205,25.542 21.205,25.542 0,0 -3.027,13.008 6.004,21.054 0.099,-1.163 0.34,-2.076 1.039,-2.525 1.004,-0.046 2.687,-0.463 3.062,1.314 C 7.006,-2.701 1.348,2.104 0,0" />
    </g>
    <g
       transform="matrix(1.3333333,0,0,-1.3333333,248.19273,-111.87132)"
       id="g3988"
       style="fill:#000000;fill-opacity:1">
      <path
         id="path3990"
         style="fill:#000000;fill-opacity:1;fill-rule:nonzero;stroke:none"
         d="M 0,0 C -5.961,-4.755 -0.682,-7.454 -19.328,-15.418 -15,-16.626 0.215,-9.188 5.18,-1.346 10.145,6.496 -2.668,48.726 -8.906,48.707 -1,41.119 5.961,4.755 0,0" />
    </g>
    <g
       transform="matrix(1.3333333,0,0,-1.3333333,273.3386,41.292136)"
       id="g3996"
       style="fill:#000000;fill-opacity:1">
      <path
         id="path3998"
         style="fill:#000000;fill-opacity:1;fill-rule:nonzero;stroke:none"
         d="M 0,0 C 1.104,0.485 3.156,0.898 2.502,3.203 -3.947,14.316 -12.865,16.951 -13.059,13.738 -4.545,11.744 -3.74,0.565 0,0" />
    </g>
    <g
       transform="matrix(1.3333333,0,0,-1.3333333,271.86207,45.029076)"
       id="g4000"
       style="fill:#000000;fill-opacity:1">
      <path
         id="path4002"
         style="fill:#000000;fill-opacity:1;fill-rule:nonzero;stroke:none"
         d="M 0,0 C -5.98,10.238 -14.613,12.451 -14.895,9.434 -6.639,7.809 -6.172,-2.649 -2.535,-3.073 -1.443,-2.585 0.57,-2.14 0,0" />
    </g>
    <g
       transform="matrix(1.3333333,0,0,-1.3333333,256.50007,69.449736)"
       id="g4008"
       style="fill:#000000;fill-opacity:1">
      <path
         id="path4010"
         style="fill:#000000;fill-opacity:1;fill-rule:nonzero;stroke:none"
         d="m 0,0 c 6.932,-5.328 3.053,-15.844 6.227,-17.902 1.205,-0.014 3.244,-0.485 3.599,1.884 C 8.537,-3.232 1.504,2.848 0,0" />
    </g>
    <g
       transform="matrix(1.3333333,0,0,-1.3333333,249.01567,76.462666)"
       id="g4012"
       style="fill:#000000;fill-opacity:1">
      <path
         id="path4014"
         style="fill:#000000;fill-opacity:1;fill-rule:nonzero;stroke:none"
         d="m 0,0 c 6.85,-4.887 2.959,-14.605 6.096,-16.492 1.195,-0.006 3.215,-0.432 3.578,1.754 C 8.451,-2.945 1.502,2.633 0,0" />
    </g>
  </g>
</svg>
