G04 #@! TF.GenerationSoftware,KiCad,Pcbnew,no-vcs-found-bf44d39~61~ubuntu16.04.1*
G04 #@! TF.CreationDate,2018-01-11T19:38:33+02:00*
G04 #@! TF.ProjectId,shd18-badge,73686431382D62616467652E6B696361,rev?*
G04 #@! TF.SameCoordinates,Original*
G04 #@! TF.FileFunction,Profile,NP*
%FSLAX45Y45*%
G04 Gerber Fmt 4.5, Leading zero omitted, Abs format (unit mm)*
G04 Created by KiCad (PCBNEW no-vcs-found-bf44d39~61~ubuntu16.04.1) date Thu Jan 11 19:38:33 2018*
%MOMM*%
%LPD*%
G01*
G04 APERTURE LIST*
%ADD10C,0.100000*%
G04 APERTURE END LIST*
D10*
X31722404Y-18686631D02*
X31881714Y-18328144D01*
X26859001Y-22971998D02*
X27369683Y-23127644D01*
X26531929Y-22723250D02*
X26859001Y-22971998D01*
X26182048Y-22407466D02*
X26531929Y-22723250D01*
X31881714Y-18328144D02*
X31846256Y-17996958D01*
X26585057Y-14195219D02*
X26452659Y-14566419D01*
X26785065Y-14011715D02*
X26585057Y-14195219D01*
X31654957Y-21573791D02*
X31663800Y-21168134D01*
X31569679Y-22005605D02*
X31654957Y-21573791D01*
X31370712Y-22407463D02*
X31569679Y-22005605D01*
X28451062Y-23246547D02*
X28776350Y-23253261D01*
X27941272Y-23211917D02*
X28451062Y-23246547D01*
X27369683Y-23127644D02*
X27941272Y-23211917D01*
X25895042Y-17316207D02*
X25682503Y-17723570D01*
X25954672Y-17050001D02*
X25895042Y-17316207D01*
X31846256Y-17996958D02*
X31872177Y-17723507D01*
X31670916Y-20640599D02*
X31822525Y-20199671D01*
X31633463Y-20844747D02*
X31670916Y-20640599D01*
X31663800Y-21168134D02*
X31633463Y-20844747D01*
X25675436Y-19177548D02*
X25629340Y-19409174D01*
X25700602Y-18925015D02*
X25675436Y-19177548D01*
X25983096Y-22005614D02*
X26182048Y-22407466D01*
X25897819Y-21573804D02*
X25983096Y-22005614D01*
X31134184Y-14860853D02*
X31102006Y-14566418D01*
X31185044Y-15122119D02*
X31134184Y-14860853D01*
X26420468Y-14860854D02*
X26369636Y-15122120D01*
X26452659Y-14566419D02*
X26420468Y-14860854D01*
X26205509Y-16162414D02*
X26099090Y-16442424D01*
X26292031Y-15954920D02*
X26205509Y-16162414D01*
X29231974Y-13245411D02*
X28777310Y-13223920D01*
X29689489Y-13346407D02*
X29231974Y-13245411D01*
X26099314Y-16743601D02*
X25954672Y-17050001D01*
X26099090Y-16442424D02*
X26099314Y-16743601D01*
X31020802Y-22723250D02*
X31370712Y-22407463D01*
X30693754Y-22971998D02*
X31020802Y-22723250D01*
X30183072Y-23127644D02*
X30693754Y-22971998D01*
X31659579Y-17316206D02*
X31600000Y-17050000D01*
X31872177Y-17723507D02*
X31659579Y-17316206D01*
X30477689Y-13854641D02*
X30224982Y-13722080D01*
X30769634Y-14011709D02*
X30477689Y-13854641D01*
X28322681Y-13245412D02*
X27865160Y-13346407D01*
X28777310Y-13223920D02*
X28322681Y-13245412D01*
X31854291Y-18924549D02*
X31722404Y-18686631D01*
X26309097Y-15538658D02*
X26292031Y-15954920D01*
X26369636Y-15122120D02*
X26309097Y-15538658D01*
X25888960Y-21168145D02*
X25897819Y-21573804D01*
X25919268Y-20844747D02*
X25888960Y-21168145D01*
X27076964Y-13854673D02*
X26785065Y-14011715D01*
X27329690Y-13722085D02*
X27076964Y-13854673D01*
X25881877Y-20640599D02*
X25919268Y-20844747D01*
X25730225Y-20199671D02*
X25881877Y-20640599D01*
X27513667Y-13581691D02*
X27329690Y-13722085D01*
X27865160Y-13346407D02*
X27513667Y-13581691D01*
X31348524Y-16160895D02*
X31262621Y-15954919D01*
X31455497Y-16442198D02*
X31348524Y-16160895D01*
X25832435Y-18687097D02*
X25700602Y-18925015D01*
X25673155Y-18328614D02*
X25832435Y-18687097D01*
X31245569Y-15538657D02*
X31185044Y-15122119D01*
X31262621Y-15954919D02*
X31245569Y-15538657D01*
X30969596Y-14195218D02*
X30769634Y-14011709D01*
X31102006Y-14566418D02*
X30969596Y-14195218D01*
X25708645Y-17997455D02*
X25673155Y-18328614D01*
X25682503Y-17723570D02*
X25708645Y-17997455D01*
X29611470Y-23211917D02*
X30183072Y-23127644D01*
X29101658Y-23246547D02*
X29611470Y-23211917D01*
X28776350Y-23253261D02*
X29101658Y-23246547D01*
X30040954Y-13581690D02*
X29689489Y-13346407D01*
X30224982Y-13722080D02*
X30040954Y-13581690D01*
X31923453Y-19409174D02*
X31879464Y-19177082D01*
X31768932Y-19780420D02*
X31923453Y-19409174D01*
X31822525Y-20199671D02*
X31768932Y-19780420D01*
X31879464Y-19177082D02*
X31854291Y-18924549D01*
X25783799Y-19780420D02*
X25730225Y-20199671D01*
X25629340Y-19409174D02*
X25783799Y-19780420D01*
X31455338Y-16743600D02*
X31455497Y-16442198D01*
X31600000Y-17050000D02*
X31455338Y-16743600D01*
M02*
