M48
;DRILL file {KiCad no-vcs-found-bf44d39~61~ubuntu16.04.1} date Wed Jan 10 19:08:33 2018
;FORMAT={-:-/ absolute / metric / decimal}
FMAT,2
METRIC,TZ
T1C0.400
T2C1.016
T3C1.020
T4C0.900
T5C3.200
T6C3.500
%
G90
G05
M71
T1
X261.5Y-202.4
X264.Y-204.5
X264.1Y-200.
X265.7Y-192.6
X266.3Y-202.3
X266.4Y-180.7
X266.9Y-204.3
X270.7Y-221.
X274.5Y-145.9
X274.5Y-148.3
X278.2Y-145.9
X278.3Y-148.3
X287.Y-169.7
X287.202Y-225.38
X289.2Y-226.1
X290.4Y-168.7
X294.Y-176.6
X295.8Y-150.7
X295.8Y-167.8
X296.8Y-169.
X297.7Y-150.7
X299.Y-169.
X301.6Y-169.6
X302.9Y-169.6
X303.664Y-156.936
X303.8Y-150.9
X304.2Y-174.6
X304.4Y-220.9
X305.Y-166.9
X306.45Y-168.345
X306.9Y-172.5
X307.6Y-171.4
X308.3Y-169.194
X308.6Y-204.2
X308.814Y-171.394
X309.Y-180.6
X309.7Y-192.4
T2
X276.37Y-144.38
X276.37Y-146.92
X276.37Y-149.46
X276.37Y-152.
X276.37Y-154.54
X276.37Y-157.08
X276.37Y-159.62
X276.37Y-162.16
X299.23Y-144.38
X299.23Y-146.92
X299.23Y-149.46
X299.23Y-152.
X299.23Y-154.54
X299.23Y-157.08
X299.23Y-159.62
X299.23Y-162.16
T3
X264.Y-202.3
X264.Y-215.
T4
X286.35Y-230.7
X289.35Y-230.7
T5
X288.25Y-136.
T6
X287.724Y-215.
T0
M30
