G04 #@! TF.GenerationSoftware,KiCad,Pcbnew,no-vcs-found-bf44d39~61~ubuntu16.04.1*
G04 #@! TF.CreationDate,2018-01-11T19:38:33+02:00*
G04 #@! TF.ProjectId,shd18-badge,73686431382D62616467652E6B696361,rev?*
G04 #@! TF.SameCoordinates,Original*
G04 #@! TF.FileFunction,Copper,L1,Top,Signal*
G04 #@! TF.FilePolarity,Positive*
%FSLAX45Y45*%
G04 Gerber Fmt 4.5, Leading zero omitted, Abs format (unit mm)*
G04 Created by KiCad (PCBNEW no-vcs-found-bf44d39~61~ubuntu16.04.1) date Thu Jan 11 19:38:33 2018*
%MOMM*%
%LPD*%
G01*
G04 APERTURE LIST*
%ADD10R,2.000000X2.000000*%
%ADD11C,2.000000*%
%ADD12C,0.800000*%
%ADD13C,0.100000*%
%ADD14R,1.600000X1.000000*%
%ADD15R,0.500000X0.900000*%
%ADD16C,1.800000*%
%ADD17C,0.250000*%
%ADD18C,0.500000*%
%ADD19C,1.000000*%
%ADD20C,0.254000*%
G04 APERTURE END LIST*
D10*
X26400000Y-21500000D03*
D11*
X26400000Y-20230000D03*
D12*
X31023431Y-19293432D03*
D13*
G36*
X30966863Y-19293432D02*
X31023431Y-19236863D01*
X31080000Y-19293432D01*
X31023431Y-19350000D01*
X30966863Y-19293432D01*
X30966863Y-19293432D01*
G37*
D12*
X31136568Y-19406569D03*
D13*
G36*
X31080000Y-19406569D02*
X31136568Y-19350000D01*
X31193137Y-19406569D01*
X31136568Y-19463137D01*
X31080000Y-19406569D01*
X31080000Y-19406569D01*
G37*
D12*
X31026568Y-20586569D03*
D13*
G36*
X30970000Y-20586569D02*
X31026568Y-20530000D01*
X31083137Y-20586569D01*
X31026568Y-20643137D01*
X30970000Y-20586569D01*
X30970000Y-20586569D01*
G37*
D12*
X30913431Y-20473432D03*
D13*
G36*
X30856863Y-20473432D02*
X30913431Y-20416863D01*
X30970000Y-20473432D01*
X30913431Y-20530000D01*
X30856863Y-20473432D01*
X30856863Y-20473432D01*
G37*
D12*
X30483431Y-22133432D03*
D13*
G36*
X30426863Y-22133432D02*
X30483431Y-22076863D01*
X30540000Y-22133432D01*
X30483431Y-22190000D01*
X30426863Y-22133432D01*
X30426863Y-22133432D01*
G37*
D12*
X30596568Y-22246569D03*
D13*
G36*
X30540000Y-22246569D02*
X30596568Y-22190000D01*
X30653137Y-22246569D01*
X30596568Y-22303137D01*
X30540000Y-22246569D01*
X30540000Y-22246569D01*
G37*
D12*
X26913431Y-22256569D03*
D13*
G36*
X26913431Y-22200000D02*
X26970000Y-22256569D01*
X26913431Y-22313137D01*
X26856863Y-22256569D01*
X26913431Y-22200000D01*
X26913431Y-22200000D01*
G37*
D12*
X27026568Y-22143432D03*
D13*
G36*
X27026568Y-22086863D02*
X27083137Y-22143432D01*
X27026568Y-22200000D01*
X26970000Y-22143432D01*
X27026568Y-22086863D01*
X27026568Y-22086863D01*
G37*
D12*
X26636568Y-20483432D03*
D13*
G36*
X26636568Y-20426863D02*
X26693137Y-20483432D01*
X26636568Y-20540000D01*
X26580000Y-20483432D01*
X26636568Y-20426863D01*
X26636568Y-20426863D01*
G37*
D12*
X26523431Y-20596569D03*
D13*
G36*
X26523431Y-20540000D02*
X26580000Y-20596569D01*
X26523431Y-20653137D01*
X26466863Y-20596569D01*
X26523431Y-20540000D01*
X26523431Y-20540000D01*
G37*
D12*
X26413431Y-19416569D03*
D13*
G36*
X26413431Y-19360000D02*
X26470000Y-19416569D01*
X26413431Y-19473137D01*
X26356863Y-19416569D01*
X26413431Y-19360000D01*
X26413431Y-19360000D01*
G37*
D12*
X26526568Y-19303432D03*
D13*
G36*
X26526568Y-19246863D02*
X26583137Y-19303432D01*
X26526568Y-19360000D01*
X26470000Y-19303432D01*
X26526568Y-19246863D01*
X26526568Y-19246863D01*
G37*
D12*
X26586568Y-18113432D03*
D13*
G36*
X26586568Y-18056863D02*
X26643137Y-18113432D01*
X26586568Y-18170000D01*
X26530000Y-18113432D01*
X26586568Y-18056863D01*
X26586568Y-18056863D01*
G37*
D12*
X26473431Y-18226569D03*
D13*
G36*
X26473431Y-18170000D02*
X26530000Y-18226569D01*
X26473431Y-18283137D01*
X26416863Y-18226569D01*
X26473431Y-18170000D01*
X26473431Y-18170000D01*
G37*
D12*
X31066568Y-18216569D03*
D13*
G36*
X31010000Y-18216569D02*
X31066568Y-18160000D01*
X31123137Y-18216569D01*
X31066568Y-18273137D01*
X31010000Y-18216569D01*
X31010000Y-18216569D01*
G37*
D12*
X30953431Y-18103432D03*
D13*
G36*
X30896863Y-18103432D02*
X30953431Y-18046863D01*
X31010000Y-18103432D01*
X30953431Y-18160000D01*
X30896863Y-18103432D01*
X30896863Y-18103432D01*
G37*
D14*
X28550000Y-16970000D03*
X28550000Y-17290000D03*
X29050000Y-16970000D03*
X29050000Y-17290000D03*
D15*
X28725000Y-22610000D03*
X28875000Y-22610000D03*
D16*
X29923000Y-16216000D03*
X29923000Y-15962000D03*
X29923000Y-15708000D03*
X29923000Y-15454000D03*
X29923000Y-15200000D03*
X29923000Y-14946000D03*
X29923000Y-14692000D03*
X29923000Y-14438000D03*
X27637000Y-14438000D03*
X27637000Y-14692000D03*
X27637000Y-14946000D03*
X27637000Y-15200000D03*
X27637000Y-15454000D03*
X27637000Y-15708000D03*
X27637000Y-15962000D03*
X27637000Y-16216000D03*
D12*
X28720246Y-22537975D03*
X30644999Y-16834497D03*
X30760000Y-17140000D03*
X29770000Y-15070000D03*
X29580000Y-15070000D03*
X30160000Y-16960000D03*
X29580000Y-16780000D03*
X29680000Y-16900000D03*
X29900000Y-16900000D03*
X30881382Y-17139386D03*
X30830008Y-16919385D03*
X28700000Y-16970000D03*
X28920000Y-22610000D03*
X27450000Y-14830000D03*
X27820000Y-14590000D03*
X27830000Y-14830000D03*
X27450000Y-14590000D03*
X30380000Y-15090000D03*
X30500000Y-16690000D03*
X30366395Y-15693605D03*
X29400000Y-17660000D03*
X30690000Y-17250000D03*
X26630000Y-20230000D03*
X26150000Y-20240000D03*
X26400000Y-20450000D03*
X26410000Y-20000000D03*
X29040000Y-16870000D03*
X30900000Y-18060000D03*
X26640000Y-18070000D03*
X30420000Y-17460000D03*
X30290000Y-16960000D03*
X26570000Y-19260000D03*
X26690000Y-20430000D03*
X27070000Y-22100000D03*
X30440000Y-22090000D03*
X30860000Y-20420000D03*
X30970000Y-19240000D03*
D17*
X28720246Y-22537975D02*
X28720246Y-22605246D01*
X28720246Y-22605246D02*
X28725000Y-22610000D01*
D18*
X30760000Y-17140000D02*
X30760000Y-17010000D01*
X30644999Y-16894999D02*
X30644999Y-16891066D01*
X30760000Y-17010000D02*
X30644999Y-16894999D01*
X30644999Y-16891066D02*
X30644999Y-16834497D01*
X29580000Y-15070000D02*
X29770000Y-15070000D01*
X29580000Y-16780000D02*
X29980000Y-16780000D01*
X29980000Y-16780000D02*
X30120000Y-16920000D01*
X30120000Y-16920000D02*
X30160000Y-16960000D01*
X29900000Y-16900000D02*
X29680000Y-16900000D01*
X30870008Y-16959385D02*
X30830008Y-16919385D01*
X30881382Y-16970759D02*
X30870008Y-16959385D01*
X30881382Y-17139386D02*
X30881382Y-16970759D01*
D19*
X28700000Y-16970000D02*
X28550000Y-16970000D01*
D18*
X29040000Y-16870000D02*
X29040000Y-16960000D01*
X29040000Y-16960000D02*
X29050000Y-16970000D01*
X30900000Y-18060000D02*
X30910000Y-18060000D01*
X30910000Y-18060000D02*
X30953431Y-18103432D01*
X26640000Y-18070000D02*
X26630000Y-18070000D01*
X26630000Y-18070000D02*
X26586568Y-18113432D01*
X30290000Y-16960000D02*
X30420000Y-17090000D01*
X30420000Y-17090000D02*
X30420000Y-17460000D01*
X26570000Y-19260000D02*
X26526568Y-19303432D01*
X26690000Y-20430000D02*
X26636568Y-20483432D01*
X27070000Y-22100000D02*
X27026568Y-22143432D01*
X30440000Y-22090000D02*
X30483431Y-22133432D01*
X30860000Y-20420000D02*
X30913431Y-20473432D01*
X30970000Y-19240000D02*
X31023431Y-19293432D01*
D20*
G36*
X29222909Y-13313559D02*
X29662114Y-13410513D01*
X30001090Y-13637435D01*
X30183434Y-13776542D01*
X30188647Y-13779094D01*
X30193161Y-13782741D01*
X30445552Y-13915135D01*
X30729632Y-14067973D01*
X30910778Y-14234214D01*
X31034785Y-14581856D01*
X31066090Y-14868295D01*
X31066958Y-14871051D01*
X31066946Y-14873941D01*
X31117492Y-15133596D01*
X31177272Y-15545000D01*
X31194179Y-15957722D01*
X31197016Y-15969454D01*
X31199399Y-15981286D01*
X31284885Y-16186261D01*
X31386990Y-16454766D01*
X31386838Y-16743564D01*
X31387169Y-16745232D01*
X31386918Y-16746914D01*
X31389758Y-16758285D01*
X31392039Y-16769780D01*
X31392983Y-16771195D01*
X31393395Y-16772845D01*
X31534813Y-17072375D01*
X31592733Y-17331167D01*
X31596346Y-17339333D01*
X31598854Y-17347902D01*
X31802069Y-17737228D01*
X31778061Y-17990493D01*
X31778764Y-17997368D01*
X31778145Y-18004250D01*
X31811645Y-18317141D01*
X31659806Y-18658813D01*
X31658752Y-18663489D01*
X31656557Y-18667751D01*
X31655838Y-18676410D01*
X31653926Y-18684885D01*
X31654741Y-18689609D01*
X31654344Y-18694387D01*
X31656993Y-18702662D01*
X31658470Y-18711224D01*
X31661031Y-18715276D01*
X31662493Y-18719842D01*
X31787530Y-18945403D01*
X31811302Y-19183877D01*
X31812190Y-19186791D01*
X31812163Y-19189838D01*
X31852332Y-19401783D01*
X31705691Y-19754098D01*
X31704816Y-19758460D01*
X31702833Y-19762442D01*
X31702209Y-19771450D01*
X31700432Y-19780303D01*
X31701293Y-19784667D01*
X31700985Y-19789106D01*
X31752552Y-20192508D01*
X31606138Y-20618326D01*
X31605445Y-20623441D01*
X31603541Y-20628239D01*
X31566088Y-20832387D01*
X31566228Y-20841790D01*
X31565263Y-20851145D01*
X31595230Y-21170595D01*
X31586603Y-21566352D01*
X31504244Y-21983385D01*
X31315121Y-22365362D01*
X30977043Y-22670470D01*
X30662049Y-22910050D01*
X30168007Y-23060625D01*
X29604142Y-23143757D01*
X29098629Y-23178095D01*
X28776350Y-23184746D01*
X28454092Y-23178095D01*
X27948600Y-23143757D01*
X27594075Y-23091487D01*
X28526481Y-23091487D01*
X28542965Y-23131380D01*
X28573459Y-23161928D01*
X28613323Y-23178481D01*
X28656487Y-23178519D01*
X28696380Y-23162035D01*
X28726928Y-23131540D01*
X28743481Y-23091677D01*
X28743481Y-23091487D01*
X28826481Y-23091487D01*
X28842965Y-23131380D01*
X28873459Y-23161928D01*
X28913323Y-23178481D01*
X28956487Y-23178519D01*
X28996380Y-23162035D01*
X29026928Y-23131540D01*
X29043481Y-23091677D01*
X29043519Y-23048513D01*
X29027035Y-23008620D01*
X28996540Y-22978072D01*
X28956677Y-22961519D01*
X28913513Y-22961481D01*
X28873620Y-22977965D01*
X28843072Y-23008459D01*
X28826519Y-23048323D01*
X28826481Y-23091487D01*
X28743481Y-23091487D01*
X28743519Y-23048513D01*
X28727035Y-23008620D01*
X28696540Y-22978072D01*
X28656677Y-22961519D01*
X28613513Y-22961481D01*
X28573620Y-22977965D01*
X28543072Y-23008459D01*
X28526519Y-23048323D01*
X28526481Y-23091487D01*
X27594075Y-23091487D01*
X27384748Y-23060625D01*
X26890704Y-22910050D01*
X26575687Y-22670470D01*
X26451597Y-22558472D01*
X28616728Y-22558472D01*
X28632451Y-22596527D01*
X28635256Y-22599336D01*
X28635256Y-22655000D01*
X28640184Y-22679776D01*
X28654219Y-22700781D01*
X28675223Y-22714816D01*
X28700000Y-22719744D01*
X28750000Y-22719744D01*
X28774776Y-22714816D01*
X28795781Y-22700781D01*
X28799865Y-22694668D01*
X28814030Y-22708833D01*
X28837369Y-22718500D01*
X28846625Y-22718500D01*
X28862500Y-22702625D01*
X28862500Y-22622700D01*
X28887500Y-22622700D01*
X28887500Y-22702625D01*
X28903375Y-22718500D01*
X28912631Y-22718500D01*
X28935970Y-22708833D01*
X28953833Y-22690970D01*
X28963500Y-22667631D01*
X28963500Y-22638575D01*
X28947625Y-22622700D01*
X28887500Y-22622700D01*
X28862500Y-22622700D01*
X28814744Y-22622700D01*
X28814744Y-22597300D01*
X28862500Y-22597300D01*
X28862500Y-22517375D01*
X28887500Y-22517375D01*
X28887500Y-22597300D01*
X28947625Y-22597300D01*
X28963500Y-22581425D01*
X28963500Y-22552369D01*
X28953833Y-22529030D01*
X28935970Y-22511167D01*
X28912631Y-22501500D01*
X28903375Y-22501500D01*
X28887500Y-22517375D01*
X28862500Y-22517375D01*
X28846625Y-22501500D01*
X28837369Y-22501500D01*
X28820114Y-22508647D01*
X28808040Y-22479424D01*
X28778950Y-22450283D01*
X28740923Y-22434493D01*
X28699748Y-22434457D01*
X28661694Y-22450181D01*
X28632554Y-22479271D01*
X28616764Y-22517298D01*
X28616728Y-22558472D01*
X26451597Y-22558472D01*
X26237641Y-22365367D01*
X26218898Y-22327509D01*
X26860451Y-22327509D01*
X26860451Y-22349960D01*
X26877462Y-22366970D01*
X26900801Y-22376637D01*
X26926062Y-22376637D01*
X26949401Y-22366970D01*
X26966411Y-22349960D01*
X26966411Y-22327509D01*
X26956411Y-22317509D01*
X30543588Y-22317509D01*
X30543588Y-22339960D01*
X30560599Y-22356970D01*
X30583937Y-22366637D01*
X30609199Y-22366637D01*
X30632538Y-22356970D01*
X30649548Y-22339960D01*
X30649548Y-22317509D01*
X30596568Y-22264529D01*
X30543588Y-22317509D01*
X26956411Y-22317509D01*
X26913431Y-22274529D01*
X26860451Y-22327509D01*
X26218898Y-22327509D01*
X26190030Y-22269199D01*
X26793363Y-22269199D01*
X26803030Y-22292538D01*
X26820040Y-22309549D01*
X26842491Y-22309549D01*
X26895471Y-22256569D01*
X26842491Y-22203589D01*
X26820040Y-22203589D01*
X26803030Y-22220599D01*
X26793363Y-22243938D01*
X26793363Y-22269199D01*
X26190030Y-22269199D01*
X26137540Y-22163177D01*
X26860451Y-22163177D01*
X26860451Y-22185628D01*
X26913431Y-22238608D01*
X26943523Y-22208516D01*
X26961484Y-22226477D01*
X26931392Y-22256569D01*
X26984372Y-22309549D01*
X27006823Y-22309549D01*
X27023833Y-22292538D01*
X27033500Y-22269200D01*
X27033500Y-22263365D01*
X27051345Y-22259816D01*
X27072349Y-22245781D01*
X27128918Y-22189212D01*
X27132498Y-22183855D01*
X27157692Y-22158705D01*
X27173482Y-22120678D01*
X27173491Y-22110497D01*
X30336482Y-22110497D01*
X30352206Y-22148552D01*
X30377578Y-22173968D01*
X30381082Y-22179212D01*
X30437651Y-22235781D01*
X30458655Y-22249816D01*
X30476500Y-22253365D01*
X30476500Y-22259200D01*
X30486167Y-22282538D01*
X30503177Y-22299549D01*
X30525628Y-22299549D01*
X30578608Y-22246569D01*
X30614529Y-22246569D01*
X30667509Y-22299549D01*
X30689960Y-22299549D01*
X30706970Y-22282538D01*
X30716637Y-22259199D01*
X30716637Y-22233938D01*
X30706970Y-22210599D01*
X30689960Y-22193589D01*
X30667509Y-22193589D01*
X30614529Y-22246569D01*
X30578608Y-22246569D01*
X30548516Y-22216477D01*
X30566477Y-22198516D01*
X30596568Y-22228608D01*
X30649548Y-22175628D01*
X30649548Y-22153177D01*
X30632538Y-22136167D01*
X30609199Y-22126500D01*
X30603365Y-22126500D01*
X30599816Y-22108655D01*
X30585781Y-22087651D01*
X30529212Y-22031082D01*
X30523855Y-22027502D01*
X30498705Y-22002308D01*
X30460678Y-21986518D01*
X30419503Y-21986482D01*
X30381448Y-22002206D01*
X30352308Y-22031295D01*
X30336518Y-22069322D01*
X30336482Y-22110497D01*
X27173491Y-22110497D01*
X27173518Y-22079503D01*
X27157794Y-22041449D01*
X27128705Y-22012308D01*
X27090678Y-21996518D01*
X27049503Y-21996482D01*
X27011448Y-22012206D01*
X26986032Y-22037578D01*
X26980788Y-22041082D01*
X26924219Y-22097651D01*
X26910184Y-22118655D01*
X26906635Y-22136500D01*
X26900800Y-22136500D01*
X26877462Y-22146167D01*
X26860451Y-22163177D01*
X26137540Y-22163177D01*
X26048531Y-21983395D01*
X25966172Y-21566365D01*
X25962540Y-21400000D01*
X26235256Y-21400000D01*
X26235256Y-21600000D01*
X26240184Y-21624777D01*
X26254219Y-21645781D01*
X26275223Y-21659816D01*
X26300000Y-21664744D01*
X26500000Y-21664744D01*
X26524776Y-21659816D01*
X26545781Y-21645781D01*
X26559816Y-21624777D01*
X26564744Y-21600000D01*
X26564744Y-21547233D01*
X28533819Y-21547233D01*
X28570052Y-21634923D01*
X28637084Y-21702073D01*
X28724711Y-21738459D01*
X28819592Y-21738541D01*
X28907283Y-21702308D01*
X28974433Y-21635276D01*
X29010818Y-21547649D01*
X29010901Y-21452768D01*
X28974668Y-21365077D01*
X28907636Y-21297927D01*
X28820009Y-21261542D01*
X28725127Y-21261459D01*
X28637437Y-21297692D01*
X28570287Y-21364724D01*
X28533901Y-21452351D01*
X28533819Y-21547233D01*
X26564744Y-21547233D01*
X26564744Y-21400000D01*
X26559816Y-21375224D01*
X26545781Y-21354219D01*
X26524776Y-21340184D01*
X26500000Y-21335256D01*
X26300000Y-21335256D01*
X26275223Y-21340184D01*
X26254219Y-21354219D01*
X26240184Y-21375224D01*
X26235256Y-21400000D01*
X25962540Y-21400000D01*
X25957530Y-21170602D01*
X25987469Y-20851139D01*
X25986504Y-20841797D01*
X25986647Y-20832406D01*
X25956445Y-20667509D01*
X26470451Y-20667509D01*
X26470451Y-20689960D01*
X26487462Y-20706970D01*
X26510801Y-20716637D01*
X26536062Y-20716637D01*
X26559401Y-20706970D01*
X26576411Y-20689960D01*
X26576411Y-20667509D01*
X26566411Y-20657509D01*
X30973588Y-20657509D01*
X30973588Y-20679960D01*
X30990599Y-20696970D01*
X31013937Y-20706637D01*
X31039199Y-20706637D01*
X31062538Y-20696970D01*
X31079548Y-20679960D01*
X31079548Y-20657509D01*
X31026568Y-20604529D01*
X30973588Y-20657509D01*
X26566411Y-20657509D01*
X26523431Y-20614529D01*
X26470451Y-20667509D01*
X25956445Y-20667509D01*
X25949256Y-20628258D01*
X25947348Y-20623448D01*
X25946652Y-20618321D01*
X25943515Y-20609199D01*
X26403363Y-20609199D01*
X26413030Y-20632538D01*
X26430040Y-20649549D01*
X26452491Y-20649549D01*
X26505471Y-20596569D01*
X26452491Y-20543589D01*
X26430040Y-20543589D01*
X26413030Y-20560599D01*
X26403363Y-20583938D01*
X26403363Y-20609199D01*
X25943515Y-20609199D01*
X25907051Y-20503177D01*
X26470451Y-20503177D01*
X26470451Y-20525628D01*
X26523431Y-20578608D01*
X26553523Y-20548516D01*
X26571484Y-20566477D01*
X26541392Y-20596569D01*
X26594372Y-20649549D01*
X26616823Y-20649549D01*
X26633833Y-20632538D01*
X26643500Y-20609200D01*
X26643500Y-20603365D01*
X26661345Y-20599816D01*
X26682349Y-20585781D01*
X26738918Y-20529212D01*
X26745783Y-20518938D01*
X26748551Y-20517794D01*
X26777692Y-20488705D01*
X26793482Y-20450678D01*
X26793491Y-20440497D01*
X30756482Y-20440497D01*
X30772206Y-20478552D01*
X30801295Y-20507692D01*
X30804186Y-20508892D01*
X30811082Y-20519212D01*
X30867651Y-20575781D01*
X30888655Y-20589816D01*
X30906500Y-20593365D01*
X30906500Y-20599200D01*
X30916167Y-20622538D01*
X30933177Y-20639549D01*
X30955628Y-20639549D01*
X31008608Y-20586569D01*
X31044529Y-20586569D01*
X31097509Y-20639549D01*
X31119960Y-20639549D01*
X31136970Y-20622538D01*
X31146637Y-20599199D01*
X31146637Y-20573938D01*
X31136970Y-20550599D01*
X31119960Y-20533589D01*
X31097509Y-20533589D01*
X31044529Y-20586569D01*
X31008608Y-20586569D01*
X30978516Y-20556477D01*
X30996477Y-20538516D01*
X31026568Y-20568608D01*
X31079548Y-20515628D01*
X31079548Y-20493177D01*
X31062538Y-20476167D01*
X31039199Y-20466500D01*
X31033365Y-20466500D01*
X31029816Y-20448655D01*
X31015781Y-20427651D01*
X30959212Y-20371082D01*
X30948938Y-20364217D01*
X30947794Y-20361449D01*
X30918705Y-20332308D01*
X30880678Y-20316518D01*
X30839503Y-20316482D01*
X30801448Y-20332206D01*
X30772308Y-20361295D01*
X30756518Y-20399322D01*
X30756482Y-20440497D01*
X26793491Y-20440497D01*
X26793518Y-20409503D01*
X26777794Y-20371449D01*
X26748705Y-20342308D01*
X26710678Y-20326518D01*
X26669503Y-20326482D01*
X26631448Y-20342206D01*
X26602308Y-20371295D01*
X26601108Y-20374186D01*
X26590788Y-20381082D01*
X26534219Y-20437651D01*
X26520184Y-20458655D01*
X26516635Y-20476500D01*
X26510800Y-20476500D01*
X26487462Y-20486167D01*
X26470451Y-20503177D01*
X25907051Y-20503177D01*
X25852735Y-20345253D01*
X26302707Y-20345253D01*
X26312574Y-20371939D01*
X26373546Y-20394591D01*
X26438546Y-20392186D01*
X26487426Y-20371939D01*
X26497293Y-20345253D01*
X26400000Y-20247961D01*
X26302707Y-20345253D01*
X25852735Y-20345253D01*
X25803996Y-20203546D01*
X26235409Y-20203546D01*
X26237814Y-20268546D01*
X26258061Y-20317426D01*
X26284747Y-20327293D01*
X26382039Y-20230000D01*
X26417960Y-20230000D01*
X26515253Y-20327293D01*
X26541939Y-20317426D01*
X26564591Y-20256454D01*
X26562186Y-20191454D01*
X26541939Y-20142574D01*
X26515253Y-20132707D01*
X26417960Y-20230000D01*
X26382039Y-20230000D01*
X26284747Y-20132707D01*
X26258061Y-20142574D01*
X26235409Y-20203546D01*
X25803996Y-20203546D01*
X25800198Y-20192503D01*
X25810134Y-20114747D01*
X26302707Y-20114747D01*
X26400000Y-20212040D01*
X26497293Y-20114747D01*
X26487426Y-20088061D01*
X26426454Y-20065409D01*
X26361454Y-20067814D01*
X26312574Y-20088061D01*
X26302707Y-20114747D01*
X25810134Y-20114747D01*
X25851746Y-19789103D01*
X25851439Y-19784671D01*
X25852299Y-19780312D01*
X25850522Y-19771453D01*
X25849897Y-19762439D01*
X25847917Y-19758463D01*
X25847043Y-19754107D01*
X25736124Y-19487509D01*
X26360451Y-19487509D01*
X26360451Y-19509960D01*
X26377462Y-19526970D01*
X26400801Y-19536637D01*
X26426062Y-19536637D01*
X26449401Y-19526970D01*
X26466411Y-19509960D01*
X26466411Y-19487509D01*
X26456411Y-19477509D01*
X31083588Y-19477509D01*
X31083588Y-19499960D01*
X31100599Y-19516970D01*
X31123937Y-19526637D01*
X31149199Y-19526637D01*
X31172538Y-19516970D01*
X31189548Y-19499960D01*
X31189548Y-19477509D01*
X31136568Y-19424529D01*
X31083588Y-19477509D01*
X26456411Y-19477509D01*
X26413431Y-19434529D01*
X26360451Y-19487509D01*
X25736124Y-19487509D01*
X25711864Y-19429199D01*
X26293363Y-19429199D01*
X26303030Y-19452538D01*
X26320040Y-19469549D01*
X26342491Y-19469549D01*
X26395471Y-19416569D01*
X26342491Y-19363589D01*
X26320040Y-19363589D01*
X26303030Y-19380599D01*
X26293363Y-19403938D01*
X26293363Y-19429199D01*
X25711864Y-19429199D01*
X25700590Y-19402103D01*
X25716297Y-19323177D01*
X26360451Y-19323177D01*
X26360451Y-19345628D01*
X26413431Y-19398608D01*
X26443523Y-19368516D01*
X26461484Y-19386477D01*
X26431392Y-19416569D01*
X26484372Y-19469549D01*
X26506823Y-19469549D01*
X26523833Y-19452538D01*
X26533500Y-19429200D01*
X26533500Y-19423365D01*
X26551345Y-19419816D01*
X26572349Y-19405781D01*
X26628918Y-19349212D01*
X26632498Y-19343855D01*
X26657692Y-19318705D01*
X26673482Y-19280678D01*
X26673499Y-19260497D01*
X30866482Y-19260497D01*
X30882206Y-19298552D01*
X30911295Y-19327692D01*
X30914186Y-19328892D01*
X30921082Y-19339212D01*
X30977651Y-19395781D01*
X30998655Y-19409816D01*
X31016500Y-19413365D01*
X31016500Y-19419200D01*
X31026167Y-19442538D01*
X31043177Y-19459549D01*
X31065628Y-19459549D01*
X31118608Y-19406569D01*
X31154529Y-19406569D01*
X31207509Y-19459549D01*
X31229960Y-19459549D01*
X31246970Y-19442538D01*
X31256637Y-19419199D01*
X31256637Y-19393938D01*
X31246970Y-19370599D01*
X31229960Y-19353589D01*
X31207509Y-19353589D01*
X31154529Y-19406569D01*
X31118608Y-19406569D01*
X31088516Y-19376477D01*
X31106477Y-19358516D01*
X31136568Y-19388608D01*
X31189548Y-19335628D01*
X31189548Y-19313177D01*
X31172538Y-19296167D01*
X31149199Y-19286500D01*
X31143365Y-19286500D01*
X31139816Y-19268655D01*
X31125781Y-19247651D01*
X31069212Y-19191082D01*
X31058938Y-19184217D01*
X31057794Y-19181449D01*
X31028705Y-19152308D01*
X30990678Y-19136518D01*
X30949503Y-19136482D01*
X30911448Y-19152206D01*
X30882308Y-19181295D01*
X30866518Y-19219322D01*
X30866482Y-19260497D01*
X26673499Y-19260497D01*
X26673518Y-19239503D01*
X26657794Y-19201449D01*
X26628705Y-19172308D01*
X26590678Y-19156518D01*
X26549503Y-19156482D01*
X26511448Y-19172206D01*
X26486032Y-19197578D01*
X26480788Y-19201082D01*
X26424219Y-19257651D01*
X26410184Y-19278655D01*
X26406635Y-19296500D01*
X26400800Y-19296500D01*
X26377462Y-19306167D01*
X26360451Y-19323177D01*
X25716297Y-19323177D01*
X25742618Y-19190918D01*
X25742619Y-19187557D01*
X25743598Y-19184341D01*
X25767364Y-18945862D01*
X25892351Y-18720297D01*
X25893810Y-18715739D01*
X25896366Y-18711694D01*
X25897846Y-18703124D01*
X25900496Y-18694841D01*
X25900099Y-18690072D01*
X25900913Y-18685356D01*
X25899000Y-18676872D01*
X25898278Y-18668206D01*
X25896087Y-18663952D01*
X25895034Y-18659283D01*
X25743226Y-18317617D01*
X25745381Y-18297509D01*
X26420451Y-18297509D01*
X26420451Y-18319960D01*
X26437462Y-18336970D01*
X26460801Y-18346637D01*
X26486062Y-18346637D01*
X26509401Y-18336970D01*
X26526411Y-18319960D01*
X26526411Y-18297509D01*
X26516411Y-18287509D01*
X31013588Y-18287509D01*
X31013588Y-18309960D01*
X31030599Y-18326970D01*
X31053937Y-18336637D01*
X31079199Y-18336637D01*
X31102538Y-18326970D01*
X31119548Y-18309960D01*
X31119548Y-18287509D01*
X31066568Y-18234529D01*
X31013588Y-18287509D01*
X26516411Y-18287509D01*
X26473431Y-18244529D01*
X26420451Y-18297509D01*
X25745381Y-18297509D01*
X25751630Y-18239199D01*
X26353363Y-18239199D01*
X26363030Y-18262538D01*
X26380040Y-18279549D01*
X26402491Y-18279549D01*
X26455471Y-18226569D01*
X26402491Y-18173589D01*
X26380040Y-18173589D01*
X26363030Y-18190599D01*
X26353363Y-18213938D01*
X26353363Y-18239199D01*
X25751630Y-18239199D01*
X25762992Y-18133177D01*
X26420451Y-18133177D01*
X26420451Y-18155628D01*
X26473431Y-18208608D01*
X26503523Y-18178516D01*
X26521484Y-18196477D01*
X26491392Y-18226569D01*
X26544372Y-18279549D01*
X26566823Y-18279549D01*
X26583833Y-18262538D01*
X26593500Y-18239200D01*
X26593500Y-18233365D01*
X26611345Y-18229816D01*
X26632349Y-18215781D01*
X26684551Y-18163579D01*
X26698551Y-18157794D01*
X26727692Y-18128705D01*
X26743482Y-18090678D01*
X26743491Y-18080497D01*
X30796482Y-18080497D01*
X30812206Y-18118552D01*
X30841295Y-18147692D01*
X30855431Y-18153562D01*
X30907651Y-18205781D01*
X30928655Y-18219816D01*
X30946500Y-18223365D01*
X30946500Y-18229200D01*
X30956167Y-18252538D01*
X30973177Y-18269549D01*
X30995628Y-18269549D01*
X31048608Y-18216569D01*
X31084529Y-18216569D01*
X31137509Y-18269549D01*
X31159960Y-18269549D01*
X31176970Y-18252538D01*
X31186637Y-18229199D01*
X31186637Y-18203938D01*
X31176970Y-18180599D01*
X31159960Y-18163589D01*
X31137509Y-18163589D01*
X31084529Y-18216569D01*
X31048608Y-18216569D01*
X31018516Y-18186477D01*
X31036477Y-18168516D01*
X31066568Y-18198608D01*
X31119548Y-18145628D01*
X31119548Y-18123177D01*
X31102538Y-18106167D01*
X31079199Y-18096500D01*
X31073365Y-18096500D01*
X31069816Y-18078655D01*
X31055781Y-18057651D01*
X30999212Y-18001082D01*
X30978208Y-17987047D01*
X30972231Y-17985859D01*
X30958705Y-17972308D01*
X30920678Y-17956518D01*
X30879503Y-17956482D01*
X30841448Y-17972206D01*
X30812308Y-18001295D01*
X30796518Y-18039322D01*
X30796482Y-18080497D01*
X26743491Y-18080497D01*
X26743518Y-18049503D01*
X26727794Y-18011449D01*
X26698705Y-17982308D01*
X26660678Y-17966518D01*
X26619503Y-17966482D01*
X26581448Y-17982206D01*
X26567773Y-17995858D01*
X26561792Y-17997047D01*
X26540788Y-18011082D01*
X26484219Y-18067651D01*
X26470184Y-18088655D01*
X26466635Y-18106500D01*
X26460800Y-18106500D01*
X26437462Y-18116167D01*
X26420451Y-18133177D01*
X25762992Y-18133177D01*
X25776755Y-18004754D01*
X25776134Y-17997846D01*
X25776835Y-17990946D01*
X25752621Y-17737264D01*
X25955773Y-17347893D01*
X25958276Y-17339335D01*
X25961886Y-17331180D01*
X25982310Y-17240000D01*
X28405256Y-17240000D01*
X28405256Y-17340000D01*
X28410184Y-17364777D01*
X28424219Y-17385781D01*
X28445223Y-17399816D01*
X28470000Y-17404744D01*
X28630000Y-17404744D01*
X28654776Y-17399816D01*
X28675781Y-17385781D01*
X28689816Y-17364777D01*
X28694744Y-17340000D01*
X28694744Y-17318575D01*
X28906500Y-17318575D01*
X28906500Y-17352631D01*
X28916167Y-17375970D01*
X28934030Y-17393833D01*
X28957369Y-17403500D01*
X29021425Y-17403500D01*
X29037300Y-17387625D01*
X29037300Y-17302700D01*
X29062700Y-17302700D01*
X29062700Y-17387625D01*
X29078575Y-17403500D01*
X29142631Y-17403500D01*
X29165970Y-17393833D01*
X29183833Y-17375970D01*
X29193500Y-17352631D01*
X29193500Y-17318575D01*
X29177625Y-17302700D01*
X29062700Y-17302700D01*
X29037300Y-17302700D01*
X28922375Y-17302700D01*
X28906500Y-17318575D01*
X28694744Y-17318575D01*
X28694744Y-17240000D01*
X28692232Y-17227369D01*
X28906500Y-17227369D01*
X28906500Y-17261425D01*
X28922375Y-17277300D01*
X29037300Y-17277300D01*
X29037300Y-17192375D01*
X29062700Y-17192375D01*
X29062700Y-17277300D01*
X29177625Y-17277300D01*
X29193500Y-17261425D01*
X29193500Y-17227369D01*
X29183833Y-17204030D01*
X29165970Y-17186167D01*
X29142631Y-17176500D01*
X29078575Y-17176500D01*
X29062700Y-17192375D01*
X29037300Y-17192375D01*
X29021425Y-17176500D01*
X28957369Y-17176500D01*
X28934030Y-17186167D01*
X28916167Y-17204030D01*
X28906500Y-17227369D01*
X28692232Y-17227369D01*
X28689816Y-17215224D01*
X28675781Y-17194219D01*
X28654776Y-17180184D01*
X28630000Y-17175256D01*
X28470000Y-17175256D01*
X28445223Y-17180184D01*
X28424219Y-17194219D01*
X28410184Y-17215224D01*
X28405256Y-17240000D01*
X25982310Y-17240000D01*
X26019857Y-17072380D01*
X26091791Y-16920000D01*
X28405256Y-16920000D01*
X28405256Y-17020000D01*
X28410184Y-17044777D01*
X28424219Y-17065781D01*
X28445223Y-17079816D01*
X28470000Y-17084744D01*
X28630000Y-17084744D01*
X28636254Y-17083500D01*
X28700000Y-17083500D01*
X28743435Y-17074860D01*
X28780257Y-17050257D01*
X28804860Y-17013435D01*
X28813500Y-16970000D01*
X28804860Y-16926565D01*
X28800473Y-16920000D01*
X28905256Y-16920000D01*
X28905256Y-17020000D01*
X28910184Y-17044777D01*
X28924219Y-17065781D01*
X28945223Y-17079816D01*
X28970000Y-17084744D01*
X29130000Y-17084744D01*
X29154776Y-17079816D01*
X29175781Y-17065781D01*
X29189816Y-17044777D01*
X29194744Y-17020000D01*
X29194744Y-16920000D01*
X29189816Y-16895224D01*
X29175781Y-16874219D01*
X29154776Y-16860184D01*
X29143510Y-16857943D01*
X29143518Y-16849503D01*
X29127794Y-16811449D01*
X29116862Y-16800497D01*
X29476482Y-16800497D01*
X29492206Y-16838552D01*
X29521295Y-16867692D01*
X29559322Y-16883482D01*
X29576514Y-16883497D01*
X29576482Y-16920497D01*
X29592206Y-16958552D01*
X29621295Y-16987692D01*
X29659322Y-17003482D01*
X29700497Y-17003518D01*
X29736843Y-16988500D01*
X29843241Y-16988500D01*
X29879322Y-17003482D01*
X29920497Y-17003518D01*
X29958551Y-16987794D01*
X29987692Y-16958705D01*
X30001146Y-16926304D01*
X30057287Y-16982445D01*
X30072206Y-17018552D01*
X30101295Y-17047692D01*
X30139322Y-17063482D01*
X30180497Y-17063518D01*
X30218551Y-17047794D01*
X30224986Y-17041371D01*
X30231295Y-17047692D01*
X30267615Y-17062773D01*
X30331500Y-17126658D01*
X30331500Y-17403242D01*
X30316518Y-17439322D01*
X30316482Y-17480497D01*
X30332206Y-17518552D01*
X30361295Y-17547692D01*
X30399322Y-17563482D01*
X30440497Y-17563518D01*
X30478551Y-17547794D01*
X30507692Y-17518705D01*
X30523482Y-17480678D01*
X30523518Y-17439503D01*
X30508500Y-17403157D01*
X30508500Y-17090001D01*
X30508500Y-17090000D01*
X30501763Y-17056133D01*
X30501763Y-17056133D01*
X30482579Y-17027421D01*
X30482579Y-17027421D01*
X30392713Y-16937555D01*
X30377794Y-16901449D01*
X30348705Y-16872308D01*
X30310678Y-16856518D01*
X30269503Y-16856482D01*
X30231448Y-16872206D01*
X30225014Y-16878629D01*
X30218705Y-16872308D01*
X30182385Y-16857227D01*
X30180152Y-16854994D01*
X30541481Y-16854994D01*
X30556499Y-16891341D01*
X30556499Y-16894999D01*
X30556499Y-16894999D01*
X30561571Y-16920497D01*
X30563236Y-16928867D01*
X30577024Y-16949503D01*
X30582420Y-16957578D01*
X30671500Y-17046658D01*
X30671500Y-17083242D01*
X30656518Y-17119322D01*
X30656482Y-17160497D01*
X30672206Y-17198552D01*
X30701295Y-17227692D01*
X30739322Y-17243482D01*
X30780497Y-17243518D01*
X30818551Y-17227794D01*
X30820976Y-17225373D01*
X30822678Y-17227078D01*
X30860705Y-17242868D01*
X30901879Y-17242904D01*
X30939934Y-17227180D01*
X30969074Y-17198090D01*
X30984864Y-17160063D01*
X30984900Y-17118889D01*
X30969882Y-17082542D01*
X30969882Y-16970760D01*
X30969882Y-16970759D01*
X30963146Y-16936892D01*
X30957783Y-16928867D01*
X30943961Y-16908180D01*
X30943961Y-16908180D01*
X30932721Y-16896940D01*
X30917802Y-16860833D01*
X30888712Y-16831693D01*
X30850685Y-16815903D01*
X30809511Y-16815867D01*
X30771456Y-16831590D01*
X30748482Y-16854525D01*
X30748517Y-16814000D01*
X30732793Y-16775946D01*
X30703704Y-16746805D01*
X30665677Y-16731015D01*
X30624502Y-16730979D01*
X30586447Y-16746703D01*
X30557307Y-16775793D01*
X30541517Y-16813820D01*
X30541481Y-16854994D01*
X30180152Y-16854994D01*
X30042579Y-16717421D01*
X30037989Y-16714354D01*
X30013867Y-16698237D01*
X30008248Y-16697119D01*
X29980000Y-16691500D01*
X29979999Y-16691500D01*
X29636758Y-16691500D01*
X29600678Y-16676518D01*
X29559503Y-16676482D01*
X29521448Y-16692206D01*
X29492308Y-16721295D01*
X29476518Y-16759322D01*
X29476482Y-16800497D01*
X29116862Y-16800497D01*
X29098705Y-16782308D01*
X29060678Y-16766518D01*
X29019503Y-16766482D01*
X28981448Y-16782206D01*
X28952308Y-16811295D01*
X28936518Y-16849322D01*
X28936503Y-16866011D01*
X28924219Y-16874219D01*
X28910184Y-16895224D01*
X28905256Y-16920000D01*
X28800473Y-16920000D01*
X28780257Y-16889743D01*
X28743435Y-16865140D01*
X28700000Y-16856500D01*
X28636254Y-16856500D01*
X28630000Y-16855256D01*
X28470000Y-16855256D01*
X28445223Y-16860184D01*
X28424219Y-16874219D01*
X28410184Y-16895224D01*
X28405256Y-16920000D01*
X26091791Y-16920000D01*
X26161259Y-16772843D01*
X26161673Y-16771187D01*
X26162620Y-16769768D01*
X26164896Y-16758278D01*
X26167734Y-16746912D01*
X26167483Y-16745224D01*
X26167814Y-16743550D01*
X26167599Y-16454978D01*
X26269152Y-16187769D01*
X26355255Y-15981284D01*
X26357637Y-15969454D01*
X26360474Y-15957726D01*
X26377395Y-15545004D01*
X26437188Y-15133594D01*
X26467772Y-14976399D01*
X27483473Y-14976399D01*
X27506793Y-15032837D01*
X27546918Y-15073032D01*
X27506945Y-15112936D01*
X27483527Y-15169333D01*
X27483473Y-15230399D01*
X27506793Y-15286837D01*
X27546918Y-15327032D01*
X27506945Y-15366936D01*
X27483527Y-15423333D01*
X27483473Y-15484399D01*
X27506793Y-15540837D01*
X27546918Y-15581032D01*
X27506945Y-15620936D01*
X27483527Y-15677333D01*
X27483473Y-15738399D01*
X27506793Y-15794837D01*
X27546918Y-15835032D01*
X27506945Y-15874936D01*
X27483527Y-15931333D01*
X27483473Y-15992399D01*
X27506793Y-16048837D01*
X27546918Y-16089032D01*
X27506945Y-16128936D01*
X27483527Y-16185333D01*
X27483473Y-16246399D01*
X27506793Y-16302837D01*
X27549936Y-16346055D01*
X27606333Y-16369473D01*
X27667399Y-16369526D01*
X27723837Y-16346207D01*
X27767055Y-16303064D01*
X27790473Y-16246667D01*
X27790526Y-16185601D01*
X27767207Y-16129163D01*
X27727082Y-16088968D01*
X27767055Y-16049064D01*
X27790473Y-15992667D01*
X27790526Y-15931601D01*
X27767207Y-15875163D01*
X27727082Y-15834968D01*
X27767055Y-15795064D01*
X27790473Y-15738667D01*
X27790526Y-15677601D01*
X27767207Y-15621163D01*
X27727082Y-15580968D01*
X27767055Y-15541064D01*
X27790473Y-15484667D01*
X27790526Y-15423601D01*
X27767207Y-15367163D01*
X27727082Y-15326968D01*
X27767055Y-15287064D01*
X27790473Y-15230667D01*
X27790526Y-15169601D01*
X27767207Y-15113163D01*
X27744581Y-15090497D01*
X29476482Y-15090497D01*
X29492206Y-15128551D01*
X29521295Y-15157692D01*
X29559322Y-15173482D01*
X29600497Y-15173518D01*
X29636843Y-15158500D01*
X29713241Y-15158500D01*
X29749322Y-15173482D01*
X29769523Y-15173500D01*
X29769473Y-15230399D01*
X29792793Y-15286837D01*
X29832918Y-15327032D01*
X29792945Y-15366936D01*
X29769527Y-15423333D01*
X29769473Y-15484399D01*
X29792793Y-15540837D01*
X29832918Y-15581032D01*
X29792945Y-15620936D01*
X29769527Y-15677333D01*
X29769473Y-15738399D01*
X29792793Y-15794837D01*
X29832918Y-15835032D01*
X29792945Y-15874936D01*
X29769527Y-15931333D01*
X29769473Y-15992399D01*
X29792793Y-16048837D01*
X29832918Y-16089032D01*
X29792945Y-16128936D01*
X29769527Y-16185333D01*
X29769473Y-16246399D01*
X29792793Y-16302837D01*
X29835936Y-16346055D01*
X29892333Y-16369473D01*
X29953399Y-16369526D01*
X30009837Y-16346207D01*
X30053055Y-16303064D01*
X30076473Y-16246667D01*
X30076526Y-16185601D01*
X30053207Y-16129163D01*
X30013082Y-16088968D01*
X30053055Y-16049064D01*
X30076473Y-15992667D01*
X30076526Y-15931601D01*
X30053207Y-15875163D01*
X30013082Y-15834968D01*
X30053055Y-15795064D01*
X30076473Y-15738667D01*
X30076526Y-15677601D01*
X30053207Y-15621163D01*
X30013082Y-15580968D01*
X30053055Y-15541064D01*
X30076473Y-15484667D01*
X30076526Y-15423601D01*
X30053207Y-15367163D01*
X30013082Y-15326968D01*
X30053055Y-15287064D01*
X30076473Y-15230667D01*
X30076526Y-15169601D01*
X30053207Y-15113163D01*
X30013082Y-15072968D01*
X30053055Y-15033064D01*
X30076473Y-14976667D01*
X30076526Y-14915601D01*
X30053207Y-14859163D01*
X30013082Y-14818968D01*
X30053055Y-14779064D01*
X30076473Y-14722667D01*
X30076526Y-14661601D01*
X30053207Y-14605163D01*
X30013082Y-14564968D01*
X30053055Y-14525064D01*
X30076473Y-14468667D01*
X30076526Y-14407601D01*
X30053207Y-14351163D01*
X30010064Y-14307945D01*
X29953667Y-14284527D01*
X29892601Y-14284473D01*
X29836163Y-14307793D01*
X29792945Y-14350936D01*
X29769527Y-14407333D01*
X29769473Y-14468399D01*
X29792793Y-14524837D01*
X29832918Y-14565032D01*
X29792945Y-14604936D01*
X29769527Y-14661333D01*
X29769473Y-14722399D01*
X29792793Y-14778837D01*
X29832918Y-14819032D01*
X29792945Y-14858936D01*
X29769527Y-14915333D01*
X29769482Y-14966499D01*
X29749503Y-14966482D01*
X29713157Y-14981500D01*
X29636758Y-14981500D01*
X29600678Y-14966518D01*
X29559503Y-14966482D01*
X29521448Y-14982206D01*
X29492308Y-15011295D01*
X29476518Y-15049322D01*
X29476482Y-15090497D01*
X27744581Y-15090497D01*
X27727082Y-15072968D01*
X27767055Y-15033064D01*
X27790473Y-14976667D01*
X27790526Y-14915601D01*
X27767207Y-14859163D01*
X27724064Y-14815945D01*
X27721981Y-14815080D01*
X27727055Y-14800016D01*
X27637000Y-14709960D01*
X27546945Y-14800016D01*
X27552003Y-14815033D01*
X27550163Y-14815793D01*
X27506945Y-14858936D01*
X27483527Y-14915333D01*
X27483473Y-14976399D01*
X26467772Y-14976399D01*
X26487707Y-14873936D01*
X26487695Y-14871050D01*
X26488562Y-14868299D01*
X26510468Y-14667934D01*
X27482354Y-14667934D01*
X27484916Y-14728946D01*
X27503336Y-14773415D01*
X27528984Y-14782055D01*
X27619039Y-14692000D01*
X27654960Y-14692000D01*
X27745016Y-14782055D01*
X27770664Y-14773415D01*
X27791646Y-14716066D01*
X27789084Y-14655054D01*
X27770664Y-14610585D01*
X27745016Y-14601945D01*
X27654960Y-14692000D01*
X27619039Y-14692000D01*
X27528984Y-14601945D01*
X27503336Y-14610585D01*
X27482354Y-14667934D01*
X26510468Y-14667934D01*
X26519879Y-14581857D01*
X26560347Y-14468399D01*
X27483473Y-14468399D01*
X27506793Y-14524837D01*
X27549936Y-14568055D01*
X27552019Y-14568920D01*
X27546945Y-14583984D01*
X27637000Y-14674039D01*
X27727055Y-14583984D01*
X27721996Y-14568967D01*
X27723837Y-14568207D01*
X27767055Y-14525064D01*
X27790473Y-14468667D01*
X27790526Y-14407601D01*
X27767207Y-14351163D01*
X27724064Y-14307945D01*
X27667667Y-14284527D01*
X27606601Y-14284473D01*
X27550163Y-14307793D01*
X27506945Y-14350936D01*
X27483527Y-14407333D01*
X27483473Y-14468399D01*
X26560347Y-14468399D01*
X26643873Y-14234219D01*
X26825063Y-14067980D01*
X27109107Y-13915165D01*
X27361514Y-13782744D01*
X27366031Y-13779095D01*
X27371246Y-13776541D01*
X27544588Y-13644262D01*
X28601461Y-13644262D01*
X28635415Y-13726437D01*
X28698232Y-13789364D01*
X28780348Y-13823461D01*
X28869262Y-13823539D01*
X28951437Y-13789584D01*
X29014364Y-13726768D01*
X29048461Y-13644652D01*
X29048539Y-13555738D01*
X29014584Y-13473563D01*
X28951768Y-13410636D01*
X28869652Y-13376539D01*
X28780738Y-13376461D01*
X28698563Y-13410415D01*
X28635636Y-13473232D01*
X28601539Y-13555348D01*
X28601461Y-13644262D01*
X27544588Y-13644262D01*
X27553535Y-13637434D01*
X27892533Y-13410514D01*
X28331746Y-13313560D01*
X28777311Y-13292497D01*
X29222909Y-13313559D01*
X29222909Y-13313559D01*
G37*
X29222909Y-13313559D02*
X29662114Y-13410513D01*
X30001090Y-13637435D01*
X30183434Y-13776542D01*
X30188647Y-13779094D01*
X30193161Y-13782741D01*
X30445552Y-13915135D01*
X30729632Y-14067973D01*
X30910778Y-14234214D01*
X31034785Y-14581856D01*
X31066090Y-14868295D01*
X31066958Y-14871051D01*
X31066946Y-14873941D01*
X31117492Y-15133596D01*
X31177272Y-15545000D01*
X31194179Y-15957722D01*
X31197016Y-15969454D01*
X31199399Y-15981286D01*
X31284885Y-16186261D01*
X31386990Y-16454766D01*
X31386838Y-16743564D01*
X31387169Y-16745232D01*
X31386918Y-16746914D01*
X31389758Y-16758285D01*
X31392039Y-16769780D01*
X31392983Y-16771195D01*
X31393395Y-16772845D01*
X31534813Y-17072375D01*
X31592733Y-17331167D01*
X31596346Y-17339333D01*
X31598854Y-17347902D01*
X31802069Y-17737228D01*
X31778061Y-17990493D01*
X31778764Y-17997368D01*
X31778145Y-18004250D01*
X31811645Y-18317141D01*
X31659806Y-18658813D01*
X31658752Y-18663489D01*
X31656557Y-18667751D01*
X31655838Y-18676410D01*
X31653926Y-18684885D01*
X31654741Y-18689609D01*
X31654344Y-18694387D01*
X31656993Y-18702662D01*
X31658470Y-18711224D01*
X31661031Y-18715276D01*
X31662493Y-18719842D01*
X31787530Y-18945403D01*
X31811302Y-19183877D01*
X31812190Y-19186791D01*
X31812163Y-19189838D01*
X31852332Y-19401783D01*
X31705691Y-19754098D01*
X31704816Y-19758460D01*
X31702833Y-19762442D01*
X31702209Y-19771450D01*
X31700432Y-19780303D01*
X31701293Y-19784667D01*
X31700985Y-19789106D01*
X31752552Y-20192508D01*
X31606138Y-20618326D01*
X31605445Y-20623441D01*
X31603541Y-20628239D01*
X31566088Y-20832387D01*
X31566228Y-20841790D01*
X31565263Y-20851145D01*
X31595230Y-21170595D01*
X31586603Y-21566352D01*
X31504244Y-21983385D01*
X31315121Y-22365362D01*
X30977043Y-22670470D01*
X30662049Y-22910050D01*
X30168007Y-23060625D01*
X29604142Y-23143757D01*
X29098629Y-23178095D01*
X28776350Y-23184746D01*
X28454092Y-23178095D01*
X27948600Y-23143757D01*
X27594075Y-23091487D01*
X28526481Y-23091487D01*
X28542965Y-23131380D01*
X28573459Y-23161928D01*
X28613323Y-23178481D01*
X28656487Y-23178519D01*
X28696380Y-23162035D01*
X28726928Y-23131540D01*
X28743481Y-23091677D01*
X28743481Y-23091487D01*
X28826481Y-23091487D01*
X28842965Y-23131380D01*
X28873459Y-23161928D01*
X28913323Y-23178481D01*
X28956487Y-23178519D01*
X28996380Y-23162035D01*
X29026928Y-23131540D01*
X29043481Y-23091677D01*
X29043519Y-23048513D01*
X29027035Y-23008620D01*
X28996540Y-22978072D01*
X28956677Y-22961519D01*
X28913513Y-22961481D01*
X28873620Y-22977965D01*
X28843072Y-23008459D01*
X28826519Y-23048323D01*
X28826481Y-23091487D01*
X28743481Y-23091487D01*
X28743519Y-23048513D01*
X28727035Y-23008620D01*
X28696540Y-22978072D01*
X28656677Y-22961519D01*
X28613513Y-22961481D01*
X28573620Y-22977965D01*
X28543072Y-23008459D01*
X28526519Y-23048323D01*
X28526481Y-23091487D01*
X27594075Y-23091487D01*
X27384748Y-23060625D01*
X26890704Y-22910050D01*
X26575687Y-22670470D01*
X26451597Y-22558472D01*
X28616728Y-22558472D01*
X28632451Y-22596527D01*
X28635256Y-22599336D01*
X28635256Y-22655000D01*
X28640184Y-22679776D01*
X28654219Y-22700781D01*
X28675223Y-22714816D01*
X28700000Y-22719744D01*
X28750000Y-22719744D01*
X28774776Y-22714816D01*
X28795781Y-22700781D01*
X28799865Y-22694668D01*
X28814030Y-22708833D01*
X28837369Y-22718500D01*
X28846625Y-22718500D01*
X28862500Y-22702625D01*
X28862500Y-22622700D01*
X28887500Y-22622700D01*
X28887500Y-22702625D01*
X28903375Y-22718500D01*
X28912631Y-22718500D01*
X28935970Y-22708833D01*
X28953833Y-22690970D01*
X28963500Y-22667631D01*
X28963500Y-22638575D01*
X28947625Y-22622700D01*
X28887500Y-22622700D01*
X28862500Y-22622700D01*
X28814744Y-22622700D01*
X28814744Y-22597300D01*
X28862500Y-22597300D01*
X28862500Y-22517375D01*
X28887500Y-22517375D01*
X28887500Y-22597300D01*
X28947625Y-22597300D01*
X28963500Y-22581425D01*
X28963500Y-22552369D01*
X28953833Y-22529030D01*
X28935970Y-22511167D01*
X28912631Y-22501500D01*
X28903375Y-22501500D01*
X28887500Y-22517375D01*
X28862500Y-22517375D01*
X28846625Y-22501500D01*
X28837369Y-22501500D01*
X28820114Y-22508647D01*
X28808040Y-22479424D01*
X28778950Y-22450283D01*
X28740923Y-22434493D01*
X28699748Y-22434457D01*
X28661694Y-22450181D01*
X28632554Y-22479271D01*
X28616764Y-22517298D01*
X28616728Y-22558472D01*
X26451597Y-22558472D01*
X26237641Y-22365367D01*
X26218898Y-22327509D01*
X26860451Y-22327509D01*
X26860451Y-22349960D01*
X26877462Y-22366970D01*
X26900801Y-22376637D01*
X26926062Y-22376637D01*
X26949401Y-22366970D01*
X26966411Y-22349960D01*
X26966411Y-22327509D01*
X26956411Y-22317509D01*
X30543588Y-22317509D01*
X30543588Y-22339960D01*
X30560599Y-22356970D01*
X30583937Y-22366637D01*
X30609199Y-22366637D01*
X30632538Y-22356970D01*
X30649548Y-22339960D01*
X30649548Y-22317509D01*
X30596568Y-22264529D01*
X30543588Y-22317509D01*
X26956411Y-22317509D01*
X26913431Y-22274529D01*
X26860451Y-22327509D01*
X26218898Y-22327509D01*
X26190030Y-22269199D01*
X26793363Y-22269199D01*
X26803030Y-22292538D01*
X26820040Y-22309549D01*
X26842491Y-22309549D01*
X26895471Y-22256569D01*
X26842491Y-22203589D01*
X26820040Y-22203589D01*
X26803030Y-22220599D01*
X26793363Y-22243938D01*
X26793363Y-22269199D01*
X26190030Y-22269199D01*
X26137540Y-22163177D01*
X26860451Y-22163177D01*
X26860451Y-22185628D01*
X26913431Y-22238608D01*
X26943523Y-22208516D01*
X26961484Y-22226477D01*
X26931392Y-22256569D01*
X26984372Y-22309549D01*
X27006823Y-22309549D01*
X27023833Y-22292538D01*
X27033500Y-22269200D01*
X27033500Y-22263365D01*
X27051345Y-22259816D01*
X27072349Y-22245781D01*
X27128918Y-22189212D01*
X27132498Y-22183855D01*
X27157692Y-22158705D01*
X27173482Y-22120678D01*
X27173491Y-22110497D01*
X30336482Y-22110497D01*
X30352206Y-22148552D01*
X30377578Y-22173968D01*
X30381082Y-22179212D01*
X30437651Y-22235781D01*
X30458655Y-22249816D01*
X30476500Y-22253365D01*
X30476500Y-22259200D01*
X30486167Y-22282538D01*
X30503177Y-22299549D01*
X30525628Y-22299549D01*
X30578608Y-22246569D01*
X30614529Y-22246569D01*
X30667509Y-22299549D01*
X30689960Y-22299549D01*
X30706970Y-22282538D01*
X30716637Y-22259199D01*
X30716637Y-22233938D01*
X30706970Y-22210599D01*
X30689960Y-22193589D01*
X30667509Y-22193589D01*
X30614529Y-22246569D01*
X30578608Y-22246569D01*
X30548516Y-22216477D01*
X30566477Y-22198516D01*
X30596568Y-22228608D01*
X30649548Y-22175628D01*
X30649548Y-22153177D01*
X30632538Y-22136167D01*
X30609199Y-22126500D01*
X30603365Y-22126500D01*
X30599816Y-22108655D01*
X30585781Y-22087651D01*
X30529212Y-22031082D01*
X30523855Y-22027502D01*
X30498705Y-22002308D01*
X30460678Y-21986518D01*
X30419503Y-21986482D01*
X30381448Y-22002206D01*
X30352308Y-22031295D01*
X30336518Y-22069322D01*
X30336482Y-22110497D01*
X27173491Y-22110497D01*
X27173518Y-22079503D01*
X27157794Y-22041449D01*
X27128705Y-22012308D01*
X27090678Y-21996518D01*
X27049503Y-21996482D01*
X27011448Y-22012206D01*
X26986032Y-22037578D01*
X26980788Y-22041082D01*
X26924219Y-22097651D01*
X26910184Y-22118655D01*
X26906635Y-22136500D01*
X26900800Y-22136500D01*
X26877462Y-22146167D01*
X26860451Y-22163177D01*
X26137540Y-22163177D01*
X26048531Y-21983395D01*
X25966172Y-21566365D01*
X25962540Y-21400000D01*
X26235256Y-21400000D01*
X26235256Y-21600000D01*
X26240184Y-21624777D01*
X26254219Y-21645781D01*
X26275223Y-21659816D01*
X26300000Y-21664744D01*
X26500000Y-21664744D01*
X26524776Y-21659816D01*
X26545781Y-21645781D01*
X26559816Y-21624777D01*
X26564744Y-21600000D01*
X26564744Y-21547233D01*
X28533819Y-21547233D01*
X28570052Y-21634923D01*
X28637084Y-21702073D01*
X28724711Y-21738459D01*
X28819592Y-21738541D01*
X28907283Y-21702308D01*
X28974433Y-21635276D01*
X29010818Y-21547649D01*
X29010901Y-21452768D01*
X28974668Y-21365077D01*
X28907636Y-21297927D01*
X28820009Y-21261542D01*
X28725127Y-21261459D01*
X28637437Y-21297692D01*
X28570287Y-21364724D01*
X28533901Y-21452351D01*
X28533819Y-21547233D01*
X26564744Y-21547233D01*
X26564744Y-21400000D01*
X26559816Y-21375224D01*
X26545781Y-21354219D01*
X26524776Y-21340184D01*
X26500000Y-21335256D01*
X26300000Y-21335256D01*
X26275223Y-21340184D01*
X26254219Y-21354219D01*
X26240184Y-21375224D01*
X26235256Y-21400000D01*
X25962540Y-21400000D01*
X25957530Y-21170602D01*
X25987469Y-20851139D01*
X25986504Y-20841797D01*
X25986647Y-20832406D01*
X25956445Y-20667509D01*
X26470451Y-20667509D01*
X26470451Y-20689960D01*
X26487462Y-20706970D01*
X26510801Y-20716637D01*
X26536062Y-20716637D01*
X26559401Y-20706970D01*
X26576411Y-20689960D01*
X26576411Y-20667509D01*
X26566411Y-20657509D01*
X30973588Y-20657509D01*
X30973588Y-20679960D01*
X30990599Y-20696970D01*
X31013937Y-20706637D01*
X31039199Y-20706637D01*
X31062538Y-20696970D01*
X31079548Y-20679960D01*
X31079548Y-20657509D01*
X31026568Y-20604529D01*
X30973588Y-20657509D01*
X26566411Y-20657509D01*
X26523431Y-20614529D01*
X26470451Y-20667509D01*
X25956445Y-20667509D01*
X25949256Y-20628258D01*
X25947348Y-20623448D01*
X25946652Y-20618321D01*
X25943515Y-20609199D01*
X26403363Y-20609199D01*
X26413030Y-20632538D01*
X26430040Y-20649549D01*
X26452491Y-20649549D01*
X26505471Y-20596569D01*
X26452491Y-20543589D01*
X26430040Y-20543589D01*
X26413030Y-20560599D01*
X26403363Y-20583938D01*
X26403363Y-20609199D01*
X25943515Y-20609199D01*
X25907051Y-20503177D01*
X26470451Y-20503177D01*
X26470451Y-20525628D01*
X26523431Y-20578608D01*
X26553523Y-20548516D01*
X26571484Y-20566477D01*
X26541392Y-20596569D01*
X26594372Y-20649549D01*
X26616823Y-20649549D01*
X26633833Y-20632538D01*
X26643500Y-20609200D01*
X26643500Y-20603365D01*
X26661345Y-20599816D01*
X26682349Y-20585781D01*
X26738918Y-20529212D01*
X26745783Y-20518938D01*
X26748551Y-20517794D01*
X26777692Y-20488705D01*
X26793482Y-20450678D01*
X26793491Y-20440497D01*
X30756482Y-20440497D01*
X30772206Y-20478552D01*
X30801295Y-20507692D01*
X30804186Y-20508892D01*
X30811082Y-20519212D01*
X30867651Y-20575781D01*
X30888655Y-20589816D01*
X30906500Y-20593365D01*
X30906500Y-20599200D01*
X30916167Y-20622538D01*
X30933177Y-20639549D01*
X30955628Y-20639549D01*
X31008608Y-20586569D01*
X31044529Y-20586569D01*
X31097509Y-20639549D01*
X31119960Y-20639549D01*
X31136970Y-20622538D01*
X31146637Y-20599199D01*
X31146637Y-20573938D01*
X31136970Y-20550599D01*
X31119960Y-20533589D01*
X31097509Y-20533589D01*
X31044529Y-20586569D01*
X31008608Y-20586569D01*
X30978516Y-20556477D01*
X30996477Y-20538516D01*
X31026568Y-20568608D01*
X31079548Y-20515628D01*
X31079548Y-20493177D01*
X31062538Y-20476167D01*
X31039199Y-20466500D01*
X31033365Y-20466500D01*
X31029816Y-20448655D01*
X31015781Y-20427651D01*
X30959212Y-20371082D01*
X30948938Y-20364217D01*
X30947794Y-20361449D01*
X30918705Y-20332308D01*
X30880678Y-20316518D01*
X30839503Y-20316482D01*
X30801448Y-20332206D01*
X30772308Y-20361295D01*
X30756518Y-20399322D01*
X30756482Y-20440497D01*
X26793491Y-20440497D01*
X26793518Y-20409503D01*
X26777794Y-20371449D01*
X26748705Y-20342308D01*
X26710678Y-20326518D01*
X26669503Y-20326482D01*
X26631448Y-20342206D01*
X26602308Y-20371295D01*
X26601108Y-20374186D01*
X26590788Y-20381082D01*
X26534219Y-20437651D01*
X26520184Y-20458655D01*
X26516635Y-20476500D01*
X26510800Y-20476500D01*
X26487462Y-20486167D01*
X26470451Y-20503177D01*
X25907051Y-20503177D01*
X25852735Y-20345253D01*
X26302707Y-20345253D01*
X26312574Y-20371939D01*
X26373546Y-20394591D01*
X26438546Y-20392186D01*
X26487426Y-20371939D01*
X26497293Y-20345253D01*
X26400000Y-20247961D01*
X26302707Y-20345253D01*
X25852735Y-20345253D01*
X25803996Y-20203546D01*
X26235409Y-20203546D01*
X26237814Y-20268546D01*
X26258061Y-20317426D01*
X26284747Y-20327293D01*
X26382039Y-20230000D01*
X26417960Y-20230000D01*
X26515253Y-20327293D01*
X26541939Y-20317426D01*
X26564591Y-20256454D01*
X26562186Y-20191454D01*
X26541939Y-20142574D01*
X26515253Y-20132707D01*
X26417960Y-20230000D01*
X26382039Y-20230000D01*
X26284747Y-20132707D01*
X26258061Y-20142574D01*
X26235409Y-20203546D01*
X25803996Y-20203546D01*
X25800198Y-20192503D01*
X25810134Y-20114747D01*
X26302707Y-20114747D01*
X26400000Y-20212040D01*
X26497293Y-20114747D01*
X26487426Y-20088061D01*
X26426454Y-20065409D01*
X26361454Y-20067814D01*
X26312574Y-20088061D01*
X26302707Y-20114747D01*
X25810134Y-20114747D01*
X25851746Y-19789103D01*
X25851439Y-19784671D01*
X25852299Y-19780312D01*
X25850522Y-19771453D01*
X25849897Y-19762439D01*
X25847917Y-19758463D01*
X25847043Y-19754107D01*
X25736124Y-19487509D01*
X26360451Y-19487509D01*
X26360451Y-19509960D01*
X26377462Y-19526970D01*
X26400801Y-19536637D01*
X26426062Y-19536637D01*
X26449401Y-19526970D01*
X26466411Y-19509960D01*
X26466411Y-19487509D01*
X26456411Y-19477509D01*
X31083588Y-19477509D01*
X31083588Y-19499960D01*
X31100599Y-19516970D01*
X31123937Y-19526637D01*
X31149199Y-19526637D01*
X31172538Y-19516970D01*
X31189548Y-19499960D01*
X31189548Y-19477509D01*
X31136568Y-19424529D01*
X31083588Y-19477509D01*
X26456411Y-19477509D01*
X26413431Y-19434529D01*
X26360451Y-19487509D01*
X25736124Y-19487509D01*
X25711864Y-19429199D01*
X26293363Y-19429199D01*
X26303030Y-19452538D01*
X26320040Y-19469549D01*
X26342491Y-19469549D01*
X26395471Y-19416569D01*
X26342491Y-19363589D01*
X26320040Y-19363589D01*
X26303030Y-19380599D01*
X26293363Y-19403938D01*
X26293363Y-19429199D01*
X25711864Y-19429199D01*
X25700590Y-19402103D01*
X25716297Y-19323177D01*
X26360451Y-19323177D01*
X26360451Y-19345628D01*
X26413431Y-19398608D01*
X26443523Y-19368516D01*
X26461484Y-19386477D01*
X26431392Y-19416569D01*
X26484372Y-19469549D01*
X26506823Y-19469549D01*
X26523833Y-19452538D01*
X26533500Y-19429200D01*
X26533500Y-19423365D01*
X26551345Y-19419816D01*
X26572349Y-19405781D01*
X26628918Y-19349212D01*
X26632498Y-19343855D01*
X26657692Y-19318705D01*
X26673482Y-19280678D01*
X26673499Y-19260497D01*
X30866482Y-19260497D01*
X30882206Y-19298552D01*
X30911295Y-19327692D01*
X30914186Y-19328892D01*
X30921082Y-19339212D01*
X30977651Y-19395781D01*
X30998655Y-19409816D01*
X31016500Y-19413365D01*
X31016500Y-19419200D01*
X31026167Y-19442538D01*
X31043177Y-19459549D01*
X31065628Y-19459549D01*
X31118608Y-19406569D01*
X31154529Y-19406569D01*
X31207509Y-19459549D01*
X31229960Y-19459549D01*
X31246970Y-19442538D01*
X31256637Y-19419199D01*
X31256637Y-19393938D01*
X31246970Y-19370599D01*
X31229960Y-19353589D01*
X31207509Y-19353589D01*
X31154529Y-19406569D01*
X31118608Y-19406569D01*
X31088516Y-19376477D01*
X31106477Y-19358516D01*
X31136568Y-19388608D01*
X31189548Y-19335628D01*
X31189548Y-19313177D01*
X31172538Y-19296167D01*
X31149199Y-19286500D01*
X31143365Y-19286500D01*
X31139816Y-19268655D01*
X31125781Y-19247651D01*
X31069212Y-19191082D01*
X31058938Y-19184217D01*
X31057794Y-19181449D01*
X31028705Y-19152308D01*
X30990678Y-19136518D01*
X30949503Y-19136482D01*
X30911448Y-19152206D01*
X30882308Y-19181295D01*
X30866518Y-19219322D01*
X30866482Y-19260497D01*
X26673499Y-19260497D01*
X26673518Y-19239503D01*
X26657794Y-19201449D01*
X26628705Y-19172308D01*
X26590678Y-19156518D01*
X26549503Y-19156482D01*
X26511448Y-19172206D01*
X26486032Y-19197578D01*
X26480788Y-19201082D01*
X26424219Y-19257651D01*
X26410184Y-19278655D01*
X26406635Y-19296500D01*
X26400800Y-19296500D01*
X26377462Y-19306167D01*
X26360451Y-19323177D01*
X25716297Y-19323177D01*
X25742618Y-19190918D01*
X25742619Y-19187557D01*
X25743598Y-19184341D01*
X25767364Y-18945862D01*
X25892351Y-18720297D01*
X25893810Y-18715739D01*
X25896366Y-18711694D01*
X25897846Y-18703124D01*
X25900496Y-18694841D01*
X25900099Y-18690072D01*
X25900913Y-18685356D01*
X25899000Y-18676872D01*
X25898278Y-18668206D01*
X25896087Y-18663952D01*
X25895034Y-18659283D01*
X25743226Y-18317617D01*
X25745381Y-18297509D01*
X26420451Y-18297509D01*
X26420451Y-18319960D01*
X26437462Y-18336970D01*
X26460801Y-18346637D01*
X26486062Y-18346637D01*
X26509401Y-18336970D01*
X26526411Y-18319960D01*
X26526411Y-18297509D01*
X26516411Y-18287509D01*
X31013588Y-18287509D01*
X31013588Y-18309960D01*
X31030599Y-18326970D01*
X31053937Y-18336637D01*
X31079199Y-18336637D01*
X31102538Y-18326970D01*
X31119548Y-18309960D01*
X31119548Y-18287509D01*
X31066568Y-18234529D01*
X31013588Y-18287509D01*
X26516411Y-18287509D01*
X26473431Y-18244529D01*
X26420451Y-18297509D01*
X25745381Y-18297509D01*
X25751630Y-18239199D01*
X26353363Y-18239199D01*
X26363030Y-18262538D01*
X26380040Y-18279549D01*
X26402491Y-18279549D01*
X26455471Y-18226569D01*
X26402491Y-18173589D01*
X26380040Y-18173589D01*
X26363030Y-18190599D01*
X26353363Y-18213938D01*
X26353363Y-18239199D01*
X25751630Y-18239199D01*
X25762992Y-18133177D01*
X26420451Y-18133177D01*
X26420451Y-18155628D01*
X26473431Y-18208608D01*
X26503523Y-18178516D01*
X26521484Y-18196477D01*
X26491392Y-18226569D01*
X26544372Y-18279549D01*
X26566823Y-18279549D01*
X26583833Y-18262538D01*
X26593500Y-18239200D01*
X26593500Y-18233365D01*
X26611345Y-18229816D01*
X26632349Y-18215781D01*
X26684551Y-18163579D01*
X26698551Y-18157794D01*
X26727692Y-18128705D01*
X26743482Y-18090678D01*
X26743491Y-18080497D01*
X30796482Y-18080497D01*
X30812206Y-18118552D01*
X30841295Y-18147692D01*
X30855431Y-18153562D01*
X30907651Y-18205781D01*
X30928655Y-18219816D01*
X30946500Y-18223365D01*
X30946500Y-18229200D01*
X30956167Y-18252538D01*
X30973177Y-18269549D01*
X30995628Y-18269549D01*
X31048608Y-18216569D01*
X31084529Y-18216569D01*
X31137509Y-18269549D01*
X31159960Y-18269549D01*
X31176970Y-18252538D01*
X31186637Y-18229199D01*
X31186637Y-18203938D01*
X31176970Y-18180599D01*
X31159960Y-18163589D01*
X31137509Y-18163589D01*
X31084529Y-18216569D01*
X31048608Y-18216569D01*
X31018516Y-18186477D01*
X31036477Y-18168516D01*
X31066568Y-18198608D01*
X31119548Y-18145628D01*
X31119548Y-18123177D01*
X31102538Y-18106167D01*
X31079199Y-18096500D01*
X31073365Y-18096500D01*
X31069816Y-18078655D01*
X31055781Y-18057651D01*
X30999212Y-18001082D01*
X30978208Y-17987047D01*
X30972231Y-17985859D01*
X30958705Y-17972308D01*
X30920678Y-17956518D01*
X30879503Y-17956482D01*
X30841448Y-17972206D01*
X30812308Y-18001295D01*
X30796518Y-18039322D01*
X30796482Y-18080497D01*
X26743491Y-18080497D01*
X26743518Y-18049503D01*
X26727794Y-18011449D01*
X26698705Y-17982308D01*
X26660678Y-17966518D01*
X26619503Y-17966482D01*
X26581448Y-17982206D01*
X26567773Y-17995858D01*
X26561792Y-17997047D01*
X26540788Y-18011082D01*
X26484219Y-18067651D01*
X26470184Y-18088655D01*
X26466635Y-18106500D01*
X26460800Y-18106500D01*
X26437462Y-18116167D01*
X26420451Y-18133177D01*
X25762992Y-18133177D01*
X25776755Y-18004754D01*
X25776134Y-17997846D01*
X25776835Y-17990946D01*
X25752621Y-17737264D01*
X25955773Y-17347893D01*
X25958276Y-17339335D01*
X25961886Y-17331180D01*
X25982310Y-17240000D01*
X28405256Y-17240000D01*
X28405256Y-17340000D01*
X28410184Y-17364777D01*
X28424219Y-17385781D01*
X28445223Y-17399816D01*
X28470000Y-17404744D01*
X28630000Y-17404744D01*
X28654776Y-17399816D01*
X28675781Y-17385781D01*
X28689816Y-17364777D01*
X28694744Y-17340000D01*
X28694744Y-17318575D01*
X28906500Y-17318575D01*
X28906500Y-17352631D01*
X28916167Y-17375970D01*
X28934030Y-17393833D01*
X28957369Y-17403500D01*
X29021425Y-17403500D01*
X29037300Y-17387625D01*
X29037300Y-17302700D01*
X29062700Y-17302700D01*
X29062700Y-17387625D01*
X29078575Y-17403500D01*
X29142631Y-17403500D01*
X29165970Y-17393833D01*
X29183833Y-17375970D01*
X29193500Y-17352631D01*
X29193500Y-17318575D01*
X29177625Y-17302700D01*
X29062700Y-17302700D01*
X29037300Y-17302700D01*
X28922375Y-17302700D01*
X28906500Y-17318575D01*
X28694744Y-17318575D01*
X28694744Y-17240000D01*
X28692232Y-17227369D01*
X28906500Y-17227369D01*
X28906500Y-17261425D01*
X28922375Y-17277300D01*
X29037300Y-17277300D01*
X29037300Y-17192375D01*
X29062700Y-17192375D01*
X29062700Y-17277300D01*
X29177625Y-17277300D01*
X29193500Y-17261425D01*
X29193500Y-17227369D01*
X29183833Y-17204030D01*
X29165970Y-17186167D01*
X29142631Y-17176500D01*
X29078575Y-17176500D01*
X29062700Y-17192375D01*
X29037300Y-17192375D01*
X29021425Y-17176500D01*
X28957369Y-17176500D01*
X28934030Y-17186167D01*
X28916167Y-17204030D01*
X28906500Y-17227369D01*
X28692232Y-17227369D01*
X28689816Y-17215224D01*
X28675781Y-17194219D01*
X28654776Y-17180184D01*
X28630000Y-17175256D01*
X28470000Y-17175256D01*
X28445223Y-17180184D01*
X28424219Y-17194219D01*
X28410184Y-17215224D01*
X28405256Y-17240000D01*
X25982310Y-17240000D01*
X26019857Y-17072380D01*
X26091791Y-16920000D01*
X28405256Y-16920000D01*
X28405256Y-17020000D01*
X28410184Y-17044777D01*
X28424219Y-17065781D01*
X28445223Y-17079816D01*
X28470000Y-17084744D01*
X28630000Y-17084744D01*
X28636254Y-17083500D01*
X28700000Y-17083500D01*
X28743435Y-17074860D01*
X28780257Y-17050257D01*
X28804860Y-17013435D01*
X28813500Y-16970000D01*
X28804860Y-16926565D01*
X28800473Y-16920000D01*
X28905256Y-16920000D01*
X28905256Y-17020000D01*
X28910184Y-17044777D01*
X28924219Y-17065781D01*
X28945223Y-17079816D01*
X28970000Y-17084744D01*
X29130000Y-17084744D01*
X29154776Y-17079816D01*
X29175781Y-17065781D01*
X29189816Y-17044777D01*
X29194744Y-17020000D01*
X29194744Y-16920000D01*
X29189816Y-16895224D01*
X29175781Y-16874219D01*
X29154776Y-16860184D01*
X29143510Y-16857943D01*
X29143518Y-16849503D01*
X29127794Y-16811449D01*
X29116862Y-16800497D01*
X29476482Y-16800497D01*
X29492206Y-16838552D01*
X29521295Y-16867692D01*
X29559322Y-16883482D01*
X29576514Y-16883497D01*
X29576482Y-16920497D01*
X29592206Y-16958552D01*
X29621295Y-16987692D01*
X29659322Y-17003482D01*
X29700497Y-17003518D01*
X29736843Y-16988500D01*
X29843241Y-16988500D01*
X29879322Y-17003482D01*
X29920497Y-17003518D01*
X29958551Y-16987794D01*
X29987692Y-16958705D01*
X30001146Y-16926304D01*
X30057287Y-16982445D01*
X30072206Y-17018552D01*
X30101295Y-17047692D01*
X30139322Y-17063482D01*
X30180497Y-17063518D01*
X30218551Y-17047794D01*
X30224986Y-17041371D01*
X30231295Y-17047692D01*
X30267615Y-17062773D01*
X30331500Y-17126658D01*
X30331500Y-17403242D01*
X30316518Y-17439322D01*
X30316482Y-17480497D01*
X30332206Y-17518552D01*
X30361295Y-17547692D01*
X30399322Y-17563482D01*
X30440497Y-17563518D01*
X30478551Y-17547794D01*
X30507692Y-17518705D01*
X30523482Y-17480678D01*
X30523518Y-17439503D01*
X30508500Y-17403157D01*
X30508500Y-17090001D01*
X30508500Y-17090000D01*
X30501763Y-17056133D01*
X30501763Y-17056133D01*
X30482579Y-17027421D01*
X30482579Y-17027421D01*
X30392713Y-16937555D01*
X30377794Y-16901449D01*
X30348705Y-16872308D01*
X30310678Y-16856518D01*
X30269503Y-16856482D01*
X30231448Y-16872206D01*
X30225014Y-16878629D01*
X30218705Y-16872308D01*
X30182385Y-16857227D01*
X30180152Y-16854994D01*
X30541481Y-16854994D01*
X30556499Y-16891341D01*
X30556499Y-16894999D01*
X30556499Y-16894999D01*
X30561571Y-16920497D01*
X30563236Y-16928867D01*
X30577024Y-16949503D01*
X30582420Y-16957578D01*
X30671500Y-17046658D01*
X30671500Y-17083242D01*
X30656518Y-17119322D01*
X30656482Y-17160497D01*
X30672206Y-17198552D01*
X30701295Y-17227692D01*
X30739322Y-17243482D01*
X30780497Y-17243518D01*
X30818551Y-17227794D01*
X30820976Y-17225373D01*
X30822678Y-17227078D01*
X30860705Y-17242868D01*
X30901879Y-17242904D01*
X30939934Y-17227180D01*
X30969074Y-17198090D01*
X30984864Y-17160063D01*
X30984900Y-17118889D01*
X30969882Y-17082542D01*
X30969882Y-16970760D01*
X30969882Y-16970759D01*
X30963146Y-16936892D01*
X30957783Y-16928867D01*
X30943961Y-16908180D01*
X30943961Y-16908180D01*
X30932721Y-16896940D01*
X30917802Y-16860833D01*
X30888712Y-16831693D01*
X30850685Y-16815903D01*
X30809511Y-16815867D01*
X30771456Y-16831590D01*
X30748482Y-16854525D01*
X30748517Y-16814000D01*
X30732793Y-16775946D01*
X30703704Y-16746805D01*
X30665677Y-16731015D01*
X30624502Y-16730979D01*
X30586447Y-16746703D01*
X30557307Y-16775793D01*
X30541517Y-16813820D01*
X30541481Y-16854994D01*
X30180152Y-16854994D01*
X30042579Y-16717421D01*
X30037989Y-16714354D01*
X30013867Y-16698237D01*
X30008248Y-16697119D01*
X29980000Y-16691500D01*
X29979999Y-16691500D01*
X29636758Y-16691500D01*
X29600678Y-16676518D01*
X29559503Y-16676482D01*
X29521448Y-16692206D01*
X29492308Y-16721295D01*
X29476518Y-16759322D01*
X29476482Y-16800497D01*
X29116862Y-16800497D01*
X29098705Y-16782308D01*
X29060678Y-16766518D01*
X29019503Y-16766482D01*
X28981448Y-16782206D01*
X28952308Y-16811295D01*
X28936518Y-16849322D01*
X28936503Y-16866011D01*
X28924219Y-16874219D01*
X28910184Y-16895224D01*
X28905256Y-16920000D01*
X28800473Y-16920000D01*
X28780257Y-16889743D01*
X28743435Y-16865140D01*
X28700000Y-16856500D01*
X28636254Y-16856500D01*
X28630000Y-16855256D01*
X28470000Y-16855256D01*
X28445223Y-16860184D01*
X28424219Y-16874219D01*
X28410184Y-16895224D01*
X28405256Y-16920000D01*
X26091791Y-16920000D01*
X26161259Y-16772843D01*
X26161673Y-16771187D01*
X26162620Y-16769768D01*
X26164896Y-16758278D01*
X26167734Y-16746912D01*
X26167483Y-16745224D01*
X26167814Y-16743550D01*
X26167599Y-16454978D01*
X26269152Y-16187769D01*
X26355255Y-15981284D01*
X26357637Y-15969454D01*
X26360474Y-15957726D01*
X26377395Y-15545004D01*
X26437188Y-15133594D01*
X26467772Y-14976399D01*
X27483473Y-14976399D01*
X27506793Y-15032837D01*
X27546918Y-15073032D01*
X27506945Y-15112936D01*
X27483527Y-15169333D01*
X27483473Y-15230399D01*
X27506793Y-15286837D01*
X27546918Y-15327032D01*
X27506945Y-15366936D01*
X27483527Y-15423333D01*
X27483473Y-15484399D01*
X27506793Y-15540837D01*
X27546918Y-15581032D01*
X27506945Y-15620936D01*
X27483527Y-15677333D01*
X27483473Y-15738399D01*
X27506793Y-15794837D01*
X27546918Y-15835032D01*
X27506945Y-15874936D01*
X27483527Y-15931333D01*
X27483473Y-15992399D01*
X27506793Y-16048837D01*
X27546918Y-16089032D01*
X27506945Y-16128936D01*
X27483527Y-16185333D01*
X27483473Y-16246399D01*
X27506793Y-16302837D01*
X27549936Y-16346055D01*
X27606333Y-16369473D01*
X27667399Y-16369526D01*
X27723837Y-16346207D01*
X27767055Y-16303064D01*
X27790473Y-16246667D01*
X27790526Y-16185601D01*
X27767207Y-16129163D01*
X27727082Y-16088968D01*
X27767055Y-16049064D01*
X27790473Y-15992667D01*
X27790526Y-15931601D01*
X27767207Y-15875163D01*
X27727082Y-15834968D01*
X27767055Y-15795064D01*
X27790473Y-15738667D01*
X27790526Y-15677601D01*
X27767207Y-15621163D01*
X27727082Y-15580968D01*
X27767055Y-15541064D01*
X27790473Y-15484667D01*
X27790526Y-15423601D01*
X27767207Y-15367163D01*
X27727082Y-15326968D01*
X27767055Y-15287064D01*
X27790473Y-15230667D01*
X27790526Y-15169601D01*
X27767207Y-15113163D01*
X27744581Y-15090497D01*
X29476482Y-15090497D01*
X29492206Y-15128551D01*
X29521295Y-15157692D01*
X29559322Y-15173482D01*
X29600497Y-15173518D01*
X29636843Y-15158500D01*
X29713241Y-15158500D01*
X29749322Y-15173482D01*
X29769523Y-15173500D01*
X29769473Y-15230399D01*
X29792793Y-15286837D01*
X29832918Y-15327032D01*
X29792945Y-15366936D01*
X29769527Y-15423333D01*
X29769473Y-15484399D01*
X29792793Y-15540837D01*
X29832918Y-15581032D01*
X29792945Y-15620936D01*
X29769527Y-15677333D01*
X29769473Y-15738399D01*
X29792793Y-15794837D01*
X29832918Y-15835032D01*
X29792945Y-15874936D01*
X29769527Y-15931333D01*
X29769473Y-15992399D01*
X29792793Y-16048837D01*
X29832918Y-16089032D01*
X29792945Y-16128936D01*
X29769527Y-16185333D01*
X29769473Y-16246399D01*
X29792793Y-16302837D01*
X29835936Y-16346055D01*
X29892333Y-16369473D01*
X29953399Y-16369526D01*
X30009837Y-16346207D01*
X30053055Y-16303064D01*
X30076473Y-16246667D01*
X30076526Y-16185601D01*
X30053207Y-16129163D01*
X30013082Y-16088968D01*
X30053055Y-16049064D01*
X30076473Y-15992667D01*
X30076526Y-15931601D01*
X30053207Y-15875163D01*
X30013082Y-15834968D01*
X30053055Y-15795064D01*
X30076473Y-15738667D01*
X30076526Y-15677601D01*
X30053207Y-15621163D01*
X30013082Y-15580968D01*
X30053055Y-15541064D01*
X30076473Y-15484667D01*
X30076526Y-15423601D01*
X30053207Y-15367163D01*
X30013082Y-15326968D01*
X30053055Y-15287064D01*
X30076473Y-15230667D01*
X30076526Y-15169601D01*
X30053207Y-15113163D01*
X30013082Y-15072968D01*
X30053055Y-15033064D01*
X30076473Y-14976667D01*
X30076526Y-14915601D01*
X30053207Y-14859163D01*
X30013082Y-14818968D01*
X30053055Y-14779064D01*
X30076473Y-14722667D01*
X30076526Y-14661601D01*
X30053207Y-14605163D01*
X30013082Y-14564968D01*
X30053055Y-14525064D01*
X30076473Y-14468667D01*
X30076526Y-14407601D01*
X30053207Y-14351163D01*
X30010064Y-14307945D01*
X29953667Y-14284527D01*
X29892601Y-14284473D01*
X29836163Y-14307793D01*
X29792945Y-14350936D01*
X29769527Y-14407333D01*
X29769473Y-14468399D01*
X29792793Y-14524837D01*
X29832918Y-14565032D01*
X29792945Y-14604936D01*
X29769527Y-14661333D01*
X29769473Y-14722399D01*
X29792793Y-14778837D01*
X29832918Y-14819032D01*
X29792945Y-14858936D01*
X29769527Y-14915333D01*
X29769482Y-14966499D01*
X29749503Y-14966482D01*
X29713157Y-14981500D01*
X29636758Y-14981500D01*
X29600678Y-14966518D01*
X29559503Y-14966482D01*
X29521448Y-14982206D01*
X29492308Y-15011295D01*
X29476518Y-15049322D01*
X29476482Y-15090497D01*
X27744581Y-15090497D01*
X27727082Y-15072968D01*
X27767055Y-15033064D01*
X27790473Y-14976667D01*
X27790526Y-14915601D01*
X27767207Y-14859163D01*
X27724064Y-14815945D01*
X27721981Y-14815080D01*
X27727055Y-14800016D01*
X27637000Y-14709960D01*
X27546945Y-14800016D01*
X27552003Y-14815033D01*
X27550163Y-14815793D01*
X27506945Y-14858936D01*
X27483527Y-14915333D01*
X27483473Y-14976399D01*
X26467772Y-14976399D01*
X26487707Y-14873936D01*
X26487695Y-14871050D01*
X26488562Y-14868299D01*
X26510468Y-14667934D01*
X27482354Y-14667934D01*
X27484916Y-14728946D01*
X27503336Y-14773415D01*
X27528984Y-14782055D01*
X27619039Y-14692000D01*
X27654960Y-14692000D01*
X27745016Y-14782055D01*
X27770664Y-14773415D01*
X27791646Y-14716066D01*
X27789084Y-14655054D01*
X27770664Y-14610585D01*
X27745016Y-14601945D01*
X27654960Y-14692000D01*
X27619039Y-14692000D01*
X27528984Y-14601945D01*
X27503336Y-14610585D01*
X27482354Y-14667934D01*
X26510468Y-14667934D01*
X26519879Y-14581857D01*
X26560347Y-14468399D01*
X27483473Y-14468399D01*
X27506793Y-14524837D01*
X27549936Y-14568055D01*
X27552019Y-14568920D01*
X27546945Y-14583984D01*
X27637000Y-14674039D01*
X27727055Y-14583984D01*
X27721996Y-14568967D01*
X27723837Y-14568207D01*
X27767055Y-14525064D01*
X27790473Y-14468667D01*
X27790526Y-14407601D01*
X27767207Y-14351163D01*
X27724064Y-14307945D01*
X27667667Y-14284527D01*
X27606601Y-14284473D01*
X27550163Y-14307793D01*
X27506945Y-14350936D01*
X27483527Y-14407333D01*
X27483473Y-14468399D01*
X26560347Y-14468399D01*
X26643873Y-14234219D01*
X26825063Y-14067980D01*
X27109107Y-13915165D01*
X27361514Y-13782744D01*
X27366031Y-13779095D01*
X27371246Y-13776541D01*
X27544588Y-13644262D01*
X28601461Y-13644262D01*
X28635415Y-13726437D01*
X28698232Y-13789364D01*
X28780348Y-13823461D01*
X28869262Y-13823539D01*
X28951437Y-13789584D01*
X29014364Y-13726768D01*
X29048461Y-13644652D01*
X29048539Y-13555738D01*
X29014584Y-13473563D01*
X28951768Y-13410636D01*
X28869652Y-13376539D01*
X28780738Y-13376461D01*
X28698563Y-13410415D01*
X28635636Y-13473232D01*
X28601539Y-13555348D01*
X28601461Y-13644262D01*
X27544588Y-13644262D01*
X27553535Y-13637434D01*
X27892533Y-13410514D01*
X28331746Y-13313560D01*
X28777311Y-13292497D01*
X29222909Y-13313559D01*
M02*
