G04 #@! TF.GenerationSoftware,KiCad,Pcbnew,no-vcs-found-bf44d39~61~ubuntu16.04.1*
G04 #@! TF.CreationDate,2018-01-11T19:38:33+02:00*
G04 #@! TF.ProjectId,shd18-badge,73686431382D62616467652E6B696361,rev?*
G04 #@! TF.SameCoordinates,Original*
G04 #@! TF.FileFunction,Copper,L2,Bot,Signal*
G04 #@! TF.FilePolarity,Positive*
%FSLAX45Y45*%
G04 Gerber Fmt 4.5, Leading zero omitted, Abs format (unit mm)*
G04 Created by KiCad (PCBNEW no-vcs-found-bf44d39~61~ubuntu16.04.1) date Thu Jan 11 19:38:33 2018*
%MOMM*%
%LPD*%
G01*
G04 APERTURE LIST*
%ADD10R,2.000000X2.000000*%
%ADD11C,2.000000*%
%ADD12R,0.900000X0.500000*%
%ADD13R,1.270000X2.540000*%
%ADD14R,0.700000X1.500000*%
%ADD15R,1.000000X0.600000*%
%ADD16R,1.000000X0.800000*%
%ADD17R,0.750000X0.800000*%
%ADD18R,0.600000X1.500000*%
%ADD19R,0.500000X0.900000*%
%ADD20C,1.800000*%
%ADD21C,0.800000*%
%ADD22C,0.500000*%
%ADD23C,0.250000*%
%ADD24C,1.000000*%
%ADD25C,0.254000*%
G04 APERTURE END LIST*
D10*
X26400000Y-21500000D03*
D11*
X26400000Y-20230000D03*
D12*
X30500000Y-16775000D03*
X30500000Y-16925000D03*
D13*
X26734100Y-14627100D03*
X27165900Y-14627100D03*
X27165900Y-15452900D03*
X26734100Y-15452900D03*
D14*
X28560000Y-22895000D03*
X28710000Y-22895000D03*
X29010000Y-22895000D03*
D15*
X28420000Y-23170000D03*
D16*
X28420000Y-22960000D03*
D15*
X29150000Y-23170000D03*
D16*
X29150000Y-22960000D03*
D17*
X28800000Y-16815000D03*
X28800000Y-16965000D03*
X30565962Y-17104853D03*
X30565962Y-17254853D03*
D18*
X30412456Y-17109940D03*
X30285456Y-17109940D03*
X30158456Y-17109940D03*
X30031456Y-17109940D03*
X29904456Y-17109940D03*
X29777456Y-17109940D03*
X29650456Y-17109940D03*
X29523456Y-17109940D03*
X29523456Y-17649940D03*
X29650456Y-17649940D03*
X29777456Y-17649940D03*
X29904456Y-17649940D03*
X30031456Y-17649940D03*
X30158456Y-17649940D03*
X30285456Y-17649940D03*
X30412456Y-17649940D03*
D12*
X29735962Y-18074853D03*
X29735962Y-17924853D03*
X29885962Y-17924853D03*
X29885962Y-18074853D03*
X30035962Y-18074853D03*
X30035962Y-17924853D03*
X30185962Y-17924853D03*
X30185962Y-18074853D03*
X30335962Y-18074853D03*
X30335962Y-17924853D03*
X30485962Y-17924853D03*
X30485962Y-18074853D03*
X30640000Y-18075000D03*
X30640000Y-17925000D03*
D19*
X28725000Y-22460000D03*
X28875000Y-22460000D03*
D12*
X29585962Y-17924853D03*
X29585962Y-18074853D03*
D20*
X29923000Y-16216000D03*
X29923000Y-15962000D03*
X29923000Y-15708000D03*
X29923000Y-15454000D03*
X29923000Y-15200000D03*
X29923000Y-14946000D03*
X29923000Y-14692000D03*
X29923000Y-14438000D03*
X27637000Y-14438000D03*
X27637000Y-14692000D03*
X27637000Y-14946000D03*
X27637000Y-15200000D03*
X27637000Y-15454000D03*
X27637000Y-15708000D03*
X27637000Y-15962000D03*
X27637000Y-16216000D03*
D21*
X28720246Y-22537975D03*
X30644999Y-16834497D03*
X30760000Y-17140000D03*
X29770000Y-15070000D03*
X29580000Y-15070000D03*
X30160000Y-16960000D03*
X29580000Y-16780000D03*
X29680000Y-16900000D03*
X29900000Y-16900000D03*
X30881382Y-17139386D03*
X30830008Y-16919385D03*
X28700000Y-16970000D03*
X28920000Y-22610000D03*
X27450000Y-14830000D03*
X27820000Y-14590000D03*
X27830000Y-14830000D03*
X27450000Y-14590000D03*
X30380000Y-15090000D03*
X30500000Y-16690000D03*
X30366395Y-15693605D03*
X29400000Y-17660000D03*
X30690000Y-17250000D03*
X26630000Y-20230000D03*
X26150000Y-20240000D03*
X26400000Y-20450000D03*
X26410000Y-20000000D03*
X29040000Y-16870000D03*
X30900000Y-18060000D03*
X26640000Y-18070000D03*
X30420000Y-17460000D03*
X30290000Y-16960000D03*
X26570000Y-19260000D03*
X26690000Y-20430000D03*
X27070000Y-22100000D03*
X30440000Y-22090000D03*
X30860000Y-20420000D03*
X30970000Y-19240000D03*
D22*
X30860000Y-17230000D02*
X31280000Y-17650000D01*
X30530000Y-22580000D02*
X29152453Y-22580000D01*
X30850000Y-17230000D02*
X30860000Y-17230000D01*
X31280000Y-17650000D02*
X31280000Y-21830000D01*
X30760000Y-17140000D02*
X30850000Y-17230000D01*
X29152453Y-22580000D02*
X28936196Y-22363743D01*
X31280000Y-21830000D02*
X30530000Y-22580000D01*
X28936196Y-22363743D02*
X28801257Y-22363743D01*
X28725000Y-22440000D02*
X28725000Y-22460000D01*
X28801257Y-22363743D02*
X28725000Y-22440000D01*
D23*
X28725000Y-22460000D02*
X28725000Y-22533221D01*
X28725000Y-22533221D02*
X28720246Y-22537975D01*
D22*
X30644999Y-16777929D02*
X30644999Y-16834497D01*
X30644999Y-16613999D02*
X30644999Y-16777929D01*
X29993000Y-15962000D02*
X30644999Y-16613999D01*
X29777456Y-17109940D02*
X29777456Y-15552544D01*
X29777456Y-15552544D02*
X29876000Y-15454000D01*
X29876000Y-15454000D02*
X29993000Y-15454000D01*
X29770000Y-15070000D02*
X29799000Y-15070000D01*
X29799000Y-15070000D02*
X29923000Y-14946000D01*
X29580000Y-15180000D02*
X29580000Y-15070000D01*
X29580000Y-16780000D02*
X29580000Y-15180000D01*
X30158456Y-17109940D02*
X30158456Y-16961544D01*
X30158456Y-16961544D02*
X30160000Y-16960000D01*
X29680000Y-16900000D02*
X29680000Y-14910000D01*
X29680000Y-14910000D02*
X29898000Y-14692000D01*
X29898000Y-14692000D02*
X29993000Y-14692000D01*
X29904456Y-17109940D02*
X29904456Y-16904456D01*
X29904456Y-16904456D02*
X29900000Y-16900000D01*
X30550000Y-22660000D02*
X29120000Y-22660000D01*
X31350000Y-17608003D02*
X31350000Y-21860000D01*
X31350000Y-21860000D02*
X30550000Y-22660000D01*
X30881382Y-17139386D02*
X31350000Y-17608003D01*
X29120000Y-22660000D02*
X28920000Y-22460000D01*
X28920000Y-22460000D02*
X28875000Y-22460000D01*
X30830008Y-16862816D02*
X30830008Y-16919385D01*
X29993000Y-14438000D02*
X30830008Y-15275008D01*
X30830008Y-15275008D02*
X30830008Y-16862816D01*
D24*
X30010000Y-14250000D02*
X27825000Y-14250000D01*
X30940008Y-17029992D02*
X30940008Y-15180008D01*
X30940008Y-15180008D02*
X30010000Y-14250000D01*
X30940000Y-17030000D02*
X30940008Y-17029992D01*
X27825000Y-14250000D02*
X27637000Y-14438000D01*
X28800000Y-16965000D02*
X28705000Y-16965000D01*
X28705000Y-16965000D02*
X28700000Y-16970000D01*
X28830000Y-17135000D02*
X28800000Y-17105000D01*
X29085000Y-17135000D02*
X28830000Y-17135000D01*
X29250000Y-17300000D02*
X29085000Y-17135000D01*
X29650456Y-17300000D02*
X29250000Y-17300000D01*
X28800000Y-17105000D02*
X28800000Y-16965000D01*
D22*
X29650456Y-17300000D02*
X29650456Y-17320456D01*
X29650456Y-17109940D02*
X29650456Y-17300000D01*
D24*
X30939386Y-17029386D02*
X30940000Y-17030000D01*
X30565962Y-17104853D02*
X30641429Y-17029386D01*
X30641429Y-17029386D02*
X30939386Y-17029386D01*
X29630000Y-17300000D02*
X29730000Y-17300000D01*
X30412456Y-17109940D02*
X30412456Y-17227544D01*
X30412456Y-17227544D02*
X30340000Y-17300000D01*
X30340000Y-17300000D02*
X29730000Y-17300000D01*
X30565962Y-17104853D02*
X30417543Y-17104853D01*
X30417543Y-17104853D02*
X30412456Y-17109940D01*
X30590000Y-22760000D02*
X31450000Y-21900000D01*
X29105000Y-22760000D02*
X30590000Y-22760000D01*
X29010000Y-22855000D02*
X29105000Y-22760000D01*
X29010000Y-22895000D02*
X29010000Y-22855000D01*
X31450000Y-21900000D02*
X31450000Y-17540000D01*
X31450000Y-17540000D02*
X30940000Y-17030000D01*
D22*
X27165900Y-15452900D02*
X27635900Y-15452900D01*
X27635900Y-15452900D02*
X27637000Y-15454000D01*
X27705900Y-15452900D02*
X27707000Y-15454000D01*
X27165900Y-14627100D02*
X27165900Y-15452900D01*
X27898000Y-15708000D02*
X27637000Y-15708000D01*
X27898000Y-15708000D02*
X29040000Y-16850000D01*
X29040000Y-16850000D02*
X29040000Y-16870000D01*
X29650456Y-17649940D02*
X29650456Y-17860359D01*
X29650456Y-17860359D02*
X29585962Y-17924853D01*
X30640000Y-18075000D02*
X30885000Y-18075000D01*
X30885000Y-18075000D02*
X30900000Y-18060000D01*
X29585962Y-18074853D02*
X26644852Y-18074853D01*
X26644852Y-18074853D02*
X26640000Y-18070000D01*
X30420000Y-17460000D02*
X30640000Y-17680000D01*
X30640000Y-17680000D02*
X30640000Y-17925000D01*
X30285456Y-17109940D02*
X30285456Y-16964544D01*
X30285456Y-16964544D02*
X30290000Y-16960000D01*
X30412456Y-17649940D02*
X30412456Y-17851346D01*
X30412456Y-17851346D02*
X30485962Y-17924853D01*
X29735962Y-18074853D02*
X29735962Y-18154038D01*
X29330000Y-18560000D02*
X27270000Y-18560000D01*
X29735962Y-18154038D02*
X29330000Y-18560000D01*
X27270000Y-18560000D02*
X26570000Y-19260000D01*
X29885962Y-18074853D02*
X29885962Y-18184038D01*
X29885962Y-18184038D02*
X29390000Y-18680000D01*
X29390000Y-18680000D02*
X28440000Y-18680000D01*
X28440000Y-18680000D02*
X26690000Y-20430000D01*
X30285456Y-17649940D02*
X30285456Y-17874346D01*
X30285456Y-17874346D02*
X30335962Y-17924853D01*
X30158456Y-17649940D02*
X30158456Y-17897346D01*
X30158456Y-17897346D02*
X30185962Y-17924853D01*
X30035962Y-18074853D02*
X30035962Y-19134038D01*
X30035962Y-19134038D02*
X27070000Y-22100000D01*
X30185962Y-18074853D02*
X30185962Y-21835963D01*
X30185962Y-21835963D02*
X30440000Y-22090000D01*
X30031456Y-17649940D02*
X30031456Y-17920346D01*
X30031456Y-17920346D02*
X30035962Y-17924853D01*
X29904456Y-17649940D02*
X29904456Y-17906359D01*
X29904456Y-17906359D02*
X29885962Y-17924853D01*
X30335962Y-18074853D02*
X30335962Y-19895963D01*
X30335962Y-19895963D02*
X30860000Y-20420000D01*
X30485962Y-18074853D02*
X30485962Y-18755963D01*
X30485962Y-18755963D02*
X30970000Y-19240000D01*
X29777456Y-17649940D02*
X29777456Y-17883359D01*
X29777456Y-17883359D02*
X29735962Y-17924853D01*
D24*
X26400000Y-22050000D02*
X27100000Y-22750000D01*
X28651000Y-22750000D02*
X28710000Y-22809000D01*
X27100000Y-22750000D02*
X28651000Y-22750000D01*
X28710000Y-22809000D02*
X28710000Y-22895000D01*
X26400000Y-21500000D02*
X26400000Y-22050000D01*
D22*
X30500000Y-16925000D02*
X30415000Y-16925000D01*
X30415000Y-16925000D02*
X30410000Y-16930000D01*
X30730000Y-16930000D02*
X30730000Y-15937000D01*
X30730000Y-15937000D02*
X29993000Y-15200000D01*
X30120000Y-16870000D02*
X30350000Y-16870000D01*
X30350000Y-16870000D02*
X30410000Y-16930000D01*
X30031456Y-16958544D02*
X30120000Y-16870000D01*
X30031456Y-17109940D02*
X30031456Y-16958544D01*
X30410000Y-16930000D02*
X30730000Y-16930000D01*
D25*
G36*
X29222909Y-13313559D02*
X29662114Y-13410513D01*
X30001090Y-13637435D01*
X30183434Y-13776542D01*
X30188647Y-13779094D01*
X30193161Y-13782741D01*
X30445552Y-13915135D01*
X30729632Y-14067973D01*
X30910778Y-14234214D01*
X31034785Y-14581856D01*
X31066090Y-14868295D01*
X31066958Y-14871051D01*
X31066946Y-14873941D01*
X31117492Y-15133596D01*
X31177272Y-15545000D01*
X31194179Y-15957722D01*
X31197016Y-15969454D01*
X31199399Y-15981286D01*
X31284885Y-16186261D01*
X31386990Y-16454766D01*
X31386838Y-16743564D01*
X31387169Y-16745232D01*
X31386918Y-16746914D01*
X31389758Y-16758285D01*
X31392039Y-16769780D01*
X31392983Y-16771195D01*
X31393395Y-16772845D01*
X31534813Y-17072375D01*
X31592733Y-17331167D01*
X31596346Y-17339333D01*
X31598854Y-17347902D01*
X31802069Y-17737228D01*
X31778061Y-17990493D01*
X31778764Y-17997368D01*
X31778145Y-18004250D01*
X31811645Y-18317141D01*
X31659806Y-18658813D01*
X31658752Y-18663489D01*
X31656557Y-18667751D01*
X31655838Y-18676410D01*
X31653926Y-18684885D01*
X31654741Y-18689609D01*
X31654344Y-18694387D01*
X31656993Y-18702662D01*
X31658470Y-18711224D01*
X31661031Y-18715276D01*
X31662493Y-18719842D01*
X31787530Y-18945403D01*
X31811302Y-19183877D01*
X31812190Y-19186791D01*
X31812163Y-19189838D01*
X31852332Y-19401783D01*
X31705691Y-19754098D01*
X31704816Y-19758460D01*
X31702833Y-19762442D01*
X31702209Y-19771450D01*
X31700432Y-19780303D01*
X31701293Y-19784667D01*
X31700985Y-19789106D01*
X31752552Y-20192508D01*
X31606138Y-20618326D01*
X31605445Y-20623441D01*
X31603541Y-20628239D01*
X31566088Y-20832387D01*
X31566228Y-20841790D01*
X31565263Y-20851145D01*
X31595230Y-21170595D01*
X31586603Y-21566352D01*
X31563500Y-21683336D01*
X31563500Y-17540000D01*
X31554860Y-17496565D01*
X31530257Y-17459743D01*
X31053508Y-16982995D01*
X31053508Y-15180008D01*
X31044868Y-15136573D01*
X31020264Y-15099751D01*
X30090257Y-14169743D01*
X30085117Y-14166309D01*
X30053435Y-14145140D01*
X30010000Y-14136500D01*
X27825000Y-14136500D01*
X27783550Y-14144745D01*
X27781565Y-14145140D01*
X27744743Y-14169743D01*
X27629993Y-14284494D01*
X27606601Y-14284473D01*
X27550163Y-14307793D01*
X27506945Y-14350936D01*
X27483527Y-14407333D01*
X27483473Y-14468399D01*
X27506793Y-14524837D01*
X27549936Y-14568055D01*
X27552019Y-14568920D01*
X27546945Y-14583984D01*
X27637000Y-14674039D01*
X27727055Y-14583984D01*
X27721996Y-14568967D01*
X27723837Y-14568207D01*
X27767055Y-14525064D01*
X27790473Y-14468667D01*
X27790494Y-14445019D01*
X27872013Y-14363500D01*
X29787728Y-14363500D01*
X29769527Y-14407333D01*
X29769473Y-14468399D01*
X29792793Y-14524837D01*
X29832918Y-14565032D01*
X29792945Y-14604936D01*
X29769527Y-14661333D01*
X29769497Y-14695345D01*
X29617421Y-14847421D01*
X29598237Y-14876132D01*
X29598237Y-14876133D01*
X29591500Y-14910000D01*
X29591500Y-14910000D01*
X29591500Y-14966510D01*
X29559503Y-14966482D01*
X29521448Y-14982206D01*
X29492308Y-15011295D01*
X29476518Y-15049322D01*
X29476482Y-15090497D01*
X29491500Y-15126843D01*
X29491500Y-16723241D01*
X29476518Y-16759322D01*
X29476482Y-16800497D01*
X29492206Y-16838552D01*
X29521295Y-16867692D01*
X29559322Y-16883482D01*
X29576514Y-16883497D01*
X29576482Y-16920497D01*
X29592206Y-16958552D01*
X29606584Y-16972955D01*
X29595679Y-16975125D01*
X29586956Y-16980953D01*
X29578232Y-16975125D01*
X29553456Y-16970196D01*
X29493456Y-16970196D01*
X29468679Y-16975125D01*
X29447675Y-16989159D01*
X29433640Y-17010164D01*
X29428712Y-17034940D01*
X29428712Y-17184940D01*
X29429022Y-17186500D01*
X29297013Y-17186500D01*
X29165257Y-17054743D01*
X29161459Y-17052206D01*
X29128435Y-17030140D01*
X29085000Y-17021500D01*
X28913500Y-17021500D01*
X28913500Y-16965000D01*
X28904860Y-16921565D01*
X28900162Y-16914534D01*
X28897316Y-16900224D01*
X28891213Y-16891090D01*
X28891333Y-16890970D01*
X28901000Y-16867631D01*
X28901000Y-16843575D01*
X28885125Y-16827700D01*
X28812700Y-16827700D01*
X28812700Y-16854026D01*
X28800000Y-16851500D01*
X28787300Y-16851500D01*
X28787300Y-16827700D01*
X28714875Y-16827700D01*
X28699000Y-16843575D01*
X28699000Y-16852694D01*
X28661565Y-16860140D01*
X28624743Y-16884743D01*
X28619743Y-16889743D01*
X28595140Y-16926566D01*
X28586500Y-16970000D01*
X28595140Y-17013435D01*
X28619743Y-17050257D01*
X28656565Y-17074860D01*
X28686500Y-17080815D01*
X28686500Y-17105000D01*
X28695140Y-17148435D01*
X28711723Y-17173253D01*
X28719743Y-17185257D01*
X28749743Y-17215257D01*
X28786565Y-17239860D01*
X28830000Y-17248500D01*
X29037987Y-17248500D01*
X29169743Y-17380257D01*
X29206565Y-17404860D01*
X29250000Y-17413500D01*
X30327240Y-17413500D01*
X30316518Y-17439322D01*
X30316482Y-17480497D01*
X30329944Y-17513078D01*
X30315456Y-17510196D01*
X30255456Y-17510196D01*
X30230679Y-17515125D01*
X30221956Y-17520953D01*
X30213232Y-17515125D01*
X30188456Y-17510196D01*
X30128456Y-17510196D01*
X30103679Y-17515125D01*
X30094956Y-17520953D01*
X30086232Y-17515125D01*
X30061456Y-17510196D01*
X30001456Y-17510196D01*
X29976679Y-17515125D01*
X29967956Y-17520953D01*
X29959232Y-17515125D01*
X29934456Y-17510196D01*
X29874456Y-17510196D01*
X29849679Y-17515125D01*
X29840956Y-17520953D01*
X29832232Y-17515125D01*
X29807456Y-17510196D01*
X29747456Y-17510196D01*
X29722679Y-17515125D01*
X29713956Y-17520953D01*
X29705232Y-17515125D01*
X29680456Y-17510196D01*
X29620456Y-17510196D01*
X29595679Y-17515125D01*
X29587758Y-17520417D01*
X29566087Y-17511440D01*
X29552031Y-17511440D01*
X29536156Y-17527315D01*
X29536156Y-17637240D01*
X29555712Y-17637240D01*
X29555712Y-17662640D01*
X29536156Y-17662640D01*
X29536156Y-17772565D01*
X29552031Y-17788440D01*
X29561956Y-17788440D01*
X29561956Y-17823702D01*
X29550548Y-17835109D01*
X29540962Y-17835109D01*
X29516186Y-17840037D01*
X29495182Y-17854072D01*
X29481147Y-17875076D01*
X29476218Y-17899853D01*
X29476218Y-17949853D01*
X29481147Y-17974629D01*
X29488980Y-17986353D01*
X26702742Y-17986353D01*
X26698705Y-17982308D01*
X26660678Y-17966518D01*
X26619503Y-17966482D01*
X26581448Y-17982206D01*
X26552308Y-18011295D01*
X26536518Y-18049322D01*
X26536482Y-18090497D01*
X26552206Y-18128552D01*
X26581295Y-18157692D01*
X26619322Y-18173482D01*
X26660497Y-18173518D01*
X26685099Y-18163353D01*
X29534708Y-18163353D01*
X29540962Y-18164597D01*
X29600246Y-18164597D01*
X29293342Y-18471500D01*
X27270000Y-18471500D01*
X27270000Y-18471500D01*
X27241752Y-18477119D01*
X27236132Y-18478237D01*
X27207421Y-18497421D01*
X27207421Y-18497421D01*
X26547555Y-19157287D01*
X26511448Y-19172206D01*
X26482308Y-19201295D01*
X26466518Y-19239322D01*
X26466482Y-19280497D01*
X26482206Y-19318552D01*
X26511295Y-19347692D01*
X26549322Y-19363482D01*
X26590497Y-19363518D01*
X26628551Y-19347794D01*
X26657692Y-19318705D01*
X26672773Y-19282385D01*
X27306658Y-18648500D01*
X28346342Y-18648500D01*
X26667555Y-20327287D01*
X26631448Y-20342206D01*
X26602308Y-20371295D01*
X26586518Y-20409322D01*
X26586482Y-20450497D01*
X26602206Y-20488552D01*
X26631295Y-20517692D01*
X26669322Y-20533482D01*
X26710497Y-20533518D01*
X26748551Y-20517794D01*
X26777692Y-20488705D01*
X26792773Y-20452385D01*
X28476658Y-18768500D01*
X29389999Y-18768500D01*
X29390000Y-18768500D01*
X29418248Y-18762881D01*
X29423867Y-18761763D01*
X29452579Y-18742579D01*
X29947462Y-18247695D01*
X29947462Y-19097380D01*
X27047555Y-21997287D01*
X27011448Y-22012206D01*
X26982308Y-22041295D01*
X26966518Y-22079322D01*
X26966482Y-22120497D01*
X26982206Y-22158552D01*
X27011295Y-22187692D01*
X27049322Y-22203482D01*
X27090497Y-22203518D01*
X27128551Y-22187794D01*
X27157692Y-22158705D01*
X27172773Y-22122385D01*
X27747925Y-21547233D01*
X28533819Y-21547233D01*
X28570052Y-21634923D01*
X28637084Y-21702073D01*
X28724711Y-21738459D01*
X28819592Y-21738541D01*
X28907283Y-21702308D01*
X28974433Y-21635276D01*
X29010818Y-21547649D01*
X29010901Y-21452768D01*
X28974668Y-21365077D01*
X28907636Y-21297927D01*
X28820009Y-21261542D01*
X28725127Y-21261459D01*
X28637437Y-21297692D01*
X28570287Y-21364724D01*
X28533901Y-21452351D01*
X28533819Y-21547233D01*
X27747925Y-21547233D01*
X30097462Y-19197695D01*
X30097462Y-21835962D01*
X30097462Y-21835963D01*
X30101561Y-21856565D01*
X30104199Y-21869830D01*
X30119399Y-21892579D01*
X30123383Y-21898542D01*
X30337287Y-22112445D01*
X30352206Y-22148552D01*
X30381295Y-22177692D01*
X30419322Y-22193482D01*
X30460497Y-22193518D01*
X30498551Y-22177794D01*
X30527692Y-22148705D01*
X30543482Y-22110678D01*
X30543518Y-22069503D01*
X30527794Y-22031449D01*
X30498705Y-22002308D01*
X30462385Y-21987227D01*
X30274462Y-21799305D01*
X30274462Y-19959621D01*
X30757287Y-20442445D01*
X30772206Y-20478552D01*
X30801295Y-20507692D01*
X30839322Y-20523482D01*
X30880497Y-20523518D01*
X30918551Y-20507794D01*
X30947692Y-20478705D01*
X30963482Y-20440678D01*
X30963518Y-20399503D01*
X30947794Y-20361449D01*
X30918705Y-20332308D01*
X30882385Y-20317227D01*
X30424462Y-19859305D01*
X30424462Y-18819621D01*
X30867287Y-19262445D01*
X30882206Y-19298552D01*
X30911295Y-19327692D01*
X30949322Y-19343482D01*
X30990497Y-19343518D01*
X31028551Y-19327794D01*
X31057692Y-19298705D01*
X31073482Y-19260678D01*
X31073518Y-19219503D01*
X31057794Y-19181449D01*
X31028705Y-19152308D01*
X30992385Y-19137227D01*
X30574462Y-18719305D01*
X30574462Y-18160659D01*
X30595000Y-18164744D01*
X30685000Y-18164744D01*
X30691254Y-18163500D01*
X30884999Y-18163500D01*
X30885000Y-18163500D01*
X30885066Y-18163487D01*
X30920497Y-18163518D01*
X30958551Y-18147794D01*
X30987692Y-18118705D01*
X31003482Y-18080678D01*
X31003518Y-18039503D01*
X30987794Y-18001449D01*
X30958705Y-17972308D01*
X30920678Y-17956518D01*
X30879503Y-17956482D01*
X30841448Y-17972206D01*
X30827129Y-17986500D01*
X30736982Y-17986500D01*
X30744816Y-17974777D01*
X30749744Y-17950000D01*
X30749744Y-17900000D01*
X30744816Y-17875224D01*
X30730781Y-17854219D01*
X30728500Y-17852695D01*
X30728500Y-17680001D01*
X30728500Y-17680000D01*
X30721763Y-17646133D01*
X30721763Y-17646133D01*
X30702579Y-17617421D01*
X30702579Y-17617421D01*
X30522713Y-17437555D01*
X30507794Y-17401449D01*
X30478705Y-17372308D01*
X30443022Y-17357491D01*
X30473183Y-17327330D01*
X30474630Y-17330822D01*
X30492493Y-17348685D01*
X30515831Y-17358353D01*
X30537387Y-17358353D01*
X30553262Y-17342478D01*
X30553262Y-17267553D01*
X30578662Y-17267553D01*
X30578662Y-17342478D01*
X30594537Y-17358353D01*
X30616093Y-17358353D01*
X30639432Y-17348685D01*
X30657295Y-17330822D01*
X30666962Y-17307483D01*
X30666962Y-17283428D01*
X30651087Y-17267553D01*
X30578662Y-17267553D01*
X30553262Y-17267553D01*
X30517997Y-17267553D01*
X30523050Y-17242153D01*
X30553262Y-17242153D01*
X30553262Y-17218353D01*
X30565962Y-17218353D01*
X30578662Y-17215826D01*
X30578662Y-17242153D01*
X30651087Y-17242153D01*
X30666962Y-17226278D01*
X30666962Y-17202222D01*
X30657295Y-17178883D01*
X30657175Y-17178763D01*
X30661410Y-17172424D01*
X30672206Y-17198552D01*
X30701295Y-17227692D01*
X30737615Y-17242773D01*
X30787421Y-17292579D01*
X30787421Y-17292579D01*
X30810202Y-17307801D01*
X30816132Y-17311763D01*
X30816723Y-17311881D01*
X31191500Y-17686658D01*
X31191500Y-21793342D01*
X30493342Y-22491500D01*
X29189111Y-22491500D01*
X28998775Y-22301164D01*
X28970063Y-22281980D01*
X28964444Y-22280862D01*
X28936196Y-22275243D01*
X28936195Y-22275243D01*
X28801258Y-22275243D01*
X28801257Y-22275243D01*
X28767390Y-22281980D01*
X28738678Y-22301164D01*
X28738678Y-22301164D01*
X28687000Y-22352842D01*
X28675223Y-22355184D01*
X28654219Y-22369219D01*
X28640184Y-22390223D01*
X28635256Y-22415000D01*
X28635256Y-22476573D01*
X28632554Y-22479271D01*
X28616764Y-22517298D01*
X28616728Y-22558472D01*
X28632451Y-22596527D01*
X28661541Y-22625667D01*
X28699568Y-22641457D01*
X28740743Y-22641493D01*
X28778797Y-22625770D01*
X28807937Y-22596680D01*
X28822049Y-22562695D01*
X28825223Y-22564816D01*
X28850000Y-22569744D01*
X28900000Y-22569744D01*
X28903825Y-22568983D01*
X29019664Y-22684822D01*
X28932379Y-22772107D01*
X28929219Y-22774219D01*
X28915184Y-22795223D01*
X28914813Y-22797087D01*
X28905140Y-22811565D01*
X28896500Y-22855000D01*
X28896500Y-22895000D01*
X28905140Y-22938435D01*
X28910256Y-22946092D01*
X28910256Y-22962827D01*
X28873620Y-22977965D01*
X28843072Y-23008459D01*
X28826519Y-23048323D01*
X28826481Y-23091487D01*
X28842965Y-23131380D01*
X28873459Y-23161928D01*
X28913323Y-23178481D01*
X28956487Y-23178519D01*
X28996380Y-23162035D01*
X29026928Y-23131540D01*
X29043481Y-23091677D01*
X29043519Y-23048513D01*
X29037830Y-23034744D01*
X29045000Y-23034744D01*
X29046628Y-23034420D01*
X29054219Y-23045781D01*
X29075223Y-23059816D01*
X29100000Y-23064744D01*
X29200000Y-23064744D01*
X29224776Y-23059816D01*
X29245781Y-23045781D01*
X29259816Y-23024776D01*
X29264744Y-23000000D01*
X29264744Y-22920000D01*
X29259816Y-22895223D01*
X29245781Y-22874219D01*
X29244705Y-22873500D01*
X30590000Y-22873500D01*
X30633435Y-22864860D01*
X30670257Y-22840257D01*
X31481803Y-22028711D01*
X31315121Y-22365362D01*
X30977043Y-22670470D01*
X30662049Y-22910050D01*
X30168007Y-23060625D01*
X29604142Y-23143757D01*
X29264744Y-23166811D01*
X29264744Y-23140000D01*
X29259816Y-23115223D01*
X29245781Y-23094219D01*
X29224776Y-23080184D01*
X29200000Y-23075256D01*
X29100000Y-23075256D01*
X29075223Y-23080184D01*
X29054219Y-23094219D01*
X29040184Y-23115223D01*
X29035256Y-23140000D01*
X29035256Y-23179403D01*
X28776350Y-23184746D01*
X28534744Y-23179759D01*
X28534744Y-23140000D01*
X28529816Y-23115223D01*
X28515781Y-23094219D01*
X28494776Y-23080184D01*
X28470000Y-23075256D01*
X28370000Y-23075256D01*
X28345223Y-23080184D01*
X28324219Y-23094219D01*
X28310184Y-23115223D01*
X28305256Y-23140000D01*
X28305256Y-23167984D01*
X27948600Y-23143757D01*
X27384748Y-23060625D01*
X26890704Y-22910050D01*
X26575687Y-22670470D01*
X26237641Y-22365367D01*
X26048531Y-21983395D01*
X25966172Y-21566365D01*
X25962540Y-21400000D01*
X26235256Y-21400000D01*
X26235256Y-21600000D01*
X26240184Y-21624777D01*
X26254219Y-21645781D01*
X26275223Y-21659816D01*
X26286500Y-21662059D01*
X26286500Y-22050000D01*
X26295140Y-22093435D01*
X26299527Y-22100000D01*
X26319743Y-22130257D01*
X27019743Y-22830257D01*
X27056565Y-22854860D01*
X27100000Y-22863500D01*
X28340261Y-22863500D01*
X28324219Y-22874219D01*
X28310184Y-22895223D01*
X28305256Y-22920000D01*
X28305256Y-23000000D01*
X28310184Y-23024776D01*
X28324219Y-23045781D01*
X28345223Y-23059816D01*
X28370000Y-23064744D01*
X28470000Y-23064744D01*
X28494776Y-23059816D01*
X28515781Y-23045781D01*
X28523372Y-23034420D01*
X28525000Y-23034744D01*
X28532157Y-23034744D01*
X28526519Y-23048323D01*
X28526481Y-23091487D01*
X28542965Y-23131380D01*
X28573459Y-23161928D01*
X28613323Y-23178481D01*
X28656487Y-23178519D01*
X28696380Y-23162035D01*
X28726928Y-23131540D01*
X28743481Y-23091677D01*
X28743519Y-23048513D01*
X28737830Y-23034744D01*
X28745000Y-23034744D01*
X28769776Y-23029816D01*
X28790781Y-23015781D01*
X28804816Y-22994776D01*
X28809744Y-22970000D01*
X28809744Y-22946092D01*
X28814860Y-22938435D01*
X28823500Y-22895000D01*
X28823500Y-22809000D01*
X28820404Y-22793434D01*
X28814860Y-22765565D01*
X28790257Y-22728743D01*
X28731257Y-22669743D01*
X28729738Y-22668728D01*
X28694435Y-22645140D01*
X28651000Y-22636500D01*
X27147013Y-22636500D01*
X26513500Y-22002987D01*
X26513500Y-21662059D01*
X26524776Y-21659816D01*
X26545781Y-21645781D01*
X26559816Y-21624777D01*
X26564744Y-21600000D01*
X26564744Y-21400000D01*
X26559816Y-21375224D01*
X26545781Y-21354219D01*
X26524776Y-21340184D01*
X26500000Y-21335256D01*
X26300000Y-21335256D01*
X26275223Y-21340184D01*
X26254219Y-21354219D01*
X26240184Y-21375224D01*
X26235256Y-21400000D01*
X25962540Y-21400000D01*
X25957530Y-21170602D01*
X25987469Y-20851139D01*
X25986504Y-20841797D01*
X25986647Y-20832406D01*
X25949256Y-20628258D01*
X25947348Y-20623448D01*
X25946652Y-20618321D01*
X25852735Y-20345253D01*
X26302707Y-20345253D01*
X26312574Y-20371939D01*
X26373546Y-20394591D01*
X26438546Y-20392186D01*
X26487426Y-20371939D01*
X26497293Y-20345253D01*
X26400000Y-20247961D01*
X26302707Y-20345253D01*
X25852735Y-20345253D01*
X25803996Y-20203546D01*
X26235409Y-20203546D01*
X26237814Y-20268546D01*
X26258061Y-20317426D01*
X26284747Y-20327293D01*
X26382039Y-20230000D01*
X26417960Y-20230000D01*
X26515253Y-20327293D01*
X26541939Y-20317426D01*
X26564591Y-20256454D01*
X26562186Y-20191454D01*
X26541939Y-20142574D01*
X26515253Y-20132707D01*
X26417960Y-20230000D01*
X26382039Y-20230000D01*
X26284747Y-20132707D01*
X26258061Y-20142574D01*
X26235409Y-20203546D01*
X25803996Y-20203546D01*
X25800198Y-20192503D01*
X25810134Y-20114747D01*
X26302707Y-20114747D01*
X26400000Y-20212040D01*
X26497293Y-20114747D01*
X26487426Y-20088061D01*
X26426454Y-20065409D01*
X26361454Y-20067814D01*
X26312574Y-20088061D01*
X26302707Y-20114747D01*
X25810134Y-20114747D01*
X25851746Y-19789103D01*
X25851439Y-19784671D01*
X25852299Y-19780312D01*
X25850522Y-19771453D01*
X25849897Y-19762439D01*
X25847917Y-19758463D01*
X25847043Y-19754107D01*
X25700590Y-19402103D01*
X25742618Y-19190918D01*
X25742619Y-19187557D01*
X25743598Y-19184341D01*
X25767364Y-18945862D01*
X25892351Y-18720297D01*
X25893810Y-18715739D01*
X25896366Y-18711694D01*
X25897846Y-18703124D01*
X25900496Y-18694841D01*
X25900099Y-18690072D01*
X25900913Y-18685356D01*
X25899000Y-18676872D01*
X25898278Y-18668206D01*
X25896087Y-18663952D01*
X25895034Y-18659283D01*
X25743226Y-18317617D01*
X25776755Y-18004754D01*
X25776134Y-17997846D01*
X25776835Y-17990946D01*
X25752621Y-17737264D01*
X25783273Y-17678515D01*
X29429956Y-17678515D01*
X29429956Y-17737571D01*
X29439623Y-17760910D01*
X29457486Y-17778773D01*
X29480825Y-17788440D01*
X29494881Y-17788440D01*
X29510756Y-17772565D01*
X29510756Y-17662640D01*
X29445831Y-17662640D01*
X29429956Y-17678515D01*
X25783273Y-17678515D01*
X25843903Y-17562309D01*
X29429956Y-17562309D01*
X29429956Y-17621365D01*
X29445831Y-17637240D01*
X29510756Y-17637240D01*
X29510756Y-17527315D01*
X29494881Y-17511440D01*
X29480825Y-17511440D01*
X29457486Y-17521108D01*
X29439623Y-17538970D01*
X29429956Y-17562309D01*
X25843903Y-17562309D01*
X25955773Y-17347893D01*
X25958276Y-17339335D01*
X25961886Y-17331180D01*
X26019857Y-17072380D01*
X26161259Y-16772843D01*
X26161673Y-16771187D01*
X26162620Y-16769768D01*
X26164085Y-16762369D01*
X28699000Y-16762369D01*
X28699000Y-16786425D01*
X28714875Y-16802300D01*
X28787300Y-16802300D01*
X28787300Y-16727375D01*
X28771425Y-16711500D01*
X28749869Y-16711500D01*
X28726530Y-16721167D01*
X28708667Y-16739030D01*
X28699000Y-16762369D01*
X26164085Y-16762369D01*
X26164896Y-16758278D01*
X26167734Y-16746912D01*
X26167483Y-16745224D01*
X26167814Y-16743550D01*
X26167599Y-16454978D01*
X26269152Y-16187769D01*
X26355255Y-15981284D01*
X26357637Y-15969454D01*
X26360474Y-15957726D01*
X26377395Y-15545004D01*
X26386628Y-15481475D01*
X26607100Y-15481475D01*
X26607100Y-15592531D01*
X26616767Y-15615870D01*
X26634630Y-15633733D01*
X26657969Y-15643400D01*
X26705525Y-15643400D01*
X26721400Y-15627525D01*
X26721400Y-15465600D01*
X26746800Y-15465600D01*
X26746800Y-15627525D01*
X26762675Y-15643400D01*
X26810231Y-15643400D01*
X26833570Y-15633733D01*
X26851433Y-15615870D01*
X26861100Y-15592531D01*
X26861100Y-15481475D01*
X26845225Y-15465600D01*
X26746800Y-15465600D01*
X26721400Y-15465600D01*
X26622975Y-15465600D01*
X26607100Y-15481475D01*
X26386628Y-15481475D01*
X26411074Y-15313269D01*
X26607100Y-15313269D01*
X26607100Y-15424325D01*
X26622975Y-15440200D01*
X26721400Y-15440200D01*
X26721400Y-15278275D01*
X26746800Y-15278275D01*
X26746800Y-15440200D01*
X26845225Y-15440200D01*
X26861100Y-15424325D01*
X26861100Y-15313269D01*
X26851433Y-15289930D01*
X26833570Y-15272067D01*
X26810231Y-15262400D01*
X26762675Y-15262400D01*
X26746800Y-15278275D01*
X26721400Y-15278275D01*
X26705525Y-15262400D01*
X26657969Y-15262400D01*
X26634630Y-15272067D01*
X26616767Y-15289930D01*
X26607100Y-15313269D01*
X26411074Y-15313269D01*
X26437188Y-15133594D01*
X26487707Y-14873936D01*
X26487695Y-14871050D01*
X26488562Y-14868299D01*
X26511808Y-14655675D01*
X26607100Y-14655675D01*
X26607100Y-14766731D01*
X26616767Y-14790070D01*
X26634630Y-14807933D01*
X26657969Y-14817600D01*
X26705525Y-14817600D01*
X26721400Y-14801725D01*
X26721400Y-14639800D01*
X26746800Y-14639800D01*
X26746800Y-14801725D01*
X26762675Y-14817600D01*
X26810231Y-14817600D01*
X26833570Y-14807933D01*
X26851433Y-14790070D01*
X26861100Y-14766731D01*
X26861100Y-14655675D01*
X26845225Y-14639800D01*
X26746800Y-14639800D01*
X26721400Y-14639800D01*
X26622975Y-14639800D01*
X26607100Y-14655675D01*
X26511808Y-14655675D01*
X26519879Y-14581857D01*
X26553545Y-14487469D01*
X26607100Y-14487469D01*
X26607100Y-14598525D01*
X26622975Y-14614400D01*
X26721400Y-14614400D01*
X26721400Y-14452475D01*
X26746800Y-14452475D01*
X26746800Y-14614400D01*
X26845225Y-14614400D01*
X26861100Y-14598525D01*
X26861100Y-14500100D01*
X27037656Y-14500100D01*
X27037656Y-14754100D01*
X27042584Y-14778876D01*
X27056619Y-14799881D01*
X27077400Y-14813766D01*
X27077400Y-15266234D01*
X27056619Y-15280119D01*
X27042584Y-15301123D01*
X27037656Y-15325900D01*
X27037656Y-15579900D01*
X27042584Y-15604676D01*
X27056619Y-15625681D01*
X27077623Y-15639716D01*
X27102400Y-15644644D01*
X27229400Y-15644644D01*
X27254176Y-15639716D01*
X27275181Y-15625681D01*
X27289216Y-15604676D01*
X27294144Y-15579900D01*
X27294144Y-15541400D01*
X27507355Y-15541400D01*
X27546918Y-15581032D01*
X27506945Y-15620936D01*
X27483527Y-15677333D01*
X27483473Y-15738399D01*
X27506793Y-15794837D01*
X27546918Y-15835032D01*
X27506945Y-15874936D01*
X27483527Y-15931333D01*
X27483473Y-15992399D01*
X27506793Y-16048837D01*
X27546918Y-16089032D01*
X27506945Y-16128936D01*
X27483527Y-16185333D01*
X27483473Y-16246399D01*
X27506793Y-16302837D01*
X27549936Y-16346055D01*
X27606333Y-16369473D01*
X27667399Y-16369526D01*
X27723837Y-16346207D01*
X27767055Y-16303064D01*
X27790473Y-16246667D01*
X27790526Y-16185601D01*
X27767207Y-16129163D01*
X27727082Y-16088968D01*
X27767055Y-16049064D01*
X27790473Y-15992667D01*
X27790526Y-15931601D01*
X27767207Y-15875163D01*
X27727082Y-15834968D01*
X27765617Y-15796500D01*
X27861342Y-15796500D01*
X28812700Y-16747858D01*
X28812700Y-16802300D01*
X28867142Y-16802300D01*
X28936498Y-16871656D01*
X28936482Y-16890497D01*
X28952206Y-16928552D01*
X28981295Y-16957692D01*
X29019322Y-16973482D01*
X29060497Y-16973518D01*
X29098551Y-16957794D01*
X29127692Y-16928705D01*
X29143482Y-16890678D01*
X29143518Y-16849503D01*
X29127794Y-16811449D01*
X29098705Y-16782308D01*
X29096586Y-16781429D01*
X27960579Y-15645421D01*
X27957554Y-15643400D01*
X27931867Y-15626237D01*
X27926248Y-15625119D01*
X27898000Y-15619500D01*
X27897999Y-15619500D01*
X27765547Y-15619500D01*
X27727082Y-15580968D01*
X27767055Y-15541064D01*
X27790473Y-15484667D01*
X27790478Y-15479247D01*
X27795500Y-15454000D01*
X27790522Y-15428973D01*
X27790526Y-15423601D01*
X27767207Y-15367163D01*
X27727082Y-15326968D01*
X27767055Y-15287064D01*
X27790473Y-15230667D01*
X27790526Y-15169601D01*
X27767207Y-15113163D01*
X27727082Y-15072968D01*
X27767055Y-15033064D01*
X27790473Y-14976667D01*
X27790526Y-14915601D01*
X27767207Y-14859163D01*
X27724064Y-14815945D01*
X27721981Y-14815080D01*
X27727055Y-14800016D01*
X27637000Y-14709960D01*
X27546945Y-14800016D01*
X27552003Y-14815033D01*
X27550163Y-14815793D01*
X27506945Y-14858936D01*
X27483527Y-14915333D01*
X27483473Y-14976399D01*
X27506793Y-15032837D01*
X27546918Y-15073032D01*
X27506945Y-15112936D01*
X27483527Y-15169333D01*
X27483473Y-15230399D01*
X27506793Y-15286837D01*
X27546918Y-15327032D01*
X27509485Y-15364400D01*
X27294144Y-15364400D01*
X27294144Y-15325900D01*
X27289216Y-15301123D01*
X27275181Y-15280119D01*
X27254400Y-15266234D01*
X27254400Y-14813766D01*
X27275181Y-14799881D01*
X27289216Y-14778876D01*
X27294144Y-14754100D01*
X27294144Y-14667934D01*
X27482354Y-14667934D01*
X27484916Y-14728946D01*
X27503336Y-14773415D01*
X27528984Y-14782055D01*
X27619039Y-14692000D01*
X27654960Y-14692000D01*
X27745016Y-14782055D01*
X27770664Y-14773415D01*
X27791646Y-14716066D01*
X27789084Y-14655054D01*
X27770664Y-14610585D01*
X27745016Y-14601945D01*
X27654960Y-14692000D01*
X27619039Y-14692000D01*
X27528984Y-14601945D01*
X27503336Y-14610585D01*
X27482354Y-14667934D01*
X27294144Y-14667934D01*
X27294144Y-14500100D01*
X27289216Y-14475323D01*
X27275181Y-14454319D01*
X27254176Y-14440284D01*
X27229400Y-14435356D01*
X27102400Y-14435356D01*
X27077623Y-14440284D01*
X27056619Y-14454319D01*
X27042584Y-14475323D01*
X27037656Y-14500100D01*
X26861100Y-14500100D01*
X26861100Y-14487469D01*
X26851433Y-14464130D01*
X26833570Y-14446267D01*
X26810231Y-14436600D01*
X26762675Y-14436600D01*
X26746800Y-14452475D01*
X26721400Y-14452475D01*
X26705525Y-14436600D01*
X26657969Y-14436600D01*
X26634630Y-14446267D01*
X26616767Y-14464130D01*
X26607100Y-14487469D01*
X26553545Y-14487469D01*
X26643873Y-14234219D01*
X26825063Y-14067980D01*
X27109107Y-13915165D01*
X27361514Y-13782744D01*
X27366031Y-13779095D01*
X27371246Y-13776541D01*
X27544588Y-13644262D01*
X28601461Y-13644262D01*
X28635415Y-13726437D01*
X28698232Y-13789364D01*
X28780348Y-13823461D01*
X28869262Y-13823539D01*
X28951437Y-13789584D01*
X29014364Y-13726768D01*
X29048461Y-13644652D01*
X29048539Y-13555738D01*
X29014584Y-13473563D01*
X28951768Y-13410636D01*
X28869652Y-13376539D01*
X28780738Y-13376461D01*
X28698563Y-13410415D01*
X28635636Y-13473232D01*
X28601539Y-13555348D01*
X28601461Y-13644262D01*
X27544588Y-13644262D01*
X27553535Y-13637434D01*
X27892533Y-13410514D01*
X28331746Y-13313560D01*
X28777311Y-13292497D01*
X29222909Y-13313559D01*
X29222909Y-13313559D01*
G37*
X29222909Y-13313559D02*
X29662114Y-13410513D01*
X30001090Y-13637435D01*
X30183434Y-13776542D01*
X30188647Y-13779094D01*
X30193161Y-13782741D01*
X30445552Y-13915135D01*
X30729632Y-14067973D01*
X30910778Y-14234214D01*
X31034785Y-14581856D01*
X31066090Y-14868295D01*
X31066958Y-14871051D01*
X31066946Y-14873941D01*
X31117492Y-15133596D01*
X31177272Y-15545000D01*
X31194179Y-15957722D01*
X31197016Y-15969454D01*
X31199399Y-15981286D01*
X31284885Y-16186261D01*
X31386990Y-16454766D01*
X31386838Y-16743564D01*
X31387169Y-16745232D01*
X31386918Y-16746914D01*
X31389758Y-16758285D01*
X31392039Y-16769780D01*
X31392983Y-16771195D01*
X31393395Y-16772845D01*
X31534813Y-17072375D01*
X31592733Y-17331167D01*
X31596346Y-17339333D01*
X31598854Y-17347902D01*
X31802069Y-17737228D01*
X31778061Y-17990493D01*
X31778764Y-17997368D01*
X31778145Y-18004250D01*
X31811645Y-18317141D01*
X31659806Y-18658813D01*
X31658752Y-18663489D01*
X31656557Y-18667751D01*
X31655838Y-18676410D01*
X31653926Y-18684885D01*
X31654741Y-18689609D01*
X31654344Y-18694387D01*
X31656993Y-18702662D01*
X31658470Y-18711224D01*
X31661031Y-18715276D01*
X31662493Y-18719842D01*
X31787530Y-18945403D01*
X31811302Y-19183877D01*
X31812190Y-19186791D01*
X31812163Y-19189838D01*
X31852332Y-19401783D01*
X31705691Y-19754098D01*
X31704816Y-19758460D01*
X31702833Y-19762442D01*
X31702209Y-19771450D01*
X31700432Y-19780303D01*
X31701293Y-19784667D01*
X31700985Y-19789106D01*
X31752552Y-20192508D01*
X31606138Y-20618326D01*
X31605445Y-20623441D01*
X31603541Y-20628239D01*
X31566088Y-20832387D01*
X31566228Y-20841790D01*
X31565263Y-20851145D01*
X31595230Y-21170595D01*
X31586603Y-21566352D01*
X31563500Y-21683336D01*
X31563500Y-17540000D01*
X31554860Y-17496565D01*
X31530257Y-17459743D01*
X31053508Y-16982995D01*
X31053508Y-15180008D01*
X31044868Y-15136573D01*
X31020264Y-15099751D01*
X30090257Y-14169743D01*
X30085117Y-14166309D01*
X30053435Y-14145140D01*
X30010000Y-14136500D01*
X27825000Y-14136500D01*
X27783550Y-14144745D01*
X27781565Y-14145140D01*
X27744743Y-14169743D01*
X27629993Y-14284494D01*
X27606601Y-14284473D01*
X27550163Y-14307793D01*
X27506945Y-14350936D01*
X27483527Y-14407333D01*
X27483473Y-14468399D01*
X27506793Y-14524837D01*
X27549936Y-14568055D01*
X27552019Y-14568920D01*
X27546945Y-14583984D01*
X27637000Y-14674039D01*
X27727055Y-14583984D01*
X27721996Y-14568967D01*
X27723837Y-14568207D01*
X27767055Y-14525064D01*
X27790473Y-14468667D01*
X27790494Y-14445019D01*
X27872013Y-14363500D01*
X29787728Y-14363500D01*
X29769527Y-14407333D01*
X29769473Y-14468399D01*
X29792793Y-14524837D01*
X29832918Y-14565032D01*
X29792945Y-14604936D01*
X29769527Y-14661333D01*
X29769497Y-14695345D01*
X29617421Y-14847421D01*
X29598237Y-14876132D01*
X29598237Y-14876133D01*
X29591500Y-14910000D01*
X29591500Y-14910000D01*
X29591500Y-14966510D01*
X29559503Y-14966482D01*
X29521448Y-14982206D01*
X29492308Y-15011295D01*
X29476518Y-15049322D01*
X29476482Y-15090497D01*
X29491500Y-15126843D01*
X29491500Y-16723241D01*
X29476518Y-16759322D01*
X29476482Y-16800497D01*
X29492206Y-16838552D01*
X29521295Y-16867692D01*
X29559322Y-16883482D01*
X29576514Y-16883497D01*
X29576482Y-16920497D01*
X29592206Y-16958552D01*
X29606584Y-16972955D01*
X29595679Y-16975125D01*
X29586956Y-16980953D01*
X29578232Y-16975125D01*
X29553456Y-16970196D01*
X29493456Y-16970196D01*
X29468679Y-16975125D01*
X29447675Y-16989159D01*
X29433640Y-17010164D01*
X29428712Y-17034940D01*
X29428712Y-17184940D01*
X29429022Y-17186500D01*
X29297013Y-17186500D01*
X29165257Y-17054743D01*
X29161459Y-17052206D01*
X29128435Y-17030140D01*
X29085000Y-17021500D01*
X28913500Y-17021500D01*
X28913500Y-16965000D01*
X28904860Y-16921565D01*
X28900162Y-16914534D01*
X28897316Y-16900224D01*
X28891213Y-16891090D01*
X28891333Y-16890970D01*
X28901000Y-16867631D01*
X28901000Y-16843575D01*
X28885125Y-16827700D01*
X28812700Y-16827700D01*
X28812700Y-16854026D01*
X28800000Y-16851500D01*
X28787300Y-16851500D01*
X28787300Y-16827700D01*
X28714875Y-16827700D01*
X28699000Y-16843575D01*
X28699000Y-16852694D01*
X28661565Y-16860140D01*
X28624743Y-16884743D01*
X28619743Y-16889743D01*
X28595140Y-16926566D01*
X28586500Y-16970000D01*
X28595140Y-17013435D01*
X28619743Y-17050257D01*
X28656565Y-17074860D01*
X28686500Y-17080815D01*
X28686500Y-17105000D01*
X28695140Y-17148435D01*
X28711723Y-17173253D01*
X28719743Y-17185257D01*
X28749743Y-17215257D01*
X28786565Y-17239860D01*
X28830000Y-17248500D01*
X29037987Y-17248500D01*
X29169743Y-17380257D01*
X29206565Y-17404860D01*
X29250000Y-17413500D01*
X30327240Y-17413500D01*
X30316518Y-17439322D01*
X30316482Y-17480497D01*
X30329944Y-17513078D01*
X30315456Y-17510196D01*
X30255456Y-17510196D01*
X30230679Y-17515125D01*
X30221956Y-17520953D01*
X30213232Y-17515125D01*
X30188456Y-17510196D01*
X30128456Y-17510196D01*
X30103679Y-17515125D01*
X30094956Y-17520953D01*
X30086232Y-17515125D01*
X30061456Y-17510196D01*
X30001456Y-17510196D01*
X29976679Y-17515125D01*
X29967956Y-17520953D01*
X29959232Y-17515125D01*
X29934456Y-17510196D01*
X29874456Y-17510196D01*
X29849679Y-17515125D01*
X29840956Y-17520953D01*
X29832232Y-17515125D01*
X29807456Y-17510196D01*
X29747456Y-17510196D01*
X29722679Y-17515125D01*
X29713956Y-17520953D01*
X29705232Y-17515125D01*
X29680456Y-17510196D01*
X29620456Y-17510196D01*
X29595679Y-17515125D01*
X29587758Y-17520417D01*
X29566087Y-17511440D01*
X29552031Y-17511440D01*
X29536156Y-17527315D01*
X29536156Y-17637240D01*
X29555712Y-17637240D01*
X29555712Y-17662640D01*
X29536156Y-17662640D01*
X29536156Y-17772565D01*
X29552031Y-17788440D01*
X29561956Y-17788440D01*
X29561956Y-17823702D01*
X29550548Y-17835109D01*
X29540962Y-17835109D01*
X29516186Y-17840037D01*
X29495182Y-17854072D01*
X29481147Y-17875076D01*
X29476218Y-17899853D01*
X29476218Y-17949853D01*
X29481147Y-17974629D01*
X29488980Y-17986353D01*
X26702742Y-17986353D01*
X26698705Y-17982308D01*
X26660678Y-17966518D01*
X26619503Y-17966482D01*
X26581448Y-17982206D01*
X26552308Y-18011295D01*
X26536518Y-18049322D01*
X26536482Y-18090497D01*
X26552206Y-18128552D01*
X26581295Y-18157692D01*
X26619322Y-18173482D01*
X26660497Y-18173518D01*
X26685099Y-18163353D01*
X29534708Y-18163353D01*
X29540962Y-18164597D01*
X29600246Y-18164597D01*
X29293342Y-18471500D01*
X27270000Y-18471500D01*
X27270000Y-18471500D01*
X27241752Y-18477119D01*
X27236132Y-18478237D01*
X27207421Y-18497421D01*
X27207421Y-18497421D01*
X26547555Y-19157287D01*
X26511448Y-19172206D01*
X26482308Y-19201295D01*
X26466518Y-19239322D01*
X26466482Y-19280497D01*
X26482206Y-19318552D01*
X26511295Y-19347692D01*
X26549322Y-19363482D01*
X26590497Y-19363518D01*
X26628551Y-19347794D01*
X26657692Y-19318705D01*
X26672773Y-19282385D01*
X27306658Y-18648500D01*
X28346342Y-18648500D01*
X26667555Y-20327287D01*
X26631448Y-20342206D01*
X26602308Y-20371295D01*
X26586518Y-20409322D01*
X26586482Y-20450497D01*
X26602206Y-20488552D01*
X26631295Y-20517692D01*
X26669322Y-20533482D01*
X26710497Y-20533518D01*
X26748551Y-20517794D01*
X26777692Y-20488705D01*
X26792773Y-20452385D01*
X28476658Y-18768500D01*
X29389999Y-18768500D01*
X29390000Y-18768500D01*
X29418248Y-18762881D01*
X29423867Y-18761763D01*
X29452579Y-18742579D01*
X29947462Y-18247695D01*
X29947462Y-19097380D01*
X27047555Y-21997287D01*
X27011448Y-22012206D01*
X26982308Y-22041295D01*
X26966518Y-22079322D01*
X26966482Y-22120497D01*
X26982206Y-22158552D01*
X27011295Y-22187692D01*
X27049322Y-22203482D01*
X27090497Y-22203518D01*
X27128551Y-22187794D01*
X27157692Y-22158705D01*
X27172773Y-22122385D01*
X27747925Y-21547233D01*
X28533819Y-21547233D01*
X28570052Y-21634923D01*
X28637084Y-21702073D01*
X28724711Y-21738459D01*
X28819592Y-21738541D01*
X28907283Y-21702308D01*
X28974433Y-21635276D01*
X29010818Y-21547649D01*
X29010901Y-21452768D01*
X28974668Y-21365077D01*
X28907636Y-21297927D01*
X28820009Y-21261542D01*
X28725127Y-21261459D01*
X28637437Y-21297692D01*
X28570287Y-21364724D01*
X28533901Y-21452351D01*
X28533819Y-21547233D01*
X27747925Y-21547233D01*
X30097462Y-19197695D01*
X30097462Y-21835962D01*
X30097462Y-21835963D01*
X30101561Y-21856565D01*
X30104199Y-21869830D01*
X30119399Y-21892579D01*
X30123383Y-21898542D01*
X30337287Y-22112445D01*
X30352206Y-22148552D01*
X30381295Y-22177692D01*
X30419322Y-22193482D01*
X30460497Y-22193518D01*
X30498551Y-22177794D01*
X30527692Y-22148705D01*
X30543482Y-22110678D01*
X30543518Y-22069503D01*
X30527794Y-22031449D01*
X30498705Y-22002308D01*
X30462385Y-21987227D01*
X30274462Y-21799305D01*
X30274462Y-19959621D01*
X30757287Y-20442445D01*
X30772206Y-20478552D01*
X30801295Y-20507692D01*
X30839322Y-20523482D01*
X30880497Y-20523518D01*
X30918551Y-20507794D01*
X30947692Y-20478705D01*
X30963482Y-20440678D01*
X30963518Y-20399503D01*
X30947794Y-20361449D01*
X30918705Y-20332308D01*
X30882385Y-20317227D01*
X30424462Y-19859305D01*
X30424462Y-18819621D01*
X30867287Y-19262445D01*
X30882206Y-19298552D01*
X30911295Y-19327692D01*
X30949322Y-19343482D01*
X30990497Y-19343518D01*
X31028551Y-19327794D01*
X31057692Y-19298705D01*
X31073482Y-19260678D01*
X31073518Y-19219503D01*
X31057794Y-19181449D01*
X31028705Y-19152308D01*
X30992385Y-19137227D01*
X30574462Y-18719305D01*
X30574462Y-18160659D01*
X30595000Y-18164744D01*
X30685000Y-18164744D01*
X30691254Y-18163500D01*
X30884999Y-18163500D01*
X30885000Y-18163500D01*
X30885066Y-18163487D01*
X30920497Y-18163518D01*
X30958551Y-18147794D01*
X30987692Y-18118705D01*
X31003482Y-18080678D01*
X31003518Y-18039503D01*
X30987794Y-18001449D01*
X30958705Y-17972308D01*
X30920678Y-17956518D01*
X30879503Y-17956482D01*
X30841448Y-17972206D01*
X30827129Y-17986500D01*
X30736982Y-17986500D01*
X30744816Y-17974777D01*
X30749744Y-17950000D01*
X30749744Y-17900000D01*
X30744816Y-17875224D01*
X30730781Y-17854219D01*
X30728500Y-17852695D01*
X30728500Y-17680001D01*
X30728500Y-17680000D01*
X30721763Y-17646133D01*
X30721763Y-17646133D01*
X30702579Y-17617421D01*
X30702579Y-17617421D01*
X30522713Y-17437555D01*
X30507794Y-17401449D01*
X30478705Y-17372308D01*
X30443022Y-17357491D01*
X30473183Y-17327330D01*
X30474630Y-17330822D01*
X30492493Y-17348685D01*
X30515831Y-17358353D01*
X30537387Y-17358353D01*
X30553262Y-17342478D01*
X30553262Y-17267553D01*
X30578662Y-17267553D01*
X30578662Y-17342478D01*
X30594537Y-17358353D01*
X30616093Y-17358353D01*
X30639432Y-17348685D01*
X30657295Y-17330822D01*
X30666962Y-17307483D01*
X30666962Y-17283428D01*
X30651087Y-17267553D01*
X30578662Y-17267553D01*
X30553262Y-17267553D01*
X30517997Y-17267553D01*
X30523050Y-17242153D01*
X30553262Y-17242153D01*
X30553262Y-17218353D01*
X30565962Y-17218353D01*
X30578662Y-17215826D01*
X30578662Y-17242153D01*
X30651087Y-17242153D01*
X30666962Y-17226278D01*
X30666962Y-17202222D01*
X30657295Y-17178883D01*
X30657175Y-17178763D01*
X30661410Y-17172424D01*
X30672206Y-17198552D01*
X30701295Y-17227692D01*
X30737615Y-17242773D01*
X30787421Y-17292579D01*
X30787421Y-17292579D01*
X30810202Y-17307801D01*
X30816132Y-17311763D01*
X30816723Y-17311881D01*
X31191500Y-17686658D01*
X31191500Y-21793342D01*
X30493342Y-22491500D01*
X29189111Y-22491500D01*
X28998775Y-22301164D01*
X28970063Y-22281980D01*
X28964444Y-22280862D01*
X28936196Y-22275243D01*
X28936195Y-22275243D01*
X28801258Y-22275243D01*
X28801257Y-22275243D01*
X28767390Y-22281980D01*
X28738678Y-22301164D01*
X28738678Y-22301164D01*
X28687000Y-22352842D01*
X28675223Y-22355184D01*
X28654219Y-22369219D01*
X28640184Y-22390223D01*
X28635256Y-22415000D01*
X28635256Y-22476573D01*
X28632554Y-22479271D01*
X28616764Y-22517298D01*
X28616728Y-22558472D01*
X28632451Y-22596527D01*
X28661541Y-22625667D01*
X28699568Y-22641457D01*
X28740743Y-22641493D01*
X28778797Y-22625770D01*
X28807937Y-22596680D01*
X28822049Y-22562695D01*
X28825223Y-22564816D01*
X28850000Y-22569744D01*
X28900000Y-22569744D01*
X28903825Y-22568983D01*
X29019664Y-22684822D01*
X28932379Y-22772107D01*
X28929219Y-22774219D01*
X28915184Y-22795223D01*
X28914813Y-22797087D01*
X28905140Y-22811565D01*
X28896500Y-22855000D01*
X28896500Y-22895000D01*
X28905140Y-22938435D01*
X28910256Y-22946092D01*
X28910256Y-22962827D01*
X28873620Y-22977965D01*
X28843072Y-23008459D01*
X28826519Y-23048323D01*
X28826481Y-23091487D01*
X28842965Y-23131380D01*
X28873459Y-23161928D01*
X28913323Y-23178481D01*
X28956487Y-23178519D01*
X28996380Y-23162035D01*
X29026928Y-23131540D01*
X29043481Y-23091677D01*
X29043519Y-23048513D01*
X29037830Y-23034744D01*
X29045000Y-23034744D01*
X29046628Y-23034420D01*
X29054219Y-23045781D01*
X29075223Y-23059816D01*
X29100000Y-23064744D01*
X29200000Y-23064744D01*
X29224776Y-23059816D01*
X29245781Y-23045781D01*
X29259816Y-23024776D01*
X29264744Y-23000000D01*
X29264744Y-22920000D01*
X29259816Y-22895223D01*
X29245781Y-22874219D01*
X29244705Y-22873500D01*
X30590000Y-22873500D01*
X30633435Y-22864860D01*
X30670257Y-22840257D01*
X31481803Y-22028711D01*
X31315121Y-22365362D01*
X30977043Y-22670470D01*
X30662049Y-22910050D01*
X30168007Y-23060625D01*
X29604142Y-23143757D01*
X29264744Y-23166811D01*
X29264744Y-23140000D01*
X29259816Y-23115223D01*
X29245781Y-23094219D01*
X29224776Y-23080184D01*
X29200000Y-23075256D01*
X29100000Y-23075256D01*
X29075223Y-23080184D01*
X29054219Y-23094219D01*
X29040184Y-23115223D01*
X29035256Y-23140000D01*
X29035256Y-23179403D01*
X28776350Y-23184746D01*
X28534744Y-23179759D01*
X28534744Y-23140000D01*
X28529816Y-23115223D01*
X28515781Y-23094219D01*
X28494776Y-23080184D01*
X28470000Y-23075256D01*
X28370000Y-23075256D01*
X28345223Y-23080184D01*
X28324219Y-23094219D01*
X28310184Y-23115223D01*
X28305256Y-23140000D01*
X28305256Y-23167984D01*
X27948600Y-23143757D01*
X27384748Y-23060625D01*
X26890704Y-22910050D01*
X26575687Y-22670470D01*
X26237641Y-22365367D01*
X26048531Y-21983395D01*
X25966172Y-21566365D01*
X25962540Y-21400000D01*
X26235256Y-21400000D01*
X26235256Y-21600000D01*
X26240184Y-21624777D01*
X26254219Y-21645781D01*
X26275223Y-21659816D01*
X26286500Y-21662059D01*
X26286500Y-22050000D01*
X26295140Y-22093435D01*
X26299527Y-22100000D01*
X26319743Y-22130257D01*
X27019743Y-22830257D01*
X27056565Y-22854860D01*
X27100000Y-22863500D01*
X28340261Y-22863500D01*
X28324219Y-22874219D01*
X28310184Y-22895223D01*
X28305256Y-22920000D01*
X28305256Y-23000000D01*
X28310184Y-23024776D01*
X28324219Y-23045781D01*
X28345223Y-23059816D01*
X28370000Y-23064744D01*
X28470000Y-23064744D01*
X28494776Y-23059816D01*
X28515781Y-23045781D01*
X28523372Y-23034420D01*
X28525000Y-23034744D01*
X28532157Y-23034744D01*
X28526519Y-23048323D01*
X28526481Y-23091487D01*
X28542965Y-23131380D01*
X28573459Y-23161928D01*
X28613323Y-23178481D01*
X28656487Y-23178519D01*
X28696380Y-23162035D01*
X28726928Y-23131540D01*
X28743481Y-23091677D01*
X28743519Y-23048513D01*
X28737830Y-23034744D01*
X28745000Y-23034744D01*
X28769776Y-23029816D01*
X28790781Y-23015781D01*
X28804816Y-22994776D01*
X28809744Y-22970000D01*
X28809744Y-22946092D01*
X28814860Y-22938435D01*
X28823500Y-22895000D01*
X28823500Y-22809000D01*
X28820404Y-22793434D01*
X28814860Y-22765565D01*
X28790257Y-22728743D01*
X28731257Y-22669743D01*
X28729738Y-22668728D01*
X28694435Y-22645140D01*
X28651000Y-22636500D01*
X27147013Y-22636500D01*
X26513500Y-22002987D01*
X26513500Y-21662059D01*
X26524776Y-21659816D01*
X26545781Y-21645781D01*
X26559816Y-21624777D01*
X26564744Y-21600000D01*
X26564744Y-21400000D01*
X26559816Y-21375224D01*
X26545781Y-21354219D01*
X26524776Y-21340184D01*
X26500000Y-21335256D01*
X26300000Y-21335256D01*
X26275223Y-21340184D01*
X26254219Y-21354219D01*
X26240184Y-21375224D01*
X26235256Y-21400000D01*
X25962540Y-21400000D01*
X25957530Y-21170602D01*
X25987469Y-20851139D01*
X25986504Y-20841797D01*
X25986647Y-20832406D01*
X25949256Y-20628258D01*
X25947348Y-20623448D01*
X25946652Y-20618321D01*
X25852735Y-20345253D01*
X26302707Y-20345253D01*
X26312574Y-20371939D01*
X26373546Y-20394591D01*
X26438546Y-20392186D01*
X26487426Y-20371939D01*
X26497293Y-20345253D01*
X26400000Y-20247961D01*
X26302707Y-20345253D01*
X25852735Y-20345253D01*
X25803996Y-20203546D01*
X26235409Y-20203546D01*
X26237814Y-20268546D01*
X26258061Y-20317426D01*
X26284747Y-20327293D01*
X26382039Y-20230000D01*
X26417960Y-20230000D01*
X26515253Y-20327293D01*
X26541939Y-20317426D01*
X26564591Y-20256454D01*
X26562186Y-20191454D01*
X26541939Y-20142574D01*
X26515253Y-20132707D01*
X26417960Y-20230000D01*
X26382039Y-20230000D01*
X26284747Y-20132707D01*
X26258061Y-20142574D01*
X26235409Y-20203546D01*
X25803996Y-20203546D01*
X25800198Y-20192503D01*
X25810134Y-20114747D01*
X26302707Y-20114747D01*
X26400000Y-20212040D01*
X26497293Y-20114747D01*
X26487426Y-20088061D01*
X26426454Y-20065409D01*
X26361454Y-20067814D01*
X26312574Y-20088061D01*
X26302707Y-20114747D01*
X25810134Y-20114747D01*
X25851746Y-19789103D01*
X25851439Y-19784671D01*
X25852299Y-19780312D01*
X25850522Y-19771453D01*
X25849897Y-19762439D01*
X25847917Y-19758463D01*
X25847043Y-19754107D01*
X25700590Y-19402103D01*
X25742618Y-19190918D01*
X25742619Y-19187557D01*
X25743598Y-19184341D01*
X25767364Y-18945862D01*
X25892351Y-18720297D01*
X25893810Y-18715739D01*
X25896366Y-18711694D01*
X25897846Y-18703124D01*
X25900496Y-18694841D01*
X25900099Y-18690072D01*
X25900913Y-18685356D01*
X25899000Y-18676872D01*
X25898278Y-18668206D01*
X25896087Y-18663952D01*
X25895034Y-18659283D01*
X25743226Y-18317617D01*
X25776755Y-18004754D01*
X25776134Y-17997846D01*
X25776835Y-17990946D01*
X25752621Y-17737264D01*
X25783273Y-17678515D01*
X29429956Y-17678515D01*
X29429956Y-17737571D01*
X29439623Y-17760910D01*
X29457486Y-17778773D01*
X29480825Y-17788440D01*
X29494881Y-17788440D01*
X29510756Y-17772565D01*
X29510756Y-17662640D01*
X29445831Y-17662640D01*
X29429956Y-17678515D01*
X25783273Y-17678515D01*
X25843903Y-17562309D01*
X29429956Y-17562309D01*
X29429956Y-17621365D01*
X29445831Y-17637240D01*
X29510756Y-17637240D01*
X29510756Y-17527315D01*
X29494881Y-17511440D01*
X29480825Y-17511440D01*
X29457486Y-17521108D01*
X29439623Y-17538970D01*
X29429956Y-17562309D01*
X25843903Y-17562309D01*
X25955773Y-17347893D01*
X25958276Y-17339335D01*
X25961886Y-17331180D01*
X26019857Y-17072380D01*
X26161259Y-16772843D01*
X26161673Y-16771187D01*
X26162620Y-16769768D01*
X26164085Y-16762369D01*
X28699000Y-16762369D01*
X28699000Y-16786425D01*
X28714875Y-16802300D01*
X28787300Y-16802300D01*
X28787300Y-16727375D01*
X28771425Y-16711500D01*
X28749869Y-16711500D01*
X28726530Y-16721167D01*
X28708667Y-16739030D01*
X28699000Y-16762369D01*
X26164085Y-16762369D01*
X26164896Y-16758278D01*
X26167734Y-16746912D01*
X26167483Y-16745224D01*
X26167814Y-16743550D01*
X26167599Y-16454978D01*
X26269152Y-16187769D01*
X26355255Y-15981284D01*
X26357637Y-15969454D01*
X26360474Y-15957726D01*
X26377395Y-15545004D01*
X26386628Y-15481475D01*
X26607100Y-15481475D01*
X26607100Y-15592531D01*
X26616767Y-15615870D01*
X26634630Y-15633733D01*
X26657969Y-15643400D01*
X26705525Y-15643400D01*
X26721400Y-15627525D01*
X26721400Y-15465600D01*
X26746800Y-15465600D01*
X26746800Y-15627525D01*
X26762675Y-15643400D01*
X26810231Y-15643400D01*
X26833570Y-15633733D01*
X26851433Y-15615870D01*
X26861100Y-15592531D01*
X26861100Y-15481475D01*
X26845225Y-15465600D01*
X26746800Y-15465600D01*
X26721400Y-15465600D01*
X26622975Y-15465600D01*
X26607100Y-15481475D01*
X26386628Y-15481475D01*
X26411074Y-15313269D01*
X26607100Y-15313269D01*
X26607100Y-15424325D01*
X26622975Y-15440200D01*
X26721400Y-15440200D01*
X26721400Y-15278275D01*
X26746800Y-15278275D01*
X26746800Y-15440200D01*
X26845225Y-15440200D01*
X26861100Y-15424325D01*
X26861100Y-15313269D01*
X26851433Y-15289930D01*
X26833570Y-15272067D01*
X26810231Y-15262400D01*
X26762675Y-15262400D01*
X26746800Y-15278275D01*
X26721400Y-15278275D01*
X26705525Y-15262400D01*
X26657969Y-15262400D01*
X26634630Y-15272067D01*
X26616767Y-15289930D01*
X26607100Y-15313269D01*
X26411074Y-15313269D01*
X26437188Y-15133594D01*
X26487707Y-14873936D01*
X26487695Y-14871050D01*
X26488562Y-14868299D01*
X26511808Y-14655675D01*
X26607100Y-14655675D01*
X26607100Y-14766731D01*
X26616767Y-14790070D01*
X26634630Y-14807933D01*
X26657969Y-14817600D01*
X26705525Y-14817600D01*
X26721400Y-14801725D01*
X26721400Y-14639800D01*
X26746800Y-14639800D01*
X26746800Y-14801725D01*
X26762675Y-14817600D01*
X26810231Y-14817600D01*
X26833570Y-14807933D01*
X26851433Y-14790070D01*
X26861100Y-14766731D01*
X26861100Y-14655675D01*
X26845225Y-14639800D01*
X26746800Y-14639800D01*
X26721400Y-14639800D01*
X26622975Y-14639800D01*
X26607100Y-14655675D01*
X26511808Y-14655675D01*
X26519879Y-14581857D01*
X26553545Y-14487469D01*
X26607100Y-14487469D01*
X26607100Y-14598525D01*
X26622975Y-14614400D01*
X26721400Y-14614400D01*
X26721400Y-14452475D01*
X26746800Y-14452475D01*
X26746800Y-14614400D01*
X26845225Y-14614400D01*
X26861100Y-14598525D01*
X26861100Y-14500100D01*
X27037656Y-14500100D01*
X27037656Y-14754100D01*
X27042584Y-14778876D01*
X27056619Y-14799881D01*
X27077400Y-14813766D01*
X27077400Y-15266234D01*
X27056619Y-15280119D01*
X27042584Y-15301123D01*
X27037656Y-15325900D01*
X27037656Y-15579900D01*
X27042584Y-15604676D01*
X27056619Y-15625681D01*
X27077623Y-15639716D01*
X27102400Y-15644644D01*
X27229400Y-15644644D01*
X27254176Y-15639716D01*
X27275181Y-15625681D01*
X27289216Y-15604676D01*
X27294144Y-15579900D01*
X27294144Y-15541400D01*
X27507355Y-15541400D01*
X27546918Y-15581032D01*
X27506945Y-15620936D01*
X27483527Y-15677333D01*
X27483473Y-15738399D01*
X27506793Y-15794837D01*
X27546918Y-15835032D01*
X27506945Y-15874936D01*
X27483527Y-15931333D01*
X27483473Y-15992399D01*
X27506793Y-16048837D01*
X27546918Y-16089032D01*
X27506945Y-16128936D01*
X27483527Y-16185333D01*
X27483473Y-16246399D01*
X27506793Y-16302837D01*
X27549936Y-16346055D01*
X27606333Y-16369473D01*
X27667399Y-16369526D01*
X27723837Y-16346207D01*
X27767055Y-16303064D01*
X27790473Y-16246667D01*
X27790526Y-16185601D01*
X27767207Y-16129163D01*
X27727082Y-16088968D01*
X27767055Y-16049064D01*
X27790473Y-15992667D01*
X27790526Y-15931601D01*
X27767207Y-15875163D01*
X27727082Y-15834968D01*
X27765617Y-15796500D01*
X27861342Y-15796500D01*
X28812700Y-16747858D01*
X28812700Y-16802300D01*
X28867142Y-16802300D01*
X28936498Y-16871656D01*
X28936482Y-16890497D01*
X28952206Y-16928552D01*
X28981295Y-16957692D01*
X29019322Y-16973482D01*
X29060497Y-16973518D01*
X29098551Y-16957794D01*
X29127692Y-16928705D01*
X29143482Y-16890678D01*
X29143518Y-16849503D01*
X29127794Y-16811449D01*
X29098705Y-16782308D01*
X29096586Y-16781429D01*
X27960579Y-15645421D01*
X27957554Y-15643400D01*
X27931867Y-15626237D01*
X27926248Y-15625119D01*
X27898000Y-15619500D01*
X27897999Y-15619500D01*
X27765547Y-15619500D01*
X27727082Y-15580968D01*
X27767055Y-15541064D01*
X27790473Y-15484667D01*
X27790478Y-15479247D01*
X27795500Y-15454000D01*
X27790522Y-15428973D01*
X27790526Y-15423601D01*
X27767207Y-15367163D01*
X27727082Y-15326968D01*
X27767055Y-15287064D01*
X27790473Y-15230667D01*
X27790526Y-15169601D01*
X27767207Y-15113163D01*
X27727082Y-15072968D01*
X27767055Y-15033064D01*
X27790473Y-14976667D01*
X27790526Y-14915601D01*
X27767207Y-14859163D01*
X27724064Y-14815945D01*
X27721981Y-14815080D01*
X27727055Y-14800016D01*
X27637000Y-14709960D01*
X27546945Y-14800016D01*
X27552003Y-14815033D01*
X27550163Y-14815793D01*
X27506945Y-14858936D01*
X27483527Y-14915333D01*
X27483473Y-14976399D01*
X27506793Y-15032837D01*
X27546918Y-15073032D01*
X27506945Y-15112936D01*
X27483527Y-15169333D01*
X27483473Y-15230399D01*
X27506793Y-15286837D01*
X27546918Y-15327032D01*
X27509485Y-15364400D01*
X27294144Y-15364400D01*
X27294144Y-15325900D01*
X27289216Y-15301123D01*
X27275181Y-15280119D01*
X27254400Y-15266234D01*
X27254400Y-14813766D01*
X27275181Y-14799881D01*
X27289216Y-14778876D01*
X27294144Y-14754100D01*
X27294144Y-14667934D01*
X27482354Y-14667934D01*
X27484916Y-14728946D01*
X27503336Y-14773415D01*
X27528984Y-14782055D01*
X27619039Y-14692000D01*
X27654960Y-14692000D01*
X27745016Y-14782055D01*
X27770664Y-14773415D01*
X27791646Y-14716066D01*
X27789084Y-14655054D01*
X27770664Y-14610585D01*
X27745016Y-14601945D01*
X27654960Y-14692000D01*
X27619039Y-14692000D01*
X27528984Y-14601945D01*
X27503336Y-14610585D01*
X27482354Y-14667934D01*
X27294144Y-14667934D01*
X27294144Y-14500100D01*
X27289216Y-14475323D01*
X27275181Y-14454319D01*
X27254176Y-14440284D01*
X27229400Y-14435356D01*
X27102400Y-14435356D01*
X27077623Y-14440284D01*
X27056619Y-14454319D01*
X27042584Y-14475323D01*
X27037656Y-14500100D01*
X26861100Y-14500100D01*
X26861100Y-14487469D01*
X26851433Y-14464130D01*
X26833570Y-14446267D01*
X26810231Y-14436600D01*
X26762675Y-14436600D01*
X26746800Y-14452475D01*
X26721400Y-14452475D01*
X26705525Y-14436600D01*
X26657969Y-14436600D01*
X26634630Y-14446267D01*
X26616767Y-14464130D01*
X26607100Y-14487469D01*
X26553545Y-14487469D01*
X26643873Y-14234219D01*
X26825063Y-14067980D01*
X27109107Y-13915165D01*
X27361514Y-13782744D01*
X27366031Y-13779095D01*
X27371246Y-13776541D01*
X27544588Y-13644262D01*
X28601461Y-13644262D01*
X28635415Y-13726437D01*
X28698232Y-13789364D01*
X28780348Y-13823461D01*
X28869262Y-13823539D01*
X28951437Y-13789584D01*
X29014364Y-13726768D01*
X29048461Y-13644652D01*
X29048539Y-13555738D01*
X29014584Y-13473563D01*
X28951768Y-13410636D01*
X28869652Y-13376539D01*
X28780738Y-13376461D01*
X28698563Y-13410415D01*
X28635636Y-13473232D01*
X28601539Y-13555348D01*
X28601461Y-13644262D01*
X27544588Y-13644262D01*
X27553535Y-13637434D01*
X27892533Y-13410514D01*
X28331746Y-13313560D01*
X28777311Y-13292497D01*
X29222909Y-13313559D01*
G36*
X30556499Y-16650657D02*
X30556499Y-16686500D01*
X30528575Y-16686500D01*
X30512700Y-16702375D01*
X30512700Y-16762500D01*
X30556499Y-16762500D01*
X30556499Y-16777739D01*
X30552446Y-16787500D01*
X30512700Y-16787500D01*
X30512700Y-16835256D01*
X30487300Y-16835256D01*
X30487300Y-16787500D01*
X30407375Y-16787500D01*
X30397518Y-16797357D01*
X30383867Y-16788237D01*
X30378248Y-16787119D01*
X30350000Y-16781500D01*
X30349999Y-16781500D01*
X30120000Y-16781500D01*
X30120000Y-16781500D01*
X30091752Y-16787119D01*
X30086132Y-16788237D01*
X30057421Y-16807421D01*
X30057421Y-16807421D01*
X29998203Y-16866639D01*
X29987794Y-16841449D01*
X29958705Y-16812308D01*
X29920678Y-16796518D01*
X29879503Y-16796482D01*
X29865956Y-16802080D01*
X29865956Y-16737369D01*
X30391500Y-16737369D01*
X30391500Y-16746625D01*
X30407375Y-16762500D01*
X30487300Y-16762500D01*
X30487300Y-16702375D01*
X30471425Y-16686500D01*
X30442369Y-16686500D01*
X30419030Y-16696167D01*
X30401167Y-16714030D01*
X30391500Y-16737369D01*
X29865956Y-16737369D01*
X29865956Y-16358520D01*
X29892333Y-16369473D01*
X29953399Y-16369526D01*
X30009837Y-16346207D01*
X30053055Y-16303064D01*
X30076473Y-16246667D01*
X30076526Y-16185601D01*
X30066023Y-16160181D01*
X30556499Y-16650657D01*
X30556499Y-16650657D01*
G37*
X30556499Y-16650657D02*
X30556499Y-16686500D01*
X30528575Y-16686500D01*
X30512700Y-16702375D01*
X30512700Y-16762500D01*
X30556499Y-16762500D01*
X30556499Y-16777739D01*
X30552446Y-16787500D01*
X30512700Y-16787500D01*
X30512700Y-16835256D01*
X30487300Y-16835256D01*
X30487300Y-16787500D01*
X30407375Y-16787500D01*
X30397518Y-16797357D01*
X30383867Y-16788237D01*
X30378248Y-16787119D01*
X30350000Y-16781500D01*
X30349999Y-16781500D01*
X30120000Y-16781500D01*
X30120000Y-16781500D01*
X30091752Y-16787119D01*
X30086132Y-16788237D01*
X30057421Y-16807421D01*
X30057421Y-16807421D01*
X29998203Y-16866639D01*
X29987794Y-16841449D01*
X29958705Y-16812308D01*
X29920678Y-16796518D01*
X29879503Y-16796482D01*
X29865956Y-16802080D01*
X29865956Y-16737369D01*
X30391500Y-16737369D01*
X30391500Y-16746625D01*
X30407375Y-16762500D01*
X30487300Y-16762500D01*
X30487300Y-16702375D01*
X30471425Y-16686500D01*
X30442369Y-16686500D01*
X30419030Y-16696167D01*
X30401167Y-16714030D01*
X30391500Y-16737369D01*
X29865956Y-16737369D01*
X29865956Y-16358520D01*
X29892333Y-16369473D01*
X29953399Y-16369526D01*
X30009837Y-16346207D01*
X30053055Y-16303064D01*
X30076473Y-16246667D01*
X30076526Y-16185601D01*
X30066023Y-16160181D01*
X30556499Y-16650657D01*
G36*
X30641500Y-15973658D02*
X30641500Y-16485342D01*
X30068617Y-15912459D01*
X30053207Y-15875163D01*
X30013082Y-15834968D01*
X30053055Y-15795064D01*
X30076473Y-15738667D01*
X30076526Y-15677601D01*
X30053207Y-15621163D01*
X30013082Y-15580968D01*
X30053055Y-15541064D01*
X30076473Y-15484667D01*
X30076478Y-15479247D01*
X30081500Y-15454000D01*
X30076522Y-15428973D01*
X30076526Y-15423601D01*
X30066023Y-15398181D01*
X30641500Y-15973658D01*
X30641500Y-15973658D01*
G37*
X30641500Y-15973658D02*
X30641500Y-16485342D01*
X30068617Y-15912459D01*
X30053207Y-15875163D01*
X30013082Y-15834968D01*
X30053055Y-15795064D01*
X30076473Y-15738667D01*
X30076526Y-15677601D01*
X30053207Y-15621163D01*
X30013082Y-15580968D01*
X30053055Y-15541064D01*
X30076473Y-15484667D01*
X30076478Y-15479247D01*
X30081500Y-15454000D01*
X30076522Y-15428973D01*
X30076526Y-15423601D01*
X30066023Y-15398181D01*
X30641500Y-15973658D01*
G36*
X30741508Y-15311666D02*
X30741508Y-15823350D01*
X30068617Y-15150459D01*
X30053207Y-15113163D01*
X30013082Y-15072968D01*
X30053055Y-15033064D01*
X30076473Y-14976667D01*
X30076526Y-14915601D01*
X30053207Y-14859163D01*
X30013082Y-14818968D01*
X30053055Y-14779064D01*
X30076473Y-14722667D01*
X30076478Y-14717247D01*
X30081500Y-14692000D01*
X30076522Y-14666973D01*
X30076526Y-14661601D01*
X30066023Y-14636181D01*
X30741508Y-15311666D01*
X30741508Y-15311666D01*
G37*
X30741508Y-15311666D02*
X30741508Y-15823350D01*
X30068617Y-15150459D01*
X30053207Y-15113163D01*
X30013082Y-15072968D01*
X30053055Y-15033064D01*
X30076473Y-14976667D01*
X30076526Y-14915601D01*
X30053207Y-14859163D01*
X30013082Y-14818968D01*
X30053055Y-14779064D01*
X30076473Y-14722667D01*
X30076478Y-14717247D01*
X30081500Y-14692000D01*
X30076522Y-14666973D01*
X30076526Y-14661601D01*
X30066023Y-14636181D01*
X30741508Y-15311666D01*
M02*
