G04 #@! TF.GenerationSoftware,KiCad,Pcbnew,no-vcs-found-bf44d39~61~ubuntu16.04.1*
G04 #@! TF.CreationDate,2018-01-11T19:38:33+02:00*
G04 #@! TF.ProjectId,shd18-badge,73686431382D62616467652E6B696361,rev?*
G04 #@! TF.SameCoordinates,Original*
G04 #@! TF.FileFunction,Soldermask,Bot*
G04 #@! TF.FilePolarity,Negative*
%FSLAX45Y45*%
G04 Gerber Fmt 4.5, Leading zero omitted, Abs format (unit mm)*
G04 Created by KiCad (PCBNEW no-vcs-found-bf44d39~61~ubuntu16.04.1) date Thu Jan 11 19:38:33 2018*
%MOMM*%
%LPD*%
G01*
G04 APERTURE LIST*
%ADD10C,0.020320*%
%ADD11R,2.400000X2.400000*%
%ADD12C,2.400000*%
%ADD13C,3.900000*%
%ADD14R,1.300000X0.900000*%
%ADD15R,1.670000X2.940000*%
%ADD16R,1.100000X1.900000*%
%ADD17R,1.400000X1.000000*%
%ADD18R,1.400000X1.200000*%
%ADD19R,1.150000X1.200000*%
%ADD20R,1.000000X1.900000*%
%ADD21C,3.600000*%
%ADD22R,0.900000X1.300000*%
%ADD23C,2.200000*%
G04 APERTURE END LIST*
D10*
X26949102Y-14988117D02*
X26950251Y-14991564D01*
X26950251Y-14997309D01*
X26949102Y-14999607D01*
X26947953Y-15000756D01*
X26945655Y-15001905D01*
X26943357Y-15001905D01*
X26941058Y-15000756D01*
X26939909Y-14999607D01*
X26938760Y-14997309D01*
X26937611Y-14992713D01*
X26936462Y-14990415D01*
X26935313Y-14989266D01*
X26933015Y-14988117D01*
X26930717Y-14988117D01*
X26928419Y-14989266D01*
X26927270Y-14990415D01*
X26926121Y-14992713D01*
X26926121Y-14998458D01*
X26927270Y-15001905D01*
X26926121Y-15009949D02*
X26950251Y-15015694D01*
X26933015Y-15020290D01*
X26950251Y-15024886D01*
X26926121Y-15030632D01*
X26928419Y-15038675D02*
X26927270Y-15039824D01*
X26926121Y-15042122D01*
X26926121Y-15047867D01*
X26927270Y-15050165D01*
X26928419Y-15051315D01*
X26930717Y-15052464D01*
X26933015Y-15052464D01*
X26936462Y-15051315D01*
X26950251Y-15037526D01*
X26950251Y-15052464D01*
D11*
X26400000Y-21500000D03*
D12*
X26400000Y-20230000D03*
D13*
X28772360Y-21500000D03*
D14*
X30500000Y-16775000D03*
X30500000Y-16925000D03*
D15*
X26734100Y-14627100D03*
X27165900Y-14627100D03*
X27165900Y-15452900D03*
X26734100Y-15452900D03*
D16*
X28560000Y-22895000D03*
X28710000Y-22895000D03*
X29010000Y-22895000D03*
D17*
X28420000Y-23170000D03*
D18*
X28420000Y-22960000D03*
D17*
X29150000Y-23170000D03*
D18*
X29150000Y-22960000D03*
D19*
X28800000Y-16815000D03*
X28800000Y-16965000D03*
X30565962Y-17104853D03*
X30565962Y-17254853D03*
D20*
X30412456Y-17109940D03*
X30285456Y-17109940D03*
X30158456Y-17109940D03*
X30031456Y-17109940D03*
X29904456Y-17109940D03*
X29777456Y-17109940D03*
X29650456Y-17109940D03*
X29523456Y-17109940D03*
X29523456Y-17649940D03*
X29650456Y-17649940D03*
X29777456Y-17649940D03*
X29904456Y-17649940D03*
X30031456Y-17649940D03*
X30158456Y-17649940D03*
X30285456Y-17649940D03*
X30412456Y-17649940D03*
D21*
X28825000Y-13600000D03*
D14*
X29735962Y-18074853D03*
X29735962Y-17924853D03*
X29885962Y-17924853D03*
X29885962Y-18074853D03*
X30035962Y-18074853D03*
X30035962Y-17924853D03*
X30185962Y-17924853D03*
X30185962Y-18074853D03*
X30335962Y-18074853D03*
X30335962Y-17924853D03*
X30485962Y-17924853D03*
X30485962Y-18074853D03*
X30640000Y-18075000D03*
X30640000Y-17925000D03*
D22*
X28725000Y-22460000D03*
X28875000Y-22460000D03*
D14*
X29585962Y-17924853D03*
X29585962Y-18074853D03*
D23*
X29923000Y-16216000D03*
X29923000Y-15962000D03*
X29923000Y-15708000D03*
X29923000Y-15454000D03*
X29923000Y-15200000D03*
X29923000Y-14946000D03*
X29923000Y-14692000D03*
X29923000Y-14438000D03*
X27637000Y-14438000D03*
X27637000Y-14692000D03*
X27637000Y-14946000D03*
X27637000Y-15200000D03*
X27637000Y-15454000D03*
X27637000Y-15708000D03*
X27637000Y-15962000D03*
X27637000Y-16216000D03*
M02*
