G04 #@! TF.GenerationSoftware,KiCad,Pcbnew,no-vcs-found-bf44d39~61~ubuntu16.04.1*
G04 #@! TF.CreationDate,2018-01-11T19:38:33+02:00*
G04 #@! TF.ProjectId,shd18-badge,73686431382D62616467652E6B696361,rev?*
G04 #@! TF.SameCoordinates,Original*
G04 #@! TF.FileFunction,Soldermask,Top*
G04 #@! TF.FilePolarity,Negative*
%FSLAX45Y45*%
G04 Gerber Fmt 4.5, Leading zero omitted, Abs format (unit mm)*
G04 Created by KiCad (PCBNEW no-vcs-found-bf44d39~61~ubuntu16.04.1) date Thu Jan 11 19:38:33 2018*
%MOMM*%
%LPD*%
G01*
G04 APERTURE LIST*
%ADD10R,2.400000X2.400000*%
%ADD11C,2.400000*%
%ADD12C,3.900000*%
%ADD13C,1.200000*%
%ADD14C,0.100000*%
%ADD15R,2.000000X1.400000*%
%ADD16C,3.600000*%
%ADD17R,0.900000X1.300000*%
%ADD18C,2.200000*%
G04 APERTURE END LIST*
D10*
X26400000Y-21500000D03*
D11*
X26400000Y-20230000D03*
D12*
X28772360Y-21500000D03*
D13*
X31023431Y-19293432D03*
D14*
G36*
X30938579Y-19293432D02*
X31023431Y-19208579D01*
X31108284Y-19293432D01*
X31023431Y-19378284D01*
X30938579Y-19293432D01*
X30938579Y-19293432D01*
G37*
D13*
X31136568Y-19406569D03*
D14*
G36*
X31051716Y-19406569D02*
X31136568Y-19321716D01*
X31221421Y-19406569D01*
X31136568Y-19491421D01*
X31051716Y-19406569D01*
X31051716Y-19406569D01*
G37*
D13*
X31026568Y-20586569D03*
D14*
G36*
X30941716Y-20586569D02*
X31026568Y-20501716D01*
X31111421Y-20586569D01*
X31026568Y-20671421D01*
X30941716Y-20586569D01*
X30941716Y-20586569D01*
G37*
D13*
X30913431Y-20473432D03*
D14*
G36*
X30828579Y-20473432D02*
X30913431Y-20388579D01*
X30998284Y-20473432D01*
X30913431Y-20558284D01*
X30828579Y-20473432D01*
X30828579Y-20473432D01*
G37*
D13*
X30483431Y-22133432D03*
D14*
G36*
X30398579Y-22133432D02*
X30483431Y-22048579D01*
X30568284Y-22133432D01*
X30483431Y-22218284D01*
X30398579Y-22133432D01*
X30398579Y-22133432D01*
G37*
D13*
X30596568Y-22246569D03*
D14*
G36*
X30511716Y-22246569D02*
X30596568Y-22161716D01*
X30681421Y-22246569D01*
X30596568Y-22331421D01*
X30511716Y-22246569D01*
X30511716Y-22246569D01*
G37*
D13*
X26913431Y-22256569D03*
D14*
G36*
X26913431Y-22171716D02*
X26998284Y-22256569D01*
X26913431Y-22341421D01*
X26828579Y-22256569D01*
X26913431Y-22171716D01*
X26913431Y-22171716D01*
G37*
D13*
X27026568Y-22143432D03*
D14*
G36*
X27026568Y-22058579D02*
X27111421Y-22143432D01*
X27026568Y-22228284D01*
X26941716Y-22143432D01*
X27026568Y-22058579D01*
X27026568Y-22058579D01*
G37*
D13*
X26636568Y-20483432D03*
D14*
G36*
X26636568Y-20398579D02*
X26721421Y-20483432D01*
X26636568Y-20568284D01*
X26551716Y-20483432D01*
X26636568Y-20398579D01*
X26636568Y-20398579D01*
G37*
D13*
X26523431Y-20596569D03*
D14*
G36*
X26523431Y-20511716D02*
X26608284Y-20596569D01*
X26523431Y-20681421D01*
X26438579Y-20596569D01*
X26523431Y-20511716D01*
X26523431Y-20511716D01*
G37*
D13*
X26413431Y-19416569D03*
D14*
G36*
X26413431Y-19331716D02*
X26498284Y-19416569D01*
X26413431Y-19501421D01*
X26328579Y-19416569D01*
X26413431Y-19331716D01*
X26413431Y-19331716D01*
G37*
D13*
X26526568Y-19303432D03*
D14*
G36*
X26526568Y-19218579D02*
X26611421Y-19303432D01*
X26526568Y-19388284D01*
X26441716Y-19303432D01*
X26526568Y-19218579D01*
X26526568Y-19218579D01*
G37*
D13*
X26586568Y-18113432D03*
D14*
G36*
X26586568Y-18028579D02*
X26671421Y-18113432D01*
X26586568Y-18198284D01*
X26501716Y-18113432D01*
X26586568Y-18028579D01*
X26586568Y-18028579D01*
G37*
D13*
X26473431Y-18226569D03*
D14*
G36*
X26473431Y-18141716D02*
X26558284Y-18226569D01*
X26473431Y-18311421D01*
X26388579Y-18226569D01*
X26473431Y-18141716D01*
X26473431Y-18141716D01*
G37*
D13*
X31066568Y-18216569D03*
D14*
G36*
X30981716Y-18216569D02*
X31066568Y-18131716D01*
X31151421Y-18216569D01*
X31066568Y-18301421D01*
X30981716Y-18216569D01*
X30981716Y-18216569D01*
G37*
D13*
X30953431Y-18103432D03*
D14*
G36*
X30868579Y-18103432D02*
X30953431Y-18018579D01*
X31038284Y-18103432D01*
X30953431Y-18188284D01*
X30868579Y-18103432D01*
X30868579Y-18103432D01*
G37*
D15*
X28550000Y-16970000D03*
X28550000Y-17290000D03*
X29050000Y-16970000D03*
X29050000Y-17290000D03*
D16*
X28825000Y-13600000D03*
D17*
X28725000Y-22610000D03*
X28875000Y-22610000D03*
D18*
X29923000Y-16216000D03*
X29923000Y-15962000D03*
X29923000Y-15708000D03*
X29923000Y-15454000D03*
X29923000Y-15200000D03*
X29923000Y-14946000D03*
X29923000Y-14692000D03*
X29923000Y-14438000D03*
X27637000Y-14438000D03*
X27637000Y-14692000D03*
X27637000Y-14946000D03*
X27637000Y-15200000D03*
X27637000Y-15454000D03*
X27637000Y-15708000D03*
X27637000Y-15962000D03*
X27637000Y-16216000D03*
M02*
